<svg width="133" height="32" viewBox="0 0 133 32" fill="none" xmlns="http://www.w3.org/2000/svg">
<g clip-path="url(#clip0_890_67713)">
<g clip-path="url(#clip1_890_67713)">
<path fill-rule="evenodd" clip-rule="evenodd" d="M5.29155 12.2015C5.29155 11.0823 6.39725 10.3713 8.35856 10.3713C10.4252 10.3713 12.6102 10.9243 14.3214 12.1225C14.5321 12.2673 14.8348 12.241 14.9928 12.0566L16.9541 9.80515C17.1252 9.60765 17.0989 9.33115 16.8882 9.18632C14.7821 7.67217 12.0311 6.88217 8.76661 6.88217C3.65933 6.88217 0.526509 9.43648 0.526509 12.5175C0.526509 19.4826 13.0578 17.2443 13.0578 20.4437C13.0578 21.5365 11.8468 22.5109 9.26681 22.5109C6.4894 22.5109 4.2385 21.5102 2.69842 20.2857C2.50097 20.1277 2.21139 20.1409 2.05343 20.3516L0.10529 22.7084C-0.052667 22.9059 -0.0263409 23.1955 0.171106 23.3535C2.21139 24.9467 5.10727 26 9.08253 26C14.9269 26 17.7965 23.4457 17.7965 20.0619C17.7965 13.1495 5.29155 15.1244 5.29155 12.2015Z" fill="#009FA7"/>
<path fill-rule="evenodd" clip-rule="evenodd" d="M36.9751 16.1251C38.7258 15.7696 40.1606 14.1896 40.1606 11.8723C40.1606 9.41016 38.3572 7.14551 34.8295 7.14551H23.246C22.9959 7.14551 22.7853 7.35617 22.7853 7.6195V10.1606C22.7853 10.424 22.9959 10.6346 23.246 10.6346H33.9739C35.3034 10.6346 36.1458 11.4378 36.1458 12.5701C36.1458 13.7025 35.3034 14.5056 33.9739 14.5056H23.246C22.9959 14.5056 22.7853 14.7163 22.7853 14.9796V17.5208C22.7853 17.7709 22.9959 17.9816 23.246 17.9816H34.145C35.672 17.9816 36.5012 18.9296 36.5012 20.1014C36.5012 21.4312 35.6061 22.208 34.145 22.208H23.246C22.9959 22.208 22.7853 22.4187 22.7853 22.6689V25.21C22.7853 25.4602 22.9959 25.6709 23.246 25.6709H35.1323C38.6863 25.6709 40.516 23.4457 40.516 20.6544C40.516 18.3502 38.9627 16.4279 36.9619 16.1251H36.9751Z" fill="#009FA7"/>
<path d="M57.2859 7.18497H62.1694L68.7641 25.6708H64.6704L63.4857 22.2343H55.9696L54.7849 25.6708H50.6912L57.2859 7.18497ZM62.1957 18.6662L59.8 11.6748H59.6684L57.2727 18.6662H62.2089H62.1957Z" fill="#111827"/>
<path d="M76.4382 25.9341C75.5431 25.9341 74.727 25.7761 73.9899 25.4733C73.2527 25.1705 72.6077 24.7097 72.0812 24.0908C71.5547 23.472 71.1203 22.7215 70.8307 21.8262C70.528 20.9309 70.3832 19.8775 70.3832 18.6794C70.3832 17.4812 70.528 16.4542 70.8307 15.5457C71.1335 14.6372 71.5415 13.8736 72.0812 13.2679C72.6209 12.6623 73.2527 12.1883 73.9899 11.8854C74.727 11.5826 75.5431 11.4246 76.4382 11.4246C76.9647 11.4246 77.4386 11.4773 77.8467 11.5958C78.2547 11.7143 78.6233 11.8591 78.9392 12.0303C79.2551 12.2014 79.5184 12.3989 79.729 12.5964C79.9396 12.7939 80.1107 12.9783 80.2555 13.1363H80.3871V7.18497H84.086V25.6708H80.9137L80.5188 24.0908H80.3871C80.1897 24.3147 79.9659 24.5385 79.7158 24.7623C79.4657 24.9862 79.1761 25.1836 78.8602 25.3548C78.5443 25.526 78.1889 25.6708 77.7808 25.7761C77.3728 25.8815 76.9252 25.9341 76.4382 25.9341ZM77.228 22.6293C77.6492 22.6293 78.0573 22.5503 78.439 22.4055C78.8207 22.2607 79.163 22.0237 79.4526 21.6945C79.7421 21.3653 79.9659 20.9572 80.137 20.4569C80.3082 19.9565 80.3871 19.364 80.3871 18.6794C80.3871 17.9947 80.3082 17.4022 80.137 16.9019C79.9659 16.4016 79.7421 15.9802 79.4526 15.6642C79.163 15.3482 78.8207 15.0981 78.439 14.9532C78.0573 14.8084 77.6492 14.7294 77.228 14.7294C76.8068 14.7294 76.3987 14.8084 76.017 14.9532C75.6353 15.0981 75.293 15.3351 75.0034 15.6642C74.7138 15.9934 74.4901 16.4016 74.3189 16.9019C74.1478 17.4022 74.0688 17.9947 74.0688 18.6794C74.0688 19.364 74.1478 19.9565 74.3189 20.4569C74.4901 20.9572 74.7138 21.3785 75.0034 21.6945C75.293 22.0105 75.6353 22.2607 76.017 22.4055C76.3987 22.5503 76.8068 22.6293 77.228 22.6293Z" fill="#111827"/>
<path d="M88.2982 11.6748H91.4705L91.8654 13.2548H91.997C92.4051 12.6623 92.8658 12.2014 93.3923 11.8854C93.9188 11.5694 94.5507 11.4114 95.2878 11.4114C95.8801 11.4114 96.4066 11.4904 96.8279 11.6484C97.2622 11.8064 97.6308 12.0039 97.9336 12.2278C98.2363 12.4516 98.4864 12.7018 98.6707 12.9651C98.855 13.2284 98.9998 13.4523 99.1051 13.6498H99.2367C99.342 13.4523 99.5 13.2284 99.7106 12.9651C99.9212 12.7018 100.198 12.4516 100.553 12.2278C100.908 12.0039 101.316 11.8064 101.79 11.6484C102.264 11.4904 102.817 11.4114 103.449 11.4114C104.199 11.4114 104.897 11.5431 105.529 11.7933C106.161 12.0434 106.7 12.4121 107.148 12.8861C107.595 13.3601 107.951 13.9394 108.201 14.6241C108.451 15.3087 108.583 16.0856 108.583 16.9414V25.6577H104.884V17.4681C104.884 16.9809 104.818 16.5464 104.699 16.2041C104.581 15.8486 104.41 15.5721 104.199 15.3482C103.989 15.1244 103.738 14.9664 103.449 14.8611C103.159 14.7557 102.843 14.7031 102.514 14.7031C101.922 14.7031 101.395 14.9269 100.948 15.3877C100.5 15.8486 100.277 16.5464 100.277 17.4681V25.6577H96.5778V17.4681C96.5778 16.9809 96.512 16.5464 96.3935 16.2041C96.275 15.8486 96.1039 15.5721 95.8933 15.3482C95.6827 15.1244 95.4326 14.9664 95.143 14.8611C94.8534 14.7557 94.5375 14.7031 94.2084 14.7031C93.6161 14.7031 93.0895 14.9532 92.642 15.4404C92.1945 15.9276 91.9707 16.6122 91.9707 17.4681V25.6577H88.2719V11.6748H88.2982Z" fill="#111827"/>
<path d="M114.466 10.2265C113.874 10.2265 113.361 10.029 112.966 9.62079C112.558 9.21263 112.36 8.7123 112.36 8.1198C112.36 7.52731 112.558 7.02698 112.966 6.61881C113.374 6.21065 113.874 6.01315 114.466 6.01315C115.059 6.01315 115.572 6.21065 115.967 6.61881C116.362 7.02698 116.573 7.52731 116.573 8.1198C116.573 8.7123 116.375 9.22579 115.967 9.62079C115.559 10.029 115.059 10.2265 114.466 10.2265ZM112.624 11.6748H116.322V25.6708H112.624V11.6748Z" fill="#111827"/>
<path d="M120.456 11.6748H123.628L124.023 13.2548H124.154C124.615 12.6623 125.155 12.2014 125.787 11.8854C126.419 11.5694 127.103 11.4114 127.84 11.4114C128.577 11.4114 129.288 11.5431 129.92 11.7933C130.552 12.0434 131.091 12.4253 131.539 12.9124C131.987 13.3996 132.342 14.0052 132.592 14.6899C132.842 15.3746 132.974 16.1777 132.974 17.0731V25.6577H129.275V17.5997C129.275 16.6649 129.051 15.9539 128.617 15.4536C128.182 14.9532 127.564 14.7031 126.774 14.7031C125.984 14.7031 125.339 14.9664 124.865 15.5062C124.378 16.0461 124.141 16.7439 124.141 17.5997V25.6577H120.443V11.6748H120.456Z" fill="#111827"/>
</g>
</g>
<defs>
<clipPath id="clip0_890_67713">
<rect width="133" height="20" fill="white" transform="translate(0 6)"/>
</clipPath>
<clipPath id="clip1_890_67713">
<rect width="133" height="20" fill="white" transform="translate(0 6)"/>
</clipPath>
</defs>
</svg>
