<svg width="24" height="18" viewBox="0 0 24 18" fill="none" xmlns="http://www.w3.org/2000/svg">
<g clip-path="url(#clip0_63_46525)">
<path d="M0 0H24V18H0V0Z" fill="#EE1C25"/>
<path d="M0 0H24V12H0V0Z" fill="#0B4EA2"/>
<path d="M0 0H24V6H0V0Z" fill="white"/>
<path d="M8.7375 13.905C7.125 13.1287 4.815 11.5837 4.815 8.53497C4.815 5.48247 4.965 4.09497 4.965 4.09497H12.5138C12.5138 4.09497 12.66 5.48247 12.66 8.53497C12.66 11.5875 10.35 13.125 8.7375 13.905Z" fill="white"/>
<path d="M8.73751 13.5C7.25626 12.7875 5.13751 11.37 5.13751 8.5725C5.13751 5.775 5.27251 4.5 5.27251 4.5H12.2025C12.2025 4.5 12.3338 5.775 12.3338 8.5725C12.3375 11.3738 10.2188 12.7875 8.73751 13.5Z" fill="#EE1C25"/>
<path d="M9.05251 7.83754C9.45376 7.84504 10.2375 7.86004 10.9313 7.62754C10.9313 7.62754 10.9163 7.87879 10.9163 8.16754C10.9163 8.45629 10.935 8.70754 10.935 8.70754C10.2975 8.49379 9.50626 8.49004 9.05251 8.49379V10.0388H8.42251V8.49379C7.97251 8.49004 7.18126 8.49379 6.54376 8.70754C6.54376 8.70754 6.56251 8.45629 6.56251 8.16754C6.56251 7.87504 6.54376 7.62754 6.54376 7.62754C7.23751 7.86004 8.02126 7.84504 8.41876 7.83754V6.86629C8.05501 6.86629 7.53001 6.88129 6.93376 7.08004C6.93376 7.08004 6.95251 6.83254 6.95251 6.54004C6.95251 6.25129 6.93376 6.00004 6.93376 6.00004C7.53001 6.19879 8.05501 6.21754 8.41876 6.21379C8.40001 5.59879 8.22001 4.82629 8.22001 4.82629C8.22001 4.82629 8.59126 4.85254 8.73751 4.85254C8.88751 4.85254 9.25501 4.82629 9.25501 4.82629C9.25501 4.82629 9.07501 5.59879 9.05626 6.21379C9.42001 6.21754 9.94501 6.19879 10.5413 6.00004C10.5413 6.00004 10.5225 6.25129 10.5225 6.54004C10.5225 6.83254 10.5413 7.08004 10.5413 7.08004C10.0607 6.92508 9.55728 6.8528 9.05251 6.86629V7.84129V7.83754Z" fill="white"/>
<path d="M8.73751 9.87378C7.99126 9.87378 7.59376 10.905 7.59376 10.905C7.59376 10.905 7.36876 10.4175 6.76126 10.4175C6.34876 10.4175 6.04876 10.7813 5.85376 11.1225C6.60376 12.3113 7.80001 13.0463 8.73751 13.5C9.67501 13.05 10.875 12.3113 11.6213 11.1225C11.4263 10.785 11.1263 10.4175 10.7138 10.4175C10.1063 10.4175 9.88126 10.905 9.88126 10.905C9.88126 10.905 9.48751 9.87378 8.73751 9.87378Z" fill="#0B4EA2"/>
</g>
<rect x="0.5" y="0.5" width="23" height="17" rx="1.5" stroke="#E5E7EB"/>
<defs>
<clipPath id="clip0_63_46525">
<rect width="24" height="18" rx="2" fill="white"/>
</clipPath>
</defs>
</svg>
