<svg xmlns="http://www.w3.org/2000/svg" xmlns:xlink="http://www.w3.org/1999/xlink"><symbol id="Accept-email" viewBox="0 0 24 24"><path fill-rule="evenodd" clip-rule="evenodd" d="M2 3.5a1 1 0 0 0-1 1v15a1 1 0 0 0 1 1h10v-2H3v-12l8.4 6.3a1 1 0 0 0 1.2 0L21 6.5V12h2V4.5a1 1 0 0 0-1-1H2Zm17 2H5l7 5.25 7-5.25ZM22 16h-4.586l.793-.793-1.414-1.414-2.5 2.5a1 1 0 0 0 0 1.414l2.5 2.5 1.414-1.414-.793-.793H22v-2Z"/></symbol><symbol id="Ad-product" viewBox="0 0 24 24"><path fill-rule="evenodd" clip-rule="evenodd" d="M11.553 1.106a1 1 0 0 1 .894 0l10 5A1 1 0 0 1 23 7v10a1 1 0 0 1-.553.894l-10 5a1 1 0 0 1-.894 0l-10-5A1 1 0 0 1 1 17V7a1 1 0 0 1 .553-.894l10-5ZM3 16.382V8.618l8 4v7.764l-8-4Zm10 4 8-4V8.618l-8 4v7.764Zm-1-9.5L19.764 7 17 5.618 9.236 9.5 12 10.882Zm-5-2.5L14.764 4.5 12 3.118 4.236 7 7 8.382Z"/></symbol><symbol id="Add-one" viewBox="0 0 24 24"><path fill-rule="evenodd" clip-rule="evenodd" d="M1 12C1 5.925 5.925 1 12 1s11 4.925 11 11-4.925 11-11 11S1 18.075 1 12Zm11-9a9 9 0 1 0 0 18 9 9 0 0 0 0-18Zm-1 8V8h2v3h3v2h-3v3h-2v-3H8v-2h3Z"/></symbol><symbol id="Add-picture" viewBox="0 0 24 24"><path fill-rule="evenodd" clip-rule="evenodd" d="M22 12a1 1 0 1 0-2 0v1.5l-1.706-1.28a2 2 0 0 0-2.614.186l-2.155 2.155-3.201-2.743a2 2 0 0 0-2.653.044L4 15.227V4.5a.5.5 0 0 1 .5-.5H12a1 1 0 1 0 0-2H4.5A2.5 2.5 0 0 0 2 4.5v15A2.5 2.5 0 0 0 4.5 22h15a2.5 2.5 0 0 0 2.5-2.5V12Zm-6.952 3.867 1.603 1.374-1.302 1.518-6.327-5.423L4 17.94v1.56a.5.5 0 0 0 .5.5h15a.5.5 0 0 0 .5-.5V16l-2.906-2.18-2.046 2.047ZM17 7h-2V5h2V3h2v2h2v2h-2v2h-2V7Z"/></symbol><symbol id="Add-three" viewBox="0 0 24 24"><path fill-rule="evenodd" clip-rule="evenodd" d="M4 2a2 2 0 0 0-2 2v3h2V4h3V2H4Zm9 14v-3h3v-2h-3V8h-2v3H8v2h3v3h2Zm9-2.5v-3h-2v3h2Zm-18-3v3H2v-3h2ZM20 4h-3V2h3a2 2 0 0 1 2 2v3h-2V4Zm2 16v-3h-2v3h-3v2h3a2 2 0 0 0 2-2ZM4 17v3h3v2H4a2 2 0 0 1-2-2v-3h2Zm9.5-15h-3v2h3V2Zm0 18h-3v2h3v-2Z"/></symbol><symbol id="Aiming" viewBox="0 0 24 24"><path fill-rule="evenodd" clip-rule="evenodd" d="M11 3.055A9.004 9.004 0 0 0 3.055 11H5.5v2H3.055A9.004 9.004 0 0 0 11 20.945V18.5h2v2.445A9.004 9.004 0 0 0 20.945 13H18v-2h2.945A9.004 9.004 0 0 0 13 3.055V5.5h-2V3.055ZM1 12C1 5.925 5.925 1 12 1s11 4.925 11 11-4.925 11-11 11S1 18.075 1 12Z"/></symbol><symbol id="All-application" viewBox="0 0 24 24"><path fill-rule="evenodd" clip-rule="evenodd" d="M4 2a2 2 0 0 0-2 2v5a2 2 0 0 0 2 2h5a2 2 0 0 0 2-2V4a2 2 0 0 0-2-2H4Zm0 2h5v5H4V4Zm0 9a2 2 0 0 0-2 2v5a2 2 0 0 0 2 2h5a2 2 0 0 0 2-2v-5a2 2 0 0 0-2-2H4Zm0 2h5v5H4v-5Zm9-11a2 2 0 0 1 2-2h5a2 2 0 0 1 2 2v5a2 2 0 0 1-2 2h-5a2 2 0 0 1-2-2V4Zm7 0h-5v5h5V4Zm-5 9a2 2 0 0 0-2 2v5a2 2 0 0 0 2 2h5a2 2 0 0 0 2-2v-5a2 2 0 0 0-2-2h-5Zm0 2h5v5h-5v-5Z"/></symbol><symbol id="Alphabetical-sorting-two" viewBox="0 0 24 24"><path fill-rule="evenodd" clip-rule="evenodd" d="M3.5 3h5.586L2.793 9.293A1 1 0 0 0 3.5 11h8V9H5.914l6.293-6.293A1 1 0 0 0 11.5 1h-8v2ZM19 19.586l2.293-2.293 1.414 1.414-4 4a1 1 0 0 1-1.414 0l-4-4 1.414-1.414L17 19.586V2h2v17.586ZM7.652 13a1 1 0 0 1 .887.565l3.862 8-1.801.87-2.993-6.199-3.219 6.223-1.776-.918 4.138-8a1 1 0 0 1 .902-.54Z"/></symbol><symbol id="Alphabetical-sorting" viewBox="0 0 24 24"><path fill-rule="evenodd" clip-rule="evenodd" d="M7.652 1a1 1 0 0 1 .887.565l3.862 8-1.801.87-2.993-6.199-3.219 6.223-1.776-.918 4.138-8A1 1 0 0 1 7.652 1ZM19 19.586l2.293-2.293 1.414 1.414-4 4a1 1 0 0 1-1.414 0l-4-4 1.414-1.414L17 19.586V2h2v17.586ZM3.5 15h5.586l-6.293 6.293A1 1 0 0 0 3.5 23h8v-2H5.914l6.293-6.293A1 1 0 0 0 11.5 13h-8v2Z"/></symbol><symbol id="Application-menu" viewBox="0 0 24 24"><path fill-rule="evenodd" clip-rule="evenodd" d="M5 7a2 2 0 1 0 0-4 2 2 0 0 0 0 4Zm7 0a2 2 0 1 0 0-4 2 2 0 0 0 0 4Zm9-2a2 2 0 1 1-4 0 2 2 0 0 1 4 0ZM5 14a2 2 0 1 0 0-4 2 2 0 0 0 0 4Zm9-2a2 2 0 1 1-4 0 2 2 0 0 1 4 0Zm5 2a2 2 0 1 0 0-4 2 2 0 0 0 0 4ZM7 19a2 2 0 1 1-4 0 2 2 0 0 1 4 0Zm5 2a2 2 0 1 0 0-4 2 2 0 0 0 0 4Zm9-2a2 2 0 1 1-4 0 2 2 0 0 1 4 0Z"/></symbol><symbol id="Application-two" viewBox="0 0 24 24"><path fill-rule="evenodd" clip-rule="evenodd" d="M6.75 4.5a2.25 2.25 0 1 0 0 4.5 2.25 2.25 0 0 0 0-4.5ZM2.5 6.75a4.25 4.25 0 1 1 8.5 0 4.25 4.25 0 0 1-8.5 0Zm12.5 0a2.25 2.25 0 1 1 4.5 0 2.25 2.25 0 0 1-4.5 0Zm2.25-4.25a4.25 4.25 0 1 0 0 8.5 4.25 4.25 0 0 0 0-8.5ZM15 17.25a2.25 2.25 0 1 1 4.5 0 2.25 2.25 0 0 1-4.5 0ZM17.25 13a4.25 4.25 0 1 0 0 8.5 4.25 4.25 0 0 0 0-8.5ZM4.5 17.25a2.25 2.25 0 1 1 4.5 0 2.25 2.25 0 0 1-4.5 0ZM6.75 13a4.25 4.25 0 1 0 0 8.5 4.25 4.25 0 0 0 0-8.5Z"/></symbol><symbol id="Application" viewBox="0 0 24 24"><path fill-rule="evenodd" clip-rule="evenodd" d="M4.423 2a1 1 0 0 0-.933.64L1.988 6.528C1.344 8.198 1.892 9.942 3.094 11H3.02v10a1 1 0 0 0 1 1h16a1 1 0 0 0 1-1V11h-.076c1.203-1.058 1.752-2.804 1.107-4.474L20.55 2.64a1 1 0 0 0-.933-.64H4.423Zm14.597 9.934a4.008 4.008 0 0 1-3.744-1.29A3.99 3.99 0 0 1 12.272 12h-.51a3.99 3.99 0 0 1-3.001-1.356 4.007 4.007 0 0 1-3.742 1.29V20h14v-8.066ZM11.764 10a2 2 0 0 1-2-2 1 1 0 1 0-2 0c0 1.1-.9 2-2.01 2-1.427 0-2.41-1.433-1.9-2.751L5.108 4h13.823l1.254 3.246c.51 1.32-.473 2.754-1.902 2.754-1.109 0-2.01-.9-2.01-2a1 1 0 1 0-2 0 2 2 0 0 1-2 2h-.51Z"/></symbol><symbol id="Arrow-circle-down" viewBox="0 0 24 24"><path fill-rule="evenodd" clip-rule="evenodd" d="M1 12C1 5.925 5.925 1 12 1s11 4.925 11 11-4.925 11-11 11S1 18.075 1 12Zm11-9a9 9 0 1 0 0 18 9 9 0 0 0 0-18Zm-1 11.086V7.5h2v6.586l2.793-2.793 1.414 1.414-4.5 4.5a1 1 0 0 1-1.414 0l-4.5-4.5 1.414-1.414L11 14.086Z"/></symbol><symbol id="Arrow-circle-left" viewBox="0 0 24 24"><path fill-rule="evenodd" clip-rule="evenodd" d="M1 12C1 5.925 5.925 1 12 1s11 4.925 11 11-4.925 11-11 11S1 18.075 1 12Zm11-9a9 9 0 1 0 0 18 9 9 0 0 0 0-18Zm-2.34 8.25h6.586v2H9.66l2.793 2.793-1.414 1.414-4.5-4.5a1 1 0 0 1 0-1.414l4.5-4.5 1.414 1.414L9.66 11.25Z"/></symbol><symbol id="Arrow-circle-right" viewBox="0 0 24 24"><path fill-rule="evenodd" clip-rule="evenodd" d="M1 12C1 5.925 5.925 1 12 1s11 4.925 11 11-4.925 11-11 11S1 18.075 1 12Zm11-9a9 9 0 1 0 0 18 9 9 0 0 0 0-18Zm1.832 10.25H7.245v-2h6.585L11.04 8.457l1.414-1.414 4.5 4.5a1 1 0 0 1 0 1.414l-4.5 4.5-1.414-1.414 2.793-2.793Z"/></symbol><symbol id="Arrow-circle-up" viewBox="0 0 24 24"><path fill-rule="evenodd" clip-rule="evenodd" d="M1 12C1 5.925 5.925 1 12 1s11 4.925 11 11-4.925 11-11 11S1 18.075 1 12Zm11-9a9 9 0 1 0 0 18 9 9 0 0 0 0-18Zm1 7.164v6.586h-2v-6.586l-2.793 2.793-1.414-1.414 4.5-4.5a1 1 0 0 1 1.414 0l4.5 4.5-1.414 1.414L13 10.164Z"/></symbol><symbol id="At-sign" viewBox="0 0 24 24"><path fill-rule="evenodd" clip-rule="evenodd" d="M12 1C5.925 1 1 5.925 1 12s4.925 11 11 11c2.743 0 5.254-1.005 7.18-2.666l-1.306-1.515A8.961 8.961 0 0 1 12 21a9 9 0 1 1 9-9 2 2 0 1 1-4 0V8h-2a5 5 0 1 0 1.143 6.8A4 4 0 0 0 23 12c0-6.075-4.925-11-11-11Zm3 11a3 3 0 1 0-6 0 3 3 0 0 0 6 0Z"/></symbol><symbol id="Attention" viewBox="0 0 24 24"><path fill-rule="evenodd" clip-rule="evenodd" d="M4.222 4.222A10.969 10.969 0 0 1 12 1c3.037 0 5.789 1.232 7.778 3.222l-.707.707.707-.707A10.969 10.969 0 0 1 23 12c0 3.037-1.232 5.789-3.222 7.778A10.969 10.969 0 0 1 12 23a10.969 10.969 0 0 1-7.778-3.222l.707-.707-.707.707A10.969 10.969 0 0 1 1 12c0-3.037 1.232-5.789 3.222-7.778ZM12 3a8.969 8.969 0 0 0-6.364 2.636A8.969 8.969 0 0 0 3 12a8.969 8.969 0 0 0 2.636 6.364A8.969 8.969 0 0 0 12 21a8.968 8.968 0 0 0 6.364-2.636A8.968 8.968 0 0 0 21 12a8.969 8.969 0 0 0-2.636-6.364A8.969 8.969 0 0 0 12 3Zm0 15.5a1.25 1.25 0 1 0 0-2.5 1.25 1.25 0 0 0 0 2.5ZM11 6v8h2V6h-2Z"/></symbol><symbol id="Back-one" viewBox="0 0 24 24"><path fill-rule="evenodd" clip-rule="evenodd" d="M10.432 9.198A7.074 7.074 0 0 1 13.5 8.5c4.089 0 7.5 3.527 7.5 8h2c0-5.468-4.2-10-9.5-10-1.402 0-2.734.32-3.932.894l.431.9-.431-.9c-2.574 1.233-4.517 3.629-5.25 6.53L2.8 11.9l-1.6 1.2 3 4a1 1 0 0 0 1.33.248l4-2.5-1.06-1.696-2.247 1.405c.563-2.409 2.148-4.372 4.209-5.36Z"/></symbol><symbol id="Bank-card-one" viewBox="0 0 24 24"><path fill-rule="evenodd" clip-rule="evenodd" d="M6 4.5a2 2 0 0 1 2-2h13a2 2 0 0 1 2 2v9a2 2 0 0 1-2 2h-1v-2h1v-9H8v2H6v-2Zm-5 6a2 2 0 0 1 2-2h13a2 2 0 0 1 2 2v9a2 2 0 0 1-2 2H3a2 2 0 0 1-2-2v-9Zm2 1V13h13v-2.5H3v1ZM3 15v4.5h13V15H3Zm6.5 3h-4v-2h4v2Zm3 0h1v-2h-1v2Z"/></symbol><symbol id="Bank-card" viewBox="0 0 24 24"><path fill-rule="evenodd" clip-rule="evenodd" d="M1 5a2 2 0 0 1 2-2h18a2 2 0 0 1 2 2v14a2 2 0 0 1-2 2H3a2 2 0 0 1-2-2V5Zm2 0v2h18V5H3Zm0 4v10h18V9H3Zm10.5 8H18v-2h-4.5v2Z"/></symbol><symbol id="Bolt-one" viewBox="0 0 16 16"><path d="M9.333.667c.368 0 .667.298.667.666v2h1.906c.42 0 .761.341.761.76V8a4.667 4.667 0 0 1-4 4.618v1.049c0 .184.149.333.333.333h3.667a.667.667 0 0 1 0 1.333H9c-.92 0-1.667-.746-1.667-1.666v-1.049a4.667 4.667 0 0 1-4-4.618V4.094c0-.42.341-.761.76-.761H6v-2a.667.667 0 0 1 1.333 0v2h1.334v-2c0-.368.298-.666.666-.666Z"/></symbol><symbol id="Bookmark" viewBox="0 0 24 24"><path fill-rule="evenodd" clip-rule="evenodd" d="M3 3a2 2 0 0 1 2-2h14a2 2 0 0 1 2 2v18a2 2 0 0 1-2 2H5a2 2 0 0 1-2-2V3Zm16 0h-1.5v8a1 1 0 0 1-1.723.691L13.5 9.311l-2.277 2.38A1 1 0 0 1 9.5 11V3H5v18h14V3Zm-7.5 0v5.508l1.277-1.336a1 1 0 0 1 1.446 0L15.5 8.508V3h-4Z"/></symbol><symbol id="Box" viewBox="0 0 24 24"><path fill-rule="evenodd" clip-rule="evenodd" d="M6.5 1.5a1 1 0 0 0-.752.341l-3.5 4 .076.067A1.99 1.99 0 0 0 2 7v13a2 2 0 0 0 2 2h16a2 2 0 0 0 2-2V7a1.99 1.99 0 0 0-.324-1.092l.077-.067-3.5-4A1 1 0 0 0 17.5 1.5h-11ZM18.36 5l-1.313-1.5H6.954L5.64 5H18.36ZM20 7H4v13h16V7Zm-5.025 6.004h-6v-2h6v2Z"/></symbol><symbol id="Calendar" viewBox="0 0 24 24"><path fill-rule="evenodd" clip-rule="evenodd" d="M8 1a1 1 0 0 1 1 1v.5h6V2a1 1 0 1 1 2 0v.5h3.5a2 2 0 0 1 2 2V20a2 2 0 0 1-2 2h-17a2 2 0 0 1-2-2V4.5a2 2 0 0 1 2-2H7V2a1 1 0 0 1 1-1Zm7 3.5V6a1 1 0 1 0 2 0V4.5h3.5v4h-17v-4H7V6a1 1 0 0 0 2 0V4.5h6Zm5.5 6h-17V20h17v-9.5ZM13 17a1 1 0 0 1 1-1h3a1 1 0 1 1 0 2h-3a1 1 0 0 1-1-1Zm-6-1a1 1 0 1 0 0 2h3a1 1 0 1 0 0-2H7Zm6-3a1 1 0 0 1 1-1h3a1 1 0 1 1 0 2h-3a1 1 0 0 1-1-1Zm-6-1a1 1 0 1 0 0 2h3a1 1 0 1 0 0-2H7Z"/></symbol><symbol id="Camera" viewBox="0 0 24 24"><path fill-rule="evenodd" clip-rule="evenodd" d="M8.106 2.553A1 1 0 0 1 9 2h6a1 1 0 0 1 .894.553L17.118 5H20.5A2.5 2.5 0 0 1 23 7.5v12a2.5 2.5 0 0 1-2.5 2.5h-17A2.5 2.5 0 0 1 1 19.5v-12A2.5 2.5 0 0 1 3.5 5h3.382l1.224-2.447ZM14.382 4l.5 1H9.118l.5-1h4.764ZM3.5 7h17a.5.5 0 0 1 .5.5v12a.5.5 0 0 1-.5.5h-17a.5.5 0 0 1-.5-.5v-12a.5.5 0 0 1 .5-.5ZM12 8.5a5 5 0 1 0 0 10 5 5 0 0 0 0-10Zm-3 5a3 3 0 1 1 6 0 3 3 0 0 1-6 0Z"/></symbol><symbol id="Caution" viewBox="0 0 16 16"><path d="M8 1c.238 0 .458.127.577.333l7.333 12.666A.667.667 0 0 1 15.333 15H.667a.668.668 0 0 1-.577-1.001L7.423 1.333A.667.667 0 0 1 8 1Zm0 10a.667.667 0 0 0-.667.666V12a.667.667 0 0 0 1.334 0v-.334A.667.667 0 0 0 8 11Zm-.001-5.333c-.368 0-.666.3-.666.667l.003 3.333a.667.667 0 0 0 1.333-.001l-.002-3.333c0-.368-.3-.666-.668-.666Z"/></symbol><symbol id="Check-correct" viewBox="0 0 24 24"><path fill-rule="evenodd" clip-rule="evenodd" d="M4 4.5a.5.5 0 0 1 .5-.5H15V2H4.5A2.5 2.5 0 0 0 2 4.5v15A2.5 2.5 0 0 0 4.5 22h15a2.5 2.5 0 0 0 2.5-2.5V10h-2v9.5a.5.5 0 0 1-.5.5h-15a.5.5 0 0 1-.5-.5v-15Zm9.814 10.081 7.5-10.5-1.628-1.162-6.886 9.64-4.175-3.34-1.25 1.562 5 4a1 1 0 0 0 1.439-.2Z"/></symbol><symbol id="Check-one-filled" viewBox="0 0 24 24"><path fill-rule="evenodd" clip-rule="evenodd" d="M12 1a10.969 10.969 0 0 0-7.778 3.222A10.969 10.969 0 0 0 1 12c0 3.037 1.232 5.789 3.222 7.778A10.969 10.969 0 0 0 12 23c3.037 0 5.789-1.232 7.778-3.222A10.969 10.969 0 0 0 23 12c0-3.037-1.232-5.789-3.222-7.778A10.969 10.969 0 0 0 12 1Zm-.293 14.707 6-6-1.414-1.414L11 13.586l-2.293-2.293-1.414 1.414 3 3a1 1 0 0 0 1.414 0Z"/></symbol><symbol id="Check-one" viewBox="0 0 24 24"><path fill-rule="evenodd" clip-rule="evenodd" d="M12 1a10.969 10.969 0 0 0-7.778 3.222A10.969 10.969 0 0 0 1 12c0 3.037 1.232 5.789 3.222 7.778l.707-.707-.707.707A10.969 10.969 0 0 0 12 23c3.037 0 5.789-1.232 7.778-3.222A10.969 10.969 0 0 0 23 12c0-3.037-1.232-5.789-3.222-7.778l-.707.707.707-.707A10.969 10.969 0 0 0 12 1ZM5.636 5.636A8.969 8.969 0 0 1 12 3a8.969 8.969 0 0 1 6.364 2.636A8.969 8.969 0 0 1 21 12a8.968 8.968 0 0 1-2.636 6.364A8.968 8.968 0 0 1 12 21a8.969 8.969 0 0 1-6.364-2.636A8.969 8.969 0 0 1 3 12a8.969 8.969 0 0 1 2.636-6.364Zm6.071 10.071 6-6-1.414-1.414L11 13.586l-2.293-2.293-1.414 1.414 3 3a1 1 0 0 0 1.414 0Z"/></symbol><symbol id="Check-small" viewBox="0 0 24 24"><path fill-rule="evenodd" clip-rule="evenodd" d="m20.707 7.707-10 10a1 1 0 0 1-1.414 0l-5-5 1.414-1.414L10 15.586l9.293-9.293 1.414 1.414Z"/></symbol><symbol id="Check" viewBox="0 0 24 24"><path fill-rule="evenodd" clip-rule="evenodd" d="M8.437 17.09 20.794 4.79l1.411 1.418-13.062 13a1 1 0 0 1-1.411 0l-5.938-5.91 1.411-1.417 5.232 5.207Z"/></symbol><symbol id="Close-one" viewBox="0 0 24 24"><path fill-rule="evenodd" clip-rule="evenodd" d="M1 12C1 5.925 5.925 1 12 1s11 4.925 11 11-4.925 11-11 11S1 18.075 1 12Zm11-9a9 9 0 1 0 0 18 9 9 0 0 0 0-18Zm0 7.586 2.121-2.122 1.414 1.415L13.415 12l2.12 2.121-1.414 1.415L12 13.414l-2.121 2.122-1.415-1.415L10.586 12 8.464 9.879 9.88 8.464l2.12 2.122Z"/></symbol><symbol id="Close-small" viewBox="0 0 24 24"><path fill-rule="evenodd" clip-rule="evenodd" d="m12 13.414 4.293 4.293 1.414-1.414L13.414 12l4.293-4.293-1.414-1.414L12 10.586 7.707 6.293 6.293 7.707 10.586 12l-4.293 4.293 1.414 1.414L12 13.414Z"/></symbol><symbol id="Close" viewBox="0 0 24 24"><path fill-rule="evenodd" clip-rule="evenodd" d="m12 13.414 7.293 7.293 1.414-1.414L13.414 12l7.293-7.293-1.414-1.414L12 10.586 4.707 3.293 3.293 4.707 10.586 12l-7.293 7.293 1.414 1.414L12 13.414Z"/></symbol><symbol id="Column" viewBox="0 0 24 24"><path fill-rule="evenodd" clip-rule="evenodd" d="M4.35 2A2.35 2.35 0 0 0 2 4.35v15.3A2.35 2.35 0 0 0 4.35 22h15.3A2.35 2.35 0 0 0 22 19.65V4.35A2.35 2.35 0 0 0 19.65 2H4.35ZM4 4.35A.35.35 0 0 1 4.35 4H11v16H4.35a.35.35 0 0 1-.35-.35V4.35ZM13 20h6.65a.35.35 0 0 0 .35-.35V4.35a.35.35 0 0 0-.35-.35H13v16Z"/></symbol><symbol id="Corner-up-left" viewBox="0 0 24 24"><path fill-rule="evenodd" clip-rule="evenodd" d="m7.293 6.293-4 4a1 1 0 0 0 0 1.414l4 4 1.414-1.414L6.414 12H18.5a.5.5 0 0 1 .5.5V19h2v-6.5a2.5 2.5 0 0 0-2.5-2.5H6.414l2.293-2.293-1.414-1.414Z"/></symbol><symbol id="Corner-up-right" viewBox="0 0 24 24"><path fill-rule="evenodd" clip-rule="evenodd" d="m17.586 10-2.293-2.293 1.414-1.414 4 4a1 1 0 0 1 0 1.414l-4 4-1.414-1.414L17.586 12H5.5a.5.5 0 0 0-.5.5V19H3v-6.5A2.5 2.5 0 0 1 5.5 10h12.086Z"/></symbol><symbol id="Cut" viewBox="0 0 24 24"><path fill-rule="evenodd" clip-rule="evenodd" d="M7.614 2.588a1 1 0 1 0-1.732 1l4.99 8.644-2.48 4.296a3.5 3.5 0 1 0 .188 3.636l1.031-1.748 2.416-4.184 2.352 4.073.997 1.775a3.5 3.5 0 1 0 .262-3.595l-2.456-4.253 4.934-8.546a1 1 0 1 0-1.732-1l-4.357 7.546-4.413-7.644Zm9.601 16.686a.986.986 0 0 0-.03-.057l-.036-.065a1.5 1.5 0 1 1 .066.122Zm-10.388-.076.004-.006a1.5 1.5 0 1 0-.003.006Z"/></symbol><symbol id="Cylinder" viewBox="0 0 24 24"><path fill-rule="evenodd" clip-rule="evenodd" d="M3.364 5.352c-.262-.186-.338-.308-.358-.352.02-.044.096-.166.358-.352.382-.27 1-.556 1.852-.811C6.91 3.329 9.308 3 12 3s5.09.329 6.784.837c.853.255 1.47.54 1.852.81.262.187.338.309.358.353-.02.044-.096.166-.358.352-.382.27-1 .556-1.852.811C17.09 6.671 14.692 7 12 7s-5.09-.329-6.784-.837c-.853-.255-1.47-.54-1.852-.81ZM12 1c-2.83 0-5.432.343-7.358.92-.957.288-1.804.65-2.435 1.097C1.603 3.445 1 4.1 1 5v14c0 .899.603 1.555 1.207 1.983.63.447 1.478.81 2.435 1.096C6.568 22.657 9.169 23 12 23c2.83 0 5.432-.343 7.358-.92.957-.288 1.804-.65 2.435-1.097C22.397 20.555 23 19.9 23 19V5c0-.899-.603-1.555-1.207-1.983-.63-.447-1.478-.81-2.435-1.096C17.432 1.343 14.831 1 12 1ZM3 16.55c.487-.24 1.043-.45 1.642-.63C6.568 15.344 9.169 15 12 15c2.83 0 5.432.343 7.358.92.6.18 1.155.39 1.642.63v-9.1c-.487.24-1.043.45-1.642.63C17.432 8.656 14.831 9 12 9c-2.83 0-5.432-.343-7.358-.92A10.6 10.6 0 0 1 3 7.45v9.1Zm.364 2.802c-.262-.186-.338-.308-.358-.352.02-.044.096-.166.358-.352.382-.27 1-.556 1.852-.811C6.91 17.329 9.308 17 12 17s5.09.329 6.784.837c.853.255 1.47.54 1.852.81.262.187.338.309.358.353-.02.044-.096.166-.358.352-.382.27-1 .556-1.852.811C17.09 20.671 14.692 21 12 21s-5.09-.329-6.784-.837c-.853-.255-1.47-.54-1.852-.81Z"/></symbol><symbol id="Delete-two" viewBox="0 0 24 24"><path fill-rule="evenodd" clip-rule="evenodd" d="M6.207 4.89A1 1 0 0 1 7 4.5h15a1 1 0 0 1 1 1v13a1 1 0 0 1-1 1H7a1 1 0 0 1-.793-.39l-5-6.5a1 1 0 0 1 0-1.22l5-6.5ZM7.492 6.5 3.262 12l4.23 5.5H21v-11H7.492Zm4.094 5.5-1.793-1.793 1.414-1.414L13 10.586l1.793-1.793 1.414 1.414L14.414 12l1.793 1.793-1.414 1.414L13 13.414l-1.793 1.793-1.414-1.414L11.586 12Z"/></symbol><symbol id="Delete" viewBox="0 0 24 24"><path fill-rule="evenodd" clip-rule="evenodd" d="M9.645 1a1 1 0 0 0-.877.52L7.408 4H2v2h1.5v16a1 1 0 0 0 1 1h15a1 1 0 0 0 1-1V6H22V4h-5.402L15.27 1.527A1 1 0 0 0 14.389 1H9.645Zm4.683 3-.537-1h-3.554l-.548 1h4.639ZM8 6H5.5v15h13V6H8Zm1 10.5V10h2v6.5H9Zm4-6.5v6.5h2V10h-2Z"/></symbol><symbol id="Double-down" viewBox="0 0 24 24"><path fill-rule="evenodd" clip-rule="evenodd" d="M6.707 5.293 12 10.586l5.293-5.293 1.414 1.414-6 6a1 1 0 0 1-1.414 0l-6-6 1.414-1.414Zm0 6L12 16.586l5.293-5.293 1.414 1.414-6 6a1 1 0 0 1-1.414 0l-6-6 1.414-1.414Z"/></symbol><symbol id="Double-left" viewBox="0 0 24 24"><path fill-rule="evenodd" clip-rule="evenodd" d="M12.707 6.707 7.414 12l5.293 5.293-1.414 1.414-6-6a1 1 0 0 1 0-1.414l6-6 1.414 1.414Zm6 0L13.414 12l5.293 5.293-1.414 1.414-6-6a1 1 0 0 1 0-1.414l6-6 1.414 1.414Z"/></symbol><symbol id="Double-right" viewBox="0 0 24 24"><path fill-rule="evenodd" clip-rule="evenodd" d="M5.293 6.707 10.586 12l-5.293 5.293 1.414 1.414 6-6a1 1 0 0 0 0-1.414l-6-6-1.414 1.414Zm6 0L16.586 12l-5.293 5.293 1.414 1.414 6-6a1 1 0 0 0 0-1.414l-6-6-1.414 1.414Z"/></symbol><symbol id="Double-up" viewBox="0 0 24 24"><path fill-rule="evenodd" clip-rule="evenodd" d="M12.707 5.293a1 1 0 0 0-1.414 0l-6 6 1.414 1.414L12 7.414l5.293 5.293 1.414-1.414-6-6Zm6 12-6-6a1 1 0 0 0-1.414 0l-6 6 1.414 1.414L12 13.414l5.293 5.293 1.414-1.414Z"/></symbol><symbol id="Down-c" viewBox="0 0 24 24"><path fill-rule="evenodd" clip-rule="evenodd" d="M12 1C5.925 1 1 5.925 1 12s4.925 11 11 11 11-4.925 11-11S18.075 1 12 1ZM3 12a9 9 0 1 1 18 0 9 9 0 0 1-18 0Zm5.207-2.207L12 13.586l3.793-3.793 1.414 1.414-4.5 4.5a1 1 0 0 1-1.414 0l-4.5-4.5 1.414-1.414Z"/></symbol><symbol id="Down-small" viewBox="0 0 24 24"><path fill-rule="evenodd" clip-rule="evenodd" d="M13.004 15.582V6h-2v9.59l-4.297-4.297-1.414 1.414 6 6a1 1 0 0 0 1.414 0l6-6-1.414-1.414-4.29 4.289Z"/></symbol><symbol id="Down" viewBox="0 0 24 24"><path fill-rule="evenodd" clip-rule="evenodd" d="M12 13.586 6.707 8.293 5.293 9.707l6 6a1 1 0 0 0 1.414 0l6-6-1.414-1.414L12 13.586Z"/></symbol><symbol id="Download-one" viewBox="0 0 24 24"><path fill-rule="evenodd" clip-rule="evenodd" d="m5.807 10 .263 1.108a4.002 4.002 0 1 0 2.024 7.741l.545 1.924A6 6 0 0 1 5.032 9.331a7 7 0 0 1 13.941.05 6.001 6.001 0 0 1-3.746 11.392l.546-1.924A4.006 4.006 0 0 0 20.866 15a4.002 4.002 0 0 0-3.07-3.892L18.059 10H17a5 5 0 0 0-10 0H5.807Zm10.463 5.71-3.566 3.538a1 1 0 0 1-1.413-.004l-3.467-3.479 1.417-1.411L11 16.119V10h2v6.137l1.861-1.847 1.409 1.42Zm-3.907 1.06h-.715l.356.356.359-.357Z"/></symbol><symbol id="Download" viewBox="0 0 24 24"><path fill-rule="evenodd" clip-rule="evenodd" d="m12.996 13.59 2.797-2.797 1.414 1.414-4.5 4.5a1 1 0 0 1-1.414 0l-4.5-4.5 1.414-1.414 2.79 2.789V3h2v10.59ZM22 12v9a1 1 0 0 1-1 1H3a1 1 0 0 1-1-1v-8.996h2V20h16v-8h2Z"/></symbol><symbol id="Drag" viewBox="0 0 24 24"><path fill-rule="evenodd" clip-rule="evenodd" d="M7.5 7a2 2 0 1 0 0-4 2 2 0 0 0 0 4Zm2 5a2 2 0 1 1-4 0 2 2 0 0 1 4 0Zm0 7a2 2 0 1 1-4 0 2 2 0 0 1 4 0Zm7-12a2 2 0 1 0 0-4 2 2 0 0 0 0 4Zm2 5a2 2 0 1 1-4 0 2 2 0 0 1 4 0Zm0 7a2 2 0 1 1-4 0 2 2 0 0 1 4 0Z"/></symbol><symbol id="Edit" viewBox="0 0 24 24"><path fill-rule="evenodd" clip-rule="evenodd" d="M16.555 2.293a1 1 0 0 0-1.415 0L4.792 12.653a1 1 0 0 0-.292.707V17a1 1 0 0 0 1 1h3.659a1 1 0 0 0 .707-.293L20.207 7.361a1 1 0 0 0 0-1.414l-3.652-3.654ZM6.5 13.773l9.348-9.358 2.238 2.239L8.744 16H6.5v-2.226ZM3.5 22h18v-2h-18v2Z"/></symbol><symbol id="Electric-drill" viewBox="0 0 16 16"><path d="M13.232 2.333a2 2 0 0 1 1.995 2.146l-.194 2.667a2 2 0 0 1-1.547 1.801l-1.222 3.363a2.063 2.063 0 0 1-3.876-1.41l.69-1.9H6.667A.667.667 0 0 1 6 8.333V8H4.667A.667.667 0 0 1 4 7.333v-1H1.333a.666.666 0 0 1 0-1.333H4V4c0-.368.299-.667.667-.667H6V3c0-.368.299-.667.667-.667h6.565Z"/></symbol><symbol id="Excel-one" viewBox="0 0 24 24"><path fill-rule="evenodd" clip-rule="evenodd" d="M4.5 4a.5.5 0 0 0-.5.5v15a.5.5 0 0 0 .5.5h15a.5.5 0 0 0 .5-.5v-15a.5.5 0 0 0-.5-.5h-15ZM2 4.5A2.5 2.5 0 0 1 4.5 2h15A2.5 2.5 0 0 1 22 4.5v15a2.5 2.5 0 0 1-2.5 2.5h-15A2.5 2.5 0 0 1 2 19.5v-15ZM9 7h6v2h-5v2h4v2h-4v2h5v2H9v-1H8V8h1V7Z"/></symbol><symbol id="Export" viewBox="0 0 24 24"><path fill-rule="evenodd" clip-rule="evenodd" d="M12.707 1.793a1 1 0 0 0-1.414 0l-6 6 1.414 1.414 4.297-4.297V16.5h2V4.918l4.289 4.29 1.414-1.415-6-6ZM5.638 17.979C6.805 19.358 8.764 20.5 12 20.5s5.195-1.142 6.362-2.52C19.558 16.564 20 14.806 20 13.5h2c0 1.693-.558 3.935-2.112 5.77-1.583 1.872-4.124 3.23-7.888 3.23-3.764 0-6.305-1.358-7.888-3.23C2.558 17.436 2 15.194 2 13.5h2c0 1.307.442 3.065 1.638 4.48Z"/></symbol><symbol id="Figma-component" viewBox="0 0 24 24"><path fill-rule="evenodd" clip-rule="evenodd" d="M12.707 1.793a1 1 0 0 0-1.414 0l-3.5 3.5a1 1 0 0 0 0 1.414l3.5 3.5a1 1 0 0 0 1.414 0l3.5-3.5a1 1 0 0 0 0-1.414l-3.5-3.5ZM12 8.086 9.914 6 12 3.914 14.086 6 12 8.086Zm4.207 9.207-3.5-3.5a1 1 0 0 0-1.414 0l-3.5 3.5a1 1 0 0 0 0 1.414l3.5 3.5a1 1 0 0 0 1.414 0l3.5-3.5a1 1 0 0 0 0-1.414ZM12 20.086 9.914 18 12 15.914 14.086 18 12 20.086Zm5.293-12.293a1 1 0 0 1 1.414 0l3.5 3.5a1 1 0 0 1 0 1.414l-3.5 3.5a1 1 0 0 1-1.414 0l-3.5-3.5a1 1 0 0 1 0-1.414l3.5-3.5ZM15.914 12 18 14.086 20.086 12 18 9.914 15.914 12ZM6.707 7.793a1 1 0 0 0-1.414 0l-3.5 3.5a1 1 0 0 0 0 1.414l3.5 3.5a1 1 0 0 0 1.414 0l3.5-3.5a1 1 0 0 0 0-1.414l-3.5-3.5ZM6 14.086 3.914 12 6 9.914 8.086 12 6 14.086Z"/></symbol><symbol id="Filter" viewBox="0 0 24 24"><path fill-rule="evenodd" clip-rule="evenodd" d="M2.092 4.082A1 1 0 0 1 3 3.5h18a1 1 0 0 1 .76 1.65l-6.96 8.128V21a1 1 0 0 1-1.443.897l-3.6-1.778a1 1 0 0 1-.557-.897v-5.944L2.24 5.15a1 1 0 0 1-.148-1.068ZM5.172 5.5l5.788 6.758a1 1 0 0 1 .24.65v5.693l1.6.79v-6.482a1 1 0 0 1 .24-.65L18.827 5.5H5.173Z"/></symbol><symbol id="Find" viewBox="0 0 24 24"><path fill-rule="evenodd" clip-rule="evenodd" d="M22 4.5H2v-2h20v2Zm-14.5 8H2v-2h5.5v2Zm-5.5 8h5.5v-2H2v2Zm8.5-7.75a5.25 5.25 0 1 1 9.39 3.23l2.82 2.84-1.42 1.41-2.912-2.934A5.25 5.25 0 0 1 10.5 12.75Zm5.25-3.25a3.25 3.25 0 1 0 0 6.5 3.25 3.25 0 0 0 0-6.5Z"/></symbol><symbol id="Fire-extinguisher" viewBox="0 0 16 16"><path d="M12.593.671a.667.667 0 0 1 .74.662v2a.667.667 0 0 1-.74.663l-2.126-.237A3.32 3.32 0 0 1 11.333 6v8c0 .737-.597 1.333-1.333 1.333H6A1.333 1.333 0 0 1 4.667 14V6c0-1.12.552-2.11 1.4-2.715A.661.661 0 0 1 6 3v-.01a8.115 8.115 0 0 0-.994.028c-.545.056-.945.197-1.201.454-.285.284-.397.56-.447.92-.04.3-.036.617-.03 1.037.003.171.005.36.005.571A.667.667 0 1 1 2 6c0-.15-.003-.302-.005-.455-.007-.461-.014-.925.042-1.333a2.799 2.799 0 0 1 .825-1.684l.11-.103c.562-.496 1.276-.67 1.897-.733.378-.04.777-.04 1.131-.035A.667.667 0 0 1 6.667 1h2.96l2.966-.329Z"/></symbol><symbol id="Gas" viewBox="0 0 16 16"><path d="M6.11.731a.666.666 0 0 1 .706.086c.088.072.189.15.298.238.662.522 1.674 1.321 2.443 2.447l.172.266c.389.641.7 1.4.92 2.023.033.09.063.18.091.267.15-.253.276-.578.325-.995a.666.666 0 0 1 1.242-.25c.199.35.335.592.468.897.13.299.253.648.443 1.217l.136.442c.282.989.313 1.69.313 2.33 0 3.17-2.564 5.634-5.667 5.634-3.084 0-5.667-2.339-5.667-5.527 0-.705.075-1.8.608-2.667l.256-.391c.243-.345.452-.569.693-.827.095-.102.194-.21.303-.331l.23-.256c.127-.139.203-.222.28-.322.1-.132.202-.294.403-.672.163-.305.323-.807.44-1.387a8.577 8.577 0 0 0 .183-1.62c0-.257.148-.491.38-.602Z"/></symbol><symbol id="Go-ahead" viewBox="0 0 24 24"><path fill-rule="evenodd" clip-rule="evenodd" d="M10.5 6.5c-5.3 0-9.5 4.532-9.5 10h2c0-4.473 3.411-8 7.5-8 1.094 0 2.131.25 3.068.698 2.061.987 3.646 2.95 4.21 5.358l-2.248-1.404-1.06 1.696 4 2.5a1 1 0 0 0 1.33-.248l3-4-1.6-1.2-1.518 2.025c-.733-2.902-2.676-5.298-5.25-6.53l-.431.9.431-.9A9.074 9.074 0 0 0 10.5 6.5Z"/></symbol><symbol id="Go-on" viewBox="0 0 24 24"><path fill-rule="evenodd" clip-rule="evenodd" d="m20 6.707.085.078-.085.091v-.169ZM19.234 6l-1.912-1.765 1.356-1.47 3.5 3.23a1 1 0 0 1 .055 1.416l-3.5 3.77-1.466-1.361L18.957 8H8.503C5.6 8 3.117 10.386 3.004 13.289 2.884 16.355 5.433 19 8.504 19H17v2H8.503C4.3 21 .842 17.414 1.006 13.211 1.16 9.234 4.525 6 8.503 6h10.73Z"/></symbol><symbol id="Hamburger-button" viewBox="0 0 24 24"><path fill-rule="evenodd" clip-rule="evenodd" d="M19.975 6.975h-16v-2h16v2Zm0 6h-16v-2h16v2Zm-16 6h16v-2h-16v2Z"/></symbol><symbol id="Headset-one" viewBox="0 0 24 24"><path fill-rule="evenodd" clip-rule="evenodd" d="M7 8a5 5 0 0 1 10 0v8a5 5 0 0 1-5 5h-1v2h1a7.001 7.001 0 0 0 6.941-6.088 5.002 5.002 0 0 0 0-9.824 7.001 7.001 0 0 0-13.882 0A5.002 5.002 0 0 0 5 16.9v.1h2V8Zm-2 6.83V9.17a3.001 3.001 0 0 0 0 5.66Zm14-5.66v5.66a3.001 3.001 0 0 0 0-5.66Z"/></symbol><symbol id="Help" viewBox="0 0 24 24"><path fill-rule="evenodd" clip-rule="evenodd" d="M4.222 4.222A10.969 10.969 0 0 1 12 1c3.037 0 5.789 1.232 7.778 3.222l-.707.707.707-.707A10.969 10.969 0 0 1 23 12c0 3.037-1.232 5.789-3.222 7.778A10.969 10.969 0 0 1 12 23a10.969 10.969 0 0 1-7.778-3.222l.707-.707-.707.707A10.969 10.969 0 0 1 1 12c0-3.037 1.232-5.789 3.222-7.778ZM12 3a8.969 8.969 0 0 0-6.364 2.636A8.969 8.969 0 0 0 3 12a8.969 8.969 0 0 0 2.636 6.364A8.969 8.969 0 0 0 12 21a8.968 8.968 0 0 0 6.364-2.636A8.968 8.968 0 0 0 21 12a8.969 8.969 0 0 0-2.636-6.364A8.969 8.969 0 0 0 12 3ZM8 9.312a4 4 0 1 1 5 3.874v1.126h-2v-2a1 1 0 0 1 1-1 2 2 0 1 0-2-2H8Zm5.25 8.25a1.25 1.25 0 1 1-2.5 0 1.25 1.25 0 0 1 2.5 0Z"/></symbol><symbol id="Home" viewBox="0 0 24 24"><path fill-rule="evenodd" clip-rule="evenodd" d="M11.375 2.22a1 1 0 0 1 1.25 0l7.5 6A1 1 0 0 1 20.5 9v12a1 1 0 0 1-1 1h-15a1 1 0 0 1-1-1V9a1 1 0 0 1 .375-.78l7.5-6ZM5.5 20h3v-5.5a1 1 0 0 1 1-1h5a1 1 0 0 1 1 1V20h3V9.48L12 4.28l-6.5 5.2V20Zm8 0v-4.5h-3V20h3Z"/></symbol><symbol id="Id-card-h" viewBox="0 0 24 24"><path fill-rule="evenodd" clip-rule="evenodd" d="M1 5a2 2 0 0 1 2-2h18a2 2 0 0 1 2 2v14a2 2 0 0 1-2 2H3a2 2 0 0 1-2-2V5Zm20 0H3v14h18V5ZM5.5 10.5a3 3 0 1 1 5.4 1.8c.972.73 1.6 1.891 1.6 3.2h-2a2 2 0 1 0-4 0h-2c0-1.309.628-2.47 1.6-3.2a2.987 2.987 0 0 1-.6-1.8Zm3 1a1 1 0 1 0 0-2 1 1 0 0 0 0 2ZM18 11h-4V9h4v2Zm-3 4h3v-2h-3v2Z"/></symbol><symbol id="Info" viewBox="0 0 24 24"><path fill-rule="evenodd" clip-rule="evenodd" d="M12 1a10.969 10.969 0 0 0-7.778 3.222A10.969 10.969 0 0 0 1 12c0 3.037 1.232 5.789 3.222 7.778l.707-.707-.707.707A10.969 10.969 0 0 0 12 23c3.037 0 5.789-1.232 7.778-3.222A10.969 10.969 0 0 0 23 12c0-3.037-1.232-5.789-3.222-7.778l-.707.707.707-.707A10.969 10.969 0 0 0 12 1ZM5.636 5.636A8.969 8.969 0 0 1 12 3a8.969 8.969 0 0 1 6.364 2.636A8.969 8.969 0 0 1 21 12a8.968 8.968 0 0 1-2.636 6.364A8.968 8.968 0 0 1 12 21a8.969 8.969 0 0 1-6.364-2.636A8.969 8.969 0 0 1 3 12a8.969 8.969 0 0 1 2.636-6.364ZM13.25 6.75a1.25 1.25 0 1 0-2.5 0 1.25 1.25 0 0 0 2.5 0Zm-2 2.25h1a1 1 0 0 1 1 1v6H14v2h-3.5v-2h.75V9Z"/></symbol><symbol id="Left-c" viewBox="0 0 24 24"><path fill-rule="evenodd" clip-rule="evenodd" d="M12 1C5.925 1 1 5.925 1 12s4.925 11 11 11 11-4.925 11-11S18.075 1 12 1ZM3 12a9 9 0 1 1 18 0 9 9 0 0 1-18 0Zm11.207-3.793L10.414 12l3.793 3.793-1.414 1.414-4.5-4.5a1 1 0 0 1 0-1.414l4.5-4.5 1.414 1.414Z"/></symbol><symbol id="Left-small-down" viewBox="0 0 24 24"><path fill-rule="evenodd" clip-rule="evenodd" d="m9.914 15.5 6.793-6.793-1.414-1.414L8.5 14.086V7.5h-2v9a1 1 0 0 0 1 1h9v-2H9.914Z"/></symbol><symbol id="Left-small-up" viewBox="0 0 24 24"><path fill-rule="evenodd" clip-rule="evenodd" d="M7.5 6.5a1 1 0 0 0-1 1v9h2V9.914l6.793 6.793 1.414-1.414L9.914 8.5H16.5v-2h-9Z"/></symbol><symbol id="Left-small" viewBox="0 0 24 24"><path fill-rule="evenodd" clip-rule="evenodd" d="m8.418 10.996 4.29-4.289-1.415-1.414-6 6a1 1 0 0 0 0 1.414l6 6 1.414-1.414-4.297-4.297H18v-2H8.418Z"/></symbol><symbol id="Left" viewBox="0 0 24 24"><path fill-rule="evenodd" clip-rule="evenodd" d="m10.914 12 5.293-5.293-1.414-1.414-6 6a1 1 0 0 0 0 1.414l6 6 1.414-1.414L10.914 12Z"/></symbol><symbol id="Lightning-fill" viewBox="0 0 16 16"><path d="M12.333.667a.667.667 0 0 1 .524 1.078l-2.819 3.588h3.629a.667.667 0 0 1 .49 1.12l-8 8.666a.666.666 0 0 1-1.136-.622L6.47 9H2.667a.667.667 0 0 1-.59-.976l3.666-7a.666.666 0 0 1 .59-.357h6Z"/></symbol><symbol id="Lightning" viewBox="0 0 24 24"><path fill-rule="evenodd" clip-rule="evenodd" d="M8.614 1.536A1 1 0 0 1 9.5 1h9a1 1 0 0 1 .786 1.618L15.057 8H20.5a1 1 0 0 1 .735 1.678l-12 13a1 1 0 0 1-1.702-.933l2.17-8.245H4a1 1 0 0 1-.886-1.464l5.5-10.5ZM10.105 3l-4.452 8.5H11a1 1 0 0 1 .967 1.255L10.49 18.37 18.216 10H13a1 1 0 0 1-.786-1.618L16.442 3h-6.337Z"/></symbol><symbol id="Like" viewBox="0 0 24 24"><path fill-rule="evenodd" clip-rule="evenodd" d="M1 9.5a6.5 6.5 0 0 1 11-4.69A6.5 6.5 0 0 1 23 9.5c0 3.134-1.836 6-3.977 8.162-2.15 2.172-4.78 3.81-6.708 4.45a1 1 0 0 1-.63 0c-1.927-.64-4.557-2.278-6.708-4.45C2.836 15.498 1 12.634 1 9.5ZM7.5 5A4.5 4.5 0 0 0 3 9.5c0 2.366 1.414 4.75 3.398 6.754 1.847 1.865 4.039 3.248 5.602 3.847 1.563-.599 3.755-1.982 5.602-3.847C19.586 14.251 21 11.866 21 9.5a4.5 4.5 0 0 0-8.182-2.587 1 1 0 0 1-1.636 0A4.494 4.494 0 0 0 7.5 5Z"/></symbol><symbol id="Link-two" viewBox="0 0 24 24"><path fill-rule="evenodd" clip-rule="evenodd" d="M3 9.5a3 3 0 0 1 3-3h8a3 3 0 1 1 0 6H9v2h5a5 5 0 0 0 0-10H6a5 5 0 0 0-3.75 8.308l1.5-1.324A2.985 2.985 0 0 1 3 9.5Zm7-1a5 5 0 0 0 0 10h8a5 5 0 0 0 3.75-8.307l-1.5 1.323A3 3 0 0 1 18 16.5h-8a3 3 0 1 1 0-6h5v-2h-5Z"/></symbol><symbol id="List-checkbox" viewBox="0 0 24 24"><path fill-rule="evenodd" clip-rule="evenodd" d="M2 2a1 1 0 0 0-1 1v4a1 1 0 0 0 1 1h4a1 1 0 0 0 1-1V3a1 1 0 0 0-1-1H2Zm1 4V4h2v2H3Zm19 0H10V4h12v2Zm-12 7h12v-2H10v2Zm0 7h12v-2H10v2Zm-8-4a1 1 0 0 0-1 1v4a1 1 0 0 0 1 1h4a1 1 0 0 0 1-1v-4a1 1 0 0 0-1-1H2Zm1 4v-2h2v2H3ZM1 10a1 1 0 0 1 1-1h4a1 1 0 0 1 1 1v4a1 1 0 0 1-1 1H2a1 1 0 0 1-1-1v-4Zm2 1v2h2v-2H3Z"/></symbol><symbol id="Lock" viewBox="0 0 24 24"><path fill-rule="evenodd" clip-rule="evenodd" d="M12 3a4 4 0 0 0-4 4v3h8V7a4 4 0 0 0-4-4ZM6 7v3H4a2 2 0 0 0-2 2v9a2 2 0 0 0 2 2h16a2 2 0 0 0 2-2v-9a2 2 0 0 0-2-2h-2V7A6 6 0 0 0 6 7Zm-2 5v9h16v-9H4Zm7 3v3h2v-3h-2Z"/></symbol><symbol id="Login" viewBox="0 0 24 24"><path fill-rule="evenodd" clip-rule="evenodd" d="M2 3a1 1 0 0 1 1-1h8.996v2H4v16h8v2H3a1 1 0 0 1-1-1V3Zm8.418 7.996 2.79-2.789-1.415-1.414-4.5 4.5a1 1 0 0 0 0 1.414l4.5 4.5 1.414-1.414-2.797-2.797H21v-2H10.418Z"/></symbol><symbol id="Logout" viewBox="0 0 24 24"><path fill-rule="evenodd" clip-rule="evenodd" d="M2 3a1 1 0 0 1 1-1h8.996v2H4v16h8v2H3a1 1 0 0 1-1-1V3Zm15.207 3.793 4.5 4.5a1 1 0 0 1 0 1.414l-4.5 4.5-1.414-1.414 2.797-2.797H8v-2h10.582l-2.789-2.789 1.414-1.414Z"/></symbol><symbol id="Magic-wand" viewBox="0 0 24 24"><path fill-rule="evenodd" clip-rule="evenodd" d="M3 12a9 9 0 1 1 9 9 8.957 8.957 0 0 1-4.1-.986l5.307-5.307a1 1 0 0 0 0-1.414l-2.5-2.5a1 1 0 0 0-1.414 0L3.986 16.1A8.958 8.958 0 0 1 3 12Zm2.116 5.798c.33.392.694.755 1.086 1.086L9.086 16 8 14.914l-2.884 2.884ZM11.086 14l-.586.586L9.414 13.5l.586-.586L11.086 14ZM12 1C5.925 1 1 5.925 1 12c0 2.334.728 4.5 1.97 6.282a11.058 11.058 0 0 0 2.748 2.749A10.954 10.954 0 0 0 12 23c6.075 0 11-4.925 11-11S18.075 1 12 1ZM8.5 6v2h2V6h-2Zm6 1.5V7h2v.5h.5v2h-.5v.5h-2v-.5H14v-2h.5Zm1.5 6v2h2v-2h-2Z"/></symbol><symbol id="Magic" viewBox="0 0 24 24"><path fill-rule="evenodd" clip-rule="evenodd" d="M14 2v3h2V2h-2Zm5.243 1.343L17.12 5.464l1.415 1.415 2.12-2.122-1.413-1.414Zm-9.9 1.414 2.121 2.122 1.415-1.415-2.122-2.12-1.414 1.413ZM8 10h3V8H8v2Zm14-2h-3v2h3V8Zm-1.343 5.243-2.121-2.122-1.415 1.415 2.122 2.12 1.414-1.413Zm-9.9 1.414 2.122-2.121L15.5 9.914 14.086 8.5l-2.622 2.621-2.12 2.122-7.28 7.278 1.415 1.414 7.278-7.278ZM16 16v-3h-2v3h2Z"/></symbol><symbol id="Mail-download" viewBox="0 0 24 24"><path fill-rule="evenodd" clip-rule="evenodd" d="M4 3a1 1 0 0 1 1-1h14a1 1 0 0 1 1 1v5h2a1 1 0 0 1 1 1v12a1 1 0 0 1-1 1H2a1 1 0 0 1-1-1V9a1 1 0 0 1 1-1h2V3Zm8.6 14.3L21 11v9H3v-9l8.4 6.3a1 1 0 0 0 1.2 0ZM6 10.75l6 4.5 6-4.5V4H6v6.75Zm7-1.164V6.5h-2v3.086l-.793-.793-1.414 1.414 2.5 2.5a1 1 0 0 0 1.414 0l2.5-2.5-1.414-1.414-.793.793Z"/></symbol><symbol id="Mail-open" viewBox="0 0 24 24"><path fill-rule="evenodd" clip-rule="evenodd" d="M12.568 1.177a1 1 0 0 0-1.135 0l-10 6.892.051.074A1 1 0 0 0 1 9v10.91C1 20.98 1.815 22 3 22h18c1.185 0 2-1.02 2-2.09V9a1 1 0 0 0-.484-.857l.052-.074-10-6.892Zm7.715 7.746L12 3.214l-8.283 5.71L12 14.306l8.283-5.384ZM3 19.91v-9.066l8.455 5.495a1 1 0 0 0 1.09 0L21 10.843v9.066a.15.15 0 0 1-.026.091H3.026A.15.15 0 0 1 3 19.91Z"/></symbol><symbol id="Mail" viewBox="0 0 24 24"><path fill-rule="evenodd" clip-rule="evenodd" d="M2 3.5a1 1 0 0 0-1 1v15a1 1 0 0 0 1 1h20a1 1 0 0 0 1-1v-15a1 1 0 0 0-1-1H2ZM21 12V6.5l-8.4 6.3a1 1 0 0 1-1.2 0L3 6.5v12h18V12Zm-2-6.5H5l7 5.25 7-5.25Z"/></symbol><symbol id="Message-emoji" viewBox="0 0 24 24"><path fill-rule="evenodd" clip-rule="evenodd" d="M2 2.5a1 1 0 0 0-1 1v15a1 1 0 0 0 1 1h2.5V21a1 1 0 0 0 1.447.894l4.79-2.394H22a1 1 0 0 0 1-1v-15a1 1 0 0 0-1-1H2Zm1 15v-13h18v13H10.5a.999.999 0 0 0-.447.106L6.5 19.382V18.5a1 1 0 0 0-1-1H3Zm13.5-8V7h-2v2.5h2ZM9.5 7v2.5h-2V7h2Zm-1.894 5.947L8.5 12.5l-.894.448v.001l.002.002.002.005.006.011a1.986 1.986 0 0 0 .07.127 5.1 5.1 0 0 0 .962 1.154c.706.627 1.81 1.252 3.352 1.252 1.543 0 2.646-.625 3.352-1.253a5.101 5.101 0 0 0 .962-1.153 2.881 2.881 0 0 0 .07-.127l.006-.011.002-.005.002-.002c0-.001 0-.002-.894-.449l.894.447.448-.894-1.79-.895-.443.888a2.277 2.277 0 0 1-.12.188 3.1 3.1 0 0 1-.466.519c-.419.372-1.066.747-2.023.747-.957 0-1.604-.375-2.023-.747a3.098 3.098 0 0 1-.568-.675 1.045 1.045 0 0 1-.018-.032l-.444-.888-1.789.895.448.894Z"/></symbol><symbol id="Message-one" viewBox="0 0 24 24"><path fill-rule="evenodd" clip-rule="evenodd" d="M2 2a1 1 0 0 0-1 1v15a1 1 0 0 0 1 1h7.086l2.207 2.207a1 1 0 0 0 1.414 0L14.914 19H22a1 1 0 0 0 1-1V3a1 1 0 0 0-1-1H2Zm1 15V4h18v13h-6.5a1 1 0 0 0-.707.293L12 19.086l-1.793-1.793A1 1 0 0 0 9.5 17H3Zm10.501-7.5H10.5v2h3.001v-2Zm2 0H18.5v2h-3v-2ZM8.5 9.5h-3v2h3v-2Z"/></symbol><symbol id="Minus-the-top" viewBox="0 0 24 24"><path fill-rule="evenodd" clip-rule="evenodd" d="M10.5 1.5a2 2 0 0 0-2 2v5h-5a2 2 0 0 0-2 2v10a2 2 0 0 0 2 2h10a2 2 0 0 0 2-2v-5h5a2 2 0 0 0 2-2v-10a2 2 0 0 0-2-2h-10Zm5 12h5v-10h-10v5h3a2 2 0 0 1 2 2v3Zm-5-3h-7v10h10v-10h-3Z"/></symbol><symbol id="Minus" viewBox="0 0 24 24"><path fill-rule="evenodd" clip-rule="evenodd" d="M19.25 13h-14v-2h14v2Z"/></symbol><symbol id="More-one" viewBox="0 0 24 24"><path fill-rule="evenodd" clip-rule="evenodd" d="M12 7.5a1.5 1.5 0 1 0 0-3 1.5 1.5 0 0 0 0 3Zm0 6a1.5 1.5 0 1 0 0-3 1.5 1.5 0 0 0 0 3Zm1.5 4a1.5 1.5 0 1 1-3 0 1.5 1.5 0 0 1 3 0Z"/></symbol><symbol id="More-three" viewBox="0 0 24 24"><path fill-rule="evenodd" clip-rule="evenodd" d="M12 1C5.925 1 1 5.925 1 12s4.925 11 11 11 11-4.925 11-11S18.075 1 12 1ZM3 12a9 9 0 1 1 18 0 9 9 0 0 1-18 0Zm9-3.75a1.25 1.25 0 1 1 0-2.5 1.25 1.25 0 0 1 0 2.5Zm0 5a1.25 1.25 0 1 1 0-2.5 1.25 1.25 0 0 1 0 2.5ZM10.75 17a1.25 1.25 0 1 0 2.5 0 1.25 1.25 0 0 0-2.5 0Z"/></symbol><symbol id="More-two" viewBox="0 0 24 24"><path fill-rule="evenodd" clip-rule="evenodd" d="M12 1C5.925 1 1 5.925 1 12s4.925 11 11 11 11-4.925 11-11S18.075 1 12 1ZM3 12a9 9 0 1 1 18 0 9 9 0 0 1-18 0Zm5.5 0a1.5 1.5 0 1 1-3 0 1.5 1.5 0 0 1 3 0Zm3.5 1.5a1.5 1.5 0 1 0 0-3 1.5 1.5 0 0 0 0 3Zm6.5-1.5a1.5 1.5 0 1 1-3 0 1.5 1.5 0 0 1 3 0Z"/></symbol><symbol id="More" viewBox="0 0 24 24"><path fill-rule="evenodd" clip-rule="evenodd" d="M6 13.5a1.5 1.5 0 1 0 0-3 1.5 1.5 0 0 0 0 3Zm6 0a1.5 1.5 0 1 0 0-3 1.5 1.5 0 0 0 0 3Zm7.5-1.5a1.5 1.5 0 1 1-3 0 1.5 1.5 0 0 1 3 0Z"/></symbol><symbol id="Paperclip" viewBox="0 0 24 24"><path fill-rule="evenodd" clip-rule="evenodd" d="M15.636 1.587a6.476 6.476 0 0 1 4.85 1.928 6.475 6.475 0 0 1 1.927 4.85c-.05 1.579-.658 3.073-1.574 3.989l-7.07 7.07-1.415-1.414 7.07-7.07c.499-.499.953-1.48.99-2.64a4.476 4.476 0 0 0-1.343-3.371 4.476 4.476 0 0 0-3.37-1.343c-1.161.038-2.142.491-2.64.99L3.515 14.12c-.177.177-.526.75-.595 1.505-.064.697.111 1.547.948 2.385.837.837 1.688 1.012 2.385.948.755-.069 1.328-.418 1.505-.595l9.192-9.192c.148-.149.34-.521.372-.995.03-.449-.092-.847-.372-1.127s-.678-.402-1.127-.372c-.474.032-.846.224-.994.372L8.11 13.768l-1.414-1.414 6.717-6.718c.56-.559 1.424-.897 2.276-.953.877-.059 1.893.172 2.674.953.781.781 1.012 1.797.954 2.674-.057.852-.395 1.717-.954 2.276l-9.192 9.192c-.53.53-1.55 1.065-2.738 1.173-1.248.113-2.695-.242-3.98-1.526C1.17 18.14.814 16.693.928 15.445c.108-1.189.642-2.208 1.173-2.738l9.546-9.546c.916-.916 2.41-1.523 3.99-1.574Z"/></symbol><symbol id="Parallel-gateway" viewBox="0 0 24 24"><path fill-rule="evenodd" clip-rule="evenodd" d="m13.521 1.393 9.192 9.193a2 2 0 0 1 0 2.828l-9.192 9.193a2 2 0 0 1-2.828 0L1.5 13.414a2 2 0 0 1 0-2.828l9.193-9.193a2 2 0 0 1 2.828 0ZM21.3 12l-9.192-9.192L2.915 12l9.192 9.192L21.299 12Zm-10.277-.997V7.767h2v3.236h3.235v2h-3.236v3.236h-2v-3.236H7.787v-2h3.236Z"/></symbol><symbol id="People-top-card" viewBox="0 0 24 24"><path fill-rule="evenodd" clip-rule="evenodd" d="M1 4a1 1 0 0 1 1-1h20a1 1 0 0 1 1 1v15a1 1 0 0 1-1 1h-7.086l-2.207 2.207a1 1 0 0 1-1.414 0L9.086 20H2a1 1 0 0 1-1-1V4Zm2 1v13h6.5a1 1 0 0 1 .707.293L12 20.086l1.793-1.793A1 1 0 0 1 14.5 18H21V5H3Zm9 3a1.5 1.5 0 1 0 0 3 1.5 1.5 0 0 0 0-3Zm2.746 3.67a3.5 3.5 0 1 0-5.493 0C7.636 12.516 6.5 14.096 6.5 16h2c0-1.55 1.453-3 3.5-3 2.047 0 3.5 1.45 3.5 3h2c0-1.904-1.135-3.484-2.754-4.33Z"/></symbol><symbol id="Percentage" viewBox="0 0 24 24"><path fill-rule="evenodd" clip-rule="evenodd" d="M5.5 4a1.5 1.5 0 1 0 0 3 1.5 1.5 0 0 0 0-3ZM2 5.5a3.5 3.5 0 1 1 7 0 3.5 3.5 0 0 1-7 0ZM18.5 17a1.5 1.5 0 1 0 0 3 1.5 1.5 0 0 0 0-3ZM15 18.5a3.5 3.5 0 1 1 7 0 3.5 3.5 0 0 1-7 0Zm5.293-16.207-18 18 1.414 1.414 18-18-1.414-1.414Z"/></symbol><symbol id="Picture-one" viewBox="0 0 24 24"><path fill-rule="evenodd" clip-rule="evenodd" d="M2 4.5A2.5 2.5 0 0 1 4.5 2h15A2.5 2.5 0 0 1 22 4.5v15a2.5 2.5 0 0 1-2.5 2.5h-15A2.5 2.5 0 0 1 2 19.5v-15ZM4.5 4a.5.5 0 0 0-.5.5v11l2.4-1.8a1 1 0 0 1 1.25.04l2.834 2.43 4.347-3.913a1 1 0 0 1 1.342.003L20 15.74V4.5a.5.5 0 0 0-.5-.5h-15ZM20 18.442l-4.504-4.094-4.327 3.895a1 1 0 0 1-1.32.016l-2.89-2.478L4 18v1.5a.5.5 0 0 0 .5.5h15a.5.5 0 0 0 .5-.5v-1.058ZM5.5 9a3.5 3.5 0 1 1 7 0 3.5 3.5 0 0 1-7 0ZM9 7.5a1.5 1.5 0 1 0 0 3 1.5 1.5 0 0 0 0-3Z"/></symbol><symbol id="Pin Filled" viewBox="0 0 24 24"><path fill-rule="evenodd" clip-rule="evenodd" d="M15.501 1.5a1 1 0 0 1 1.156.186l5.657 5.657a1 1 0 0 1-.85 1.697l-1.791-.257-2.957 5.32c.353.822.571 1.653.534 2.485-.046 1.037-.483 1.959-1.295 2.77a1 1 0 0 1-1.414 0l-3.28-3.28-7.445 5.504a1 1 0 0 1-1.4-1.396l5.489-7.463L4.642 9.46a1 1 0 0 1 0-1.415c.815-.816 1.764-1.258 2.807-1.311.838-.042 1.669.17 2.468.539l5.304-2.94-.261-1.796a1 1 0 0 1 .541-1.038Z"/></symbol><symbol id="Pin" viewBox="0 0 24 24"><path fill-rule="evenodd" clip-rule="evenodd" d="M15.501 1.5a1 1 0 0 1 1.156.186l5.657 5.657a1 1 0 0 1-.85 1.697l-1.791-.257-2.957 5.32c.353.822.571 1.653.534 2.485-.046 1.037-.483 1.959-1.295 2.77a1 1 0 0 1-1.414 0l-3.28-3.28-7.445 5.504a1 1 0 0 1-1.4-1.396l5.489-7.463L4.642 9.46a1 1 0 0 1 0-1.415c.815-.816 1.764-1.258 2.807-1.31.838-.043 1.669.169 2.468.538l5.304-2.94-.261-1.796a1 1 0 0 1 .541-1.037ZM6.89 8.879l3.037 3.037a1 1 0 0 1 .099 1.3L7.947 16.04l2.817-2.083a1 1 0 0 1 1.302.097l3.055 3.056a1.84 1.84 0 0 0 .131-.612c.023-.515-.141-1.157-.554-1.998a1 1 0 0 1 .024-.926l3.537-6.365a1 1 0 0 1 .613-.48l-1.596-1.596a1 1 0 0 1-.481.613l-6.371 3.531a1 1 0 0 1-.966.003c-.752-.413-1.384-.576-1.908-.55-.22.012-.44.057-.66.148Z"/></symbol><symbol id="Plus" viewBox="0 0 24 24"><path fill-rule="evenodd" clip-rule="evenodd" d="m11.02 13-.008 5.999 2 .002L13.02 13H19v-2h-5.978l.008-5.999-2-.002L11.022 11H5v2h6.02Z"/></symbol><symbol id="Preview-close-one" viewBox="0 0 24 24"><path fill-rule="evenodd" clip-rule="evenodd" d="m21.707 20.293-18-18-1.414 1.414 6.628 6.628a3.5 3.5 0 0 0 4.744 4.744l6.628 6.628 1.414-1.414Zm-9.623-6.795-1.582-1.582a1.5 1.5 0 0 0 1.581 1.581ZM12 7c-.59 0-1.172.079-1.743.22l-.482-1.94A9.223 9.223 0 0 1 12 5c3.11 0 5.835 1.677 7.71 3.23a21.65 21.65 0 0 1 2.863 2.882 12.399 12.399 0 0 1 .21.265l.012.017.004.005.002.002L22 12l.801.598v.001l-.002.002-.004.005-.012.017a11.606 11.606 0 0 1-.21.265 21.645 21.645 0 0 1-2.864 2.882l-1.276-1.54A19.656 19.656 0 0 0 20.708 12a19.646 19.646 0 0 0-2.275-2.23C16.688 8.323 14.413 7 12 7ZM22.8 12.598a1 1 0 0 0 0-1.196L22 12l.801.598ZM2.042 10.394A21.645 21.645 0 0 1 4.291 8.23l1.276 1.54A19.65 19.65 0 0 0 3.292 12a19.65 19.65 0 0 0 2.275 2.23C7.312 15.677 9.587 17 12 17c.595 0 1.182-.08 1.757-.224l.486 1.94A9.231 9.231 0 0 1 12 19c-3.11 0-5.835-1.677-7.71-3.23a21.64 21.64 0 0 1-2.863-2.882 12.141 12.141 0 0 1-.21-.265l-.012-.017-.004-.005-.002-.002L2 12l-.8-.598.002-.003.004-.005.012-.017a8.367 8.367 0 0 1 .21-.265c.142-.176.35-.423.615-.718ZM1.2 11.402a1 1 0 0 0 0 1.196l.8-.598a302.55 302.55 0 0 1-.8-.598Z"/></symbol><symbol id="Preview-close" viewBox="0 0 24 24"><path fill-rule="evenodd" clip-rule="evenodd" d="M3.778 10.451c-.698-.571-1.274-1.238-1.665-1.99l1.774-.923c.244.469.63.933 1.158 1.366C6.545 10.133 9.061 11 12 11c2.94 0 5.456-.867 6.955-2.096.529-.433.914-.897 1.158-1.366l1.774.924c-.39.75-.967 1.418-1.665 1.99a8.317 8.317 0 0 1-.199.157l2.19 2.19-1.415 1.413-2.534-2.534c-.787.376-1.657.68-2.585.9l.81 3.027-1.931.517-.86-3.209a16.5 16.5 0 0 1-3.408-.001l-.86 3.21-1.932-.517.812-3.03a12.98 12.98 0 0 1-2.57-.895l-2.533 2.532-1.414-1.414 2.187-2.187a8.481 8.481 0 0 1-.202-.16Z"/></symbol><symbol id="Preview-open" viewBox="0 0 24 24"><path fill-rule="evenodd" clip-rule="evenodd" d="M12 5C8.89 5 6.165 6.677 4.29 8.23a21.645 21.645 0 0 0-2.863 2.882 12.141 12.141 0 0 0-.21.265l-.012.017-.004.005-.002.002a1 1 0 0 0 0 1.197L2 12c-.801.598-.8.599-.8.6v.001l.005.005.012.017a8.762 8.762 0 0 0 .21.265A21.641 21.641 0 0 0 4.29 15.77C6.165 17.323 8.89 19 12 19c3.11 0 5.835-1.677 7.71-3.23a21.633 21.633 0 0 0 2.863-2.882 11.894 11.894 0 0 0 .21-.265l.012-.017.004-.005.002-.002a1 1 0 0 0 0-1.197L22 12c.802-.598.8-.599.8-.6V11.4l-.005-.005-.012-.017a7.615 7.615 0 0 0-.21-.265A21.637 21.637 0 0 0 19.71 8.23C17.835 6.677 15.11 5 12 5Zm10 7 .801.599L22 12ZM2 12l-.801-.599L2 12Zm1.53.269A18.064 18.064 0 0 1 3.291 12a19.65 19.65 0 0 1 2.275-2.23C7.312 8.323 9.587 7 12 7c2.413 0 4.688 1.323 6.433 2.77A19.656 19.656 0 0 1 20.708 12a19.656 19.656 0 0 1-2.275 2.23C16.688 15.677 14.413 17 12 17c-2.413 0-4.688-1.323-6.433-2.77A19.65 19.65 0 0 1 3.53 12.27ZM12 8.5a3.5 3.5 0 1 0 0 7 3.5 3.5 0 0 0 0-7ZM10.5 12a1.5 1.5 0 1 1 3 0 1.5 1.5 0 0 1-3 0Z"/></symbol><symbol id="Printer" viewBox="0 0 20 20"><path d="M15.833.833c.46 0 .834.374.834.834V7.5h1.666c.46 0 .834.373.834.833v7.5c0 .46-.374.834-.834.834H16.25v1.666c0 .46-.373.834-.833.834H4.583a.834.834 0 0 1-.833-.834v-1.666H1.667a.834.834 0 0 1-.834-.834v-7.5c0-.46.374-.833.834-.833h1.666V1.667c0-.46.374-.834.834-.834h11.666ZM5.417 17.5h9.166v-3.333H5.417V17.5ZM2.5 15h1.242v-1.667c0-.46.373-.833.833-.833h10.849c.46 0 .833.373.833.833V15H17.5V9.167h-15V15ZM5 7.5h10v-5H5v5Z"/></symbol><symbol id="Pull" viewBox="0 0 16 16"><path d="M7.872 1.347a.668.668 0 0 1 .255 0c.023.004.046.012.068.02.02.005.041.01.06.018.021.008.04.02.058.031.019.01.038.018.056.03a.669.669 0 0 1 .103.082l2 2a.667.667 0 0 1-.944.944l-.861-.863v6.57a1.332 1.332 0 0 1 .661 1.257H14c.368 0 .667.298.667.666V14l-.014.135a.668.668 0 0 1-.653.532H2a.668.668 0 0 1-.653-.532L1.333 14v-1.898c0-.368.299-.666.667-.666h4.672a1.332 1.332 0 0 1 .661-1.256V3.61l-.861.862a.667.667 0 0 1-.944-.944l2-2a.67.67 0 0 1 .102-.082c.018-.012.037-.02.056-.03.019-.01.037-.023.057-.031.02-.008.04-.013.06-.019.023-.007.046-.015.07-.02Z"/></symbol><symbol id="Pushpin" viewBox="0 0 24 24"><path d="M7.051 1.684A1 1 0 0 1 8 1h8a1 1 0 0 1 .6 1.8l-1.437 1.078 1.681 5.466a8.99 8.99 0 0 1 1.766 1.447C19.326 11.566 20 12.65 20 14a1 1 0 0 1-1 1h-4.22l-1.81 7.242a1 1 0 0 1-1.94 0L9.22 15H5a1 1 0 0 1-1-1c0-.746.277-1.426.611-1.983.338-.563.773-1.065 1.182-1.474a12.234 12.234 0 0 1 1.35-1.16l1.694-5.505L7.4 2.8a1 1 0 0 1-.349-1.116Z"/></symbol><symbol id="Reduce-one" viewBox="0 0 24 24"><path fill-rule="evenodd" clip-rule="evenodd" d="M12 1C5.925 1 1 5.925 1 12s4.925 11 11 11 11-4.925 11-11S18.075 1 12 1ZM3 12a9 9 0 1 1 18 0 9 9 0 0 1-18 0Zm5 1h8v-2H8v2Z"/></symbol><symbol id="Refresh-one" viewBox="0 0 24 24"><path fill-rule="evenodd" clip-rule="evenodd" d="M5 4.908A9.804 9.804 0 0 1 11.996 2a10 10 0 0 1 8.96 5.555l-1.791.89A8 8 0 0 0 11.995 4c-2.52 0-4.73 1.166-6.183 3H8v2H3V3h2v1.908Zm3.5 8.542a2 2 0 0 1 0-2.829L10.621 8.5a2 2 0 0 1 2.829 0l2.121 2.121a2 2 0 0 1 0 2.829L13.45 15.57a2 2 0 0 1-2.829 0l-2.12-2.121Zm3.536-3.536-2.122 2.122 2.122 2.12 2.121-2.12-2.121-2.122Zm-8.932 6.531A10 10 0 0 0 12.064 22a9.804 9.804 0 0 0 6.996-2.908V21h2v-6H16v2h2.248c-1.452 1.834-3.664 3-6.184 3a8 8 0 0 1-7.168-4.445l-1.792.89Z"/></symbol><symbol id="Return" viewBox="0 0 24 24"><path fill-rule="evenodd" clip-rule="evenodd" d="m5.85 3.24-3.5 3a1 1 0 0 0-.057 1.467l3.5 3.5 1.414-1.414L5.414 8h9.083c2.904 0 5.386 2.386 5.499 5.289.12 3.066-2.429 5.711-5.5 5.711H6v2h8.498c4.203 0 7.661-3.586 7.497-7.789C21.84 9.234 18.476 6 14.497 6H5.703l1.448-1.24-1.302-1.52Z"/></symbol><symbol id="Rewora Filled" viewBox="0 0 24 24"><path d="m12 20.488 6.53 2.341 1.418-1.035-.18-6.935L24 9.366l-.54-1.689-6.665-1.958L12.879 0h-1.756L7.205 5.719.54 7.677 0 9.366l4.233 5.493-.203 6.935 1.44 1.035L12 20.488Z"/></symbol><symbol id="Rewora" viewBox="0 0 24 24"><path fill-rule="evenodd" clip-rule="evenodd" d="m12 18.363 5.913 2.12-.163-6.282 3.843-4.988-6.045-1.776L12 2.257l-3.548 5.18-6.045 1.776 3.846 4.991-.184 6.286L12 18.363Zm-7.97 3.43.203-6.934L0 9.366l.54-1.689L7.205 5.72 11.122 0h1.756l3.918 5.719 6.664 1.958.54 1.689-4.233 5.493.18 6.935-1.418 1.035L12 20.488l-6.53 2.341-1.44-1.035Z"/></symbol><symbol id="Right-c" viewBox="0 0 24 24"><path fill-rule="evenodd" clip-rule="evenodd" d="M12 1C5.925 1 1 5.925 1 12s4.925 11 11 11 11-4.925 11-11S18.075 1 12 1ZM3 12a9 9 0 1 1 18 0 9 9 0 0 1-18 0Zm12.707-.707-4.5-4.5-1.414 1.414L13.586 12l-3.793 3.793 1.414 1.414 4.5-4.5a1 1 0 0 0 0-1.414Z"/></symbol><symbol id="Right-small-down" viewBox="0 0 24 24"><path fill-rule="evenodd" clip-rule="evenodd" d="M15.177 13.762 8.384 6.97 6.97 8.384l6.793 6.793H7.177v2h9a1 1 0 0 0 1-1v-9h-2v6.585Z"/></symbol><symbol id="Right-small-up" viewBox="0 0 24 24"><path fill-rule="evenodd" clip-rule="evenodd" d="M14.086 8.5H7.5v-2h9a1 1 0 0 1 1 1v9h-2V9.914l-6.793 6.793-1.414-1.414L14.086 8.5Z"/></symbol><symbol id="Right-small" viewBox="0 0 24 24"><path fill-rule="evenodd" clip-rule="evenodd" d="m15.59 11.004-4.297-4.297 1.414-1.414 6 6a1 1 0 0 1 0 1.414l-6 6-1.414-1.414 4.289-4.289H6v-2h9.59Z"/></symbol><symbol id="Right" viewBox="0 0 24 24"><path fill-rule="evenodd" clip-rule="evenodd" d="M14.086 12 8.793 6.707l1.414-1.414 6 6a1 1 0 0 1 0 1.414l-6 6-1.414-1.414L14.086 12Z"/></symbol><symbol id="Save" viewBox="0 0 24 24"><path fill-rule="evenodd" clip-rule="evenodd" d="M4 4.5a.5.5 0 0 1 .5-.5H6v2.692c0 .562.366.912.622 1.07.273.167.585.238.878.238h4c.293 0 .605-.071.878-.238.255-.158.621-.508.622-1.069L13.003 4h3.743L20 7.038V19.5a.5.5 0 0 1-.5.5h-15a.5.5 0 0 1-.5-.5v-15ZM4.5 2H17.141a1 1 0 0 1 .682.27l3.86 3.602a1 1 0 0 1 .317.731V19.5a2.5 2.5 0 0 1-2.5 2.5h-15A2.5 2.5 0 0 1 2 19.5v-15A2.5 2.5 0 0 1 4.5 2ZM17 14H7v-2h10v2ZM7 18h5.004v-2H7v2Z"/></symbol><symbol id="Search" viewBox="0 0 24 24"><path fill-rule="evenodd" clip-rule="evenodd" d="M10.5 1a9.5 9.5 0 0 0 0 19 9.46 9.46 0 0 0 5.973-2.113l3.674 3.674 1.414-1.415-3.674-3.673A9.46 9.46 0 0 0 20 10.5 9.5 9.5 0 0 0 10.5 1ZM3 10.5a7.5 7.5 0 1 1 15 0 7.5 7.5 0 0 1-15 0Z"/></symbol><symbol id="Send-email" viewBox="0 0 24 24"><path fill-rule="evenodd" clip-rule="evenodd" d="M2 3.5a1 1 0 0 0-1 1v15a1 1 0 0 0 1 1h10v-2H3v-12l8.4 6.3a1 1 0 0 0 1.2 0L21 6.5V12h2V4.5a1 1 0 0 0-1-1H2Zm17 2H5l7 5.25 7-5.25Zm-.207 13.293.793-.793H15v-2h4.586l-.793-.793 1.414-1.414 2.5 2.5a1 1 0 0 1 0 1.414l-2.5 2.5-1.414-1.414Z"/></symbol><symbol id="Setting-config" viewBox="0 0 24 24"><path fill-rule="evenodd" clip-rule="evenodd" d="M12.75 4V3h2v4h-2V6h-10V4h10Zm5 0h3v2h-3V4Zm-15 7h4v2h-4v-2Zm7-1v4h2v-1h10v-2h-10v-1h-2Zm11 8h-3v2h3v-2Zm-8 0v-1h2v4h-2v-1h-10v-2h10Z"/></symbol><symbol id="Setting-two" viewBox="0 0 24 24"><path fill-rule="evenodd" clip-rule="evenodd" d="M10.217 1.907a1 1 0 0 0-1.158-.51 10.984 10.984 0 0 0-4.548 2.546 1 1 0 0 0-.216 1.174A2 2 0 0 1 2.5 8h-.028a1 1 0 0 0-.968.7 11.046 11.046 0 0 0-.28 5.515 1 1 0 0 0 1.077.795 2 2 0 0 1 1.729 3.279 1 1 0 0 0 .043 1.338 10.997 10.997 0 0 0 4.784 2.917 1 1 0 0 0 1.237-.654 2.001 2.001 0 0 1 3.812 0 1 1 0 0 0 1.237.654 10.997 10.997 0 0 0 4.784-2.917 1 1 0 0 0 .043-1.338A2 2 0 0 1 21.7 15.01a1 1 0 0 0 1.078-.795 11.046 11.046 0 0 0-.28-5.515 1 1 0 0 0-.97-.7H21.5a2 2 0 0 1-1.795-2.883 1 1 0 0 0-.216-1.174 10.984 10.984 0 0 0-4.548-2.545 1 1 0 0 0-1.158.51 2 2 0 0 1-3.566 0ZM6.5 6c0-.352-.046-.694-.132-1.02a8.985 8.985 0 0 1 2.545-1.437A3.992 3.992 0 0 0 12 5a3.992 3.992 0 0 0 3.087-1.457c.93.34 1.787.828 2.545 1.436a4.002 4.002 0 0 0 3.13 4.953 9.028 9.028 0 0 1 .179 3.107 4 4 0 0 0-3.023 5.742 9 9 0 0 1-2.546 1.567A3.996 3.996 0 0 0 12 18.5a3.996 3.996 0 0 0-3.372 1.848 9.002 9.002 0 0 1-2.546-1.567A4 4 0 0 0 3.06 13.04a9.108 9.108 0 0 1 .18-3.107A4.001 4.001 0 0 0 6.5 6ZM12 7.5a4.5 4.5 0 1 0 0 9 4.5 4.5 0 0 0 0-9ZM9.5 12a2.5 2.5 0 1 1 5 0 2.5 2.5 0 0 1-5 0Z"/></symbol><symbol id="Shop" viewBox="0 0 24 24"><path fill-rule="evenodd" clip-rule="evenodd" d="M3 2a1 1 0 0 1 1-1h16a1 1 0 0 1 1 1v3h1a1 1 0 0 1 1 1v4a1 1 0 0 1-.485.857l-.7.42a4.495 4.495 0 0 1-.815.384V22a1 1 0 0 1-1 1H4a1 1 0 0 1-1-1V11.661c-.28-.1-.554-.227-.815-.384l-.7-.42A1 1 0 0 1 1 10V6a1 1 0 0 1 1-1h1V2Zm7.5 19h3v-4h-3v4Zm5 0v-5a1 1 0 0 0-1-1h-5a1 1 0 0 0-1 1v5H5v-9.11a4.495 4.495 0 0 0 1.815-.613l.185-.11.185.11a4.5 4.5 0 0 0 4.63 0l.185-.11.185.11a4.5 4.5 0 0 0 4.63 0l.185-.11.185.11a4.494 4.494 0 0 0 1.815.614V21h-3.5ZM19 3v2H5V3h14ZM3 9.434V7h18v2.434l-.214.128a2.5 2.5 0 0 1-2.572 0l-.7-.42a1 1 0 0 0-1.029 0l-.699.42a2.5 2.5 0 0 1-2.572 0l-.7-.42a1 1 0 0 0-1.028 0l-.7.42a2.5 2.5 0 0 1-2.572 0l-.7-.42a1 1 0 0 0-1.029 0l-.699.42a2.5 2.5 0 0 1-2.572 0L3 9.434Z"/></symbol><symbol id="Shopping-bag" viewBox="0 0 24 24"><path fill-rule="evenodd" clip-rule="evenodd" d="M12 3.5c2.114 0 3.988 1.665 4.411 4H7.59c.423-2.335 2.297-4 4.411-4Zm9.5 4h-3.067c-.446-3.332-3.091-6-6.433-6-3.342 0-5.987 2.668-6.433 6H2.5a1 1 0 0 0-.987 1.16l2.1 13a1 1 0 0 0 .987.84h14.8a1 1 0 0 0 .987-.84l2.1-13A1 1 0 0 0 21.5 7.5Zm-17.825 2 1.776 11H18.55l1.777-11H3.675ZM9.5 13a1 1 0 1 1-2 0 1 1 0 0 1 2 0Zm-1.332 4.055L9 16.5l.832-.555v-.001l-.002-.002-.001-.002-.002-.003.003.006.012.015a2.84 2.84 0 0 0 .508.492c.37.278.915.55 1.65.55.735 0 1.28-.272 1.65-.55a2.84 2.84 0 0 0 .508-.492.609.609 0 0 0 .015-.02l-.002.002-.001.003h-.001v.002L15 16.5l.832.555-.001.001-.001.002-.003.004-.006.01-.018.024-.054.075a4.839 4.839 0 0 1-.899.88c-.63.47-1.585.949-2.85.949a4.701 4.701 0 0 1-2.85-.95 4.84 4.84 0 0 1-.899-.88 2.785 2.785 0 0 1-.054-.074l-.018-.025-.006-.01-.003-.003-.001-.002Zm1.659-1.118c-.001 0-.001 0 0 0ZM16.5 13a1 1 0 1 1-2 0 1 1 0 0 1 2 0Z"/></symbol><symbol id="Shopping-cart-one" viewBox="0 0 24 24"><path fill-rule="evenodd" clip-rule="evenodd" d="M6.113 6.61 1.945 3.833l1.11-1.664 4.5 3a1 1 0 0 1 .42.61L10.298 16h8.454l.588-2H12.5v-2h7.428l.735-2.5H12.5v-2H22a1 1 0 0 1 .96 1.282l-2.5 8.5a1 1 0 0 1-.96.718h-10a1 1 0 0 1-.975-.778L6.113 6.61ZM12 20.75a1.75 1.75 0 1 1-3.5 0 1.75 1.75 0 0 1 3.5 0Zm8.5 0a1.75 1.75 0 1 1-3.5 0 1.75 1.75 0 0 1 3.5 0Z"/></symbol><symbol id="Shopping" viewBox="0 0 24 24"><path fill-rule="evenodd" clip-rule="evenodd" d="M2.47 4H1.5V2h1.75a1 1 0 0 1 .97.757L4.78 5H22a1 1 0 0 1 .97 1.243l-2.5 10a1 1 0 0 1-.97.757h-13a1 1 0 0 1-.97-.758L2.47 4ZM6.5 17a2.5 2.5 0 1 1 0 5 2.5 2.5 0 0 1 0-5Zm13 0a2.5 2.5 0 1 1 0 5 2.5 2.5 0 0 1 0-5ZM5.28 7l2 8h11.44l2-8H5.28ZM6.5 19a.5.5 0 1 0 0 1 .5.5 0 0 0 0-1Zm12.5.5a.5.5 0 1 1 1 0 .5.5 0 0 1-1 0Z"/></symbol><symbol id="Sort Alt" viewBox="0 0 24 24"><path d="M12.64 18.142a.904.904 0 0 1-1.389 0l-3.04-3.649a.904.904 0 0 1 .694-1.482h6.08a.904.904 0 0 1 .695 1.482l-3.04 3.649ZM11.252 5.325a.904.904 0 0 1 1.388 0l3.04 3.648a.904.904 0 0 1-.694 1.482h-6.08a.904.904 0 0 1-.695-1.482l3.04-3.648Z"/></symbol><symbol id="Sort-amount-down" viewBox="0 0 24 24"><path fill-rule="evenodd" clip-rule="evenodd" d="M11.5 5h10V3h-10v2ZM3.707 15.793 6 18.086V3.5h2v17H7l-.707.707-4-4 1.414-1.414ZM11.5 10h8V8h-8v2Zm6 5h-6v-2h6v2Zm-6 5h4v-2h-4v2Z"/></symbol><symbol id="Sort-amount-up" viewBox="0 0 24 24"><path fill-rule="evenodd" clip-rule="evenodd" d="M3.207 8.707 5.5 6.414V21h2V4h-1l-.707-.707-4 4 1.414 1.414ZM11.5 5.5h10v-2h-10v2Zm0 5h8v-2h-8v2Zm6 5h-6v-2h6v2Zm-6 5h4v-2h-4v2Z"/></symbol><symbol id="Sort-one" viewBox="0 0 24 24"><path fill-rule="evenodd" clip-rule="evenodd" d="M3 6.75h11.5v-2H3v2Zm0 6.5h11.5v-2H3v2Zm14 5.5v-13h2v10.297l1.24-1.448 1.52 1.302-3 3.5A1 1 0 0 1 17 18.75Zm-14 1h11.5v-2H3v2Z"/></symbol><symbol id="Sort-three" viewBox="0 0 24 24"><path fill-rule="evenodd" clip-rule="evenodd" d="M8.707 1.793a1 1 0 0 0-1.414 0l-4.5 4.5 1.414 1.414 2.79-2.789V15.5h2V4.91l2.796 2.797 1.414-1.414-4.5-4.5Zm6.79 17.289-2.79-2.79-1.414 1.415 4.5 4.5a1 1 0 0 0 1.414 0l4.5-4.5-1.414-1.414-2.797 2.797V8.5h-2v10.582Z"/></symbol><symbol id="Sort" viewBox="0 0 24 24"><path fill-rule="evenodd" clip-rule="evenodd" d="M12.822 2.43a1 1 0 0 0-1.644 0l-4.5 6.5A1 1 0 0 0 7.5 10.5h9a1 1 0 0 0 .822-1.57l-4.5-6.5Zm1.77 6.07H9.408L12 4.757 14.591 8.5Zm-7.092 5a1 1 0 0 0-.822 1.57l4.5 6.5a1 1 0 0 0 1.644 0l4.5-6.5a1 1 0 0 0-.822-1.57h-9Zm4.5 5.743L9.409 15.5h5.182L12 19.243Z"/></symbol><symbol id="Star" viewBox="0 0 24 24"><path fill-rule="evenodd" clip-rule="evenodd" d="M11.997 1.5a1 1 0 0 1 .898.555l2.864 5.77 6.385.931a1 1 0 0 1 .556 1.704l-4.645 4.549 1.103 6.32a1 1 0 0 1-1.456 1.053L12 19.343l-5.701 3.04a1 1 0 0 1-1.456-1.055l1.111-6.318-4.652-4.548a1 1 0 0 1 .556-1.705l6.42-.931 2.824-5.765a1 1 0 0 1 .896-.56Zm.008 3.261L9.841 9.18a1 1 0 0 1-.755.55l-4.94.716 3.583 3.502a1 1 0 0 1 .285.889l-.847 4.816 4.362-2.325a1 1 0 0 1 .94 0l4.366 2.327-.84-4.82a1 1 0 0 1 .285-.886l3.578-3.504-4.907-.716a1 1 0 0 1-.751-.545l-2.195-4.422Z"/></symbol><symbol id="Success" viewBox="0 0 24 24"><path fill-rule="evenodd" clip-rule="evenodd" d="M12.59 1.192a1 1 0 0 0-1.18 0L9.049 2.915 6.124 2.91a1 1 0 0 0-.954.693l-.898 2.782L1.903 8.1a1 1 0 0 0-.364 1.12L2.448 12l-.91 2.78a1 1 0 0 0 .365 1.12l2.37 1.715.897 2.782a1 1 0 0 0 .954.693l2.924-.005 2.363 1.723a1 1 0 0 0 1.178 0l2.363-1.723 2.924.005a1 1 0 0 0 .953-.693l.899-2.782 2.369-1.715a1 1 0 0 0 .364-1.12L21.552 12l.909-2.78a1 1 0 0 0-.364-1.12l-2.37-1.715-.898-2.782a1 1 0 0 0-.953-.693l-2.924.005-2.363-1.723ZM9.962 4.724 12 3.238l2.037 1.486a1 1 0 0 0 .591.192l2.522-.005.775 2.4a1 1 0 0 0 .365.503l2.043 1.478-.784 2.397a1 1 0 0 0 0 .622l.784 2.397-2.043 1.478a1 1 0 0 0-.365.503l-.775 2.4-2.522-.005a1 1 0 0 0-.59.192L12 20.762l-2.037-1.486a1 1 0 0 0-.592-.192l-2.521.005-.775-2.4a1 1 0 0 0-.366-.503l-2.042-1.478.783-2.397a1 1 0 0 0 0-.622l-.783-2.397 2.042-1.478a1 1 0 0 0 .366-.503l.775-2.4 2.521.005a1 1 0 0 0 .592-.192Zm1.744 10.483 5-5-1.414-1.414L11 13.086l-1.793-1.793-1.414 1.414 2.5 2.5a1 1 0 0 0 1.414 0Z"/></symbol><symbol id="Switch" viewBox="0 0 24 24"><path fill-rule="evenodd" clip-rule="evenodd" d="m18.586 8.5-4.293-4.293 1.414-1.414 6 6L21 9.5v1H3v-2h15.586Zm-12.772 7h15.585v-2h-18v1l-.707.707 6 6 1.415-1.414L5.814 15.5Z"/></symbol><symbol id="Table-report" viewBox="0 0 24 24"><path fill-rule="evenodd" clip-rule="evenodd" d="M3.5 3.5A.5.5 0 0 1 4 3h12a.5.5 0 0 1 .5.5V21H4a.5.5 0 0 1-.5-.5v-17Zm14 19.5H4a2.5 2.5 0 0 1-2.5-2.5v-17A2.5 2.5 0 0 1 4 1h12a2.5 2.5 0 0 1 2.5 2.5V10h2a2 2 0 0 1 2 2v8.5A2.5 2.5 0 0 1 20 23h-2.5Zm1-11v9H20a.5.5 0 0 0 .5-.5V12h-2Zm-9-5h-4V5h4v2Zm-4 3.5h6v-2h-6v2Z"/></symbol><symbol id="Tag-one" viewBox="0 0 24 24"><path fill-rule="evenodd" clip-rule="evenodd" d="M4 3a1 1 0 0 0-1 1v9a1 1 0 0 0 .293.707l8.084 8.075a2.8 2.8 0 0 0 3.962 0l6.453-6.452.002-.002a2.8 2.8 0 0 0 0-3.948l-8.087-8.087A1 1 0 0 0 13 3H4Zm1 9.585V5h7.586l7.79 7.79a.8.8 0 0 1 0 1.127l-6.452 6.452a.8.8 0 0 1-1.132 0L5 12.585Zm5.5-3.335a1.25 1.25 0 1 1-2.5 0 1.25 1.25 0 0 1 2.5 0Z"/></symbol><symbol id="Tag" viewBox="0 0 24 24"><path fill-rule="evenodd" clip-rule="evenodd" d="M5 1a2 2 0 0 0-2 2v19a1 1 0 0 0 1.46.888L12 18.99l7.54 3.9A1 1 0 0 0 21 22V3a2 2 0 0 0-2-2H5Zm0 2h14v17.357l-6.54-3.382a1 1 0 0 0-.92 0L5 20.357V3Zm3 7h8V8H8v2Z"/></symbol><symbol id="Time" viewBox="0 0 24 24"><path fill-rule="evenodd" clip-rule="evenodd" d="M12 1C5.925 1 1 5.925 1 12s4.925 11 11 11 11-4.925 11-11S18.075 1 12 1ZM3 12a9 9 0 1 1 18 0 9 9 0 0 1-18 0Zm10.004-6a1 1 0 1 0-2 0v6.004a1 1 0 0 0 .293.707l4.24 4.24a1 1 0 0 0 1.413-1.414l-3.946-3.947V6Z"/></symbol><symbol id="Tips-one" viewBox="0 0 24 24"><path fill-rule="evenodd" clip-rule="evenodd" d="M1 4a1 1 0 0 1 1-1h20a1 1 0 0 1 1 1v15a1 1 0 0 1-1 1h-7.086l-2.207 2.207a1 1 0 0 1-1.414 0L9.086 20H2a1 1 0 0 1-1-1V4Zm2 1v13h6.5a1 1 0 0 1 .707.293L12 20.086l1.793-1.793A1 1 0 0 1 14.5 18H21V5H3Zm10 5.5V17h-2v-6.5h2Zm0-1V7h-2v2.5h2Z"/></symbol><symbol id="To-top" viewBox="0 0 24 24"><path fill-rule="evenodd" clip-rule="evenodd" d="M6 4h12V2H6v2Zm5.293 2.293a1 1 0 0 1 1.414 0l6 6-1.414 1.414-4.29-4.289V21h-2V9.41l-4.296 4.297-1.414-1.414 6-6Z"/></symbol><symbol id="Transfer-data" viewBox="0 0 24 24"><path fill-rule="evenodd" clip-rule="evenodd" d="m4.293 3.293-3 3a1 1 0 0 0 0 1.414l3 3 1.414-1.414L4.414 8H22V6H4.414l1.293-1.293-1.414-1.414ZM19.586 18H2v-2h17.586l-1.293-1.293 1.414-1.414 3 3a1 1 0 0 1 0 1.414l-3 3-1.414-1.414L19.586 18Z"/></symbol><symbol id="Translate" viewBox="0 0 24 24"><path fill-rule="evenodd" clip-rule="evenodd" d="M7.446 4.5 7.05 3.316l1.898-.632.5 1.5L8.5 4.5H14v2h-1.227a20.49 20.49 0 0 1-.566 1.698c-.52 1.358-1.363 3.106-2.624 4.393a9.936 9.936 0 0 1-.05.05c.892.585 1.911 1.12 2.801 1.543a34.34 34.34 0 0 0 1.989.869l.027.01.007.003L14 16l-.358.934-.004-.002-.01-.003-.034-.014a18.6 18.6 0 0 1-.584-.238 36.375 36.375 0 0 1-1.535-.687c-1.056-.503-2.37-1.192-3.489-1.984a27.165 27.165 0 0 1-2.36 1.644 32.937 32.937 0 0 1-2.128 1.219l-.034.017-.01.005-.003.002H3.45L3 16l-.45-.893h.002l.006-.004.027-.014.111-.058a31.061 31.061 0 0 0 1.87-1.078 26.094 26.094 0 0 0 1.89-1.293c-.72-.805-1.25-1.689-1.622-2.428a13.544 13.544 0 0 1-.743-1.786 6.922 6.922 0 0 1-.037-.12l-.01-.034-.004-.011v-.004l-.001-.002.96-.275.962-.275v.001l.006.019.027.085a11.542 11.542 0 0 0 .626 1.503c.335.665.786 1.398 1.36 2.032.06-.058.117-.116.174-.174.976-.995 1.7-2.442 2.185-3.71.136-.354.25-.687.345-.981H3v-2h4.446ZM17 11a1 1 0 0 1 .915.598l2.855 6.493 1.14 2.493-1.82.832-.875-1.916h-4.43l-.876 1.916-1.819-.832 1.14-2.493 2.854-6.493A1 1 0 0 1 17 11Zm1.325 6.5L17 14.485 15.675 17.5h2.65Z"/></symbol><symbol id="Translation" viewBox="0 0 24 24"><path fill-rule="evenodd" clip-rule="evenodd" d="M1.02 9.801C2.04 4.78 6.477 1 11.8 1c5.323 0 9.76 3.78 10.78 8.801l-1.96.398A9.004 9.004 0 0 0 3.533 8.435l1.15-.384.633 1.898-3 1A1 1 0 0 1 1.02 9.8ZM12 7a1 1 0 0 1 .916.6l3.5 8-1.832.8-.832-1.9h-3.504l-.832 1.9-1.832-.8 3.5-8A1 1 0 0 1 12 7Zm-.877 5.5h1.754L12 10.495l-.877 2.005Zm11.457 1.699a1 1 0 0 0-1.339-1.132l-2.6 1 .718 1.866.657-.252A9.003 9.003 0 0 1 2.98 13.8l-1.96.398C2.04 19.22 6.477 23 11.8 23c5.323 0 9.76-3.78 10.78-8.801Z"/></symbol><symbol id="Triangle-round-rectangle" viewBox="0 0 24 24"><path fill-rule="evenodd" clip-rule="evenodd" d="M12 1a1 1 0 0 1 .862.493l5 8.5A1 1 0 0 1 17 11.5H7a1 1 0 0 1-.862-1.507l5-8.5A1 1 0 0 1 12 1Zm3.252 8.5L12 3.972 8.748 9.5h6.504ZM2 14.5a1 1 0 0 1 1-1h7a1 1 0 0 1 1 1v7a1 1 0 0 1-1 1H3a1 1 0 0 1-1-1v-7Zm2 1v5h5v-5H4ZM18 13a5 5 0 1 0 0 10 5 5 0 0 0 0-10Zm-3 5a3 3 0 1 1 6 0 3 3 0 0 1-6 0Z"/></symbol><symbol id="Truck" viewBox="0 0 24 24"><path fill-rule="evenodd" clip-rule="evenodd" d="M0 5.5a1 1 0 0 1 1-1h14.5a1 1 0 0 1 1 1V8h3.286a1 1 0 0 1 .797.397l3.215 4.25a1 1 0 0 1 .202.603v4.25a1 1 0 0 1-1 1h-2.67a3.001 3.001 0 0 1-5.66 0H8.83a3.001 3.001 0 0 1-5.66 0H1a1 1 0 0 1-1-1v-12Zm20.33 11H22v-2.914L19.288 10H16.5v4.67a3.001 3.001 0 0 1 3.83 1.83Zm-5.83 0v-10H2v10h1.17a3.001 3.001 0 0 1 5.66 0h5.67Zm3 2a1 1 0 1 1 0-2 1 1 0 0 1 0 2ZM5 17.5a1 1 0 1 1 2 0 1 1 0 0 1-2 0Z"/></symbol><symbol id="Undo" viewBox="0 0 24 24"><path fill-rule="evenodd" clip-rule="evenodd" d="M12 2a9.972 9.972 0 0 0-7.07 2.929 37.8 37.8 0 0 0-.93.977V4.5H2v4a1 1 0 0 0 1 1h4v-2H5.25c.41-.446.814-.878 1.093-1.157a8 8 0 1 1 0 11.314L4.93 19.07A9.972 9.972 0 0 0 12 22c5.523 0 10-4.477 10-10S17.523 2 12 2Z"/></symbol><symbol id="Unlock" viewBox="0 0 24 24"><path fill-rule="evenodd" clip-rule="evenodd" d="M12 3a4 4 0 0 0-4 4v3h12a2 2 0 0 1 2 2v9a2 2 0 0 1-2 2H4a2 2 0 0 1-2-2v-9a2 2 0 0 1 2-2h2V7a6 6 0 0 1 12 0h-2a4 4 0 0 0-4-4Zm-8 9v9h16v-9H4Zm7 3v3h2v-3h-2Z"/></symbol><symbol id="Up-c" viewBox="0 0 24 24"><path fill-rule="evenodd" clip-rule="evenodd" d="M1 12C1 5.925 5.925 1 12 1s11 4.925 11 11-4.925 11-11 11S1 18.075 1 12Zm11-9a9 9 0 1 0 0 18 9 9 0 0 0 0-18Zm.707 5.293a1 1 0 0 0-1.414 0l-4.5 4.5 1.414 1.414L12 10.414l3.793 3.793 1.414-1.414-4.5-4.5Z"/></symbol><symbol id="Up-small" viewBox="0 0 24 24"><path fill-rule="evenodd" clip-rule="evenodd" d="M12.707 5.293a1 1 0 0 0-1.414 0l-6 6 1.414 1.414 4.297-4.297V18h2V8.418l4.289 4.29 1.414-1.415-6-6Z"/></symbol><symbol id="Up" viewBox="0 0 24 24"><path fill-rule="evenodd" clip-rule="evenodd" d="M11.793 8.293a1 1 0 0 1 1.414 0l6 6-1.414 1.414-5.293-5.293-5.293 5.293-1.414-1.414 6-6Z"/></symbol><symbol id="Upload-one" viewBox="0 0 24 24"><path fill-rule="evenodd" clip-rule="evenodd" d="m5.807 10 .263 1.108a4.002 4.002 0 1 0 2.024 7.741l.545 1.924A6 6 0 0 1 5.032 9.331a7 7 0 0 1 13.941.05 6.001 6.001 0 0 1-3.746 11.392l.546-1.924A4.006 4.006 0 0 0 20.866 15a4.002 4.002 0 0 0-3.07-3.892L18.059 10H17a5 5 0 0 0-10 0H5.807Zm5.484-.244a1 1 0 0 1 1.413-.004l3.566 3.538-1.409 1.42L13 12.863V19h-2v-6.118l-1.76 1.764-1.416-1.411 3.467-3.479Zm.357 2.475h.715l-.36-.357-.355.357Z"/></symbol><symbol id="Upload" viewBox="0 0 24 24"><path fill-rule="evenodd" clip-rule="evenodd" d="M11.293 2.293a1 1 0 0 1 1.414 0l4.5 4.5-1.414 1.414-2.797-2.797V16h-2V5.418l-2.789 2.79-1.414-1.415 4.5-4.5ZM22 12v9a1 1 0 0 1-1 1H3a1 1 0 0 1-1-1v-8.996h2V20h16v-8h2Z"/></symbol><symbol id="User-business" viewBox="0 0 24 24"><path fill-rule="evenodd" clip-rule="evenodd" d="M12 3a3 3 0 1 0 0 6 3 3 0 0 0 0-6ZM7 6a5 5 0 1 1 10 0A5 5 0 0 1 7 6ZM2 22c0-5.523 4.477-10 10-10s10 4.477 10 10h-2a8.002 8.002 0 0 0-6.609-7.88l1.565 5.086a1 1 0 0 1-.175.919l-2 2.5a1 1 0 0 1-1.562 0l-2-2.5a1 1 0 0 1-.175-.92l1.565-5.084A8.002 8.002 0 0 0 4 22H2Zm10-1.6-.889-1.112L12 16.4l.889 2.888L12 20.4Z"/></symbol><symbol id="View-grid-list" viewBox="0 0 24 24"><path fill-rule="evenodd" clip-rule="evenodd" d="M4.5 4a.5.5 0 0 0-.5.5v15a.5.5 0 0 0 .5.5h15a.5.5 0 0 0 .5-.5v-15a.5.5 0 0 0-.5-.5h-15ZM2 4.5A2.5 2.5 0 0 1 4.5 2h15A2.5 2.5 0 0 1 22 4.5v15a2.5 2.5 0 0 1-2.5 2.5h-15A2.5 2.5 0 0 1 2 19.5v-15Zm3.5 2a1 1 0 0 1 1-1h4a1 1 0 0 1 1 1v4a1 1 0 0 1-1 1h-4a1 1 0 0 1-1-1v-4Zm2 1v2h2v-2h-2Zm-1 5a1 1 0 0 0-1 1v4a1 1 0 0 0 1 1h4a1 1 0 0 0 1-1v-4a1 1 0 0 0-1-1h-4Zm1 4v-2h2v2h-2Zm10-1.5h-4v-2h4v2Zm-4 3.5h4v-2h-4v2Zm4-11h-4v-2h4v2Zm-4 3.5h4V9h-4v2Z"/></symbol><symbol id="Write" viewBox="0 0 24 24"><path fill-rule="evenodd" clip-rule="evenodd" d="M18.926 1.244a1 1 0 0 0-1.414 0L1.955 16.8a1 1 0 0 0-.292.707v4.243a1 1 0 0 0 1 1h4.242a1 1 0 0 0 .707-.293L23.17 6.901a1 1 0 0 0 0-1.415l-4.243-4.242Zm-3.536 4.95 2.829-2.829 2.828 2.829-2.828 2.828-2.829-2.828Zm-1.414 1.414L3.663 17.922v2.828H6.49l10.314-10.314-2.829-2.828Z"/></symbol><symbol id="Zoom-in" viewBox="0 0 24 24"><path fill-rule="evenodd" clip-rule="evenodd" d="M10.5 1a9.5 9.5 0 0 0 0 19 9.46 9.46 0 0 0 5.973-2.113l3.674 3.674 1.414-1.415-3.674-3.673A9.46 9.46 0 0 0 20 10.5 9.5 9.5 0 0 0 10.5 1ZM3 10.5a7.5 7.5 0 1 1 15 0 7.5 7.5 0 0 1-15 0Zm6.5-3v2.005l-1.994.003.003 2 1.991-.003V13.5h2v-1.997l2.001-.003-.002-2-1.999.003V7.5h-2Z"/></symbol><symbol id="Zoom-out" viewBox="0 0 24 24"><path fill-rule="evenodd" clip-rule="evenodd" d="M1 10.5a9.5 9.5 0 1 1 16.887 5.973l3.674 3.673-1.415 1.415-3.673-3.674A9.46 9.46 0 0 1 10.5 20 9.5 9.5 0 0 1 1 10.5ZM10.5 3a7.5 7.5 0 1 0 0 15 7.5 7.5 0 0 0 0-15Zm3 8.5h-6v-2h6v2Z"/></symbol></svg>