<svg viewBox="0 0 24 24" xmlns="http://www.w3.org/2000/svg">
<path fill-rule="evenodd" clip-rule="evenodd" d="M2 3.5C1.44772 3.5 1 3.94772 1 4.5V19.5C1 20.0523 1.44772 20.5 2 20.5H12V18.5H3V6.50002L11.3999 12.8C11.7555 13.0666 12.2443 13.0666 12.5999 12.8L21 6.49988V12H23V4.5C23 3.94772 22.5523 3.5 22 3.5H2ZM18.9998 5.5H4.99997L11.9999 10.75L18.9998 5.5ZM22 16H17.4142L18.2071 15.2071L16.7929 13.7928L14.2929 16.2928C13.9024 16.6834 13.9024 17.3165 14.2929 17.7071L16.7929 20.2071L18.2071 18.7928L17.4143 18H22V16Z"/>
</svg>
