<svg viewBox="0 0 24 24" xmlns="http://www.w3.org/2000/svg">
<path fill-rule="evenodd" clip-rule="evenodd" d="M11.5528 1.10557C11.8343 0.964809 12.1657 0.964809 12.4472 1.10557L22.4472 6.10557C22.786 6.27496 23 6.62123 23 7V17C23 17.3788 22.786 17.725 22.4472 17.8944L12.4472 22.8944C12.1657 23.0352 11.8343 23.0352 11.5528 22.8944L1.55279 17.8944C1.214 17.725 1 17.3788 1 17V7C1 6.62123 1.214 6.27496 1.55279 6.10557L11.5528 1.10557ZM3 16.382V8.61806L11 12.6181V20.382L3 16.382ZM13 20.382L21 16.382V8.61801L13 12.618V20.382ZM11.9999 10.882L19.7639 6.99999L17 5.61802L9.23602 9.5L11.9999 10.882ZM6.99995 8.38197L14.7639 4.49999L12 3.11803L4.23604 7.00001L6.99995 8.38197Z"/>
</svg>
