<svg xmlns="http://www.w3.org/2000/svg" viewBox="0 0 24 24">
  <path d="M12.0016 2L14.6369 4.63519H19.3648V9.36315L22 11.9984L19.3648 14.6369V19.3648H14.6369L12.0016 22L9.3632 19.3648H4.63518V14.6369L2 11.9984L4.63518 9.36315V4.63519H9.3632L12.0016 2Z"/>
  <path d="M11.3711 1.22364C11.7639 0.903834 12.3431 0.927087 12.709 1.29298L15.0508 3.63477H19.3652C19.9172 3.63501 20.365 4.08283 20.3652 4.63477V8.94922L22.707 11.291C23.0973 11.6813 23.0979 12.3145 22.708 12.7051L20.3652 15.0498V19.3652C20.365 19.9172 19.9172 20.365 19.3652 20.3652H15.0508L12.709 22.707C12.3187 23.0973 11.6855 23.0979 11.2949 22.708L8.94922 20.3652H4.63477C4.08282 20.365 3.635 19.9172 3.63477 19.3652V15.0498L1.29199 12.7051C0.902083 12.3145 0.902686 11.6813 1.29297 11.291L3.63477 8.94922V4.63477C3.635 4.08282 4.08281 3.635 4.63477 3.63477H8.94922L11.2949 1.292L11.3711 1.22364ZM10.0703 5.34278C9.88283 5.53003 9.62825 5.63475 9.36328 5.63477H5.63477V9.36329C5.63473 9.62836 5.53014 9.88283 5.34277 10.0703L3.41309 11.9981L5.34277 13.9307C5.52985 14.1181 5.63473 14.3719 5.63477 14.6367V18.3652H9.36328L9.46191 18.3701C9.69066 18.3928 9.90625 18.4934 10.0703 18.6572L12.001 20.5859L13.9297 18.6572C14.1172 18.4699 14.3716 18.3653 14.6367 18.3652H18.3652V14.6367C18.3653 14.3719 18.4701 14.1181 18.6572 13.9307L20.5859 11.9981L18.6572 10.0703C18.4698 9.88283 18.3653 9.62836 18.3652 9.36329V5.63477H14.6367C14.3716 5.63474 14.1172 5.53015 13.9297 5.34278L12.001 3.41309L10.0703 5.34278Z"/>
  <path d="M15.5 10.9983C16.0523 10.9983 16.5 11.446 16.5 11.9983C16.5 12.5506 16.0523 12.9983 15.5 12.9983H8.5C7.94772 12.9983 7.5 12.5506 7.5 11.9983C7.5 11.446 7.94772 10.9983 8.5 10.9983H15.5Z" fill="white"/>
  <path d="M11.0019 15.5V8.5C11.0019 7.94772 11.4497 7.5 12.0019 7.5C12.5542 7.5 13.0019 7.94772 13.0019 8.5V15.5C13.0019 16.0523 12.5542 16.5 12.0019 16.5C11.4497 16.5 11.0019 16.0523 11.0019 15.5Z" fill="white"/>
</svg>