<svg xmlns="http://www.w3.org/2000/svg" viewBox="0 0 24 24">
  <path d="M11.371 1.22363C11.7638 0.903842 12.343 0.927129 12.7089 1.29297L15.0507 3.63477H19.3651C19.9171 3.635 20.3649 4.08283 20.3651 4.63477V8.94922L22.7069 11.291C23.0972 11.6813 23.0978 12.3145 22.7079 12.7051L20.3651 15.0498V19.3652C20.3649 19.9172 19.9171 20.365 19.3651 20.3652H15.0507L12.7089 22.707C12.3186 23.0973 11.6854 23.0979 11.2948 22.708L8.94913 20.3652H4.63467C4.08277 20.365 3.63491 19.9172 3.63467 19.3652V15.0498L1.2919 12.7051C0.902055 12.3145 0.902651 11.6813 1.29288 11.291L3.63467 8.94922V4.63477C3.63491 4.08285 4.08277 3.63504 4.63467 3.63477H8.94913L11.2948 1.29199L11.371 1.22363ZM12.0019 7.5C11.4496 7.50005 11.0019 7.94775 11.0019 8.5V10.998H8.49991C7.94775 10.9981 7.50004 11.4459 7.49991 11.998C7.49991 12.5503 7.94767 12.998 8.49991 12.998H11.0019V15.5C11.0019 16.0523 11.4496 16.5 12.0019 16.5C12.5541 16.5 13.0019 16.0523 13.0019 15.5V12.998H15.4999C16.0522 12.998 16.4999 12.5503 16.4999 11.998C16.4998 11.4459 16.0521 10.998 15.4999 10.998H13.0019V8.5C13.0019 7.94772 12.5541 7.5 12.0019 7.5Z"/>
</svg>