<svg viewBox="0 0 24 24" xmlns="http://www.w3.org/2000/svg">
<path fill-rule="evenodd" clip-rule="evenodd" d="M22 12C22 11.4477 21.5523 11 21 11C20.4477 11 20 11.4477 20 12V13.5L18.2939 12.2204L18.2939 12.2204C17.4977 11.6232 16.3835 11.7024 15.6797 12.4061L13.5246 14.5612L10.3238 11.8176C9.5556 11.1591 8.4166 11.1781 7.67077 11.8618L7.67074 11.8618L4 15.2267V4.5C4 4.22386 4.22386 4 4.5 4H12C12.5523 4 13 3.55228 13 3C13 2.44771 12.5523 2 12 2H4.5C3.11929 2 2 3.11928 2 4.5V19.5C2 20.8807 3.11928 22 4.5 22H19.5C20.8807 22 22 20.8807 22 19.5V12ZM15.0476 15.8666L16.6507 17.2407L15.3492 18.7592L9.02221 13.3361L4 17.9398V19.5C4 19.7761 4.22386 20 4.5 20H19.5C19.7761 20 20 19.7761 20 19.5V15.9999L17.0939 13.8204L17.0939 13.8204L17.0939 13.8204L17.0939 13.8204L15.0476 15.8666ZM17 7H15V5H17V3H19V5H21V7H19V9H17V7Z"/>
</svg>
