<svg xmlns="http://www.w3.org/2000/svg" viewBox="0 0 24 24">
  <path fill-rule="evenodd" clip-rule="evenodd" d="M3 3.5C2.44772 3.5 2 3.94772 2 4.5C2 5.05228 2.44772 5.5 3 5.5H21C21.5523 5.5 22 5.05228 22 4.5C22 3.94772 21.5523 3.5 21 3.5H3ZM7 8.5C6.44772 8.5 6 8.94772 6 9.5C6 10.0523 6.44772 10.5 7 10.5H21C21.5523 10.5 22 10.0523 22 9.5C22 8.94772 21.5523 8.5 21 8.5H7ZM2 14.5C2 13.9477 2.44772 13.5 3 13.5H21C21.5523 13.5 22 13.9477 22 14.5C22 15.0523 21.5523 15.5 21 15.5H3C2.44772 15.5 2 15.0523 2 14.5ZM7 18.5C6.44772 18.5 6 18.9477 6 19.5C6 20.0523 6.44772 20.5 7 20.5H21C21.5523 20.5 22 20.0523 22 19.5C22 18.9477 21.5523 18.5 21 18.5H7Z"/>
</svg>