<svg viewBox="0 0 24 24" xmlns="http://www.w3.org/2000/svg">
<path fill-rule="evenodd" clip-rule="evenodd" d="M7.65178 1.0001C8.03055 1.00532 8.37385 1.22412 8.53854 1.56525L12.4006 9.56525L10.5995 10.4347L7.60713 4.23628L4.38825 10.4594L2.61182 9.54058L6.74977 1.54058C6.9238 1.20411 7.27301 0.99487 7.65178 1.0001ZM19 19.5859L21.293 17.2929L22.7072 18.7071L18.7072 22.7071C18.3167 23.0976 17.6835 23.0976 17.293 22.7071L13.293 18.7071L14.7072 17.2929L17 19.5857V2H19V19.5859ZM3.50003 15H9.08582L2.79292 21.2929C2.50692 21.5789 2.42137 22.009 2.57615 22.3827C2.73093 22.7564 3.09557 23 3.50003 23H11.5V21H5.91424L12.2071 14.7071C12.4931 14.4211 12.5787 13.991 12.4239 13.6173C12.2691 13.2436 11.9045 13 11.5 13H3.50003V15Z"/>
</svg>
