<svg viewBox="0 0 24 24" xmlns="http://www.w3.org/2000/svg">
<path fill-rule="evenodd" clip-rule="evenodd" d="M3.50003 3H9.08582L2.79292 9.29289C2.50692 9.57889 2.42137 10.009 2.57615 10.3827C2.73093 10.7564 3.09557 11 3.50003 11H11.5V9H5.91424L12.2071 2.70711C12.4931 2.42111 12.5787 1.99099 12.4239 1.61732C12.2691 1.24364 11.9045 1 11.5 1H3.50003V3ZM19 19.5859L21.293 17.2929L22.7072 18.7071L18.7072 22.7071C18.3167 23.0976 17.6835 23.0976 17.293 22.7071L13.293 18.7071L14.7072 17.2929L17 19.5857V2H19V19.5859ZM7.65178 13.0001C8.03055 13.0053 8.37385 13.2241 8.53854 13.5653L12.4006 21.5653L10.5995 22.4347L7.60713 16.2363L4.38825 22.4594L2.61182 21.5406L6.74977 13.5406C6.9238 13.2041 7.27301 12.9949 7.65178 13.0001Z"/>
</svg>
