<svg  viewBox="0 0 24 24" xmlns="http://www.w3.org/2000/svg">
<path fill-rule="evenodd" clip-rule="evenodd" d="M6.75 4.5C5.50736 4.5 4.5 5.50736 4.5 6.75C4.5 7.99264 5.50736 9 6.75 9C7.99264 9 9 7.99264 9 6.75C9 5.50736 7.99264 4.5 6.75 4.5ZM2.5 6.75C2.5 4.40279 4.40279 2.5 6.75 2.5C9.09721 2.5 11 4.40279 11 6.75C11 9.09721 9.09721 11 6.75 11C4.40279 11 2.5 9.09721 2.5 6.75ZM15 6.75C15 5.50736 16.0074 4.5 17.25 4.5C18.4926 4.5 19.5 5.50736 19.5 6.75C19.5 7.99264 18.4926 9 17.25 9C16.0074 9 15 7.99264 15 6.75ZM17.25 2.5C14.9028 2.5 13 4.40279 13 6.75C13 9.09721 14.9028 11 17.25 11C19.5972 11 21.5 9.09721 21.5 6.75C21.5 4.40279 19.5972 2.5 17.25 2.5ZM15 17.25C15 16.0074 16.0074 15 17.25 15C18.4926 15 19.5 16.0074 19.5 17.25C19.5 18.4926 18.4926 19.5 17.25 19.5C16.0074 19.5 15 18.4926 15 17.25ZM17.25 13C14.9028 13 13 14.9028 13 17.25C13 19.5972 14.9028 21.5 17.25 21.5C19.5972 21.5 21.5 19.5972 21.5 17.25C21.5 14.9028 19.5972 13 17.25 13ZM4.5 17.25C4.5 16.0074 5.50736 15 6.75 15C7.99264 15 9 16.0074 9 17.25C9 18.4926 7.99264 19.5 6.75 19.5C5.50736 19.5 4.5 18.4926 4.5 17.25ZM6.75 13C4.40279 13 2.5 14.9028 2.5 17.25C2.5 19.5972 4.40279 21.5 6.75 21.5C9.09721 21.5 11 19.5972 11 17.25C11 14.9028 9.09721 13 6.75 13Z"/>
</svg>
