<svg viewBox="0 0 24 24" xmlns="http://www.w3.org/2000/svg">
<path fill-rule="evenodd" clip-rule="evenodd" d="M4.42266 2C4.00937 2 3.63867 2.25424 3.48979 2.63978L1.98833 6.52808L1.98833 6.52808C1.34367 8.19758 1.89209 9.94192 3.09425 11H3.01953V21C3.01953 21.5523 3.46725 22 4.01953 22H20.0196C20.5718 22 21.0196 21.5523 21.0196 21V11H20.9439C22.1471 9.94156 22.6962 8.19631 22.051 6.52582L22.051 6.5258L20.5497 2.63965C20.4008 2.25418 20.0301 2 19.6169 2H4.42266ZM19.0196 11.9338C18.7818 11.9772 18.5357 12 18.2828 12C17.0884 12 16.0115 11.4758 15.2752 10.6434C14.5422 11.4752 13.4689 12 12.273 12H11.7638C10.5681 12 9.49485 11.4753 8.76186 10.6436C8.02574 11.4758 6.94902 12 5.75464 12C5.50228 12 5.25673 11.9773 5.01953 11.9341V20H19.0196V11.9338ZM11.7638 10C10.6593 10 9.76384 9.10457 9.76384 8C9.76384 7.44772 9.31613 7 8.76384 7C8.21156 7 7.76384 7.44772 7.76384 8C7.76384 9.10058 6.8632 10 5.75464 10C4.32697 10 3.34479 8.5674 3.85406 7.24852L3.85407 7.24852L5.10848 4H18.9312L20.1853 7.24648L20.1853 7.2465C20.695 8.5659 19.7119 10 18.2828 10C17.174 10 16.273 9.10035 16.273 8C16.273 7.44772 15.8253 7 15.273 7C14.7208 7 14.273 7.44772 14.273 8C14.273 9.10457 13.3776 10 12.273 10H11.7638Z"/>
</svg>
