<svg viewBox="0 0 24 24" xmlns="http://www.w3.org/2000/svg">
<path fill-rule="evenodd" clip-rule="evenodd" d="M5 7C6.10455 7 7 6.10455 7 5C7 3.89543 6.10455 3 5 3C3.89543 3 3 3.89543 3 5C3 6.10455 3.89543 7 5 7ZM12 7C13.1045 7 14 6.10455 14 5C14 3.89543 13.1045 3 12 3C10.8955 3 10 3.89543 10 5C10 6.10455 10.8955 7 12 7ZM21 5C21 6.10455 20.1045 7 19 7C17.8954 7 17 6.10455 17 5C17 3.89543 17.8954 3 19 3C20.1045 3 21 3.89543 21 5ZM5 14C6.10455 14 7 13.1045 7 12C7 10.8955 6.10455 10 5 10C3.89543 10 3 10.8955 3 12C3 13.1045 3.89543 14 5 14ZM14 12C14 13.1045 13.1045 14 12 14C10.8955 14 10 13.1045 10 12C10 10.8955 10.8955 10 12 10C13.1045 10 14 10.8955 14 12ZM19 14C20.1045 14 21 13.1045 21 12C21 10.8955 20.1045 10 19 10C17.8954 10 17 10.8955 17 12C17 13.1045 17.8954 14 19 14ZM7 19C7 20.1045 6.10455 21 5 21C3.89543 21 3 20.1045 3 19C3 17.8954 3.89543 17 5 17C6.10455 17 7 17.8954 7 19ZM12 21C13.1045 21 14 20.1045 14 19C14 17.8954 13.1045 17 12 17C10.8955 17 10 17.8954 10 19C10 20.1045 10.8955 21 12 21ZM21 19C21 20.1045 20.1045 21 19 21C17.8954 21 17 20.1045 17 19C17 17.8954 17.8954 17 19 17C20.1045 17 21 17.8954 21 19Z"/>
</svg>
