<svg xmlns="http://www.w3.org/2000/svg" viewBox="0 0 24 24">
  <path d="M19.7691 2.01172C20.1189 2.06559 20.419 2.3024 20.5493 2.63965L22.0503 6.52539L22.1372 6.77441C22.6286 8.33303 22.1096 9.92239 21.0161 10.9326C21.0176 10.9549 21.02 10.9773 21.02 11V21C21.02 21.5522 20.5722 21.9998 20.02 22H4.02004C3.46776 22 3.02004 21.5523 3.02004 21V11C3.02004 10.978 3.02157 10.9562 3.02297 10.9346C1.87115 9.87109 1.3564 8.16402 1.98781 6.52832L3.48977 2.63965L3.5552 2.50195C3.73142 2.19492 4.06078 2.00015 4.42238 2H19.6167L19.7691 2.01172ZM15.2739 10.6416C14.541 11.4736 13.4689 11.9999 12.273 12H11.7632C10.5671 11.9998 9.49412 11.4739 8.76125 10.6416C8.02513 11.4742 6.94913 12 5.75442 12C5.50221 12 5.25709 11.9758 5.02004 11.9326V20H19.02V11.9336C18.7823 11.977 18.5357 12 18.2827 12C17.0878 11.9999 16.0102 11.4747 15.2739 10.6416Z"/>
</svg>