<svg viewBox="0 0 24 24" xmlns="http://www.w3.org/2000/svg">
<path fill-rule="evenodd" clip-rule="evenodd" d="M1 12C1 5.92487 5.92487 1 12 1C18.0751 1 23 5.92487 23 12C23 18.0751 18.0751 23 12 23C5.92487 23 1 18.0751 1 12ZM12 3C7.02943 3 3 7.02943 3 12C3 16.9706 7.02943 21 12 21C16.9706 21 21 16.9706 21 12C21 7.02943 16.9706 3 12 3ZM9.66031 11.25H16.2461V13.25H9.66031L12.4532 16.0429L11.039 17.4571L6.53899 12.9571C6.14846 12.5666 6.14846 11.9334 6.53899 11.5429L11.039 7.04289L12.4532 8.45711L9.66031 11.25Z"/>
</svg>
