<svg viewBox="0 0 24 24" xmlns="http://www.w3.org/2000/svg">
<path fill-rule="evenodd" clip-rule="evenodd" d="M1 12C1 5.92487 5.92487 1 12 1C18.0751 1 23 5.92487 23 12C23 18.0751 18.0751 23 12 23C5.92487 23 1 18.0751 1 12ZM12 3C7.02943 3 3 7.02943 3 12C3 16.9706 7.02943 21 12 21C16.9706 21 21 16.9706 21 12C21 7.02943 16.9706 3 12 3ZM13.8315 13.25H7.24609V11.25H13.8315L11.0386 8.45711L12.4528 7.04289L16.9528 11.5429C17.3433 11.9334 17.3433 12.5666 16.9528 12.9571L12.4528 17.4571L11.0386 16.0429L13.8315 13.25Z"/>
</svg>
