<svg viewBox="0 0 24 24" xmlns="http://www.w3.org/2000/svg">
<path fill-rule="evenodd" clip-rule="evenodd" d="M1 12C1 5.92487 5.92487 1 12 1C18.0751 1 23 5.92487 23 12C23 18.0751 18.0751 23 12 23C5.92487 23 1 18.0751 1 12ZM12 3C7.02943 3 3 7.02943 3 12C3 16.9706 7.02943 21 12 21C16.9706 21 21 16.9706 21 12C21 7.02943 16.9706 3 12 3ZM11 14.0857V7.5H13V14.0859L15.793 11.2929L17.2072 12.7071L12.7072 17.2071C12.3167 17.5976 11.6835 17.5976 11.293 17.2071L6.79297 12.7071L8.20718 11.2929L11 14.0857Z"/>
</svg>
