<svg viewBox="0 0 24 24" xmlns="http://www.w3.org/2000/svg">
<path fill-rule="evenodd" clip-rule="evenodd" d="M1 12C1 5.92487 5.92487 1 12 1C18.0751 1 23 5.92487 23 12C23 18.0751 18.0751 23 12 23C5.92487 23 1 18.0751 1 12ZM12 3C7.02943 3 3 7.02943 3 12C3 16.9706 7.02943 21 12 21C16.9706 21 21 16.9706 21 12C21 7.02943 16.9706 3 12 3ZM13 10.1641V16.75H11V10.1643L8.20718 12.9571L6.79297 11.5429L11.293 7.04289C11.6835 6.65237 12.3167 6.65237 12.7072 7.04289L17.2072 11.5429L15.793 12.9571L13 10.1641Z"/>
</svg>
