<svg viewBox="0 0 24 24" xmlns="http://www.w3.org/2000/svg">
<path fill-rule="evenodd" clip-rule="evenodd" d="M12 1C5.92487 1 1 5.92487 1 12C1 18.0751 5.92487 23 12 23C14.743 23 17.2537 21.9947 19.18 20.3338L17.8739 18.8191C16.297 20.1788 14.2456 21 12 21C7.02943 21 3 16.9706 3 12C3 7.02943 7.02943 3 12 3C16.9706 3 21 7.02943 21 12C21 13.1046 20.1046 14 19 14C17.8954 14 17 13.1046 17 12V8H15.0005C14.1648 7.37209 13.1258 7 12 7C9.23857 7 7 9.23857 7 12C7 14.7614 9.23857 17 12 17C13.7241 17 15.2443 16.1274 16.1432 14.7998C16.8692 15.5405 17.8809 16 19 16C21.2091 16 23 14.2091 23 12C23 5.92487 18.0751 1 12 1ZM15 12C15 10.3431 13.6569 9 12 9C10.3431 9 9 10.3431 9 12C9 13.6569 10.3431 15 12 15C13.6569 15 15 13.6569 15 12Z"/>
</svg>
