<svg viewBox="0 0 24 24" xmlns="http://www.w3.org/2000/svg">
<path fill-rule="evenodd" clip-rule="evenodd" d="M10.432 9.19781C11.3686 8.74914 12.4063 8.5 13.5 8.5C17.589 8.5 21 12.0271 21 16.5H23C23 11.0318 18.7998 6.5 13.5 6.5C12.0983 6.5 10.7661 6.82016 9.56798 7.39409L9.99895 8.29377L9.56797 7.39409C6.99397 8.62714 5.05121 11.0228 4.31837 13.9242L2.8002 11.9L1.2002 13.1L4.2002 17.1C4.51184 17.5155 5.08973 17.6233 5.53019 17.348L9.53019 14.848L8.4702 13.152L6.22259 14.5568C6.78585 12.1484 8.37071 10.1853 10.432 9.19781Z"/>
</svg>
