<svg xmlns="http://www.w3.org/2000/svg" viewBox="0 0 24 24">
  <path d="M22 20.5003C22.5523 20.5003 23 20.948 23 21.5003C22.9997 22.0523 22.5521 22.5003 22 22.5003H2C1.44788 22.5003 1.00026 22.0523 1 21.5003C1 20.948 1.44772 20.5003 2 20.5003H22ZM9.71973 2.04517C10.0858 1.67906 10.6648 1.65647 11.0576 1.97681L11.1338 2.04517L18.2051 9.11646C18.5951 9.507 18.5954 10.1401 18.2051 10.5305L10.4268 18.3088C10.2393 18.4961 9.98469 18.6007 9.71973 18.6008C9.45481 18.6008 9.20013 18.496 9.0127 18.3088L3.35547 12.6516C2.9651 12.2612 2.96522 11.6281 3.35547 11.2376L10.4268 4.16627L9.71973 3.45924L9.65137 3.38306C9.33105 2.99033 9.35373 2.4113 9.71973 2.04517ZM18.5 13.5003C19.8332 14.7637 20.5 15.7639 20.5 16.5003C20.4997 17.6046 19.6044 18.5003 18.5 18.5003C17.3956 18.5003 16.5003 17.6046 16.5 16.5003C16.5 15.7639 17.1668 14.7637 18.5 13.5003ZM5.47656 11.9436L9.71875 16.1868L12.6348 13.2698L6.24805 11.1712L5.47656 11.9436ZM7.83301 9.58619L14.2188 11.6858L16.083 9.82252L11.8398 5.58033L7.83301 9.58619Z"/>
</svg>