<svg viewBox="0 0 24 24" xmlns="http://www.w3.org/2000/svg">
<path fill-rule="evenodd" clip-rule="evenodd" d="M6 4.5C6 3.39544 6.89541 2.5 8 2.5H21C22.1046 2.5 23 3.39544 23 4.5V13.5C23 14.6046 22.1046 15.5 21 15.5H20V13.5H21V4.5H8V6.5H6V4.5ZM1 10.5C1 9.39543 1.89543 8.5 3 8.5H16C17.1046 8.5 18 9.39543 18 10.5V11.5V17.5V19.5C18 20.6046 17.1046 21.5 16 21.5H3C1.89543 21.5 1 20.6046 1 19.5V17.5V11.5V10.5ZM3 11.5V13H16V11.5V10.5H3V11.5ZM3 15V17.5V19.5H16V17.5V15H3ZM9.5 18H5.5V16H9.5V18ZM12.5 18H13.5V16H12.5V18Z"/>
</svg>
