<svg xmlns="http://www.w3.org/2000/svg" viewBox="0 0 16 16">
  <path d="M9.33301 0.666992C9.70109 0.666992 9.99982 0.964968 10 1.33301V3.33301H11.9062C12.326 3.33301 12.667 3.67396 12.667 4.09375V8C12.667 10.3508 10.9283 12.2944 8.66699 12.6182V13.667C8.66717 13.851 8.816 14 9 14H12.667C13.035 14.0002 13.333 14.2989 13.333 14.667C13.3328 15.0349 13.0349 15.3328 12.667 15.333H9C8.07962 15.333 7.33318 14.5873 7.33301 13.667V12.6182C5.07169 12.2944 3.33301 10.3508 3.33301 8V4.09375C3.33301 3.67396 3.67396 3.33301 4.09375 3.33301H6V1.33301C6.00018 0.964968 6.29891 0.666992 6.66699 0.666992C7.03492 0.667168 7.33283 0.965076 7.33301 1.33301V3.33301H8.66699V1.33301C8.66717 0.965076 8.96508 0.667168 9.33301 0.666992Z"/>
</svg>