<svg xmlns="http://www.w3.org/2000/svg" viewBox="0 0 24 24">
  <path fill-rule="evenodd" clip-rule="evenodd" d="M3 3C3 1.89543 3.89543 1 5 1H19C20.1046 1 21 1.89544 21 3V22C21 22.349 20.8181 22.6727 20.52 22.8542C20.2219 23.0357 19.8507 23.0486 19.5407 22.8883L12 18.9894L4.45928 22.8883C4.14928 23.0486 3.77814 23.0357 3.48004 22.8542C3.18194 22.6727 3 22.349 3 22V3ZM11.4142 13.4142L17.4142 7.41421L16 6L10.7071 11.2929L8.41421 9L7 10.4142L10 13.4142C10.3905 13.8047 11.0237 13.8047 11.4142 13.4142Z"/>
</svg>