<svg viewBox="0 0 24 24" xmlns="http://www.w3.org/2000/svg">
<path fill-rule="evenodd" clip-rule="evenodd" d="M3 3C3 1.89543 3.89543 1 5 1H10.5H16.5H19C20.1046 1 21 1.89544 21 3V21C21 22.1046 20.1046 23 19 23H5C3.89544 23 3 22.1046 3 21V3ZM19 3H17.5V11C17.5 11.4085 17.2515 11.7759 16.8724 11.9281C16.4933 12.0802 16.0597 11.9864 15.7774 11.6912L13.5 9.31036L11.2226 11.6912C10.9403 11.9864 10.5067 12.0802 10.1276 11.9281C9.74848 11.7759 9.5 11.4085 9.5 11V3H5V21H19V3ZM11.5 3V8.50784L12.7774 7.17243C12.966 6.9752 13.2271 6.86365 13.5 6.86365C13.7729 6.86365 14.034 6.9752 14.2226 7.17243L15.5 8.50784V3H11.5Z"/>
</svg>
