<svg viewBox="0 0 24 24" xmlns="http://www.w3.org/2000/svg">
<path fill-rule="evenodd" clip-rule="evenodd" d="M6.50014 1.5C6.21177 1.5 5.93745 1.62448 5.74756 1.8415L2.24756 5.8415L2.32394 5.90833C2.11907 6.22222 2 6.59721 2 7V20C2 21.1046 2.89543 22 4 22H20C21.1046 22 22 21.1046 22 20V7C22 6.59727 21.881 6.22234 21.6762 5.90848L21.7527 5.8415L18.2527 1.8415C18.0628 1.62448 17.7885 1.5 17.5001 1.5H6.50014ZM18.3589 5L17.0464 3.5H6.9539L5.6414 5H18.3589ZM20 7H4V20H20V7ZM14.9746 13.0042H8.97461V11.0042H14.9746V13.0042Z"/>
</svg>
