<svg xmlns="http://www.w3.org/2000/svg" viewBox="0 0 24 24">
<path fill-rule="evenodd" clip-rule="evenodd" d="M8 1C8.55228 1 9 1.44772 9 2V2.5H15V2C15 1.44772 15.4477 1 16 1C16.5523 1 17 1.44772 17 2V2.5H20.5C21.6046 2.5 22.5 3.39544 22.5 4.5V9.5V20C22.5 21.1046 21.6046 22 20.5 22H3.5C2.39544 22 1.5 21.1046 1.5 20V9.5V4.5C1.5 3.39543 2.39543 2.5 3.5 2.5H7V2C7 1.44772 7.44772 1 8 1ZM15 4.5V6C15 6.55228 15.4477 7 16 7C16.5523 7 17 6.55228 17 6V4.5H20.5V8.5H3.5V4.5H7V6C7 6.55228 7.44772 7 8 7C8.55228 7 9 6.55228 9 6V4.5H15ZM20.5 10.5H3.5V20H20.5V10.5ZM13 17C13 16.4477 13.4477 16 14 16H17C17.5523 16 18 16.4477 18 17C18 17.5523 17.5523 18 17 18H14C13.4477 18 13 17.5523 13 17ZM7 16C6.44772 16 6 16.4477 6 17C6 17.5523 6.44772 18 7 18H10C10.5523 18 11 17.5523 11 17C11 16.4477 10.5523 16 10 16H7ZM13 13C13 12.4477 13.4477 12 14 12H17C17.5523 12 18 12.4477 18 13C18 13.5523 17.5523 14 17 14H14C13.4477 14 13 13.5523 13 13ZM7 12C6.44772 12 6 12.4477 6 13C6 13.5523 6.44772 14 7 14H10C10.5523 14 11 13.5523 11 13C11 12.4477 10.5523 12 10 12H7Z"/>
</svg>