<svg viewBox="0 0 24 24" xmlns="http://www.w3.org/2000/svg">
<path fill-rule="evenodd" clip-rule="evenodd" d="M8.10557 2.55279C8.27497 2.214 8.62123 2 9 2H15C15.3788 2 15.725 2.214 15.8944 2.55279L17.118 5H20.5C21.8807 5 23 6.11929 23 7.5V19.5C23 20.8807 21.8807 22 20.5 22H3.5C2.11929 22 1 20.8807 1 19.5V7.5C1 6.11929 2.11929 5 3.5 5H6.88197L8.10557 2.55279ZM14.382 4L14.882 5H9.11804L9.61804 4H14.382ZM3.5 7H7.5H16.5H20.5C20.7761 7 21 7.22386 21 7.5V19.5C21 19.7761 20.7761 20 20.5 20H3.5C3.22386 20 3 19.7761 3 19.5V7.5C3 7.22386 3.22386 7 3.5 7ZM12 8.5C9.23857 8.5 7 10.7386 7 13.5C7 16.2614 9.23857 18.5 12 18.5C14.7614 18.5 17 16.2614 17 13.5C17 10.7386 14.7614 8.5 12 8.5ZM9 13.5C9 11.8431 10.3431 10.5 12 10.5C13.6569 10.5 15 11.8431 15 13.5C15 15.1569 13.6569 16.5 12 16.5C10.3431 16.5 9 15.1569 9 13.5Z"/>
</svg>
