<svg xmlns="http://www.w3.org/2000/svg" viewBox="0 0 24 24">
  <path fill-rule="evenodd" clip-rule="evenodd" d="M12 2.5L1 21.5H23L12 2.5Z"/>
  <path d="M12 1.5C12.3568 1.5 12.6864 1.69023 12.8652 1.99902L23.8652 20.999C24.0443 21.3083 24.0446 21.6894 23.8662 21.999C23.6877 22.3087 23.3575 22.5 23 22.5H1.00001C0.642527 22.5 0.31235 22.3087 0.133795 21.999C-0.0445889 21.6894 -0.0442814 21.3083 0.134772 20.999L11.1348 1.99902L11.208 1.88867C11.3958 1.64533 11.6877 1.5 12 1.5ZM2.73438 20.5H21.2656L12 4.49512L2.73438 20.5Z"/>
  <path d="M11 18V17.5C11 16.9477 11.4477 16.5 12 16.5C12.5523 16.5 13 16.9477 13 17.5V18C13 18.5523 12.5523 19 12 19C11.4477 19 11 18.5523 11 18Z" fill="white"/>
  <path d="M11.999 8.50024C12.5513 8.49979 12.9995 8.94705 13 9.49927L13.0039 14.4993C13.0043 15.0515 12.5571 15.4998 12.0049 15.5002C11.4528 15.5007 11.0046 15.0533 11.0039 14.5012L11 9.50122C10.9995 8.94899 11.4468 8.50078 11.999 8.50024Z" fill="white"/>
</svg>