<svg xmlns="http://www.w3.org/2000/svg" viewBox="0 0 24 24">
  <path d="M12.0002 1.5C12.357 1.50008 12.6867 1.6903 12.8655 1.99902L23.8655 20.999C24.0445 21.3082 24.0448 21.6894 23.8665 21.999C23.6879 22.3087 23.3576 22.4999 23.0002 22.5H1.00024C0.642804 22.5 0.312601 22.3087 0.134033 21.999C-0.0443512 21.6894 -0.0440436 21.3083 0.13501 20.999L11.135 1.99902L11.2083 1.88867C11.396 1.6454 11.688 1.5 12.0002 1.5ZM12.0002 16.5C11.448 16.5 11.0002 16.9477 11.0002 17.5V18C11.0002 18.5523 11.448 19 12.0002 19C12.5524 18.9999 13.0002 18.5522 13.0002 18V17.5C13.0002 16.9478 12.5524 16.5001 12.0002 16.5ZM11.9993 8.5C11.4471 8.50054 10.9999 8.94885 11.0002 9.50098L11.0042 14.501C11.0048 15.053 11.453 15.5004 12.0051 15.5C12.5573 15.4994 13.0046 15.0512 13.0042 14.499L13.0002 9.49902C12.9996 8.947 12.5513 8.49967 11.9993 8.5Z" />
</svg>