<svg xmlns="http://www.w3.org/2000/svg" viewBox="0 0 16 16">
  <path d="M7.99999 1C8.23789 1 8.45795 1.12713 8.57714 1.33301L15.9102 13.999C16.0295 14.2052 16.03 14.4596 15.9111 14.666C15.7921 14.8725 15.5713 15 15.333 15H0.666987C0.428667 15 0.207898 14.8725 0.0888618 14.666C-0.0299797 14.4596 -0.0295034 14.2052 0.0898383 13.999L7.42285 1.33301C7.54204 1.12713 7.7621 1 7.99999 1ZM7.99999 11C7.63202 11 7.33335 11.2981 7.333 11.666V12C7.33313 12.3681 7.63189 12.666 7.99999 12.666C8.3681 12.666 8.66685 12.3681 8.66699 12V11.666C8.66663 11.2981 8.36797 11 7.99999 11ZM7.99902 5.66699C7.6311 5.66753 7.33283 5.96605 7.333 6.33398L7.33593 9.66699C7.33625 10.035 7.63492 10.3331 8.00292 10.333C8.37106 10.3327 8.66916 10.0341 8.66894 9.66602L8.66699 6.33301C8.66655 5.96493 8.36713 5.66669 7.99902 5.66699Z"/>
</svg>