<svg xmlns="http://www.w3.org/2000/svg" viewBox="0 0 24 24">
  <path fill-rule="evenodd" clip-rule="evenodd" d="M12 1C5.92487 1 1 5.92487 1 12C1 18.0751 5.92487 23 12 23C18.0751 23 23 18.0751 23 12C23 11.4477 22.5523 11 22 11H13V2C13 1.44772 12.5523 1 12 1ZM15.2996 1.50372C14.9959 1.40832 14.6649 1.46326 14.4082 1.65166C14.1516 1.84005 14 2.1394 14 2.45777V9.00001C14 9.55229 14.4477 10 15 10H21.5422C21.8606 10 22.1599 9.84841 22.3483 9.59177C22.5367 9.33512 22.5917 9.00411 22.4963 8.70036C21.4215 5.27824 18.7218 2.57854 15.2996 1.50372Z"/>
</svg>