<svg xmlns="http://www.w3.org/2000/svg" viewBox="0 0 24 24">
  <path fill-rule="evenodd" clip-rule="evenodd" d="M21.9029 3.42992C22.1403 2.93129 21.9286 2.33457 21.4299 2.09713C20.9313 1.85968 20.3346 2.07142 20.0971 2.57006L15.6731 11.8605L11.669 8.25669C11.4369 8.04785 11.1207 7.95936 10.8139 8.01745C10.5072 8.07554 10.2452 8.27355 10.1056 8.55278L6.10558 16.5528C5.85859 17.0468 6.05881 17.6474 6.55279 17.8944C7.04677 18.1414 7.64744 17.9412 7.89443 17.4472L11.3071 10.6218L15.331 14.2433C15.5656 14.4544 15.886 14.5424 16.1955 14.4807C16.505 14.419 16.7672 14.2148 16.9029 13.9299L21.9029 3.42992ZM4 3C4 2.44772 3.55228 2 3 2C2.44772 2 2 2.44772 2 3V21C2 21.5523 2.44772 22 3 22H21C21.5523 22 22 21.5523 22 21C22 20.4477 21.5523 20 21 20H4V3Z"/>
</svg>