<svg viewBox="0 0 24 24" xmlns="http://www.w3.org/2000/svg">
<path fill-rule="evenodd" clip-rule="evenodd" d="M12 1C8.96273 1 6.21136 2.23232 4.22183 4.22182C2.23233 6.21135 1 8.96273 1 12C1 15.0373 2.23232 17.7886 4.22183 19.7782C6.21136 21.7677 8.96273 23 12 23C15.0373 23 17.7886 21.7677 19.7782 19.7782C21.7677 17.7886 23 15.0373 23 12C23 8.96273 21.7677 6.21135 19.7782 4.22182C17.7886 2.23231 15.0373 1 12 1ZM11.7072 15.7072L17.7072 9.70718L16.293 8.29297L11.0001 13.5859L8.70718 11.293L7.29297 12.7072L10.293 15.7072C10.6835 16.0977 11.3167 16.0977 11.7072 15.7072Z"/>
</svg>
