<svg viewBox="0 0 24 24" xmlns="http://www.w3.org/2000/svg">
<path fill-rule="evenodd" clip-rule="evenodd" d="M4 4.5C4 4.22386 4.22386 4 4.5 4H15V2H4.5C3.11929 2 2 3.11929 2 4.5V19.5C2 20.8807 3.1193 22 4.5 22H19.5C20.8807 22 22 20.8807 22 19.5V10H20V19.5C20 19.7762 19.7762 20 19.5 20H4.5C4.22385 20 4 19.7762 4 19.5V4.5ZM13.8139 14.5812L21.3139 4.08124L19.6865 2.91876L12.8003 12.5594L8.62488 9.21913L7.37549 10.7809L12.3755 14.7809C12.59 14.9525 12.8656 15.0283 13.1376 14.9905C13.4097 14.9527 13.6543 14.8047 13.8139 14.5812Z"/>
</svg>
