<svg viewBox="0 0 24 24" xmlns="http://www.w3.org/2000/svg">
<path fill-rule="evenodd" clip-rule="evenodd" d="M1 12C1 5.92487 5.92487 1 12 1C18.0751 1 23 5.92487 23 12C23 18.0751 18.0751 23 12 23C5.92487 23 1 18.0751 1 12ZM12 3C7.02943 3 3 7.02943 3 12C3 16.9706 7.02943 21 12 21C16.9706 21 21 16.9706 21 12C21 7.02943 16.9706 3 12 3ZM11.9999 10.5858L14.1212 8.46448L15.5354 9.87869L13.4141 12L15.5354 14.1213L14.1212 15.5355L11.9999 13.4142L9.87857 15.5355L8.46436 14.1213L10.5857 12L8.46436 9.87869L9.87857 8.46448L11.9999 10.5858Z"/>
</svg>
