 
<svg xmlns="http://www.w3.org/2000/svg" viewBox="0 0 24 24">
  <path fill-rule="evenodd" clip-rule="evenodd" d="M13.015 1.82764L9.51497 21.8276L11.485 22.1724L14.985 2.1724L13.015 1.82764ZM1.2805 12.0216L7.2805 5.80554L8.7195 7.19452L3.41444 12.6907L8.69402 17.7801L7.30598 19.22L1.30598 13.4361C1.11495 13.2519 1.00494 12.9994 1.00016 12.7341C0.995383 12.4689 1.09623 12.2125 1.2805 12.0216ZM20.5856 12.6907L15.2805 7.19452L16.7195 5.80554L22.7195 12.0216C22.9038 12.2125 23.0046 12.4689 22.9998 12.7341C22.9951 12.9994 22.8851 13.2519 22.694 13.4361L16.694 19.22L15.306 17.7801L20.5856 12.6907Z"/>
</svg>