<svg xmlns="http://www.w3.org/2000/svg" viewBox="0 0 24 24">
  <path d="M8 0.999992L8.10254 1.00487C8.60667 1.05621 9 1.48232 9 1.99999V9.34277L16.7998 1.54296L17.0146 1.31445L17.0869 1.24511C17.2641 1.09119 17.4907 1.00358 17.7275 0.999992C17.998 0.995906 18.259 1.10172 18.4502 1.29296L22.7002 5.54296L22.7686 5.61913C23.0886 6.01181 23.066 6.59097 22.7002 6.95702L14.6572 15H22C22.5523 15 23 15.4477 23 16V22C23 22.5523 22.5523 23 22 23H5C4.82116 23 4.64528 22.9866 4.47266 22.9639C4.45349 22.9613 4.43418 22.9598 4.41504 22.957C4.36584 22.9498 4.31715 22.9406 4.26855 22.9316C4.25524 22.9292 4.24181 22.9274 4.22852 22.9248C4.18389 22.9161 4.13978 22.9057 4.0957 22.8955C4.07424 22.8905 4.05264 22.8862 4.03125 22.8809C3.98138 22.8684 3.93192 22.8551 3.88281 22.8408C3.87332 22.8381 3.86397 22.8348 3.85449 22.832C3.8092 22.8185 3.76433 22.8041 3.71973 22.7891C3.69691 22.7814 3.67407 22.7737 3.65137 22.7656C3.6231 22.7555 3.59536 22.7441 3.56738 22.7334C3.53382 22.7205 3.50007 22.7081 3.4668 22.6943C3.437 22.6819 3.40736 22.6693 3.37793 22.6562C3.34919 22.6435 3.32049 22.6306 3.29199 22.6172C3.25945 22.6018 3.22737 22.5856 3.19531 22.5693C3.16962 22.5563 3.14363 22.5439 3.11816 22.5303C3.08587 22.513 3.05422 22.4947 3.02246 22.4766C2.99562 22.4613 2.96894 22.4456 2.94238 22.4297C2.92045 22.4165 2.89861 22.4032 2.87695 22.3896C2.78758 22.3336 2.69992 22.2738 2.61426 22.21C2.54024 22.1548 2.46839 22.0971 2.39844 22.0371C2.37257 22.0149 2.34574 21.9937 2.32031 21.9707L2.17188 21.8281C1.44802 21.1043 1 20.1046 1 19V1.99999L1.00488 1.89745C1.05621 1.39332 1.48232 0.999992 2 0.999992H8ZM8.65625 21H21V17H12.6572L8.65625 21ZM9 12.1719V17.8281L20.5781 6.24999L17.75 3.42187L9 12.1719ZM3 19C3 19.7634 3.42781 20.4266 4.05664 20.7637C4.0895 20.7813 4.12364 20.7959 4.15723 20.8115C4.18201 20.8231 4.20612 20.8361 4.23145 20.8467C4.26578 20.8609 4.30102 20.8725 4.33594 20.8848C4.3625 20.8941 4.38895 20.9038 4.41602 20.9121C4.46344 20.9265 4.51139 20.9384 4.55957 20.9492C4.70142 20.9811 4.84851 21 5 21C5.15115 21 5.29789 20.981 5.43945 20.9492C5.48764 20.9384 5.53557 20.9265 5.58301 20.9121C5.61008 20.9039 5.63651 20.8941 5.66309 20.8848C5.69802 20.8725 5.73323 20.8609 5.76758 20.8467C5.79291 20.8361 5.817 20.8231 5.8418 20.8115C5.8754 20.7959 5.90951 20.7812 5.94238 20.7637C6.57162 20.4267 7 19.7637 7 19V2.99999H3V19Z"/>
</svg>