<svg xmlns="http://www.w3.org/2000/svg" viewBox="0 0 24 24">
  <path d="M22 3H2V18H6.5V20.5L11.5 18H22V3Z"/>
  <path d="M22 2C22.5523 2 23 2.44772 23 3V18C23 18.5523 22.5523 19 22 19H11.7363L6.94727 21.3945C6.63735 21.5495 6.26939 21.5327 5.97461 21.3506C5.67979 21.1684 5.5 20.8466 5.5 20.5V19H2C1.44772 19 1 18.5523 1 18V3C1 2.44772 1.44772 2 2 2H22ZM3 17H6.5C7.05228 17 7.5 17.4477 7.5 18V18.8818L11.0527 17.1055C11.1916 17.036 11.3448 17 11.5 17H21V4H3V17Z"/>
  <path d="M6 11.25V9.75C6 9.19772 6.44772 8.75 7 8.75C7.55228 8.75 8 9.19772 8 9.75V11.25C8 11.8023 7.55228 12.25 7 12.25C6.44772 12.25 6 11.8023 6 11.25Z" fill="white"/>
  <path d="M11 11.25V9.75C11 9.19772 11.4477 8.75 12 8.75C12.5523 8.75 13 9.19772 13 9.75V11.25C13 11.8023 12.5523 12.25 12 12.25C11.4477 12.25 11 11.8023 11 11.25Z" fill="white"/>
  <path d="M16 11.25V9.75C16 9.19772 16.4477 8.75 17 8.75C17.5523 8.75 18 9.19772 18 9.75V11.25C18 11.8023 17.5523 12.25 17 12.25C16.4477 12.25 16 11.8023 16 11.25Z" fill="white"/>
</svg>