<svg xmlns="http://www.w3.org/2000/svg" viewBox="0 0 24 24">
  <path d="M22 2C22.5523 2 23 2.44772 23 3V18C23 18.5523 22.5523 19 22 19H11.7363L6.94727 21.3945C6.63735 21.5495 6.26939 21.5327 5.97461 21.3506C5.67979 21.1684 5.5 20.8466 5.5 20.5V19H2C1.44772 19 1 18.5523 1 18V3C1 2.44772 1.44772 2 2 2H22ZM7 8.75C6.44772 8.75 6 9.19772 6 9.75V11.25C6 11.8023 6.44772 12.25 7 12.25C7.55228 12.25 8 11.8023 8 11.25V9.75C8 9.19772 7.55228 8.75 7 8.75ZM12 8.75C11.4477 8.75 11 9.19772 11 9.75V11.25C11 11.8023 11.4477 12.25 12 12.25C12.5523 12.25 13 11.8023 13 11.25V9.75C13 9.19772 12.5523 8.75 12 8.75ZM17 8.75C16.4477 8.75 16 9.19772 16 9.75V11.25C16 11.8023 16.4477 12.25 17 12.25C17.5523 12.25 18 11.8023 18 11.25V9.75C18 9.19772 17.5523 8.75 17 8.75Z"/>
</svg>