<svg xmlns="http://www.w3.org/2000/svg" viewBox="0 0 24 24">
  <path fill-rule="evenodd" clip-rule="evenodd" d="M7.61387 2.58757C7.33773 2.10928 6.72614 1.9454 6.24785 2.22154C5.76955 2.49769 5.60568 3.10928 5.88182 3.58757L10.8726 12.2318L8.39205 16.5281C7.7618 15.6055 6.70161 15 5.5 15C3.567 15 2 16.567 2 18.5C2 20.433 3.567 22 5.5 22C6.83068 22 7.98792 21.2574 8.57991 20.164L9.61126 18.4164L12.0273 14.2318L14.3789 18.3049L15.3763 20.0804C15.9537 21.2194 17.1357 22 18.5 22C20.433 22 22 20.433 22 18.5C22 16.567 20.433 15 18.5 15C17.3171 15 16.2713 15.5868 15.6377 16.4852L13.182 12.2318L18.116 3.68571C18.3922 3.20742 18.2283 2.59583 17.75 2.31969C17.2717 2.04355 16.6601 2.20742 16.384 2.68571L12.0273 10.2318L7.61387 2.58757ZM17.2151 19.2744C17.2058 19.255 17.1958 19.2358 17.1851 19.2168L17.1488 19.1522C17.0535 18.955 17 18.7337 17 18.5C17 17.6716 17.6716 17 18.5 17C19.3284 17 20 17.6716 20 18.5C20 19.3284 19.3284 20 18.5 20C17.9549 20 17.4777 19.7092 17.2151 19.2744ZM6.82747 19.1984L6.83091 19.1925C6.93893 18.9853 7 18.7498 7 18.5C7 17.6716 6.32841 17 5.5 17C4.67158 17 4 17.6716 4 18.5C4 19.3284 4.67158 20 5.5 20C6.05318 20 6.53643 19.7005 6.79648 19.2549C6.80614 19.2358 6.81647 19.217 6.82747 19.1984Z"/>
</svg>