<svg viewBox="0 0 24 24" xmlns="http://www.w3.org/2000/svg">
<path fill-rule="evenodd" clip-rule="evenodd" d="M3.36438 5.35207C3.10178 5.16581 3.02629 5.04415 3.00582 5C3.02629 4.95585 3.10178 4.83418 3.36438 4.64792C3.74615 4.37714 4.36346 4.09235 5.21628 3.83651C6.90919 3.32863 9.30786 3 12 3C14.6921 3 17.0908 3.32863 18.7837 3.83651C19.6365 4.09235 20.2538 4.37714 20.6356 4.64792C20.8982 4.83418 20.9737 4.95584 20.9942 5C20.9737 5.04415 20.8982 5.16582 20.6356 5.35207C20.2538 5.62286 19.6365 5.90765 18.7837 6.16349C17.0908 6.67137 14.6921 7 12 7C9.30786 7 6.90919 6.67137 5.21628 6.16349C4.36346 5.90765 3.74615 5.62286 3.36438 5.35207ZM12 1C9.16929 1 6.56796 1.34294 4.64158 1.92085C3.68476 2.2079 2.8376 2.56956 2.20732 3.0166C1.60301 3.44523 1 4.10097 1 5V19C1 19.899 1.60301 20.5548 2.20732 20.9834C2.8376 21.4304 3.68476 21.7921 4.64158 22.0791C6.56796 22.6571 9.16929 23 12 23C14.8307 23 17.432 22.6571 19.3584 22.0791C20.3152 21.7921 21.1624 21.4304 21.7927 20.9834C22.397 20.5548 23 19.899 23 19V5C23 4.10097 22.397 3.44523 21.7927 3.0166C21.1624 2.56956 20.3152 2.2079 19.3584 1.92085C17.432 1.34294 14.8307 1 12 1ZM3 16.5502C3.4867 16.3094 4.04266 16.1005 4.64158 15.9209C6.56796 15.3429 9.16929 15 12 15C14.8307 15 17.432 15.3429 19.3584 15.9209C19.9573 16.1005 20.5133 16.3094 21 16.5502V7.44976C20.5133 7.69055 19.9573 7.89947 19.3584 8.07914C17.432 8.65706 14.8307 9 12 9C9.16929 9 6.56796 8.65706 4.64158 8.07914C4.04266 7.89947 3.4867 7.69055 3 7.44976V16.5502ZM3.36438 19.3521C3.10178 19.1658 3.02629 19.0442 3.00582 19C3.02629 18.9558 3.10178 18.8342 3.36438 18.6479C3.74615 18.3771 4.36346 18.0924 5.21628 17.8365C6.90919 17.3286 9.30786 17 12 17C14.6921 17 17.0908 17.3286 18.7837 17.8365C19.6365 18.0924 20.2538 18.3771 20.6356 18.6479C20.8982 18.8342 20.9737 18.9558 20.9942 19C20.9737 19.0442 20.8982 19.1658 20.6356 19.3521C20.2538 19.6229 19.6365 19.9076 18.7837 20.1635C17.0908 20.6714 14.6921 21 12 21C9.30786 21 6.90919 20.6714 5.21628 20.1635C4.36346 19.9076 3.74615 19.6229 3.36438 19.3521Z"/>
</svg>
