<svg viewBox="0 0 24 24" xmlns="http://www.w3.org/2000/svg">
<path fill-rule="evenodd" clip-rule="evenodd" d="M6.20738 4.89029C6.39667 4.6442 6.68953 4.5 7 4.5H22C22.5523 4.5 23 4.94772 23 5.5V18.5C23 19.0523 22.5523 19.5 22 19.5H7C6.68953 19.5 6.39667 19.3558 6.20738 19.1097L1.20738 12.6097C0.930875 12.2503 0.930875 11.7497 1.20738 11.3903L6.20738 4.89029ZM7.4924 6.5L3.26163 12L7.4924 17.5H21V6.5H7.4924ZM11.5859 12L9.79297 10.2071L11.2072 8.79291L13.0001 10.5858L14.793 8.79291L16.2072 10.2071L14.4143 12L16.2072 13.7929L14.793 15.2071L13.0001 13.4142L11.2072 15.2071L9.79297 13.7929L11.5859 12Z"/>
</svg>
