<svg xmlns="http://www.w3.org/2000/svg" viewBox="0 0 24 24">
  <path d="M20.5 2C21.8807 2 23 3.11929 23 4.5V16.5C23 17.8807 21.8807 19 20.5 19H13V20.5H19C19.5523 20.5 20 20.9477 20 21.5C20 22.0523 19.5523 22.5 19 22.5H5C4.44772 22.5 4 22.0523 4 21.5C4 20.9477 4.44772 20.5 5 20.5H11V19H3.5C2.11929 19 1 17.8807 1 16.5V4.5C1 3.11929 2.11929 2 3.5 2H20.5ZM3.5 4C3.22386 4 3 4.22386 3 4.5V16.5C3 16.7761 3.22386 17 3.5 17H20.5C20.7761 17 21 16.7761 21 16.5V4.5C21 4.22386 20.7761 4 20.5 4H3.5Z"/>
</svg>