<svg xmlns="http://www.w3.org/2000/svg" viewBox="0 0 24 24">
  <path d="M19.5 2C20.8807 2 22 3.1193 22 4.5V19.5C22 20.8807 20.8807 22 19.5 22H4.5C3.1193 22 2 20.8807 2 19.5V4.5C2 3.11929 3.11929 2 4.5 2H19.5ZM4.5 4C4.22386 4 4 4.22386 4 4.5V19.5C4 19.7762 4.22385 20 4.5 20H19.5C19.7762 20 20 19.7762 20 19.5V4.5C20 4.22385 19.7762 4 19.5 4H4.5ZM12 9C12.5523 9 13 9.44772 13 10V15.5859L15.293 13.293C15.6835 12.9024 16.3165 12.9024 16.707 13.293C17.0975 13.6835 17.0975 14.3165 16.707 14.707L12.707 18.707C12.3165 19.0975 11.6835 19.0975 11.293 18.707L7.29297 14.707C6.90245 14.3165 6.90247 13.6835 7.29297 13.293C7.68349 12.9024 8.31651 12.9024 8.70703 13.293L11 15.5859V10C11 9.44772 11.4477 9 12 9ZM16 6C16.5523 6 17 6.44772 17 7C17 7.55228 16.5523 8 16 8H8C7.44772 8 7 7.55228 7 7C7 6.44772 7.44772 6 8 6H16Z"/>
</svg>