<svg xmlns="http://www.w3.org/2000/svg" viewBox="0 0 24 24">
  <path d="M19.5 2C20.8807 2 22 3.1193 22 4.5V19.5C22 20.8807 20.8807 22 19.5 22H4.5C3.1193 22 2 20.8807 2 19.5V4.5C2 3.11929 3.11929 2 4.5 2H19.5ZM12 9C11.4477 9 11 9.44772 11 10V15.5859L8.70703 13.293C8.31651 12.9024 7.68349 12.9024 7.29297 13.293C6.90247 13.6835 6.90245 14.3165 7.29297 14.707L11.293 18.707C11.6835 19.0975 12.3165 19.0975 12.707 18.707L16.707 14.707C17.0975 14.3165 17.0975 13.6835 16.707 13.293C16.3165 12.9024 15.6835 12.9024 15.293 13.293L13 15.5859V10C13 9.44772 12.5523 9 12 9ZM8 6C7.44772 6 7 6.44772 7 7C7 7.55228 7.44772 8 8 8H16C16.5523 8 17 7.55228 17 7C17 6.44772 16.5523 6 16 6H8Z"/>
</svg>