<svg viewBox="0 0 24 24" xmlns="http://www.w3.org/2000/svg">
<path fill-rule="evenodd" clip-rule="evenodd" d="M12 1C5.92487 1 1 5.92487 1 12C1 18.0751 5.92487 23 12 23C18.0751 23 23 18.0751 23 12C23 5.92487 18.0751 1 12 1ZM3 12C3 7.02943 7.02943 3 12 3C16.9706 3 21 7.02943 21 12C21 16.9706 16.9706 21 12 21C7.02943 21 3 16.9706 3 12ZM8.20718 9.79289L12.0001 13.5858L15.793 9.79289L17.2072 11.2071L12.7072 15.7071C12.3167 16.0976 11.6835 16.0976 11.293 15.7071L6.79297 11.2071L8.20718 9.79289Z"/>
</svg>
