<svg viewBox="0 0 24 24" xmlns="http://www.w3.org/2000/svg">
<path fill-rule="evenodd" clip-rule="evenodd" d="M7.5 7C8.60455 7 9.5 6.10455 9.5 5C9.5 3.89543 8.60455 3 7.5 3C6.39545 3 5.5 3.89543 5.5 5C5.5 6.10455 6.39545 7 7.5 7ZM9.5 12C9.5 13.1046 8.60455 14 7.5 14C6.39545 14 5.5 13.1046 5.5 12C5.5 10.8955 6.39545 10 7.5 10C8.60455 10 9.5 10.8955 9.5 12ZM9.5 19C9.5 20.1045 8.60455 21 7.5 21C6.39545 21 5.5 20.1045 5.5 19C5.5 17.8954 6.39545 17 7.5 17C8.60455 17 9.5 17.8954 9.5 19ZM16.5 7C17.6045 7 18.5 6.10455 18.5 5C18.5 3.89543 17.6045 3 16.5 3C15.3954 3 14.5 3.89543 14.5 5C14.5 6.10455 15.3954 7 16.5 7ZM18.5 12C18.5 13.1046 17.6045 14 16.5 14C15.3954 14 14.5 13.1046 14.5 12C14.5 10.8955 15.3954 10 16.5 10C17.6045 10 18.5 10.8955 18.5 12ZM18.5 19C18.5 20.1045 17.6045 21 16.5 21C15.3954 21 14.5 20.1045 14.5 19C14.5 17.8954 15.3954 17 16.5 17C17.6045 17 18.5 17.8954 18.5 19Z"/>
</svg>
