<svg xmlns="http://www.w3.org/2000/svg" viewBox="0 0 24 24">
  <path d="M21.5 20C22.0523 20 22.5 20.4477 22.5 21C22.5 21.5523 22.0523 22 21.5 22H3.5C2.94772 22 2.5 21.5523 2.5 21C2.5 20.4477 2.94772 20 3.5 20H21.5Z"/>
  <path d="M5.5 13.36V17H9.1586L19.5 6.65405L15.8476 3L5.5 13.36Z"/>
  <path d="M15.8477 2C16.1129 2.00003 16.3672 2.10542 16.5547 2.29297L20.207 5.94727C20.5973 6.33775 20.5973 6.97084 20.207 7.36133L9.86621 17.707C9.67866 17.8947 9.4235 18 9.1582 18H5.5C4.94772 18 4.5 17.5523 4.5 17V13.3604C4.5 13.0955 4.60488 12.8408 4.79199 12.6533L15.1396 2.29297L15.2129 2.22656C15.3909 2.0805 15.6154 2.00004 15.8477 2ZM6.5 13.7734V16H8.74414L18.0859 6.65332L15.8477 4.41406L6.5 13.7734Z"/>
</svg>