<svg viewBox="0 0 24 24" xmlns="http://www.w3.org/2000/svg">
<path fill-rule="evenodd" clip-rule="evenodd" d="M16.5548 2.29305C16.3672 2.10537 16.1127 1.99995 15.8474 2C15.582 2.00005 15.3275 2.10557 15.14 2.29332L4.79247 12.6533C4.60519 12.8408 4.5 13.0949 4.5 13.36V17C4.5 17.5523 4.94772 18 5.5 18H9.1586C9.42389 18 9.67831 17.8946 9.86586 17.707L20.2073 7.361C20.5976 6.97051 20.5976 6.33759 20.2073 5.9471L16.5548 2.29305ZM6.5 13.7738L15.8478 4.41479L18.0861 6.65405L8.74426 16H6.5V13.7738ZM3.5 22H21.5V20H3.5V22Z"/>
</svg>
