<svg xmlns="http://www.w3.org/2000/svg" viewBox="0 0 16 16" >
  <path d="M13.2324 2.33301C14.3942 2.33301 15.3119 3.31984 15.2275 4.47852L15.0332 7.14551C14.9681 8.03718 14.3245 8.75492 13.4863 8.94727L12.2637 12.3096C11.9673 13.1244 11.1922 13.667 10.3252 13.667C8.89441 13.6667 7.89871 12.2442 8.3877 10.8994L9.07812 9H6.66699C6.2988 9 6 8.7012 6 8.33301V8H4.66699C4.2988 8 4 7.7012 4 7.33301V6.33301H1.33301C0.965076 6.33283 0.667168 6.03492 0.666992 5.66699C0.666992 5.29891 0.964968 5.00018 1.33301 5H4V4C4 3.63181 4.2988 3.33301 4.66699 3.33301H6V3C6 2.63181 6.2988 2.33301 6.66699 2.33301H13.2324Z"/>
</svg>