<svg xmlns="http://www.w3.org/2000/svg" viewBox="0 0 24 24">
  <path fill-rule="evenodd" clip-rule="evenodd" d="M12 1C5.92487 1 1 5.92487 1 12C1 18.0751 5.92487 23 12 23C18.0751 23 23 18.0751 23 12C23 5.92487 18.0751 1 12 1ZM3 12C3 7.02943 7.02943 3 12 3C16.9706 3 21 7.02943 21 12C21 16.9706 16.9706 21 12 21C7.02943 21 3 16.9706 3 12ZM8.5 14.5C8.15342 14.5 7.83156 14.6795 7.64935 14.9743C7.46714 15.2691 7.45058 15.6372 7.60557 15.9472L8.5 15.5C7.60557 15.9472 7.6058 15.9477 7.60602 15.9481L7.6065 15.9491L7.60752 15.9511L7.60987 15.9557L7.61579 15.9672C7.62027 15.9758 7.62586 15.9864 7.63255 15.9987C7.64593 16.0234 7.6638 16.0554 7.68631 16.0936C7.73127 16.1699 7.79516 16.2718 7.87929 16.3905C8.04677 16.627 8.2992 16.9372 8.64814 17.2474C9.35443 17.8752 10.4572 18.5 12 18.5C13.5428 18.5 14.6456 17.8752 15.3519 17.2474C15.7008 16.9372 15.9532 16.627 16.1207 16.3905C16.2048 16.2718 16.2687 16.1699 16.3137 16.0936C16.3362 16.0554 16.3541 16.0234 16.3675 15.9987L16.3766 15.9817L16.3842 15.9672L16.3901 15.9557L16.3925 15.9511L16.3935 15.9491L16.394 15.9481C16.3942 15.9477 16.3944 15.9472 15.5 15.5L16.3944 15.9472C16.5494 15.6372 16.5329 15.2691 16.3507 14.9743C16.1684 14.6795 15.8466 14.5 15.5 14.5H8.5ZM15.5 8C16.0523 8 16.5 8.44772 16.5 9V11C16.5 11.5523 16.0523 12 15.5 12C14.9477 12 14.5 11.5523 14.5 11V9C14.5 8.44772 14.9477 8 15.5 8ZM9.5 9C9.5 8.44772 9.05228 8 8.5 8C7.94772 8 7.5 8.44772 7.5 9V11C7.5 11.5523 7.94772 12 8.5 12C9.05228 12 9.5 11.5523 9.5 11V9Z"/>
</svg>