<svg xmlns="http://www.w3.org/2000/svg" viewBox="0 0 24 24">
  <path d="M12 1C5.92545 1 1 5.92545 1 12C1 18.0746 5.92545 23 12 23C18.0746 23 23 18.0746 23 12C23 5.92545 18.0746 1 12 1ZM12 21.1339C6.9567 21.1339 2.86607 17.0433 2.86607 12C2.86607 6.9567 6.9567 2.86607 12 2.86607C17.0433 2.86607 21.1339 6.9567 21.1339 12C21.1339 17.0433 17.0433 21.1339 12 21.1339ZM14.89 6.6817C14.4996 6.59576 14.0453 6.54911 13.5321 6.54911C10.9123 6.54911 9.13951 7.91674 8.6558 10.2297H7.875C7.76696 10.2297 7.67857 10.3181 7.67857 10.4261V11.094C7.67857 11.202 7.76696 11.2904 7.875 11.2904H8.52321C8.51585 11.3911 8.51585 11.4967 8.51585 11.6047V12.5107H7.875C7.76696 12.5107 7.67857 12.5991 7.67857 12.7071V13.375C7.67857 13.483 7.76696 13.5714 7.875 13.5714H8.61652C9.03884 16.0071 10.8362 17.4509 13.5321 17.4509C14.0453 17.4509 14.4996 17.4092 14.89 17.3257C14.9808 17.306 15.0471 17.2275 15.0471 17.1342V16.0833C15.0471 15.9605 14.9342 15.8672 14.8138 15.8917C14.4529 15.9605 14.0306 15.9924 13.542 15.9924C11.86 15.9924 10.7306 15.0938 10.3549 13.5714H13.5616C13.6696 13.5714 13.758 13.483 13.758 13.375V12.7071C13.758 12.5991 13.6696 12.5107 13.5616 12.5107H10.2125V11.6268C10.2125 11.5114 10.2125 11.396 10.2199 11.2879H13.5567C13.6647 11.2879 13.7531 11.1996 13.7531 11.0915V10.4237C13.7531 10.3156 13.6647 10.2272 13.5567 10.2272H10.4065C10.8288 8.83013 11.9362 8.00759 13.5395 8.00759C14.0281 8.00759 14.4504 8.04442 14.8089 8.11562C14.8374 8.12143 14.8668 8.12086 14.895 8.11394C14.9232 8.10702 14.9495 8.09393 14.9721 8.07562C14.9946 8.0573 15.0128 8.03421 15.0254 8.00801C15.0379 7.98181 15.0445 7.95316 15.0446 7.92411V6.87321C15.0446 6.77991 14.9808 6.70134 14.89 6.6817Z"/>
</svg>