<svg xmlns="http://www.w3.org/2000/svg" viewBox="0 0 24 24">
  <path fill-rule="evenodd" clip-rule="evenodd" d="M4.5 4C4.22386 4 4 4.22386 4 4.5V19.5C4 19.7761 4.22386 20 4.5 20H5.5H8V4H5.5H4.5ZM4.5 22H5.5H9H18H19.5C20.8807 22 22 20.8807 22 19.5V4.5C22 3.11929 20.8807 2 19.5 2H18H9H5.5H4.5C3.11929 2 2 3.11929 2 4.5V19.5C2 20.8807 3.11929 22 4.5 22ZM19.5 20H18H10V4H18H19.5C19.7761 4 20 4.22386 20 4.5V19.5C20 19.7761 19.7761 20 19.5 20ZM16.7071 10.7071C17.0976 10.3166 17.0976 9.68342 16.7071 9.29289C16.3166 8.90237 15.6834 8.90237 15.2929 9.29289L13.2929 11.2929C12.9024 11.6834 12.9024 12.3166 13.2929 12.7071L15.2929 14.7071C15.6834 15.0976 16.3166 15.0976 16.7071 14.7071C17.0976 14.3166 17.0976 13.6834 16.7071 13.2929L15.4142 12L16.7071 10.7071Z"/>
</svg>