<svg viewBox="0 0 24 24" xmlns="http://www.w3.org/2000/svg">
<path fill-rule="evenodd" clip-rule="evenodd" d="M12.7072 1.79289C12.3167 1.40237 11.6835 1.40237 11.293 1.79289L5.29297 7.79289L6.70718 9.20711L11.0039 4.91038V16.5H13.0039V4.91804L17.293 9.20711L18.7072 7.79289L12.7072 1.79289ZM5.63839 17.9791C6.80502 19.3578 8.76449 20.5 12 20.5C15.2355 20.5 17.195 19.3578 18.3616 17.9791C19.558 16.5652 20 14.8069 20 13.5H22C22 15.1931 21.442 17.4348 19.8884 19.2709C18.305 21.1422 15.7645 22.5 12 22.5C8.23551 22.5 5.69498 21.1422 4.11161 19.2709C2.55797 17.4348 2 15.1931 2 13.5H4C4 14.8069 4.44203 16.5652 5.63839 17.9791Z"/>
</svg>
