<svg xmlns="http://www.w3.org/2000/svg" viewBox="0 0 24 24">
  <path d="M14.9959 3.53057C16.9561 2.04857 19.7556 2.34878 21.3533 4.25225L21.5027 4.43975C22.9375 6.33707 22.7025 9.02076 20.9598 10.6399L20.781 10.7982L19.1531 12.1634L19.8699 13.0179L19.9314 13.0989C20.2165 13.518 20.1432 14.0931 19.7469 14.4261C19.3503 14.7588 18.7714 14.7314 18.408 14.3782L18.3377 14.303L17.6209 13.4485L10.8064 19.1673C10.6034 19.3376 10.341 19.4207 10.0769 19.3978L7.55546 19.178L5.87968 20.5853C4.86254 21.4387 3.37691 21.3674 2.44511 20.4612L2.2664 20.2689C1.35679 19.1848 1.49787 17.5682 2.58183 16.6585L4.25858 15.2503L4.48026 12.7288L4.49394 12.6312C4.53646 12.405 4.65598 12.1993 4.83378 12.0501L11.6482 6.33038L10.9529 5.50128L10.8904 5.42022C10.6055 5.00105 10.6794 4.42591 11.076 4.09307C11.4726 3.76052 12.0516 3.78767 12.4148 4.14092L12.4842 4.21612L13.1805 5.04522L14.8084 3.67999L14.9959 3.53057ZM6.43534 13.3157L6.21562 15.8382C6.19533 16.0692 6.09598 16.285 5.93534 16.4495L5.86308 16.5169L3.86796 18.1907C3.63 18.3904 3.59903 18.7457 3.79862 18.9837L3.88065 19.0628C4.08624 19.2259 4.38462 19.2282 4.59354 19.053L6.58671 17.3802L6.66581 17.3206C6.85557 17.191 7.08524 17.1297 7.3162 17.1497L9.83671 17.3694L16.3348 11.9163L12.9334 7.8626L6.43534 13.3157ZM19.8211 5.53838C18.9405 4.4892 17.4194 4.29542 16.3103 5.04913L16.0935 5.21221L14.4656 6.57745L17.867 10.6312L19.4949 9.26592L19.6941 9.08135C20.5666 8.18405 20.6886 6.78934 19.9851 5.7542L19.8211 5.53838Z"/>
</svg>