<svg xmlns="http://www.w3.org/2000/svg" viewBox="0 0 24 24">
  <path fill-rule="evenodd" clip-rule="evenodd" d="M13.5494 3.5L13.5199 3.50015C11.8997 3.51653 10.5995 4.8432 10.6158 6.46339C10.6158 6.46337 10.6158 6.46341 10.6158 6.46339L10.6225 7.11799L10.6225 7.14113L10.5757 10.7467C10.5686 11.2939 10.123 11.7337 9.57575 11.7337H7V13.5322H9.62255C10.1748 13.5322 10.6226 13.9799 10.6226 14.5322V20.5H13.0101V14.5322C13.0101 13.9799 13.4579 13.5322 14.0101 13.5322H16.5577L16.8344 11.7337H14.0101C13.4579 11.7337 13.0101 11.286 13.0101 10.7337V7.2833C13.0101 6.1879 13.8981 5.29985 14.9936 5.29985H17V3.5H13.5494ZM13.4996 1.50025L13.5494 1.5H18C18.5523 1.5 19 1.94772 19 2.5V6.29985C19 6.85213 18.5523 7.29985 18 7.29985H15.0101V9.7337H18C18.2918 9.7337 18.569 9.86113 18.759 10.0826C18.9489 10.304 19.0327 10.5974 18.9884 10.8857L18.404 14.6842C18.329 15.172 17.9092 15.5322 17.4156 15.5322H15.0101V21.5C15.0101 22.0523 14.5624 22.5 14.0101 22.5H9.62255C9.07027 22.5 8.62255 22.0523 8.62255 21.5V15.5322H6C5.44772 15.5322 5 15.0844 5 14.5322V10.7337C5 10.1814 5.44772 9.7337 6 9.7337H8.58865L8.62248 7.12674L8.61595 6.48371C8.58842 3.75903 10.7749 1.52785 13.4996 1.50025Z"/>
</svg>