<svg viewBox="0 0 24 24" xmlns="http://www.w3.org/2000/svg">
<path fill-rule="evenodd" clip-rule="evenodd" d="M12.7071 1.79289C12.3166 1.40237 11.6834 1.40237 11.2929 1.79289L7.79289 5.29289C7.40237 5.68342 7.40237 6.31658 7.79289 6.70711L11.2929 10.2071C11.6834 10.5976 12.3166 10.5976 12.7071 10.2071L16.2071 6.70711C16.5976 6.31658 16.5976 5.68342 16.2071 5.29289L12.7071 1.79289ZM12 8.08579L9.91421 6L12 3.91421L14.0858 6L12 8.08579ZM16.2071 17.2929L12.7071 13.7929C12.3166 13.4024 11.6834 13.4024 11.2929 13.7929L7.79289 17.2929C7.40237 17.6834 7.40237 18.3166 7.79289 18.7071L11.2929 22.2071C11.6834 22.5976 12.3166 22.5976 12.7071 22.2071L16.2071 18.7071C16.5976 18.3166 16.5976 17.6834 16.2071 17.2929ZM12 20.0858L9.91421 18L12 15.9142L14.0858 18L12 20.0858ZM17.2929 7.79289C17.6834 7.40237 18.3166 7.40237 18.7071 7.79289L22.2071 11.2929C22.5976 11.6834 22.5976 12.3166 22.2071 12.7071L18.7071 16.2071C18.3166 16.5976 17.6834 16.5976 17.2929 16.2071L13.7929 12.7071C13.4024 12.3166 13.4024 11.6834 13.7929 11.2929L17.2929 7.79289ZM15.9142 12L18 14.0858L20.0858 12L18 9.91421L15.9142 12ZM6.70711 7.79289C6.31658 7.40237 5.68342 7.40237 5.29289 7.79289L1.79289 11.2929C1.40237 11.6834 1.40237 12.3166 1.79289 12.7071L5.29289 16.2071C5.68342 16.5976 6.31658 16.5976 6.70711 16.2071L10.2071 12.7071C10.5976 12.3166 10.5976 11.6834 10.2071 11.2929L6.70711 7.79289ZM6 14.0858L3.91421 12L6 9.91421L8.08579 12L6 14.0858Z"/>
</svg>
