<svg viewBox="0 0 24 24" xmlns="http://www.w3.org/2000/svg">
<path fill-rule="evenodd" clip-rule="evenodd" d="M22 4.5H2V2.5H22V4.5ZM7.5 12.5H2V10.5H7.5V12.5ZM2 20.5H7.5V18.5H2V20.5ZM10.5 12.75C10.5 9.85052 12.8505 7.5 15.75 7.5C18.6495 7.5 21 9.85052 21 12.75C21 13.968 20.5852 15.0891 19.8893 15.9798L22.7098 18.8207L21.2905 20.2298L18.3778 17.296C17.6049 17.7437 16.7074 18 15.75 18C12.8505 18 10.5 15.6495 10.5 12.75ZM15.75 9.5C13.9551 9.5 12.5 10.9551 12.5 12.75C12.5 14.5449 13.9551 16 15.75 16C17.5449 16 19 14.5449 19 12.75C19 10.9551 17.5449 9.5 15.75 9.5Z"/>
</svg>
