<svg xmlns="http://www.w3.org/2000/svg" viewBox="0 0 16 16" >
  <path d="M12.5928 0.671065C12.7812 0.650124 12.97 0.710613 13.1113 0.83708C13.2524 0.963466 13.3329 1.14375 13.333 1.33317V3.33317C13.333 3.52279 13.2526 3.70378 13.1113 3.83024C12.97 3.95671 12.7812 4.0172 12.5928 3.99626L10.4668 3.75896C11.0049 4.35087 11.333 5.13709 11.333 6.00017V14.0002C11.333 14.7366 10.7364 15.3332 10 15.3332H6C5.26361 15.3332 4.66699 14.7366 4.66699 14.0002V6.00017C4.66699 4.88021 5.21938 3.88964 6.0664 3.28532C6.02513 3.1986 6 3.10255 6 3.00017V2.9904C5.6697 2.98428 5.3413 2.98304 5.00586 3.01774C4.46073 3.07417 4.06139 3.21514 3.80469 3.47185C3.52039 3.75622 3.40779 4.03137 3.3584 4.39274C3.3174 4.69289 3.32202 5.00932 3.32812 5.42888C3.33061 5.6 3.33301 5.78885 3.33301 6.00017C3.33296 6.36821 3.035 6.66698 2.66699 6.66716C2.29883 6.66716 2.00004 6.36832 2 6.00017C2 5.85022 1.99739 5.6977 1.99512 5.54509C1.98824 5.08366 1.98142 4.61972 2.03711 4.21208C2.11965 3.60825 2.34122 3.04957 2.8623 2.52849L2.97265 2.42497C3.53443 1.92869 4.24761 1.75587 4.86914 1.69157C5.24722 1.65247 5.64619 1.65209 6 1.65739C6.00505 1.29355 6.30195 1.00017 6.66699 1.00017H9.62793L12.5928 0.671065Z" />
</svg>