<svg xmlns="http://www.w3.org/2000/svg" viewBox="0 0 22 20">
  <path d="M3.85 3.78378C3.85 1.69407 5.57372 0 7.7 0C9.82628 0 11.55 1.69407 11.55 3.78378C11.55 5.8735 9.82628 7.56757 7.7 7.56757C5.57372 7.56757 3.85 5.8735 3.85 3.78378Z"/>
  <path fill-rule="evenodd" clip-rule="evenodd" d="M19.25 20C20.7688 20 22 18.79 22 17.2973V15.1351L15.5899 7.30817C15.1719 6.9347 14.534 6.93314 14.1141 7.30455L9.33229 13.6964L5.77587 8.90891C5.38442 8.57915 4.81246 8.56084 4.4 8.86486L0 14.5946V17.2973C0 18.79 1.23123 20 2.75 20H19.25Z"/>
</svg>