<svg xmlns="http://www.w3.org/2000/svg" viewBox="0 0 16 16" >
  <path d="M6.10938 0.731334C6.34199 0.620996 6.617 0.654442 6.81641 0.817272C6.90413 0.888933 7.00453 0.967898 7.11426 1.05458C7.77581 1.57716 8.78836 2.37637 9.55664 3.50184L9.72852 3.76844C10.1179 4.4092 10.4298 5.16757 10.6494 5.7909C10.6815 5.88195 10.7116 5.97126 10.7402 6.05751C10.8901 5.80473 11.0158 5.47972 11.0654 5.06337C11.0996 4.77773 11.3128 4.54621 11.5947 4.48915C11.8768 4.43209 12.1642 4.56231 12.3066 4.81239C12.506 5.16245 12.6424 5.40517 12.7754 5.70985C12.9058 6.00867 13.0285 6.35773 13.2178 6.92665L13.3545 7.36903C13.6361 8.35767 13.667 9.05813 13.667 9.69911C13.667 12.8691 11.1032 15.3329 8 15.3329C4.91611 15.3329 2.33301 12.9943 2.33301 9.80555C2.33303 9.10132 2.40767 8.00642 2.94141 7.13856L3.19727 6.74794C3.44 6.40253 3.64888 6.17909 3.88965 5.92079C3.98451 5.81902 4.08438 5.71185 4.19336 5.58973L4.42383 5.33387C4.54996 5.19507 4.62595 5.11209 4.70312 5.01161C4.80382 4.88049 4.90508 4.71844 5.10645 4.33973C5.26864 4.03459 5.42859 3.53274 5.54688 2.95301C5.66343 2.38176 5.72852 1.79062 5.72852 1.3329C5.72864 1.07559 5.87692 0.84168 6.10938 0.731334Z" />
</svg>