<svg viewBox="0 0 24 24" xmlns="http://www.w3.org/2000/svg">
<path fill-rule="evenodd" clip-rule="evenodd" d="M10.5 6.5C5.20023 6.5 1 11.0318 1 16.5H3C3 12.0271 6.41097 8.5 10.5 8.5C11.5937 8.5 12.6314 8.74914 13.568 9.19781C15.6292 10.1852 17.214 12.1482 17.7773 14.5565L15.5302 13.152L14.4702 14.848L18.4702 17.348C18.9107 17.6233 19.4886 17.5155 19.8002 17.1L22.8002 13.1L21.2002 11.9L19.6817 13.9246C18.949 11.023 17.0062 8.6272 14.432 7.39409L14.0009 8.29407L14.432 7.39409C13.2339 6.82016 11.9017 6.5 10.5 6.5Z"/>
</svg>
