<svg viewBox="0 0 24 24" xmlns="http://www.w3.org/2000/svg">
<path fill-rule="evenodd" clip-rule="evenodd" d="M20 6.70717L20.0846 6.78527L20 6.87639V6.70717ZM19.2339 6L17.3216 4.23481L18.6782 2.7652L22.1782 5.99595C22.3734 6.17619 22.4889 6.42673 22.4991 6.69226C22.5094 6.95779 22.4135 7.21648 22.2327 7.4112L18.7327 11.1805L17.2671 9.81955L18.9567 8H8.50312C5.59869 8 3.11727 10.3859 3.00408 13.289L3.00408 13.289C2.88449 16.3552 5.43265 19 8.50312 19H17.0008V21H8.50312C4.30029 21 0.841665 17.4144 1.0056 13.211C1.16064 9.23446 4.52455 6 8.50312 6H19.2339Z"/>
</svg>
