<svg viewBox="0 0 24 24" xmlns="http://www.w3.org/2000/svg">
<path fill-rule="evenodd" clip-rule="evenodd" d="M7 8C7 5.23858 9.23858 3 12 3C14.7614 3 17 5.23858 17 8V16C17 18.7614 14.7614 21 12 21H11V23H12C15.5571 23 18.4944 20.3469 18.9412 16.9116C21.2527 16.4713 23 14.4397 23 12C23 9.5603 21.2527 7.52872 18.9412 7.08845C18.4944 3.65314 15.5571 1 12 1C8.44295 1 5.50555 3.65314 5.05881 7.08845C2.74733 7.52872 1 9.5603 1 12C1 14.419 2.71776 16.4367 5 16.9V17H6H7V8ZM5 14.8293V9.1707C3.83481 9.58254 3 10.6938 3 12C3 13.3062 3.83481 14.4175 5 14.8293ZM19 9.1707V14.8293C20.1652 14.4175 21 13.3062 21 12C21 10.6938 20.1652 9.58254 19 9.1707Z"/>
</svg>
