<svg xmlns="http://www.w3.org/2000/svg" viewBox="0 0 24 24">
  <path fill-rule="evenodd" clip-rule="evenodd" d="M1 9C1 5.41017 3.91015 2.5 7.5 2.5C9.24701 2.5 10.8329 3.18982 12 4.30968C13.1671 3.18982 14.753 2.5 16.5 2.5C20.0898 2.5 23 5.41017 23 9C23 12.1341 21.164 14.9994 19.0231 17.1615C16.8724 19.3335 14.2421 20.9718 12.3154 21.6121C12.1106 21.6801 11.8894 21.6801 11.6846 21.6121C9.75788 20.9718 7.12761 19.3335 4.97692 17.1615C2.83596 14.9994 1 12.1341 1 9ZM7.5 4.5C5.01472 4.5 3 6.51473 3 9C3 11.3659 4.41404 13.7506 6.39808 15.7543C8.24453 17.619 10.4368 19.0021 12 19.6011C13.5632 19.0021 15.7555 17.619 17.6019 15.7543C19.586 13.7506 21 11.3659 21 9C21 6.51473 18.9853 4.5 16.5 4.5C14.9789 4.5 13.6337 5.25379 12.8176 6.41266C12.6303 6.67865 12.3253 6.8369 12 6.8369C11.6747 6.8369 11.3697 6.67865 11.1824 6.41266C10.3663 5.25379 9.02112 4.5 7.5 4.5ZM8 12C8 11.4477 8.44772 11 9 11H11V9C11 8.44772 11.4477 8 12 8C12.5523 8 13 8.44772 13 9V11H15C15.5523 11 16 11.4477 16 12C16 12.5523 15.5523 13 15 13H13V15C13 15.5523 12.5523 16 12 16C11.4477 16 11 15.5523 11 15V13H9C8.44772 13 8 12.5523 8 12Z"/>
</svg>