<svg xmlns="http://www.w3.org/2000/svg" viewBox="0 0 24 24">
  <path fill-rule="evenodd" clip-rule="evenodd" d="M3 9C3 6.51473 5.01472 4.5 7.5 4.5C9.02112 4.5 10.3663 5.25379 11.1824 6.41266C11.3697 6.67865 11.6747 6.8369 12 6.8369C12.3253 6.8369 12.6303 6.67865 12.8176 6.41266C13.6337 5.25379 14.9789 4.5 16.5 4.5C18.9853 4.5 21 6.51473 21 9C21 9.74712 20.8599 10.4968 20.6017 11.2407C20.4206 11.7624 20.6968 12.3322 21.2186 12.5133C21.7403 12.6944 22.3101 12.4182 22.4912 11.8964C22.8124 10.9709 23 9.99938 23 9C23 5.41017 20.0898 2.5 16.5 2.5C14.753 2.5 13.1671 3.18982 12 4.30968C10.8329 3.18982 9.24701 2.5 7.5 2.5C3.91015 2.5 1 5.41017 1 9C1 12.1341 2.83596 14.9994 4.97692 17.1615C7.12761 19.3335 9.75788 20.9718 11.6846 21.6121C11.8894 21.6801 12.1106 21.6801 12.3154 21.6121C13.5527 21.2009 15.06 20.3857 16.5309 19.3062C16.9762 18.9794 17.0722 18.3536 16.7454 17.9083C16.4186 17.4631 15.7928 17.3671 15.3476 17.6938C14.1325 18.5856 12.9438 19.2393 12 19.6011C10.4368 19.0021 8.24451 17.619 6.39808 15.7543C4.41404 13.7506 3 11.3659 3 9ZM17.9363 12.1489C17.8081 11.8069 17.5035 11.562 17.1419 11.5101C16.7803 11.4583 16.4192 11.6078 16.2 11.9L15 13.5H13.5C12.9477 13.5 12.5 13.9477 12.5 14.5C12.5 15.0523 12.9477 15.5 13.5 15.5H15.5C15.8148 15.5 16.1111 15.3518 16.3 15.1L16.7047 14.5605L17.5637 16.8511C17.6923 17.1942 17.9983 17.4394 18.3611 17.4903C18.7239 17.5412 19.0855 17.3896 19.3036 17.0952L20.485 15.5H22C22.5523 15.5 23 15.0523 23 14.5C23 13.9477 22.5523 13.5 22 13.5H19.9813C19.6644 13.5 19.3662 13.6502 19.1776 13.9049L18.7907 14.4273L17.9363 12.1489Z"/>
</svg>