<svg viewBox="0 0 24 24" xmlns="http://www.w3.org/2000/svg">
<path fill-rule="evenodd" clip-rule="evenodd" d="M11.3753 2.21913C11.7405 1.92696 12.2595 1.92696 12.6247 2.21913L20.1247 8.21913C20.3619 8.4089 20.5 8.69622 20.5 9V21C20.5 21.5523 20.0523 22 19.5 22H14.5H9.5H4.5C3.94772 22 3.5 21.5523 3.5 21V9C3.5 8.69622 3.63809 8.4089 3.8753 8.21913L11.3753 2.21913ZM5.5 20H8.5V14.5C8.5 13.9477 8.94772 13.5 9.5 13.5H14.5C15.0523 13.5 15.5 13.9477 15.5 14.5V20H18.5V9.48062L12 4.28062L5.5 9.48063V20ZM13.5 20V15.5H10.5V20H13.5Z"/>
</svg>
