<svg viewBox="0 0 24 24" xmlns="http://www.w3.org/2000/svg">
<path fill-rule="evenodd" clip-rule="evenodd" d="M1 5C1 3.89543 1.89543 3 3 3H21C22.1046 3 23 3.89543 23 5V19C23 20.1046 22.1046 21 21 21H3C1.89543 21 1 20.1046 1 19V5ZM21 5H3V19H21V5ZM5.5 10.5C5.5 8.84317 6.84317 7.5 8.5 7.5C10.1568 7.5 11.5 8.84317 11.5 10.5C11.5 11.1753 11.2769 11.7985 10.9003 12.2999C11.8717 13.0297 12.5 14.1915 12.5 15.5H10.5C10.5 14.3954 9.60456 13.5 8.5 13.5C7.39543 13.5 6.5 14.3954 6.5 15.5H4.5C4.5 14.1915 5.12833 13.0297 6.09973 12.2999C5.72315 11.7985 5.5 11.1753 5.5 10.5ZM8.5 11.5C9.05227 11.5 9.5 11.0523 9.5 10.5C9.5 9.94773 9.05227 9.5 8.5 9.5C7.94773 9.5 7.5 9.94773 7.5 10.5C7.5 11.0523 7.94773 11.5 8.5 11.5ZM18 11H14V9H18V11ZM15 15H18V13H15V15Z"/>
</svg>
