<svg xmlns="http://www.w3.org/2000/svg" viewBox="0 0 24 24">
  <path d="M6.36914 12.2246C6.76191 11.9043 7.34092 11.9269 7.70703 12.293C8.07315 12.6591 8.09574 13.2381 7.77539 13.6309L7.70703 13.707L4.91016 16.5039H11.25C11.8022 16.5039 12.2499 16.9517 12.25 17.5039C12.25 18.0562 11.8023 18.5039 11.25 18.5039H4.91797L7.70703 21.293L7.77539 21.3691C8.09574 21.7619 8.07314 22.3409 7.70703 22.707C7.34092 23.0731 6.76191 23.0957 6.36914 22.7754L6.29297 22.707L1.83301 18.2471C1.62924 18.064 1.5 17.7994 1.5 17.5039C1.50001 17.4626 1.50293 17.4219 1.50781 17.3818C1.5333 17.1667 1.62785 16.9581 1.79297 16.793L6.29297 12.293L6.36914 12.2246ZM16.293 8.29297C16.659 7.9269 17.2381 7.90439 17.6309 8.22461L17.707 8.29297L22.207 12.793L22.2754 12.8691C22.4 13.0219 22.4714 13.203 22.4922 13.3887C22.4936 13.401 22.4951 13.4133 22.4961 13.4258C22.4973 13.4424 22.4986 13.4589 22.499 13.4756C22.4993 13.485 22.5 13.4944 22.5 13.5039C22.5 13.5107 22.4992 13.5177 22.499 13.5244C22.4988 13.5345 22.4986 13.5446 22.498 13.5547C22.4843 13.8301 22.3584 14.0745 22.166 14.2471L17.707 18.707C17.3165 19.0974 16.6835 19.0975 16.293 18.707C15.9026 18.3165 15.9026 17.6835 16.293 17.293L19.082 14.5039H12.75C12.1977 14.5039 11.75 14.0562 11.75 13.5039C11.7501 12.9517 12.1978 12.5039 12.75 12.5039H19.0898L16.293 9.70703L16.2246 9.63086C15.9044 9.23813 15.927 8.65905 16.293 8.29297ZM21.8525 2.75488C22.3567 2.80621 22.75 3.23232 22.75 3.75V7.5C22.75 8.05228 22.3023 8.5 21.75 8.5C21.1977 8.5 20.75 8.05228 20.75 7.5V4.75H3.25V12C3.25 12.5523 2.80228 13 2.25 13C1.69772 13 1.25 12.5523 1.25 12V3.75L1.25488 3.64746C1.30621 3.14333 1.73232 2.75 2.25 2.75H21.75L21.8525 2.75488Z"/>
</svg>