<svg xmlns="http://www.w3.org/2000/svg" viewBox="0 0 24 24">
  <path d="M21 12.4999C21.5522 12.4999 21.9999 12.9477 22 13.4999C22 15.1929 21.442 17.4344 19.8887 19.2704C18.3053 21.1416 15.7645 22.4999 12 22.4999C8.23551 22.4999 5.69469 21.1416 4.11133 19.2704C2.55801 17.4344 2 15.1929 2 13.4999C2.00009 12.9477 2.44777 12.4999 3 12.4999C3.55223 12.4999 3.99991 12.9477 4 13.4999C4 14.8067 4.44238 16.5655 5.63867 17.9794C6.80535 19.3579 8.7648 20.4999 12 20.4999C15.2352 20.4999 17.1947 19.3579 18.3613 17.9794C19.5576 16.5655 20 14.8067 20 13.4999C20.0001 12.9477 20.4478 12.4999 21 12.4999ZM11.9961 1.49988C12.548 1.49996 12.9957 1.94802 12.9961 2.49988V14.0907L17.293 9.79382C17.6835 9.40331 18.3165 9.4033 18.707 9.79382C19.0974 10.1844 19.0975 10.8174 18.707 11.2079L12.707 17.2079L12.6309 17.2762C12.2381 17.5966 11.6591 17.5739 11.293 17.2079L5.29297 11.2079L5.22461 11.1317C4.90426 10.7389 4.92685 10.1599 5.29297 9.79382C5.65909 9.42772 6.23809 9.40512 6.63086 9.72546L6.70703 9.79382L10.9961 14.0829V2.49988C10.9965 1.94796 11.4441 1.49988 11.9961 1.49988Z"/>
</svg>