<svg xmlns="http://www.w3.org/2000/svg" viewBox="0 0 24 24">
  <path fill-rule="evenodd" clip-rule="evenodd" d="M2 4.5C2 3.94772 2.44772 3.5 3 3.5H21C21.5523 3.5 22 3.94772 22 4.5C22 5.05228 21.5523 5.5 21 5.5H3C2.44772 5.5 2 5.05228 2 4.5ZM8.5 9.5C8.5 8.94772 8.94772 8.5 9.5 8.5H21C21.5523 8.5 22 8.94772 22 9.5C22 10.0523 21.5523 10.5 21 10.5H9.5C8.94772 10.5 8.5 10.0523 8.5 9.5ZM9.5 13.5C8.94772 13.5 8.5 13.9477 8.5 14.5C8.5 15.0523 8.94772 15.5 9.5 15.5H21C21.5523 15.5 22 15.0523 22 14.5C22 13.9477 21.5523 13.5 21 13.5H9.5ZM6.20711 8.79289C6.59763 9.18342 6.59763 9.81658 6.20711 10.2071L4.41421 12L6.20711 13.7929C6.59763 14.1834 6.59763 14.8166 6.20711 15.2071C5.81658 15.5976 5.18342 15.5976 4.79289 15.2071L2.29289 12.7071C1.90237 12.3166 1.90237 11.6834 2.29289 11.2929L4.79289 8.79289C5.18342 8.40237 5.81658 8.40237 6.20711 8.79289ZM21 18.5H3C2.44772 18.5 2 18.9477 2 19.5C2 20.0523 2.44772 20.5 3 20.5H21C21.5523 20.5 22 20.0523 22 19.5C22 18.9477 21.5523 18.5 21 18.5Z"/>
</svg>