<svg xmlns="http://www.w3.org/2000/svg" viewBox="0 0 24 24">
  <path fill-rule="evenodd" clip-rule="evenodd" d="M2 4.5C2 3.94772 2.44772 3.5 3 3.5H21C21.5523 3.5 22 3.94772 22 4.5C22 5.05228 21.5523 5.5 21 5.5H3C2.44772 5.5 2 5.05228 2 4.5ZM2 9.5C2 8.94772 2.44772 8.5 3 8.5H14.5C15.0523 8.5 15.5 8.94772 15.5 9.5C15.5 10.0523 15.0523 10.5 14.5 10.5H3C2.44772 10.5 2 10.0523 2 9.5ZM3 13.5C2.44772 13.5 2 13.9477 2 14.5C2 15.0523 2.44772 15.5 3 15.5H14.5C15.0523 15.5 15.5 15.0523 15.5 14.5C15.5 13.9477 15.0523 13.5 14.5 13.5H3ZM17.7929 8.79289C18.1834 8.40237 18.8166 8.40237 19.2071 8.79289L21.7071 11.2929C22.0976 11.6834 22.0976 12.3166 21.7071 12.7071L19.2071 15.2071C18.8166 15.5976 18.1834 15.5976 17.7929 15.2071C17.4024 14.8166 17.4024 14.1834 17.7929 13.7929L19.5858 12L17.7929 10.2071C17.4024 9.81658 17.4024 9.18342 17.7929 8.79289ZM3 18.5C2.44772 18.5 2 18.9477 2 19.5C2 20.0523 2.44772 20.5 3 20.5H21C21.5523 20.5 22 20.0523 22 19.5C22 18.9477 21.5523 18.5 21 18.5H3Z"/>
</svg>