<svg xmlns="http://www.w3.org/2000/svg" viewBox="0 0 24 24">
  <path fill-rule="evenodd" clip-rule="evenodd" d="M12 2L12.7937 1.39172C12.7936 1.39157 12.7937 1.39172 12 2ZM11.2063 1.39172L12 2C11.2063 1.39172 11.2064 1.39157 11.2063 1.39172ZM11.2063 1.39172L11.2002 1.39964L11.1842 1.42065L11.1236 1.50061C11.0709 1.57035 10.9942 1.67238 10.8969 1.80318C10.7023 2.06472 10.4252 2.44157 10.0931 2.9055C9.42957 3.83243 8.54307 5.11145 7.65487 6.51569C6.76884 7.91651 5.86951 9.46012 5.18829 10.9133C4.52474 12.3289 4 13.7969 4 15C4 19.4183 7.58172 23 12 23C16.4183 23 20 19.4183 20 15C20 13.7969 19.4753 12.3289 18.8117 10.9133C18.1305 9.46012 17.2312 7.91651 16.3451 6.51569C15.4569 5.11145 14.5704 3.83243 13.9069 2.9055C13.5748 2.44157 13.2977 2.06472 13.1031 1.80318C13.0058 1.67238 12.9291 1.57035 12.8764 1.50061L12.8158 1.42065L12.7998 1.39964L12.7937 1.39172M11.2063 1.39172C11.3955 1.14479 11.6889 1 12 1C12.3111 1 12.6045 1.14479 12.7937 1.39172M12 3.68017C11.912 3.80149 11.8182 3.9316 11.7194 4.06968C11.0704 4.9762 10.2069 6.2223 9.34513 7.58481C8.48116 8.95074 7.63049 10.4155 6.99921 11.7622C6.35026 13.1466 6 14.2701 6 15C6 18.3137 8.68629 21 12 21C15.3137 21 18 18.3137 18 15C18 14.2701 17.6497 13.1466 17.0008 11.7622C16.3695 10.4155 15.5188 8.95074 14.6549 7.58481C13.7931 6.2223 12.9296 4.9762 12.2806 4.06968C12.1818 3.9316 12.088 3.80149 12 3.68017ZM8 15C8 14.4477 8.44772 14 9 14H11V12C11 11.4477 11.4477 11 12 11C12.5523 11 13 11.4477 13 12V14H15C15.5523 14 16 14.4477 16 15C16 15.5523 15.5523 16 15 16H13V18C13 18.5523 12.5523 19 12 19C11.4477 19 11 18.5523 11 18V16H9C8.44772 16 8 15.5523 8 15Z"/>
</svg>