<svg viewBox="0 0 24 24" xmlns="http://www.w3.org/2000/svg">
<path fill-rule="evenodd" clip-rule="evenodd" d="M12 1C5.92487 1 1 5.92487 1 12C1 18.0751 5.92487 23 12 23C18.0751 23 23 18.0751 23 12C23 5.92487 18.0751 1 12 1ZM3 12C3 7.02943 7.02943 3 12 3C16.9706 3 21 7.02943 21 12C21 16.9706 16.9706 21 12 21C7.02943 21 3 16.9706 3 12ZM14.2071 8.20711L10.4142 12L14.2071 15.7929L12.7929 17.2071L8.29289 12.7071C7.90237 12.3166 7.90237 11.6834 8.29289 11.2929L12.7929 6.79289L14.2071 8.20711Z"/>
</svg>
