<svg viewBox="0 0 24 24" xmlns="http://www.w3.org/2000/svg">
<path fill-rule="evenodd" clip-rule="evenodd" d="M8.61417 1.53599C8.78677 1.20648 9.12802 1 9.5 1H18.5C18.8828 1 19.232 1.21855 19.3994 1.56286C19.5667 1.90717 19.5228 2.3168 19.2863 2.61782L15.0575 8H20.5C20.8972 8 21.2567 8.23508 21.416 8.59893C21.5754 8.96278 21.5042 9.38642 21.2348 9.67828L9.2348 22.6783C8.92333 23.0157 8.42207 23.0976 8.01937 22.8769C7.61668 22.6562 7.41606 22.1896 7.53293 21.7455L9.7028 13.5H4C3.65006 13.5 3.32558 13.3171 3.14443 13.0177C2.96327 12.7183 2.9518 12.346 3.11417 12.036L8.61417 1.53599ZM10.1051 3L5.65269 11.5H11C11.3101 11.5 11.6027 11.6439 11.792 11.8895C11.9813 12.1351 12.046 12.4546 11.9671 12.7545L10.4891 18.3708L18.216 10H13C12.6172 10 12.268 9.78145 12.1006 9.43714C11.9333 9.09283 11.9772 8.6832 12.2137 8.38218L16.4425 3H10.1051Z"/>
</svg>
