<svg xmlns="http://www.w3.org/2000/svg" viewBox="0 0 16 16" >
  <path d="M12.333 0.666992C12.5882 0.666992 12.821 0.812485 12.9326 1.04199C13.0442 1.27153 13.0151 1.54444 12.8574 1.74512L10.0381 5.33301H13.667C13.9316 5.33314 14.1712 5.49005 14.2774 5.73242C14.3836 5.97499 14.3359 6.25757 14.1563 6.45215L6.15626 15.1191C5.94864 15.3438 5.615 15.3979 5.34669 15.251C5.07828 15.1039 4.94368 14.7931 5.02149 14.4971L6.46876 9H2.667C2.43385 9 2.2175 8.87809 2.09669 8.67871C1.97598 8.47921 1.9681 8.23101 2.07618 8.02441L5.74317 1.02441C5.85819 0.804833 6.08515 0.667113 6.33301 0.666992H12.333Z"/>
</svg>