<svg viewBox="0 0 24 24" xmlns="http://www.w3.org/2000/svg">
<path fill-rule="evenodd" clip-rule="evenodd" d="M3 9.5C3 7.84314 4.34314 6.5 6 6.5H14C15.6569 6.5 17 7.84313 17 9.5C17 11.1569 15.6569 12.5 14 12.5H9V14.5H14C16.7614 14.5 19 12.2614 19 9.5C19 6.73857 16.7614 4.5 14 4.5H6C3.23858 4.5 1 6.73856 1 9.5C1 10.7674 1.47284 11.9268 2.25028 12.8076L3.74972 11.484C3.28243 10.9546 3 10.2615 3 9.5ZM10 8.5C7.23857 8.5 5 10.7386 5 13.5C5 16.2614 7.23857 18.5 10 18.5H18C20.7614 18.5 23 16.2614 23 13.5C23 12.2326 22.5271 11.0732 21.7497 10.1925L20.2503 11.5159C20.7176 12.0454 21 12.7385 21 13.5C21 15.1569 19.6569 16.5 18 16.5H10C8.34313 16.5 7 15.1569 7 13.5C7 11.8431 8.34313 10.5 10 10.5H15V8.5H10Z"/>
</svg>
