<svg xmlns="http://www.w3.org/2000/svg" viewBox="0 0 24 24">
  <path d="M15.1823 4.78287C16.7444 3.22082 19.2764 3.22081 20.8385 4.78287C22.4006 6.34498 22.4006 8.87704 20.8385 10.4391L11.9996 19.278C9.85179 21.4258 6.37016 21.4258 4.2223 19.278C2.07442 17.1301 2.07442 13.6475 4.2223 11.4997L11.6461 4.07584C12.0367 3.68531 12.6706 3.68531 13.0612 4.07584C13.4513 4.46636 13.4515 5.0995 13.0612 5.4899L5.63637 12.9147C4.26959 14.2815 4.26955 16.4971 5.63637 17.8639C7.00317 19.2307 9.21878 19.2307 10.5856 17.8639L19.4245 9.02506C20.2055 8.24404 20.2055 6.97802 19.4245 6.19693C18.6434 5.41594 17.3774 5.41588 16.5963 6.19693L7.75746 15.0358C7.56225 15.2311 7.56227 15.5477 7.75746 15.7428L7.83559 15.8073C8.02959 15.9354 8.29361 15.9136 8.46449 15.7428L15.8893 8.31802C16.2798 7.92763 16.9129 7.92758 17.3034 8.31802C17.6938 8.70851 17.6938 9.34155 17.3034 9.73209L9.87855 17.1569C8.96326 18.0721 7.51475 18.1297 6.53285 17.3288L6.3434 17.1569C5.36704 16.1806 5.36717 14.598 6.3434 13.6217L15.1823 4.78287Z"/>
</svg>