<svg xmlns="http://www.w3.org/2000/svg" viewBox="0 0 24 24">
  <path fill-rule="evenodd" clip-rule="evenodd" d="M11.6718 12.3637C10.6799 11.3718 10.6839 9.82352 11.5997 8.90028L11.6064 8.89362L16.1764 4.32363C17.0987 3.40125 18.6521 3.39479 19.6464 4.38911C20.6407 5.38339 20.6343 6.93677 19.7119 7.85915L15.7443 11.8268C15.3537 12.2173 15.3537 12.8505 15.7443 13.241C16.1348 13.6315 16.768 13.6315 17.1585 13.241L21.1261 9.27337C22.8651 7.53444 22.8 4.71423 21.0606 2.97488C19.3212 1.23553 16.5011 1.17047 14.7622 2.90943L10.2001 7.47148L10.192 7.47943C8.45315 9.2184 8.51817 12.0385 10.2576 13.7779C10.6481 14.1685 11.2813 14.1685 11.6718 13.7779C12.0623 13.3874 12.0623 12.7542 11.6718 12.3637ZM6.86087 10.7945C7.25139 10.404 7.88455 10.404 8.27508 10.7945C8.6656 11.185 8.6656 11.8182 8.27508 12.2087L4.30743 16.1763C3.38501 17.0988 3.3786 18.6521 4.37289 19.6464C5.3672 20.6407 6.92054 20.6343 7.84297 19.7119L12.413 15.1419C12.4234 15.1314 12.4341 15.1212 12.4449 15.1113C12.4557 15.0995 12.4668 15.0878 12.4783 15.0763C13.4006 14.1539 13.4071 12.6006 12.4128 11.6063C12.0222 11.2158 12.0222 10.5826 12.4128 10.1921C12.8033 9.80154 13.4365 9.80154 13.827 10.1921C15.5664 11.9314 15.6314 14.7516 13.8925 16.4905C13.882 16.501 13.8714 16.5112 13.8606 16.5211C13.8498 16.533 13.8386 16.5446 13.8272 16.5561L9.25718 21.1261C7.51821 22.8651 4.69806 22.8 2.95866 21.0606L2.95865 21.0606C1.21935 19.3213 1.15423 16.5011 2.89322 14.7621L6.86087 10.7945Z"/>
</svg>