<svg viewBox="0 0 24 24" xmlns="http://www.w3.org/2000/svg">
<path fill-rule="evenodd" clip-rule="evenodd" d="M2 2C1.44772 2 1 2.44772 1 3V7C1 7.55228 1.44772 8 2 8H6C6.55228 8 7 7.55228 7 7V3C7 2.44772 6.55228 2 6 2H2ZM3 6V4H5V6H3ZM22 6H10V4H22V6ZM10 13H22V11H10V13ZM10 20H22V18H10V20ZM2 16C1.44772 16 1 16.4477 1 17V21C1 21.5523 1.44772 22 2 22H6C6.55228 22 7 21.5523 7 21V17C7 16.4477 6.55228 16 6 16H2ZM3 20V18H5V20H3ZM1 10C1 9.44772 1.44772 9 2 9H6C6.55228 9 7 9.44772 7 10V14C7 14.5523 6.55228 15 6 15H2C1.44772 15 1 14.5523 1 14V10ZM3 11V13H5V11H3Z"/>
</svg>
