<svg xmlns="http://www.w3.org/2000/svg" viewBox="0 0 24 24">
  <path fill-rule="evenodd" clip-rule="evenodd" d="M4.5 2C2.84315 2 1.5 3.34315 1.5 5C1.5 6.65689 2.84315 8 4.5 8C6.15682 8 7.5 6.6569 7.5 5C7.5 3.34314 6.15683 2 4.5 2ZM3.5 5C3.5 4.44771 3.94771 4 4.5 4C5.05227 4 5.5 4.44772 5.5 5C5.5 5.5523 5.05228 6 4.5 6C3.94771 6 3.5 5.55231 3.5 5ZM4.5 16C2.84314 16 1.5 17.3432 1.5 19C1.5 20.6568 2.84314 22 4.5 22C6.15683 22 7.5 20.6568 7.5 19C7.5 17.3432 6.15683 16 4.5 16ZM3.5 19C3.5 18.4477 3.94772 18 4.5 18C5.05227 18 5.5 18.4477 5.5 19C5.5 19.5523 5.05227 20 4.5 20C3.94772 20 3.5 19.5523 3.5 19ZM1.5 12C1.5 10.3431 2.84315 9 4.5 9C6.15682 9 7.5 10.3431 7.5 12C7.5 13.6569 6.15682 15 4.5 15C2.84315 15 1.5 13.6569 1.5 12ZM4.5 11C3.94771 11 3.5 11.4477 3.5 12C3.5 12.5523 3.94771 13 4.5 13C5.05228 13 5.5 12.5523 5.5 12C5.5 11.4477 5.05228 11 4.5 11ZM10.5 11C9.94771 11 9.5 11.4477 9.5 12C9.5 12.5523 9.94771 13 10.5 13H21.5C22.0523 13 22.5 12.5523 22.5 12C22.5 11.4477 22.0523 11 21.5 11H10.5ZM9.5 19C9.5 18.4477 9.94771 18 10.5 18H21.5C22.0523 18 22.5 18.4477 22.5 19C22.5 19.5523 22.0523 20 21.5 20H10.5C9.94771 20 9.5 19.5523 9.5 19ZM10.5 4C9.94771 4 9.5 4.44772 9.5 5C9.5 5.55228 9.94771 6 10.5 6H21.5C22.0523 6 22.5 5.55228 22.5 5C22.5 4.44772 22.0523 4 21.5 4H10.5Z"/>
</svg>