<svg xmlns="http://www.w3.org/2000/svg" viewBox="0 0 24 24">
  <path fill-rule="evenodd" clip-rule="evenodd" d="M10 3.5C9.44772 3.5 9 3.94772 9 4.5C9 5.05228 9.44772 5.5 10 5.5H21C21.5523 5.5 22 5.05228 22 4.5C22 3.94772 21.5523 3.5 21 3.5H10ZM10 8.5C9.44772 8.5 9 8.94772 9 9.5C9 10.0523 9.44772 10.5 10 10.5H21C21.5523 10.5 22 10.0523 22 9.5C22 8.94772 21.5523 8.5 21 8.5H10ZM9 14.5C9 13.9477 9.44772 13.5 10 13.5H21C21.5523 13.5 22 13.9477 22 14.5C22 15.0523 21.5523 15.5 21 15.5H10C9.44772 15.5 9 15.0523 9 14.5ZM10 18.5C9.44772 18.5 9 18.9477 9 19.5C9 20.0523 9.44772 20.5 10 20.5H21C21.5523 20.5 22 20.0523 22 19.5C22 18.9477 21.5523 18.5 21 18.5H10ZM2 14.5C2 13.9477 2.44772 13.5 3 13.5H6C6.55228 13.5 7 13.9477 7 14.5V16C7 16.2652 6.89464 16.5196 6.70711 16.7071L4.91421 18.5H6C6.55228 18.5 7 18.9477 7 19.5C7 20.0523 6.55228 20.5 6 20.5H3C2.44772 20.5 2 20.0523 2 19.5V19C2 18.7348 2.10536 18.4804 2.29289 18.2929L5 15.5858V15.5H3C2.44772 15.5 2 15.0523 2 14.5ZM5.5 4.50003C5.5 4.09557 5.25636 3.73093 4.88268 3.57615C4.50901 3.42137 4.07889 3.50692 3.79289 3.79292L2.79289 4.79292C2.40237 5.18345 2.40237 5.81661 2.79289 6.20714C2.98816 6.4024 3.24408 6.50003 3.5 6.50003V8.50003C2.94772 8.50003 2.5 8.94774 2.5 9.50003C2.5 10.0523 2.94772 10.5 3.5 10.5H5.5C6.05228 10.5 6.5 10.0523 6.5 9.50003C6.5 8.94774 6.05228 8.50003 5.5 8.50003V4.50003Z"/>
</svg>