<svg xmlns="http://www.w3.org/2000/svg" viewBox="0 0 24 24">
  <path fill-rule="evenodd" clip-rule="evenodd" d="M13 2C13 1.44772 12.5523 1 12 1C11.4477 1 11 1.44772 11 2V4C11 4.55228 11.4477 5 12 5C12.5523 5 13 4.55228 13 4V2ZM17.866 3.83977C18.1422 3.36147 17.9783 2.74988 17.5 2.47374C17.0217 2.1976 16.4101 2.36147 16.134 2.83977L15.134 4.57182C14.8578 5.05011 15.0217 5.6617 15.5 5.93784C15.9783 6.21398 16.5899 6.05011 16.866 5.57182L17.866 3.83977ZM21.5262 6.50004C21.8023 6.97834 21.6384 7.58993 21.1601 7.86607L19.4281 8.86607C18.9498 9.14221 18.3382 8.97834 18.0621 8.50004C17.7859 8.02175 17.9498 7.41016 18.4281 7.13402L20.1601 6.13402C20.6384 5.85788 21.25 6.02175 21.5262 6.50004ZM20 11C19.4477 11 19 11.4477 19 12C19 12.5523 19.4477 13 20 13H22C22.5523 13 23 12.5523 23 12C23 11.4477 22.5523 11 22 11H20ZM18.0621 15.5C18.3382 15.0218 18.9498 14.8579 19.4281 15.134L21.1601 16.134C21.6384 16.4102 21.8023 17.0218 21.5262 17.5C21.25 17.9783 20.6384 18.1422 20.1601 17.8661L18.4281 16.8661C17.9498 16.5899 17.7859 15.9783 18.0621 15.5ZM16.866 18.4281C16.5899 17.9499 15.9783 17.786 15.5 18.0621C15.0217 18.3383 14.8578 18.9499 15.134 19.4281L16.134 21.1602C16.4101 21.6385 17.0217 21.8024 17.5 21.5262C17.9783 21.2501 18.1422 20.6385 17.866 20.1602L16.866 18.4281ZM12 19C12.5523 19 13 19.4477 13 20V22C13 22.5523 12.5523 23 12 23C11.4477 23 11 22.5523 11 22V20C11 19.4477 11.4477 19 12 19ZM8.86604 19.4281C9.14218 18.9499 8.97831 18.3383 8.50001 18.0621C8.02172 17.786 7.41013 17.9499 7.13399 18.4281L6.13399 20.1602C5.85785 20.6385 6.02172 21.2501 6.50001 21.5262C6.97831 21.8024 7.5899 21.6385 7.86604 21.1602L8.86604 19.4281ZM5.93794 15.5C6.21408 15.9783 6.05021 16.5899 5.57191 16.8661L3.83986 17.8661C3.36156 18.1422 2.74997 17.9783 2.47383 17.5C2.19769 17.0218 2.36157 16.4102 2.83986 16.134L4.57191 15.134C5.05021 14.8579 5.6618 15.0218 5.93794 15.5ZM2 11C1.44772 11 1 11.4477 1 12C1 12.5523 1.44772 13 2 13H4C4.55228 13 5 12.5523 5 12C5 11.4477 4.55228 11 4 11H2ZM2.47383 6.50005C2.74997 6.02175 3.36156 5.85788 3.83986 6.13402L5.57191 7.13402C6.05021 7.41016 6.21408 8.02175 5.93794 8.50004C5.6618 8.97834 5.05021 9.14221 4.57191 8.86607L2.83986 7.86607C2.36157 7.58993 2.19769 6.97834 2.47383 6.50005ZM7.86604 2.83977C7.5899 2.36147 6.97831 2.1976 6.50001 2.47374C6.02172 2.74988 5.85785 3.36147 6.13399 3.83977L7.13399 5.57182C7.41013 6.05011 8.02172 6.21398 8.50001 5.93784C8.97831 5.6617 9.14218 5.05011 8.86604 4.57182L7.86604 2.83977Z"/>
</svg>