<svg xmlns="http://www.w3.org/2000/svg" viewBox="0 0 24 24">
  <path fill-rule="evenodd" clip-rule="evenodd" d="M11.3471 3.90944C11.3471 3.40717 10.9399 3 10.4376 3C9.93537 3 9.5282 3.40717 9.5282 3.90944V8.46489C9.169 7.87206 8.62733 7.41845 7.8621 7.35285C7.22574 7.29829 6.60383 7.52047 6.06685 7.84676C5.5207 8.17862 4.99402 8.65823 4.51857 9.23472C3.56714 10.3883 2.75319 12.0116 2.38162 13.8899C2.02707 15.6821 1.92716 17.2656 2.05041 18.4582C2.11144 19.0488 2.23237 19.597 2.44124 20.0376C2.64085 20.4586 3.01296 20.961 3.6573 21.0814C4.06858 21.1582 4.46724 21.0958 4.78861 21.0111C5.11561 20.925 5.43345 20.7959 5.70106 20.68C5.81527 20.6306 5.91501 20.5861 6.00644 20.5452L6.00706 20.545L6.00723 20.5449C6.15311 20.4798 6.27789 20.4241 6.40669 20.3727C6.54849 20.3163 6.62103 20.2969 6.64564 20.2903C6.65242 20.2885 6.65556 20.2877 6.65551 20.2873C6.74016 20.2885 6.89228 20.3049 7.15117 20.3328H7.15119L7.24166 20.3426C7.52983 20.3736 7.892 20.4102 8.24349 20.4165C8.57329 20.4225 8.99991 20.406 9.3742 20.2708C9.57003 20.2 9.80941 20.0765 10.0039 19.8521C10.2139 19.6098 10.3195 19.3092 10.3195 18.9939V15.9261C10.94 15.7564 11.5048 15.5097 12.0054 15.1778C12.5886 15.5627 13.2579 15.8331 14 16.0017V18.9939C14 19.3092 14.1056 19.6098 14.3156 19.8521C14.5101 20.0765 14.7495 20.2 14.9453 20.2708C15.3196 20.406 15.7462 20.4225 16.076 20.4165C16.4275 20.4102 16.7897 20.3736 17.0778 20.3426L17.1683 20.3328C17.4272 20.3049 17.5793 20.2885 17.664 20.2873C17.664 20.2875 17.6644 20.2877 17.6655 20.288L17.6707 20.2895L17.6738 20.2903C17.6985 20.2969 17.771 20.3163 17.9128 20.3727C18.0416 20.4241 18.1664 20.4798 18.3122 20.5449L18.3124 20.545L18.313 20.5452L18.3136 20.5455L18.3137 20.5455C18.4049 20.5863 18.5045 20.6307 18.6184 20.68C18.886 20.7959 19.2039 20.925 19.5309 21.0111C19.8522 21.0958 20.2509 21.1582 20.6622 21.0814C21.3065 20.961 21.6786 20.4586 21.8782 20.0376C22.0871 19.597 22.208 19.0488 22.2691 18.4582C22.3923 17.2656 22.2924 15.6821 21.9379 13.8899C21.5663 12.0116 20.7523 10.3883 19.8009 9.23472C19.3255 8.65823 18.7988 8.17862 18.2526 7.84676C17.7157 7.52047 17.0937 7.29829 16.4574 7.35285C15.547 7.43089 14.953 8.05815 14.6063 8.81566C14.5336 8.97441 14.4684 9.1449 14.4102 9.3264V3.90944C14.4102 3.40717 14.0031 3 13.5008 3C12.9985 3 12.5913 3.40717 12.5913 3.90944V10.6982L12.5915 10.7069C12.6071 11.5306 12.9875 12.2149 13.7003 12.642C14.3432 13.0272 15.1862 13.162 16.1092 13.162C16.6115 13.162 17.0186 12.7549 17.0186 12.2526C17.0186 11.7503 16.6115 11.3431 16.1092 11.3431C16.0281 11.3431 15.9506 11.3418 15.8766 11.3393C15.9541 10.5121 16.093 9.93789 16.2601 9.57266C16.4414 9.1767 16.5789 9.16739 16.61 9.16528L16.6128 9.16508C16.7314 9.15491 16.965 9.1927 17.3081 9.40118C17.5677 9.5589 17.8538 9.79337 18.1458 10.105L17.75 18.4703C17.7246 18.469 17.6992 18.4684 17.6737 18.4684C17.484 18.4684 17.216 18.4977 16.9846 18.5231L16.9846 18.5231H16.9846H16.9846L16.9845 18.5231L16.8835 18.5341C16.5953 18.5651 16.3051 18.5932 16.0429 18.598C15.9558 18.5995 15.8815 18.5982 15.8189 18.5951V16.2154C15.9149 16.2178 16.0117 16.2189 16.1094 16.2189C16.6116 16.2189 17.0188 15.8118 17.0188 15.3095C17.0188 14.8072 16.6116 14.4001 16.1094 14.4001C14.4407 14.4001 13.3267 14.0039 12.6168 13.3562C12.2686 13.0386 11.7356 13.0396 11.3885 13.3584C10.6861 14.0038 9.57835 14.4001 7.91137 14.4001C7.40909 14.4001 7.00192 14.8072 7.00192 15.3095C7.00192 15.8118 7.40909 16.2189 7.91137 16.2189C8.11115 16.2189 8.30762 16.214 8.5006 16.2041V18.5951C8.43801 18.5982 8.36366 18.5995 8.27656 18.598C8.01435 18.5932 7.72415 18.5651 7.436 18.5341L7.33495 18.5231L7.33493 18.5231L7.33491 18.5231H7.3349H7.33489C7.10351 18.4977 6.8355 18.4684 6.64579 18.4684C6.62033 18.4684 6.5949 18.469 6.56953 18.4703L6.17371 10.105C6.46566 9.79337 6.75181 9.5589 7.01137 9.40118C7.35448 9.1927 7.58811 9.15491 7.70673 9.16508L7.7095 9.16528C7.74062 9.16739 7.87811 9.1767 8.05936 9.57266C8.22481 9.93414 8.36249 10.5003 8.44047 11.314C8.26402 11.3325 8.06125 11.3431 7.82918 11.3431C7.32691 11.3431 6.91974 11.7503 6.91974 12.2526C6.91974 12.7549 7.32691 13.162 7.82918 13.162C8.75221 13.162 9.59515 13.0272 10.2381 12.642C10.9508 12.2149 11.3313 11.5306 11.3469 10.7069L11.3471 10.6983V3.90944ZM6.17203 10.1068L6.17371 10.105L6.06685 7.84676L6.17203 10.1068ZM6.56125 18.4708C6.24485 18.4886 5.93967 18.6009 5.73345 18.683C5.57429 18.7465 5.38709 18.8298 5.21499 18.9064C5.13076 18.9439 5.05015 18.9798 4.97822 19.011C4.73007 19.1184 4.51472 19.2023 4.32523 19.2522C4.22972 19.2774 4.15673 19.2895 4.10269 19.2944C4.09714 19.2838 4.09116 19.2719 4.08479 19.2584C3.99904 19.0775 3.9098 18.7564 3.85966 18.2712C3.76056 17.3124 3.83431 15.9192 4.16593 14.2428C4.48055 12.6524 5.16693 11.3073 5.92179 10.392C6.00535 10.2907 6.08892 10.1956 6.17203 10.1068L6.56125 18.4708ZM6.56125 18.4708L6.64579 20.2873L6.65551 20.2873L6.56953 18.4703L6.56125 18.4708ZM17.7582 18.4708L17.6737 20.2873L17.664 20.2873L17.75 18.4703L17.7582 18.4708ZM18.1475 10.1068L18.1458 10.105L18.2526 7.84676L18.1475 10.1068ZM18.1475 10.1068L17.7582 18.4708C18.0746 18.4886 18.3798 18.6009 18.586 18.683C18.7452 18.7465 18.9324 18.8298 19.1045 18.9064C19.1887 18.9439 19.2693 18.9798 19.3413 19.011C19.5894 19.1184 19.8048 19.2023 19.9943 19.2522C20.0898 19.2774 20.1628 19.2895 20.2168 19.2944C20.2223 19.2838 20.2283 19.2719 20.2347 19.2584C20.3204 19.0775 20.4097 18.7564 20.4598 18.2712C20.5589 17.3124 20.4852 15.9192 20.1536 14.2428C19.8389 12.6524 19.1526 11.3073 18.3977 10.392C18.3141 10.2907 18.2306 10.1956 18.1475 10.1068ZM4.14943 19.3679C4.14936 19.3682 4.14721 19.3661 4.14319 19.3609C4.1475 19.365 4.1495 19.3676 4.14943 19.3679ZM20.1701 19.3679C20.1701 19.3682 20.1723 19.3661 20.1763 19.3609C20.172 19.365 20.17 19.3676 20.1701 19.3679Z"/>
</svg>