<svg viewBox="0 0 24 24" xmlns="http://www.w3.org/2000/svg">
<path fill-rule="evenodd" clip-rule="evenodd" d="M3 12C3 7.02943 7.02943 3 12 3C16.9706 3 21 7.02943 21 12C21 16.9706 16.9706 21 12 21C10.5221 21 9.12909 20.6445 7.89997 20.0142L13.2071 14.7071C13.5976 14.3166 13.5976 13.6834 13.2071 13.2929L10.7071 10.7929C10.3166 10.4024 9.68342 10.4024 9.29289 10.7929L3.98576 16.1C3.35554 14.8709 3 13.4779 3 12ZM5.11619 17.798C5.44668 18.19 5.81003 18.5533 6.20197 18.8838L9.08579 16L8 14.9142L5.11619 17.798ZM11.0858 14L10.5 14.5858L9.41421 13.5L10 12.9142L11.0858 14ZM12 1C5.92487 1 1 5.92487 1 12C1 14.3339 1.72797 16.5007 2.9692 18.2821C3.7154 19.3529 4.6471 20.2846 5.71795 21.0308C7.49931 22.2721 9.66614 23 12 23C18.0751 23 23 18.0751 23 12C23 5.92487 18.0751 1 12 1ZM8.5 6V8H10.5V6H8.5ZM14.5 7.5V7H16.5V7.5H17V9.5H16.5V10H14.5V9.5H14V7.5H14.5ZM16 13.5V15.5H18V13.5H16Z"/>
</svg>
