<svg viewBox="0 0 24 24" xmlns="http://www.w3.org/2000/svg">
<path fill-rule="evenodd" clip-rule="evenodd" d="M14 2V5H16V2H14ZM19.2426 3.34314L17.1213 5.46444L18.5356 6.87866L20.6569 4.75736L19.2426 3.34314ZM9.34314 4.75736L11.4644 6.87866L12.8787 5.46444L10.7574 3.34314L9.34314 4.75736ZM8 10H11V8H8V10ZM22 8H19V10H22V8ZM20.6569 13.2426L18.5356 11.1213L17.1213 12.5356L19.2426 14.6569L20.6569 13.2426ZM10.7574 14.6569L12.8787 12.5356L15.5 9.91428L14.0858 8.50006L11.4644 11.1213L9.34314 13.2426L2.06494 20.5209L3.47915 21.9351L10.7574 14.6569ZM16 16V13H14V16H16Z"/>
</svg>
