<svg viewBox="0 0 24 24" xmlns="http://www.w3.org/2000/svg">
<path fill-rule="evenodd" clip-rule="evenodd" d="M3.9999 3C3.9999 2.44772 4.44762 2 4.9999 2H18.9999C19.5522 2 19.9999 2.44772 19.9999 3V8H22C22.5523 8 23 8.44772 23 9V21C23 21.5523 22.5523 22 22 22H2C1.44772 22 1 21.5523 1 21V9C1 8.44772 1.44772 8 2 8H3.9999V3ZM12.5999 17.3L21 10.9999V20H3V11.0001L11.3999 17.3C11.7555 17.5667 12.2443 17.5667 12.5999 17.3ZM5.9999 10.75L11.9999 15.25L17.9999 10.75V4H5.9999V10.75ZM13.0001 9.58579V6.5H11.0001V9.58579L10.2072 8.79289L8.79297 10.2071L11.293 12.7071C11.6835 13.0976 12.3167 13.0976 12.7072 12.7071L15.2072 10.2071L13.793 8.79289L13.0001 9.58579Z"/>
</svg>
