<svg viewBox="0 0 24 24" xmlns="http://www.w3.org/2000/svg">
<path fill-rule="evenodd" clip-rule="evenodd" d="M12.5676 1.17661C12.2259 0.94113 11.7743 0.94113 11.4326 1.17661L1.43262 8.06856L1.48414 8.14332C1.18465 8.3236 1 8.64827 1 9V19.9091C1 20.9802 1.81532 22 3 22H21C22.1847 22 23 20.9802 23 19.9091V9C23 8.64832 22.8154 8.3237 22.516 8.1434L22.5676 8.06856L12.5676 1.17661ZM20.2833 8.9232L12.0001 3.21449L3.71685 8.92326L12 14.3073L20.2833 8.9232ZM3 19.9091V10.8427L11.455 16.3384C11.7864 16.5539 12.2136 16.5539 12.545 16.3384L21 10.8427V19.9091C21 19.9558 20.9849 19.9856 20.9739 20H3.02608C3.01511 19.9856 3 19.9558 3 19.9091Z"/>
</svg>
