<svg xmlns="http://www.w3.org/2000/svg" viewBox="0 0 24 24">
  <path fill-rule="evenodd" clip-rule="evenodd" d="M6.5 3.5C5.94772 3.5 5.5 3.94772 5.5 4.5V5.5C5.5 6.05228 5.94772 6.5 6.5 6.5V3.5ZM8.5 6.5H9.5V3.5H8.5V6.5ZM11.5 6.5H12.5V3.5H11.5V6.5ZM14.5 8.5H6.5H4V19H12.207C12.0722 18.5232 12 18.02 12 17.5C12 14.631 14.1967 12.275 17 12.0224V8.5H14.5ZM14.5 6.5V3.5C15.0523 3.5 15.5 3.94772 15.5 4.5V5.5C15.5 6.05228 15.0523 6.5 14.5 6.5ZM17.3202 6.52549C17.4365 6.20553 17.5 5.86018 17.5 5.5V4.5C17.5 2.84315 16.1569 1.5 14.5 1.5H13.5H10.5H7.5H6.5C4.84315 1.5 3.5 2.84315 3.5 4.5V5.5C3.5 5.86018 3.56347 6.20553 3.67984 6.52549C2.72747 6.67871 2 7.50438 2 8.5V19C2 20.1046 2.89544 21 4 21H13.2572C14.266 22.2215 15.7921 23 17.5 23C20.5376 23 23 20.5376 23 17.5C23 14.9824 21.3085 12.86 19 12.207V8.5C19 7.50439 18.2725 6.67871 17.3202 6.52549ZM17 15C17.5523 15 18 15.4477 18 16V17H19C19.5523 17 20 17.4477 20 18C20 18.5523 19.5523 19 19 19H17C16.4477 19 16 18.5523 16 18V16C16 15.4477 16.4477 15 17 15ZM14 17.5C14 15.567 15.567 14 17.5 14C19.433 14 21 15.567 21 17.5C21 19.433 19.433 21 17.5 21C15.567 21 14 19.433 14 17.5Z"/>
</svg>