<svg xmlns="http://www.w3.org/2000/svg" viewBox="0 0 24 24">
  <path fill-rule="evenodd" clip-rule="evenodd" d="M7 2.5C6.44772 2.5 6 2.94772 6 3.5V7.5H3.5C2.39544 7.5 1.5 8.39541 1.5 9.5L1.50002 19.5C1.50002 20.6046 2.39545 21.5 3.50001 21.5H20.5C21.6046 21.5 22.5 20.6046 22.5 19.5V9.5C22.5 8.39542 21.6046 7.5 20.5 7.5H18V3.5C18 2.94772 17.5523 2.5 17 2.5H7ZM16 7.5V4.5H8V7.5H16ZM7 9.5H3.5L3.50002 19.5L20.5 19.5V9.5H17H7ZM8.5 14.5C8.5 13.9477 8.94772 13.5 9.5 13.5H11V12C11 11.4477 11.4477 11 12 11C12.5523 11 13 11.4477 13 12V13.5H14.5C15.0523 13.5 15.5 13.9477 15.5 14.5C15.5 15.0523 15.0523 15.5 14.5 15.5H13V17C13 17.5523 12.5523 18 12 18C11.4477 18 11 17.5523 11 17V15.5H9.5C8.94772 15.5 8.5 15.0523 8.5 14.5Z"/>
</svg>