<svg viewBox="0 0 24 24" xmlns="http://www.w3.org/2000/svg">
<path fill-rule="evenodd" clip-rule="evenodd" d="M2 2.5C1.44772 2.5 1 2.94772 1 3.5V18.5C1 19.0523 1.44772 19.5 2 19.5H4.5V21C4.5 21.3466 4.67945 21.6684 4.97427 21.8507C5.26909 22.0329 5.63723 22.0494 5.94721 21.8944L10.7361 19.5H22C22.5523 19.5 23 19.0523 23 18.5V3.5C23 2.94772 22.5523 2.5 22 2.5H2ZM3 17.5V4.5H21V17.5H10.5C10.3448 17.5 10.1916 17.5361 10.0528 17.6056L6.5 19.382V18.5C6.5 17.9477 6.05228 17.5 5.5 17.5H3ZM16.5 9.5V7H14.5V9.5H16.5ZM9.5 7V9.5H7.5V7H9.5ZM7.60557 12.9472L8.5 12.5C7.60557 12.9472 7.60579 12.9476 7.60602 12.9481L7.60649 12.949L7.60752 12.9511L7.60987 12.9557L7.61578 12.9672C7.62027 12.9758 7.62585 12.9864 7.63255 12.9987C7.64593 13.0234 7.6638 13.0554 7.68631 13.0936C7.73127 13.1699 7.79516 13.2717 7.87928 13.3905C8.04677 13.6269 8.29919 13.9372 8.64813 14.2474C9.35442 14.8752 10.4572 15.5 12 15.5C13.5428 15.5 14.6456 14.8752 15.3519 14.2474C15.7008 13.9372 15.9532 13.6269 16.1207 13.3905C16.2048 13.2717 16.2687 13.1699 16.3137 13.0936C16.3362 13.0554 16.3541 13.0234 16.3674 12.9987C16.3741 12.9864 16.3797 12.9758 16.3842 12.9672L16.3901 12.9557L16.3925 12.9511L16.3935 12.949L16.394 12.9481C16.3942 12.9476 16.3944 12.9472 15.5 12.5L16.3944 12.9472L16.8416 12.0528L15.0528 11.1583L14.609 12.0459L14.6089 12.0461C14.6064 12.0507 14.6003 12.0617 14.5906 12.0782C14.5711 12.1113 14.5373 12.1657 14.4887 12.2344C14.3905 12.373 14.2367 12.5627 14.0231 12.7526C13.6044 13.1247 12.9572 13.5 12 13.5C11.0428 13.5 10.3956 13.1247 9.97686 12.7526C9.7633 12.5627 9.60948 12.373 9.51133 12.2344C9.46265 12.1657 9.42888 12.1113 9.40939 12.0782C9.39967 12.0617 9.39362 12.0507 9.39113 12.0461L9.391 12.0459L8.94721 11.1583L7.15836 12.0528L7.60557 12.9472Z"/>
</svg>
