<svg viewBox="0 0 24 24" xmlns="http://www.w3.org/2000/svg">
<path fill-rule="evenodd" clip-rule="evenodd" d="M2 2C1.44772 2 1 2.44772 1 3V18C1 18.5523 1.44772 19 2 19H9.08579L11.2929 21.2071C11.6834 21.5976 12.3166 21.5976 12.7071 21.2071L14.9142 19H22C22.5523 19 23 18.5523 23 18V3C23 2.44772 22.5523 2 22 2H2ZM3 17V4H21V17H14.5C14.2348 17 13.9804 17.1054 13.7929 17.2929L12 19.0858L10.2071 17.2929C10.0196 17.1054 9.76522 17 9.5 17H3ZM13.5013 9.5H10.5V11.5H13.5013V9.5ZM15.5005 9.5H18.5V11.5H15.5005V9.5ZM8.49995 9.5H5.5005V11.5H8.49995V9.5Z"/>
</svg>
