<svg xmlns="http://www.w3.org/2000/svg" viewBox="0 0 24 24">
  <path fill-rule="evenodd" clip-rule="evenodd" d="M12 1C5.92487 1 1 5.92487 1 12C1 18.0751 5.92487 23 12 23C18.0751 23 23 18.0751 23 12C23 11.2376 22.9223 10.4923 22.774 9.77202C22.6803 9.31674 22.2852 8.98607 21.8206 8.97399C21.3559 8.9619 20.9442 9.27159 20.8269 9.72138C20.2259 12.0268 18.1285 13.7273 15.6363 13.7273C12.6741 13.7273 10.2727 11.3259 10.2727 8.36365C10.2727 5.87156 11.9732 3.77414 14.2786 3.17308C14.7284 3.05581 15.0381 2.64407 15.026 2.1794C15.0139 1.71473 14.6832 1.31966 14.2279 1.22596C13.5076 1.0777 12.7624 1 12 1Z"/>
</svg>