<svg xmlns="http://www.w3.org/2000/svg" viewBox="0 0 24 24">
  <path fill-rule="evenodd" clip-rule="evenodd" d="M10.4543 3.13222C6.22025 3.86506 3 7.55646 3 12C3 16.9706 7.02943 21 12 21C16.4435 21 20.1349 17.7798 20.8678 13.5457C19.5336 14.8927 17.6829 15.7273 15.6363 15.7273C11.5695 15.7273 8.27275 12.4305 8.27275 8.36365C8.27275 6.31709 9.10731 4.46636 10.4543 3.13222ZM1 12C1 5.92487 5.92487 1 12 1C12.7624 1 13.5076 1.0777 14.2279 1.22596C14.6832 1.31966 15.0139 1.71473 15.026 2.1794C15.0381 2.64407 14.7284 3.05581 14.2786 3.17308C11.9732 3.77414 10.2727 5.87156 10.2727 8.36365C10.2727 11.3259 12.6741 13.7273 15.6363 13.7273C18.1285 13.7273 20.2259 12.0268 20.8269 9.72138C20.9442 9.27159 21.3559 8.9619 21.8206 8.97399C22.2852 8.98607 22.6803 9.31674 22.774 9.77202C22.9223 10.4923 23 11.2376 23 12C23 18.0751 18.0751 23 12 23C5.92487 23 1 18.0751 1 12Z"/>
</svg>