<svg viewBox="0 0 24 24" xmlns="http://www.w3.org/2000/svg">
<path fill-rule="evenodd" clip-rule="evenodd" d="M12 1C5.92487 1 1 5.92487 1 12C1 18.0751 5.92487 23 12 23C18.0751 23 23 18.0751 23 12C23 5.92487 18.0751 1 12 1ZM3 12C3 7.02943 7.02943 3 12 3C16.9706 3 21 7.02943 21 12C21 16.9706 16.9706 21 12 21C7.02943 21 3 16.9706 3 12ZM12 8.25C11.3097 8.25 10.75 7.69035 10.75 7C10.75 6.30965 11.3097 5.75 12 5.75C12.6903 5.75 13.25 6.30965 13.25 7C13.25 7.69035 12.6903 8.25 12 8.25ZM12 13.25C11.3097 13.25 10.75 12.6903 10.75 12C10.75 11.3097 11.3097 10.75 12 10.75C12.6903 10.75 13.25 11.3097 13.25 12C13.25 12.6903 12.6903 13.25 12 13.25ZM10.75 17C10.75 17.6903 11.3097 18.25 12 18.25C12.6903 18.25 13.25 17.6903 13.25 17C13.25 16.3097 12.6903 15.75 12 15.75C11.3097 15.75 10.75 16.3097 10.75 17Z"/>
</svg>
