<svg xmlns="http://www.w3.org/2000/svg" viewBox="0 0 24 24">
  <path fill-rule="evenodd" clip-rule="evenodd" d="M6 9C6 5.68629 8.68629 3 12 3C15.3137 3 18 5.68629 18 9V18H14.5H9.5H6V9ZM8.53545 20H2C1.44772 20 1 19.5523 1 19C1 18.4477 1.44772 18 2 18H4V9C4 4.58172 7.58172 1 12 1C16.4183 1 20 4.58172 20 9V18H22C22.5523 18 23 18.4477 23 19C23 19.5523 22.5523 20 22 20H15.4646C15.2219 21.6961 13.7632 23 12 23C10.2368 23 8.77806 21.6961 8.53545 20ZM10.5854 20C10.7913 20.5826 11.3469 21 12 21C12.6531 21 13.2087 20.5826 13.4146 20H10.5854Z"/>
</svg>