<svg viewBox="0 0 24 24" xmlns="http://www.w3.org/2000/svg">
<path fill-rule="evenodd" clip-rule="evenodd" d="M15.6361 1.58723C17.2494 1.53519 19.0304 2.05975 20.4855 3.51479C21.9405 4.96982 22.4651 6.75085 22.413 8.36418C22.3621 9.94352 21.755 11.4376 20.839 12.3536L13.7683 19.4244L12.3538 18.0104L19.4248 10.9394C19.923 10.4412 20.3766 9.4604 20.4141 8.2997C20.4504 7.17299 20.0911 5.94882 19.0713 4.92901C18.0514 3.90917 16.8273 3.54985 15.7006 3.58619C14.5399 3.62363 13.5591 4.07723 13.0608 4.57545C13.0608 4.57545 13.0608 4.57544 13.0608 4.57545L3.51492 14.1214C3.33804 14.2983 2.98852 14.8705 2.91983 15.6261C2.85649 16.3228 3.03145 17.1734 3.86848 18.0105C4.7055 18.8475 5.55614 19.0225 6.25282 18.9591C7.00849 18.8904 7.5807 18.5409 7.75758 18.364L16.9499 9.17164C17.0983 9.02331 17.2906 8.6509 17.3222 8.17705C17.3521 7.72829 17.2295 7.32983 16.9499 7.0503C16.6704 6.77081 16.272 6.64816 15.8232 6.67808C15.3494 6.70967 14.977 6.90198 14.8286 7.0503L8.11142 13.7676L6.697 12.3536L13.4144 5.63612C13.9732 5.07734 14.8382 4.7393 15.6902 4.68251C16.5672 4.62404 17.583 4.85494 18.3641 5.63609C19.1453 6.41726 19.3762 7.43303 19.3178 8.31009C19.261 9.16206 18.9229 10.0271 18.3641 10.5859C18.3641 10.5859 18.3642 10.5858 18.3641 10.5859L9.17179 19.7783C8.64157 20.3085 7.62279 20.8428 6.43389 20.9509C5.18603 21.0644 3.73856 20.709 2.45427 19.4247C1.16998 18.1404 0.814598 16.6929 0.928041 15.4451C1.03612 14.2562 1.57049 13.2374 2.10071 12.7072L11.6466 3.16124C12.5626 2.24524 14.0567 1.63818 15.6361 1.58723Z"/>
</svg>
