<svg viewBox="0 0 24 24" xmlns="http://www.w3.org/2000/svg">
<path fill-rule="evenodd" clip-rule="evenodd" d="M13.5211 1.3934L13.5212 1.39343L22.7135 10.5858C23.4946 11.3668 23.4946 12.6332 22.7136 13.4142L13.5211 22.6066C12.7401 23.3876 11.4738 23.3876 10.6927 22.6066L1.50036 13.4142L1.50034 13.4142C0.719279 12.6332 0.719299 11.3668 1.50034 10.5858L1.50035 10.5858L10.6927 1.39343L10.6927 1.3934C11.4738 0.612355 12.7401 0.612355 13.5211 1.3934ZM21.2993 12L12.1069 2.80762L2.91455 12L12.1069 21.1924L21.2993 12ZM11.0215 11.0029V7.76709H13.0215V11.0029H16.2574V13.0029H13.0215V16.2389H11.0215V13.0029H7.78564V11.0029H11.0215Z"/>
</svg>
