<svg viewBox="0 0 24 24" xmlns="http://www.w3.org/2000/svg">
<path fill-rule="evenodd" clip-rule="evenodd" d="M1 4C1 3.44772 1.44772 3 2 3H22C22.5523 3 23 3.44772 23 4V19C23 19.5523 22.5523 20 22 20H14.9142L12.7071 22.2071C12.3166 22.5976 11.6834 22.5976 11.2929 22.2071L9.08579 20H2C1.44772 20 1 19.5523 1 19V4ZM3 5V18H9.5C9.76522 18 10.0196 18.1054 10.2071 18.2929L12 20.0858L13.7929 18.2929C13.9804 18.1054 14.2348 18 14.5 18H21V5H3ZM12 8C11.1716 8 10.5 8.67157 10.5 9.5C10.5 10.3284 11.1716 11 12 11C12.8284 11 13.5 10.3284 13.5 9.5C13.5 8.67157 12.8284 8 12 8ZM14.7465 11.6698C15.2183 11.0733 15.5 10.3196 15.5 9.5C15.5 7.567 13.933 6 12 6C10.067 6 8.5 7.567 8.5 9.5C8.5 10.3196 8.78169 11.0733 9.25354 11.6698C7.63516 12.5164 6.5 14.0957 6.5 16H8.5C8.5 14.4506 9.953 13 12 13C14.047 13 15.5 14.4506 15.5 16H17.5C17.5 14.0957 16.3648 12.5164 14.7465 11.6698Z"/>
</svg>
