<svg xmlns="http://www.w3.org/2000/svg" viewBox="0 0 24 24">
  <path fill-rule="evenodd" clip-rule="evenodd" d="M7.5 1C6.94772 1 6.5 1.44772 6.5 2V5.2757L3.78602 8.04323C3.60269 8.23018 3.5 8.48157 3.5 8.7434V10V11.5V17.5V19V21C3.5 22.1046 4.39544 23 5.5 23H18.5C19.6046 23 20.5 22.1046 20.5 21V8.7434C20.5 8.48157 20.3973 8.23018 20.214 8.04323L17.5 5.2757V2C17.5 1.44772 17.0523 1 16.5 1H7.5ZM5.5 19V21H18.5V9.1519L16.1446 6.75H7.85542L5.5 9.1519V10V10.5H8.5C9.05228 10.5 9.5 10.9477 9.5 11.5V17.5C9.5 18.0523 9.05228 18.5 8.5 18.5H5.5V19ZM5.5 16.5H7.5V12.5H5.5V16.5ZM15.5 3V4.75H8.5V3H15.5ZM16.5 11.5C16.5 10.9477 16.0523 10.5 15.5 10.5C14.9477 10.5 14.5 10.9477 14.5 11.5V14.5C14.5 15.0523 14.9477 15.5 15.5 15.5C16.0523 15.5 16.5 15.0523 16.5 14.5V11.5ZM15.5 16C16.0523 16 16.5 16.4477 16.5 17V17.5C16.5 18.0523 16.0523 18.5 15.5 18.5C14.9477 18.5 14.5 18.0523 14.5 17.5V17C14.5 16.4477 14.9477 16 15.5 16Z"/>
</svg>