<svg viewBox="0 0 24 24" xmlns="http://www.w3.org/2000/svg">
<path d="M8.49816 2.8429C9.22459 2.84295 9.89352 3.23718 10.2462 3.87219L11.4698 6.07532L11.5265 6.18469C11.7735 6.70215 11.7862 7.3015 11.5616 7.82922L11.5099 7.94055L10.5011 9.95813C10.5468 10.1047 10.6129 10.2956 10.7062 10.5138C10.9356 11.0505 11.3151 11.7282 11.9152 12.3282C12.515 12.9281 13.1911 13.3055 13.7257 13.5333C13.9426 13.6257 14.1327 13.6903 14.2784 13.7355L16.296 12.7277L16.4083 12.6759C16.9738 12.4354 17.6212 12.468 18.1622 12.7687L20.3722 13.9972L20.4884 14.0665C21.0544 14.4334 21.4005 15.0644 21.4005 15.7452V18.2814C21.4005 20.1384 19.6956 21.5976 17.837 21.0958L17.6564 21.0411C15.2008 20.2125 11.2816 18.6155 8.63195 16.1095L8.38 15.8634C5.89768 13.3811 4.27053 9.62736 3.37218 7.07922L3.20226 6.58704C2.55214 4.66007 4.04522 2.84307 5.96203 2.8429H8.49816ZM5.96203 4.8429C5.29555 4.84306 4.92207 5.42648 5.09777 5.94739L5.26378 6.42786C6.13627 8.89807 7.63867 12.2939 9.79406 14.4493L10.0138 14.6632C12.3238 16.8452 15.881 18.3307 18.296 19.1456L18.3946 19.172C18.8879 19.2732 19.4005 18.9063 19.4005 18.2814V15.7452L17.1905 14.5167L14.8341 15.6945C14.6869 15.768 14.5243 15.8041 14.3614 15.7999L14.1984 15.7823H14.1974L14.1954 15.7814H14.1925C14.1901 15.7809 14.1869 15.7801 14.1837 15.7794C14.177 15.7781 14.1682 15.7757 14.1583 15.7736C14.1383 15.7693 14.1116 15.7636 14.0792 15.756C14.0139 15.7405 13.9234 15.7174 13.8136 15.6857C13.5942 15.6223 13.2919 15.5225 12.9415 15.3732C12.244 15.0759 11.3302 14.5714 10.5011 13.7423C9.67207 12.9132 9.16585 11.9983 8.8673 11.2999C8.71718 10.9488 8.61673 10.6456 8.55285 10.4259C8.52097 10.3162 8.49814 10.2266 8.48253 10.1613C8.47473 10.1286 8.46831 10.1012 8.46398 10.0812C8.46184 10.0712 8.46046 10.0624 8.4591 10.0558C8.45844 10.0526 8.45762 10.0494 8.45714 10.047C8.45692 10.0459 8.45634 10.045 8.45617 10.0441V10.0421C8.46048 10.041 8.52416 10.0284 9.43761 9.85071L8.45519 10.0411C8.41318 9.82481 8.44458 9.60057 8.54308 9.40344L9.72082 7.04602L8.49816 4.8429H5.96203Z"/>
</svg>
