<svg xmlns="http://www.w3.org/2000/svg" viewBox="0 0 24 24">
  <path d="M7.18763 3.39671C7.9139 3.39676 8.58298 3.7911 8.93568 4.42601L10.1593 6.62913L10.216 6.7385C10.463 7.256 10.4755 7.85547 10.2511 8.38304L10.1994 8.49436L9.19056 10.5119C9.23624 10.6584 9.30246 10.8496 9.39564 11.0676C9.62509 11.6043 10.0047 12.2821 10.6046 12.8821C11.2044 13.4818 11.8806 13.8593 12.4152 14.0871C12.632 14.1795 12.8222 14.2441 12.9679 14.2893L14.9855 13.2815L15.0978 13.2297C15.6632 12.9893 16.3107 13.0219 16.8517 13.3225L19.0617 14.551L19.1779 14.6203C19.7439 14.9871 20.0899 15.6185 20.09 16.2991V18.8352C20.09 20.6922 18.385 22.1514 16.5265 21.6496L16.3458 21.5949C13.8902 20.7663 9.97098 19.1693 7.32142 16.6633L7.06947 16.4172C4.58726 13.9349 2.95998 10.1811 2.06165 7.63304L1.89173 7.14085C1.24189 5.214 2.7348 3.39689 4.6515 3.39671H7.18763ZM4.6515 5.39671C3.98517 5.39687 3.61181 5.98037 3.78724 6.5012L3.95326 6.98167C4.82572 9.45181 6.32824 12.8477 8.48353 15.0032L8.70326 15.217C11.0133 17.399 14.5705 18.8845 16.9855 19.6994L17.0841 19.7258C17.5774 19.8271 18.09 19.4602 18.09 18.8352V16.2991L15.88 15.0705L13.5236 16.2483C13.3763 16.3219 13.2139 16.3579 13.0509 16.3537L12.8878 16.3362H12.8869L12.8849 16.3352H12.882C12.8796 16.3347 12.8764 16.3339 12.8732 16.3332C12.8665 16.3319 12.8577 16.3295 12.8478 16.3274C12.8278 16.3231 12.801 16.3174 12.7687 16.3098C12.7033 16.2943 12.6128 16.2712 12.5031 16.2395C12.2837 16.1761 11.9813 16.0763 11.631 15.927C10.9335 15.6297 10.0196 15.1251 9.19056 14.2961C8.36165 13.4671 7.8553 12.552 7.55677 11.8537C7.40673 11.5027 7.30618 11.1994 7.24232 10.9797C7.21049 10.8702 7.18759 10.7803 7.17201 10.7151C7.16424 10.6825 7.15777 10.655 7.15345 10.635C7.15135 10.6252 7.14992 10.6162 7.14857 10.6096C7.14792 10.6065 7.14708 10.6031 7.14662 10.6008L7.14564 10.5979V10.5959C7.14979 10.5948 7.21221 10.5825 8.12708 10.4045L7.14466 10.595C7.10274 10.3787 7.13407 10.1543 7.23255 9.95726L8.41029 7.59983L7.18763 5.39671H4.6515ZM13.7179 1.87718C14.5775 1.79199 15.4496 1.85439 16.2921 2.06565L16.5304 2.13011C17.7151 2.46913 18.8335 3.10514 19.7648 4.03636L19.9474 4.22581C20.8394 5.18167 21.4362 6.31648 21.7355 7.50999L21.8175 7.87229C21.9864 8.72221 22.0065 9.59608 21.879 10.4514C21.7974 10.997 21.289 11.3731 20.7433 11.2922C20.1972 11.2108 19.8204 10.7025 19.9015 10.1565C19.9952 9.528 19.9796 8.88578 19.8556 8.26194L19.796 7.99632C19.5916 7.18108 19.198 6.40279 18.6134 5.73167L18.3507 5.4514C17.7114 4.81209 16.9555 4.36329 16.1525 4.10472L15.8058 4.00608C15.188 3.85116 14.5474 3.80497 13.9161 3.86741L13.6456 3.90061C13.0995 3.98203 12.5905 3.60491 12.5089 3.05882C12.4276 2.5126 12.8045 2.00352 13.3507 1.9221L13.7179 1.87718ZM13.5353 5.5012C14.7435 5.32108 16.0234 5.69646 16.9562 6.62913L17.1242 6.80784C17.9332 7.72134 18.2519 8.91644 18.0831 10.0491C18.0016 10.595 17.4934 10.972 16.9474 10.8908C16.4014 10.8093 16.0244 10.3002 16.1056 9.75413C16.1848 9.22204 16.0498 8.66792 15.7033 8.22581L15.5421 8.04319C15.0764 7.57752 14.4385 7.38904 13.8302 7.47972C13.2843 7.56086 12.7751 7.18378 12.6935 6.63792C12.6121 6.09181 12.9893 5.58282 13.5353 5.5012Z"/>
</svg>