<svg viewBox="0 0 24 24" xmlns="http://www.w3.org/2000/svg">
<path fill-rule="evenodd" clip-rule="evenodd" d="M2 4.5C2 3.11929 3.11929 2 4.5 2H19.5C20.8807 2 22 3.1193 22 4.5V19.5C22 20.8807 20.8807 22 19.5 22H4.5C3.1193 22 2 20.8807 2 19.5V4.5ZM4.5 4C4.22386 4 4 4.22386 4 4.5V15.4999L6.3999 13.7C6.77486 13.4188 7.29483 13.4357 7.65069 13.7407L10.4838 16.1691L14.8309 12.2567C15.2127 11.9132 15.7926 11.9146 16.1726 12.2601L20 15.7395V4.5C20 4.22385 19.7762 4 19.5 4H4.5ZM20 18.4425L15.4965 14.3484L11.1689 18.2433C10.7954 18.5794 10.2306 18.5862 9.84911 18.2593L6.95817 15.7813L4 17.9999V19.5C4 19.7762 4.22385 20 4.5 20H19.5C19.7762 20 20 19.7762 20 19.5V18.4425ZM5.5 9C5.5 7.06702 7.06702 5.5 9 5.5C10.933 5.5 12.5 7.06702 12.5 9C12.5 10.933 10.933 12.5 9 12.5C7.06702 12.5 5.5 10.933 5.5 9ZM9 7.5C8.17158 7.5 7.5 8.17158 7.5 9C7.5 9.82841 8.17158 10.5 9 10.5C9.82841 10.5 10.5 9.82841 10.5 9C10.5 8.17158 9.82841 7.5 9 7.5Z"/>
</svg>
