<svg viewBox="0 0 24 24" xmlns="http://www.w3.org/2000/svg">
<path fill-rule="evenodd" clip-rule="evenodd" d="M15.5013 1.49948C15.8864 1.30629 16.352 1.38154 16.6567 1.68623L22.3136 7.34307C22.618 7.64751 22.6934 8.11263 22.5008 8.49766C22.3081 8.88269 21.8906 9.10118 21.4644 9.04004L19.6726 8.78294L16.7164 14.1033C17.0688 14.9245 17.2871 15.7558 17.25 16.5879C17.2039 17.6254 16.7668 18.5468 15.9549 19.3586C15.7674 19.5462 15.513 19.6515 15.2478 19.6515C14.9826 19.6515 14.7282 19.5462 14.5407 19.3586L11.2606 16.0785L3.81617 21.5822C3.41849 21.8762 2.86562 21.8354 2.51547 21.4861C2.16532 21.1368 2.12308 20.5841 2.41609 20.1857L7.90468 12.7226L4.6416 9.45952C4.25108 9.069 4.25068 8.43546 4.6412 8.04493C5.45691 7.22918 6.406 6.78682 7.4489 6.73401C8.28708 6.69158 9.11761 6.90396 9.91697 7.27272L15.2212 4.33274L14.96 2.53726C14.898 2.11085 15.1161 1.69266 15.5013 1.49948Z"/>
</svg>
