<svg viewBox="0 0 24 24" xmlns="http://www.w3.org/2000/svg">
<path fill-rule="evenodd" clip-rule="evenodd" d="M15.5013 1.49954C15.8864 1.30635 16.352 1.3816 16.6567 1.68629L22.3136 7.34313C22.618 7.64757 22.6934 8.11269 22.5008 8.49772C22.3081 8.88275 21.8906 9.10125 21.4644 9.0401L19.6726 8.783L16.7164 14.1034C17.0688 14.9245 17.2871 15.7559 17.25 16.5879C17.2039 17.6255 16.7668 18.5468 15.9549 19.3587C15.7674 19.5462 15.513 19.6516 15.2478 19.6516C14.9826 19.6516 14.7282 19.5462 14.5407 19.3587L11.2606 16.0786L3.81617 21.5823C3.41849 21.8763 2.86562 21.8354 2.51547 21.4862C2.16532 21.1369 2.12308 20.5841 2.41609 20.1857L7.90468 12.7227L4.6416 9.45958C4.25108 9.06906 4.25068 8.43552 4.6412 8.04499C5.45691 7.22925 6.406 6.78688 7.4489 6.73408C8.28708 6.69164 9.11761 6.90402 9.91697 7.27278L15.2212 4.3328L14.96 2.53732C14.898 2.11091 15.1161 1.69273 15.5013 1.49954ZM6.88944 8.87899L9.92637 11.9159C10.2757 12.2653 10.3176 12.8175 10.0249 13.2155L7.94652 16.0415L10.7642 13.9584C11.1623 13.6641 11.7158 13.7053 12.0658 14.0554L15.1214 17.1109C15.2037 16.9058 15.2429 16.7032 15.252 16.499C15.275 15.9836 15.1107 15.3423 14.6982 14.5009C14.5541 14.207 14.5629 13.8611 14.7219 13.575L18.2588 7.20963C18.3928 6.96856 18.6164 6.79911 18.872 6.72996L17.2755 5.13353C17.2063 5.38937 17.0365 5.61327 16.795 5.74716L10.424 9.27842C10.1238 9.4448 9.75931 9.44562 9.45838 9.2806C8.70564 8.8678 8.07413 8.70498 7.55003 8.73152C7.3297 8.74267 7.10984 8.78803 6.88944 8.87899Z"/>
</svg>
