<svg viewBox="0 0 24 24" xmlns="http://www.w3.org/2000/svg">
<path fill-rule="evenodd" clip-rule="evenodd" d="M12 5C8.89049 5 6.16485 6.67673 4.29081 8.2301C3.33961 9.01854 2.57232 9.8047 2.04245 10.3937C1.77694 10.6888 1.56952 10.9362 1.42688 11.1119C1.35553 11.1997 1.30028 11.2698 1.26198 11.3191C1.24282 11.3438 1.22789 11.3633 1.21729 11.3772L1.20465 11.3939L1.20079 11.399L1.19898 11.4014C0.934264 11.7562 0.933867 12.2433 1.19858 12.598L2.00005 12C1.19858 12.598 1.19927 12.599 1.19948 12.5992L1.20079 12.601L1.20465 12.6061L1.21729 12.6228C1.22789 12.6367 1.24282 12.6562 1.26198 12.6809C1.30028 12.7302 1.35553 12.8003 1.42688 12.8881C1.56952 13.0638 1.77694 13.3112 2.04245 13.6063C2.57232 14.1953 3.33961 14.9815 4.29081 15.7699C6.16485 17.3233 8.89049 19 12 19C15.1096 19 17.8352 17.3233 19.7093 15.7699C20.6605 14.9815 21.4278 14.1953 21.9576 13.6063C22.2232 13.3112 22.4306 13.0638 22.5732 12.8881C22.6446 12.8003 22.6998 12.7302 22.7381 12.6809C22.7573 12.6562 22.7722 12.6367 22.7828 12.6228L22.7954 12.6061L22.7993 12.601L22.8011 12.5986C23.0658 12.2438 23.0662 11.7567 22.8015 11.402L22 12C22.8015 11.402 22.8008 11.401 22.8006 11.4008L22.7993 11.399L22.7954 11.3939L22.7828 11.3772C22.7722 11.3633 22.7573 11.3438 22.7381 11.3191C22.6998 11.2698 22.6446 11.1997 22.5732 11.1119C22.4306 10.9362 22.2232 10.6888 21.9576 10.3937C21.4278 9.8047 20.6605 9.01854 19.7093 8.2301C17.8352 6.67673 15.1096 5 12 5ZM22 12L22.8011 12.5986C22.8013 12.5983 22.8015 12.598 22 12ZM2.00005 12L1.19898 11.4014C1.19877 11.4017 1.19858 11.402 2.00005 12ZM3.52934 12.2687C3.44313 12.1729 3.364 12.083 3.29224 12C3.364 11.917 3.44313 11.8271 3.52934 11.7313C4.01152 11.1953 4.7087 10.4815 5.56714 9.7699C7.31239 8.32327 9.58675 7 12 7C14.4133 7 16.6877 8.32327 18.433 9.7699C19.2914 10.4815 19.9886 11.1953 20.4708 11.7313C20.557 11.8271 20.6361 11.917 20.7079 12C20.6361 12.083 20.557 12.1729 20.4708 12.2687C19.9886 12.8047 19.2914 13.5185 18.433 14.2301C16.6877 15.6767 14.4133 17 12 17C9.58675 17 7.31239 15.6767 5.56714 14.2301C4.7087 13.5185 4.01152 12.8047 3.52934 12.2687ZM12 8.5C10.067 8.5 8.5 10.067 8.5 12C8.5 13.933 10.067 15.5 12 15.5C13.933 15.5 15.5 13.933 15.5 12C15.5 10.067 13.933 8.5 12 8.5ZM10.5 12C10.5 11.1716 11.1716 10.5 12 10.5C12.8284 10.5 13.5 11.1716 13.5 12C13.5 12.8284 12.8284 13.5 12 13.5C11.1716 13.5 10.5 12.8284 10.5 12Z"/>
</svg>
