<svg viewBox="0 0 24 24" xmlns="http://www.w3.org/2000/svg">
<path fill-rule="evenodd" clip-rule="evenodd" d="M3.77755 10.4511C3.0803 9.87972 2.504 9.2128 2.11304 8.46176L3.88706 7.53827C4.13081 8.00652 4.51625 8.47069 5.0453 8.90427L5.04531 8.90428C6.54412 10.1327 9.06054 11 12.0001 11C14.9396 11 17.456 10.1327 18.9548 8.90429L18.9548 8.90427C19.4839 8.47068 19.8693 8.0065 20.113 7.53828L21.8871 8.46175C21.4961 9.21282 20.9198 9.87973 20.2225 10.4511C20.1574 10.5045 20.091 10.5572 20.0235 10.6092L22.2123 12.7981L20.7981 14.2123L18.2637 11.6779C17.4768 12.0538 16.607 12.3575 15.6789 12.5785L16.4898 15.6049L14.558 16.1225L13.698 12.9131C13.1435 12.9705 12.5761 13 12.0001 13C11.4199 13 10.8485 12.97 10.2902 12.9119L9.4299 16.1226L7.49805 15.605L8.30969 12.5758C7.38728 12.3553 6.52264 12.0532 5.73991 11.6795L3.20719 14.2123L1.79297 12.7981L3.97954 10.6115C3.911 10.5588 3.84366 10.5053 3.77756 10.4512L3.77755 10.4511Z"/>
</svg>
