<svg xmlns="http://www.w3.org/2000/svg" viewBox="0 0 24 24">
  <path d="M19.1025 1.00488C19.6067 1.05621 20 1.48232 20 2V9H22L22.1025 9.00488C22.6067 9.05621 23 9.48232 23 10V19C23 19.5523 22.5523 20 22 20H19.5V22C19.5 22.5523 19.0523 23 18.5 23H5.5C4.94772 23 4.5 22.5523 4.5 22V20H2C1.44772 20 1 19.5523 1 19V10L1.00488 9.89746C1.05621 9.39333 1.48232 9 2 9H4V2L4.00488 1.89746C4.05621 1.39333 4.48232 1 5 1H19L19.1025 1.00488ZM3 18H4.49023V16C4.49023 15.4477 4.93796 15 5.49023 15H18.5088C19.061 15.0001 19.5088 15.4478 19.5088 16V18H21V11H3V18Z"/>
</svg>