<svg xmlns="http://www.w3.org/2000/svg" viewBox="0 0 20 20">
  <path d="M15.833 0.833008C16.2932 0.833008 16.667 1.20675 16.667 1.66699V7.5H18.333C18.7931 7.5 19.1668 7.87292 19.167 8.33301V15.833C19.167 16.2932 18.7932 16.667 18.333 16.667H16.25V18.333C16.25 18.7931 15.8771 19.1668 15.417 19.167H4.58301C4.12292 19.1668 3.75 18.7931 3.75 18.333V16.667H1.66699C1.20675 16.667 0.833008 16.2932 0.833008 15.833V8.33301C0.833184 7.87292 1.20686 7.5 1.66699 7.5H3.33301V1.66699C3.33301 1.20675 3.70675 0.833008 4.16699 0.833008H15.833ZM5.41699 17.5H14.583V14.167H5.41699V17.5ZM2.5 15H3.74219V13.333C3.74236 12.8729 4.11507 12.5 4.5752 12.5H15.4238C15.884 12.5 16.2567 12.8729 16.2568 13.333V15H17.5V9.16699H2.5V15ZM5 7.5H15V2.5H5V7.5Z"/>
</svg>