<svg xmlns="http://www.w3.org/2000/svg" viewBox="0 0 24 24">
  <path d="M11.8633 1.00952C12.0037 0.989523 12.1479 0.999716 12.2852 1.03979L21.2803 3.66772C21.7067 3.79229 21.9999 4.18345 22 4.62769V10.0164C22 16.1111 18.0996 21.5223 12.3174 23.449C12.1123 23.5173 11.8906 23.5172 11.6855 23.449C5.90197 21.5224 2.00013 16.1104 2 10.0144V4.62769C2.00006 4.1834 2.29325 3.79225 2.71973 3.66772L11.7246 1.03979L11.8633 1.00952ZM17.707 8.29272C17.3165 7.90235 16.6835 7.90236 16.293 8.29272L11 13.5857L8.20703 10.7927C7.81654 10.4023 7.18347 10.4024 6.79297 10.7927C6.40248 11.1832 6.40255 11.8163 6.79297 12.2068L10.293 15.7068C10.6835 16.0973 11.3165 16.0973 11.707 15.7068L17.707 9.70679C18.0974 9.31625 18.0975 8.68321 17.707 8.29272Z"/>
</svg>