<svg xmlns="http://www.w3.org/2000/svg" viewBox="0 0 24 24">
  <path d="M3 4.62782L12.0043 2L21 4.62782V10.0169C21 15.6811 17.3751 20.7097 12.0013 22.5002C6.62605 20.7097 3 15.68 3 10.0143V4.62782Z"/>
  <path d="M2 10.0146V4.62787C2 4.18353 2.29321 3.79245 2.71973 3.66791L11.7246 1.03998L11.8633 1.00971C12.0037 0.989703 12.1479 0.999891 12.2852 1.03998L21.2803 3.66791C21.7067 3.79249 22 4.18358 22 4.62787V10.0165C22 16.1113 18.0996 21.5225 12.3174 23.4492C12.1123 23.5175 11.8906 23.5174 11.6855 23.4492C5.90195 21.5226 2.00013 16.1106 2 10.0146ZM4 10.0146C4.00012 15.1374 7.20937 19.695 12.001 21.4384C16.7915 19.6951 20 15.1382 20 10.0165V5.37689L12.0029 3.04096L4 5.37689V10.0146Z"/>
  <path d="M16.293 8.29302C16.6835 7.90249 17.3165 7.90249 17.707 8.29302C18.0975 8.68354 18.0975 9.31655 17.707 9.70708L11.707 15.7071C11.3165 16.0976 10.6835 16.0976 10.293 15.7071L6.79295 12.2071C6.40243 11.8166 6.40243 11.1835 6.79295 10.793C7.18348 10.4025 7.81649 10.4025 8.20702 10.793L11 13.586L16.293 8.29302Z" fill="white"/>
</svg>