<svg xmlns="http://www.w3.org/2000/svg" viewBox="0 0 16 16">
  <path d="M7.87207 1.34674C7.95631 1.33032 8.04269 1.33045 8.12695 1.34674C8.15048 1.35128 8.17274 1.35932 8.19531 1.36627C8.21547 1.37246 8.23625 1.37668 8.25586 1.38482C8.27616 1.39328 8.29425 1.40573 8.31348 1.41607C8.33203 1.42605 8.3514 1.43449 8.36914 1.44635C8.40571 1.47077 8.4407 1.4974 8.47168 1.52838L10.4717 3.52838C10.732 3.78873 10.732 4.21139 10.4717 4.47174C10.2113 4.73209 9.78867 4.73209 9.52832 4.47174L8.66699 3.60943V10.1797C9.06499 10.4104 9.33289 10.84 9.33301 11.3331C9.33301 11.3675 9.33069 11.4018 9.32812 11.4356H14C14.3681 11.4356 14.6668 11.7336 14.667 12.1016V14.0001L14.6533 14.1348C14.591 14.4384 14.322 14.6671 14 14.6671H2C1.67796 14.6671 1.40898 14.4384 1.34668 14.1348L1.33301 14.0001V12.1016C1.33318 11.7336 1.63192 11.4356 2 11.4356H6.67188C6.66931 11.4018 6.66699 11.3675 6.66699 11.3331C6.66711 10.84 6.93501 10.4104 7.33301 10.1797V3.60943L6.47168 4.47174C6.21133 4.73209 5.78867 4.73209 5.52832 4.47174C5.26797 4.21139 5.26797 3.78873 5.52832 3.52838L7.52832 1.52838C7.55911 1.49759 7.59357 1.47067 7.62988 1.44635C7.6476 1.43448 7.66702 1.42606 7.68555 1.41607C7.70475 1.40571 7.72289 1.3933 7.74316 1.38482C7.76275 1.37666 7.78357 1.37249 7.80371 1.36627C7.82627 1.35929 7.84856 1.35132 7.87207 1.34674Z" />
</svg>