<svg xmlns="http://www.w3.org/2000/svg" viewBox="0 0 24 24">
  <path fill-rule="evenodd" clip-rule="evenodd" d="M9.96661 2.64652C7.59734 0.97919 4.85664 0.634447 1.85845 1.52176C1.48409 1.63255 1.20844 1.95108 1.15254 2.33746C0.640622 5.87578 1.40746 8.76652 3.68393 10.7534L4.32502 10.0189L3.68394 10.7534C5.60838 12.433 7.9839 12.9334 10.6779 12.4057C10.4056 14.044 10.2909 15.9547 10.3252 18.1289C8.64837 18.317 6.90696 18.807 5.1052 19.5813C4.59778 19.7993 4.3632 20.3874 4.58125 20.8948C4.79929 21.4023 5.3874 21.6368 5.89482 21.4188C7.49287 20.7321 8.99161 20.3093 10.3949 20.1346C10.4279 20.7644 10.4716 21.4132 10.5259 22.081C10.5706 22.6314 11.0531 23.0414 11.6036 22.9967C12.154 22.952 12.564 22.4695 12.5193 21.919C12.4669 21.2741 12.4249 20.6509 12.3933 20.0493C13.9632 20.1017 15.9146 20.4018 18.2642 20.9718C18.801 21.102 19.3416 20.7725 19.4718 20.2358C19.602 19.6991 19.2725 19.1584 18.7358 19.0282C16.2599 18.4276 14.1168 18.0924 12.3243 18.0465C12.2964 16.1532 12.3875 14.5121 12.591 13.1167C14.8506 14.3077 17.1173 14.4165 19.2855 13.2598C20.487 12.6189 21.4327 11.7674 22.071 10.6901C22.7089 9.61348 23.0052 8.36998 22.9999 6.99818C22.9985 6.64746 22.8136 6.32308 22.5124 6.14334C20.4228 4.89619 18.2042 4.58392 15.9217 5.24416C14.6674 5.60697 13.6486 6.34547 12.8393 7.39414C12.4909 5.38794 11.5637 3.77049 9.96661 2.64652L9.96661 2.64652ZM4.99905 9.24658C3.49989 7.93814 2.78974 6.01561 3.05332 3.27402C5.27329 2.76133 7.16491 3.12048 8.81559 4.28211C10.3744 5.37909 11.1864 7.27137 10.9648 10.2886C8.4212 10.9623 6.4909 10.5486 4.99905 9.24658ZM20.9784 7.5816C19.5101 6.84733 18.0254 6.71763 16.4775 7.16539L16.4775 7.1654C15.0866 7.56771 13.9316 8.76507 13.1686 11.1501C15.0953 12.2885 16.7783 12.3305 18.3441 11.4952L18.3441 11.4952C19.2754 10.9985 19.927 10.3852 20.3504 9.67061C20.6958 9.08767 20.9124 8.39829 20.9784 7.5816Z"/>
</svg>