<svg viewBox="0 0 24 24" xmlns="http://www.w3.org/2000/svg">
<path d="M7.05132 1.68377C7.18743 1.27543 7.56957 1 8 1H16C16.4304 1 16.8126 1.27543 16.9487 1.68377C17.0848 2.09211 16.9443 2.54174 16.6 2.8L15.1626 3.87806L16.8443 9.3436C17.364 9.67384 18.0276 10.1598 18.6098 10.7905C19.3258 11.5661 20 12.6518 20 14C20 14.5523 19.5523 15 19 15H14.7808L12.9701 22.2425C12.8589 22.6877 12.4589 23 12 23C11.5411 23 11.1411 22.6877 11.0299 22.2425L9.21922 15H5C4.44772 15 4 14.5523 4 14C4 13.2541 4.27684 12.5741 4.61126 12.0168C4.94888 11.454 5.38376 10.952 5.79289 10.5429C6.20521 10.1306 6.61366 9.79057 6.91731 9.5544C7.00075 9.4895 7.07689 9.43197 7.14375 9.38245L8.83741 3.87806L7.4 2.8C7.05566 2.54174 6.9152 2.09211 7.05132 1.68377Z"/>
</svg>
