<svg viewBox="0 0 24 24" xmlns="http://www.w3.org/2000/svg">
<path fill-rule="evenodd" clip-rule="evenodd" d="M5 4.90793C6.7846 3.11377 9.23989 2 11.9956 2C15.9234 2 19.3204 4.26467 20.9556 7.55497L19.1645 8.44503C17.8543 5.80843 15.1352 4 11.9956 4C9.47577 4 7.26434 5.16612 5.81192 7H8V9H5H3V7V3H5V4.90793ZM8.50015 13.4497C7.7191 12.6687 7.7191 11.4024 8.50015 10.6213L10.6215 8.49999C11.4025 7.71894 12.6688 7.71894 13.4499 8.49999L15.5712 10.6213C16.3523 11.4024 16.3523 12.6687 15.5712 13.4497L13.4499 15.5711C12.6688 16.3521 11.4025 16.3521 10.6215 15.5711L8.50015 13.4497ZM12.0357 9.9142L9.91436 12.0355L12.0357 14.1568L14.157 12.0355L12.0357 9.9142ZM3.10449 16.445C4.73962 19.7353 8.13666 22 12.0645 22C14.8202 22 17.2755 20.8862 19.0601 19.092V21H21.0601V15H21H19.0601H16V17H18.2481C16.7957 18.8339 14.5843 20 12.0645 20C8.92485 20 6.20579 18.1915 4.89552 15.5549L3.10449 16.445Z"/>
</svg>
