<svg xmlns="http://www.w3.org/2000/svg" viewBox="0 0 24 24">
  <path d="M11.3284 9.2071L9.20711 11.3284C8.81658 11.7189 8.81658 12.3521 9.20711 12.7426L11.3284 14.8639C11.719 15.2545 12.3521 15.2545 12.7426 14.8639L14.864 12.7426C15.2545 12.3521 15.2545 11.7189 14.864 11.3284L12.7426 9.2071C12.3521 8.81657 11.719 8.81657 11.3284 9.2071Z"/>
  <path d="M9.91421 12.0355L12.0355 14.1568L14.1569 12.0355L12.0355 9.9142L9.91421 12.0355ZM15.5711 10.6213C16.3521 11.4024 16.3521 12.6687 15.5711 13.4497L13.4497 15.5711C12.6687 16.3521 11.4024 16.3521 10.6213 15.5711L8.5 13.4497C7.71895 12.6687 7.71895 11.4024 8.5 10.6213L10.6213 8.49999C11.4024 7.71894 12.6687 7.71894 13.4497 8.49999L15.5711 10.6213Z"/>
  <path d="M11.9951 2C15.9228 2 19.3199 4.26462 20.9551 7.55469C21.2009 8.04927 20.9995 8.64972 20.5049 8.89551C20.0104 9.14117 19.4098 8.93981 19.1641 8.44531C17.8538 5.80871 15.1347 4 11.9951 4C8.86437 4.00019 6.20974 5.80076 4.89552 8.44531C4.64966 8.93972 4.0492 9.14125 3.5547 8.89551C3.06029 8.64965 2.85876 8.04919 3.1045 7.55469C4.73559 4.27273 8.0589 2.00019 11.9951 2Z"/>
  <path d="M3 8V4C3 3.44772 3.44772 3 4 3C4.55228 3 5 3.44772 5 4V8C5 8.55228 4.55228 9 4 9C3.44772 9 3 8.55228 3 8Z"/>
  <path d="M7.38971 7C7.94199 7 8.38971 7.44772 8.38971 8C8.38971 8.55228 7.94199 9 7.38971 9H4.00006C3.44778 9 3.00006 8.55228 3.00006 8C3.00006 7.44772 3.44778 7 4.00006 7H7.38971Z"/>
  <path d="M19.1641 15.5547C19.4098 15.0602 20.0104 14.8588 20.5049 15.1045C20.9995 15.3503 21.2009 15.9507 20.9551 16.4453C19.3239 19.7273 16.0008 22 12.0645 22C8.13673 22 4.73967 19.7355 3.1045 16.4453C2.85876 15.9508 3.06029 15.3503 3.5547 15.1045C4.0492 14.8587 4.64966 15.0603 4.89552 15.5547C6.20578 18.1913 8.92483 20 12.0645 20C15.1954 20 17.8498 18.1994 19.1641 15.5547Z"/>
  <path d="M19.0601 20V16C19.0601 15.4477 19.5078 15 20.0601 15C20.6123 15 21.0601 15.4477 21.0601 16V20C21.0601 20.5523 20.6123 21 20.0601 21C19.5078 21 19.0601 20.5523 19.0601 20Z"/>
  <path d="M20.0595 15C20.6118 15 21.0595 15.4477 21.0595 16C21.0595 16.5523 20.6118 17 20.0595 17H16.6699C16.1176 17 15.6699 16.5523 15.6699 16C15.6699 15.4477 16.1176 15 16.6699 15H20.0595Z"/>
</svg>