<svg xmlns="http://www.w3.org/2000/svg" viewBox="0 0 24 24">
  <path fill-rule="evenodd" clip-rule="evenodd" d="M8 8H5.81192C7.26434 6.16612 9.47577 5 11.9956 5C15.1352 5 17.8543 6.80843 19.1645 9.44503L20.9556 8.55497C19.3204 5.26467 15.9234 3 11.9956 3C9.23989 3 6.7846 4.11377 5 5.90793V4H3V8V10H5H8V8ZM3.10449 16.445C4.73962 19.7353 8.13666 22 12.0645 22C14.8202 22 17.2755 20.8862 19.0601 19.092V21H21.0601V15H21H19.0601H16V17H18.2481C16.7957 18.8339 14.5843 20 12.0645 20C8.92485 20 6.20579 18.1915 4.89552 15.5549L3.10449 16.445Z"/>
</svg>