<svg xmlns="http://www.w3.org/2000/svg" viewBox="0 0 24 24">
  <path d="M2 4.34961C2.00021 3.05203 3.05206 2.00021 4.34961 2H19.6504C20.948 2.00021 21.9998 3.05204 22 4.34961V19.6504C21.9998 20.9479 20.948 21.9998 19.6504 22H4.34961C3.05205 21.9998 2.00021 20.948 2 19.6504L2 4.34961ZM20 11V4.34961C19.9998 4.1566 19.8434 4.00021 19.6504 4H4.34961C4.15661 4.00021 4.00021 4.15661 4 4.34961V11L20 11ZM4 19.6504C4.00021 19.8434 4.15662 19.9998 4.34961 20H19.6504C19.8434 19.9998 19.9998 19.8434 20 19.6504V13L4 13V19.6504Z"/>
</svg>