<svg viewBox="0 0 24 24" xmlns="http://www.w3.org/2000/svg">
<path fill-rule="evenodd" clip-rule="evenodd" d="M4 4.5C4 4.22386 4.22386 4 4.5 4H6V6.6923C6 7.25401 6.36632 7.60398 6.62234 7.76154C6.89452 7.92903 7.20734 8 7.5 8H11.5C11.7927 8 12.1055 7.92903 12.3777 7.76154C12.6335 7.60409 12.9995 7.25448 13 6.69342V6.6923L13.003 4H16.7464L20 7.0377V19.5C20 19.7762 19.7762 20 19.5 20H4.5C4.22385 20 4 19.7762 4 19.5V4.5ZM4.5 2H7H12.0042H17.1407C17.3941 2 17.638 2.09616 17.8231 2.26906L21.6824 5.87231C21.885 6.06143 22 6.32613 22 6.60325V19.5C22 20.8807 20.8807 22 19.5 22H4.5C3.1193 22 2 20.8807 2 19.5V4.5C2 3.11929 3.11929 2 4.5 2ZM17 14H7V12H17V14ZM7 18H12.0042V16H7V18Z"/>
</svg>
