<svg xmlns="http://www.w3.org/2000/svg" viewBox="0 0 24 24">
  <path d="M21.5638 1.5022C21.5729 1.50279 21.582 1.50234 21.5911 1.50317C21.6285 1.50656 21.6656 1.51318 21.7024 1.52075C21.7185 1.52409 21.7344 1.52835 21.7503 1.53247C21.7617 1.5354 21.7732 1.53792 21.7845 1.54126L21.8548 1.5647C21.8585 1.56609 21.8619 1.56814 21.8655 1.56958C21.9024 1.58403 21.9387 1.60039 21.9739 1.61938C21.9765 1.62076 21.9792 1.62189 21.9817 1.62329L22.0501 1.66431C22.0639 1.67338 22.0767 1.68378 22.0901 1.6936C22.0947 1.69691 22.0993 1.69998 22.1038 1.70337C22.1397 1.73063 22.1746 1.76046 22.2073 1.79321C22.2393 1.82523 22.2675 1.85976 22.2942 1.89478C22.2978 1.89939 22.3015 1.90378 22.305 1.90845C22.3857 2.01796 22.4406 2.13982 22.471 2.26685C22.4725 2.27307 22.4745 2.27915 22.4759 2.2854C22.4934 2.36546 22.5007 2.447 22.4983 2.52856C22.4979 2.5442 22.4976 2.5598 22.4964 2.57544C22.4903 2.6556 22.4738 2.73466 22.4485 2.81177C22.4466 2.81768 22.4467 2.82443 22.4446 2.83032L15.7942 21.8303C15.6588 22.2172 15.3004 22.4824 14.8909 22.4993C14.4815 22.5159 14.1034 22.2808 13.9368 21.9065L10.2923 13.7073L2.09404 10.0637C1.7196 9.8972 1.48472 9.51907 1.50127 9.10962C1.51798 8.69994 1.78321 8.34175 2.17021 8.2063L21.1702 1.55591C21.1751 1.55421 21.18 1.55265 21.1849 1.55103C21.2224 1.53858 21.2606 1.52863 21.2991 1.52075C21.3047 1.51961 21.3101 1.51789 21.3157 1.51685C21.3512 1.51021 21.3872 1.50692 21.4231 1.50415C21.4398 1.50288 21.4563 1.50166 21.4729 1.50122C21.5032 1.5004 21.5335 1.50028 21.5638 1.5022ZM12.2425 13.1711L14.7395 18.7893L19.1067 6.30688L12.2425 13.1711ZM5.21025 9.26001L10.8284 11.7571L17.6956 4.88989L5.21025 9.26001Z"/>
</svg>