<svg viewBox="0 0 24 24" xmlns="http://www.w3.org/2000/svg">
<path fill-rule="evenodd" clip-rule="evenodd" d="M2 3.5C1.44772 3.5 1 3.94772 1 4.5V19.5C1 20.0523 1.44772 20.5 2 20.5H12V18.5H3V6.50002L11.3999 12.8C11.7555 13.0666 12.2443 13.0666 12.5999 12.8L21 6.49988V12H23V4.5C23 3.94772 22.5523 3.5 22 3.5H2ZM18.9998 5.5H4.99997L11.9999 10.75L18.9998 5.5ZM18.793 18.7928L19.5858 18H15V16H19.5859L18.793 15.2071L20.2072 13.7928L22.7072 16.2928C23.0977 16.6834 23.0977 17.3165 22.7072 17.7071L20.2072 20.2071L18.793 18.7928Z"/>
</svg>
