<svg viewBox="0 0 24 24" xmlns="http://www.w3.org/2000/svg">
<path fill-rule="evenodd" clip-rule="evenodd" d="M10.2168 1.90712C10.0009 1.48395 9.51711 1.27107 9.05927 1.39781C7.33529 1.87504 5.78256 2.76071 4.51135 3.94272C4.18783 4.24354 4.10003 4.721 4.29538 5.11724C4.42609 5.38239 4.5 5.68116 4.5 6.00005C4.5 7.10461 3.60457 8.00005 2.5 8.00005L2.47217 7.99985C2.0301 7.99354 1.63635 8.27827 1.50385 8.70007C1.17624 9.74307 1 10.8519 1 12C1 12.7578 1.07677 13.4987 1.22328 14.215C1.32591 14.7168 1.79107 15.0599 2.30078 15.0098C2.36629 15.0034 2.43273 15 2.5 15C3.60457 15 4.5 15.8955 4.5 17C4.5 17.492 4.32369 17.9401 4.02964 18.2886C3.69934 18.6801 3.71823 19.2579 4.0734 19.6269C5.37142 20.9757 7.01182 21.9949 8.85655 22.5441C9.37839 22.6994 9.92862 22.4088 10.0944 21.8901C10.3525 21.0827 11.1095 20.5 12 20.5C12.8905 20.5 13.6475 21.0827 13.9056 21.8901C14.0714 22.4088 14.6216 22.6994 15.1434 22.5441C16.9882 21.9949 18.6286 20.9757 19.9266 19.6269C20.2818 19.2579 20.3006 18.6801 19.9704 18.2886C19.6763 17.9401 19.5 17.492 19.5 17C19.5 15.8955 20.3954 15 21.5 15C21.5673 15 21.6337 15.0034 21.6992 15.0098C22.2089 15.0599 22.6741 14.7168 22.7767 14.215C22.9232 13.4987 23 12.7578 23 12C23 10.8519 22.8237 9.74307 22.4961 8.70008C22.3637 8.27828 21.9699 7.99354 21.5278 7.99985L21.5 8.00005C20.3954 8.00005 19.5 7.10461 19.5 6.00005C19.5 5.68116 19.5739 5.38239 19.7046 5.11724C19.9 4.721 19.8122 4.24354 19.4886 3.94272C18.2174 2.76071 16.6647 1.87504 14.9407 1.39781C14.4829 1.27107 13.9991 1.48395 13.7832 1.90712C13.4512 2.55793 12.7763 3.00006 12 3.00006C11.2237 3.00006 10.5488 2.55793 10.2168 1.90712ZM6.5 6.00005C6.5 5.64797 6.45428 5.30572 6.36833 4.97933C7.12606 4.37063 7.98386 3.88246 8.91267 3.54327C9.64553 4.43192 10.7559 5.00006 12 5.00006C13.2441 5.00006 14.3545 4.43192 15.0873 3.54327C16.0161 3.88246 16.8739 4.37063 17.6317 4.97933C17.5457 5.30572 17.5 5.64797 17.5 6.00005C17.5 7.95687 18.9052 9.58552 20.7615 9.93201C20.9174 10.5953 21 11.2875 21 12C21 12.3517 20.9799 12.6983 20.9408 13.0388C18.9964 13.3108 17.5 14.9807 17.5 17C17.5 17.6393 17.6505 18.2445 17.9177 18.7811C17.1677 19.4363 16.3086 19.9686 15.3717 20.3475C14.6614 19.2371 13.4176 18.5 12 18.5C10.5824 18.5 9.3386 19.2371 8.62832 20.3475C7.69143 19.9686 6.8323 19.4363 6.08229 18.7812C6.3495 18.2445 6.5 17.6393 6.5 17C6.5 14.9807 5.00361 13.3108 3.0592 13.0388C3.02012 12.6983 3 12.3517 3 12C3 11.2875 3.08262 10.5953 3.2385 9.93201C5.09485 9.58552 6.5 7.95688 6.5 6.00005ZM12 7.5C9.51472 7.5 7.5 9.51472 7.5 12C7.5 14.4853 9.51472 16.5 12 16.5C14.4853 16.5 16.5 14.4853 16.5 12C16.5 9.51472 14.4853 7.5 12 7.5ZM9.5 12C9.5 10.6193 10.6193 9.5 12 9.5C13.3807 9.5 14.5 10.6193 14.5 12C14.5 13.3807 13.3807 14.5 12 14.5C10.6193 14.5 9.5 13.3807 9.5 12Z"/>
</svg>
