<svg xmlns="http://www.w3.org/2000/svg" viewBox="0 0 24 24">
  <path d="M13.4658 1.00488C13.9701 1.05605 14.3633 1.4822 14.3633 2V3.59863C15.0347 3.78715 15.6725 4.05436 16.2676 4.38867L17.3994 3.25781L17.4756 3.18848C17.8683 2.8683 18.4474 2.89187 18.8135 3.25781L20.7422 5.18652C21.1326 5.57705 21.1327 6.2101 20.7422 6.60059L19.6104 7.73145C19.945 8.3269 20.2127 8.96488 20.4014 9.63672H22C22.5523 9.63672 23 10.0844 23 10.6367V13.3633C23 13.9156 22.5523 14.3633 22 14.3633H20.4014C20.2128 15.0348 19.9448 15.6723 19.6104 16.2676L20.7422 17.3994C21.1327 17.7899 21.1326 18.4229 20.7422 18.8135L18.8135 20.7422C18.4229 21.1326 17.7899 21.1327 17.3994 20.7422L16.2676 19.6104C15.6724 19.9447 15.0348 20.2118 14.3633 20.4004V22C14.3633 22.5523 13.9156 23 13.3633 23H10.6367C10.0844 23 9.63672 22.5523 9.63672 22V20.4004C8.96497 20.2117 8.32682 19.9449 7.73145 19.6104L6.60059 20.7422C6.2101 21.1327 5.57705 21.1326 5.18652 20.7422L3.25781 18.8135C2.86742 18.4229 2.86734 17.7899 3.25781 17.3994L4.38867 16.2676C4.05436 15.6725 3.78715 15.0347 3.59863 14.3633H2C1.44772 14.3633 1 13.9156 1 13.3633V10.6367L1.00488 10.5342C1.05605 10.0299 1.4822 9.63672 2 9.63672H3.59863C3.78723 8.96503 4.05417 8.32678 4.38867 7.73145L3.25781 6.60059C2.86734 6.2101 2.86742 5.57705 3.25781 5.18652L5.18652 3.25781L5.26172 3.18848C5.65449 2.86818 6.23449 2.89172 6.60059 3.25781L7.73145 4.38867C8.32678 4.05417 8.96503 3.78723 9.63672 3.59863V2L9.6416 1.89746C9.69295 1.39335 10.1191 1 10.6367 1H13.3633L13.4658 1.00488ZM12 8.5C10.067 8.5 8.5 10.067 8.5 12C8.5 13.933 10.067 15.5 12 15.5C13.933 15.5 15.5 13.933 15.5 12C15.5 10.067 13.933 8.5 12 8.5Z"/>
</svg>