<svg viewBox="0 0 24 24" xmlns="http://www.w3.org/2000/svg">
<path fill-rule="evenodd" clip-rule="evenodd" d="M6.11331 6.61073L1.94531 3.83207L3.05471 2.16797L7.55471 5.16797C7.76788 5.31008 7.91837 5.52858 7.97515 5.7784L10.2982 16H18.7518L19.34 14H12.5V12H19.9283L20.6635 9.50002H12.5V7.50002H22C22.3152 7.50002 22.6119 7.64859 22.8007 7.90092C22.9895 8.15326 23.0483 8.47984 22.9594 8.78219L20.4594 17.2822C20.3342 17.7078 19.9436 18 19.5 18H9.50001C9.03311 18 8.62835 17.6769 8.52488 17.2216L6.11331 6.61073ZM12 20.75C12 21.7165 11.2165 22.5 10.25 22.5C9.2835 22.5 8.5 21.7165 8.5 20.75C8.5 19.7835 9.2835 19 10.25 19C11.2165 19 12 19.7835 12 20.75ZM20.5 20.75C20.5 21.7165 19.7165 22.5 18.75 22.5C17.7835 22.5 17 21.7165 17 20.75C17 19.7835 17.7835 19 18.75 19C19.7165 19 20.5 19.7835 20.5 20.75Z"/>
</svg>
