<svg viewBox="0 0 24 24" xmlns="http://www.w3.org/2000/svg">
<path fill-rule="evenodd" clip-rule="evenodd" d="M3 2C3 1.44772 3.44772 1 4 1H20C20.5523 1 21 1.44772 21 2V5H22C22.5523 5 23 5.44772 23 6V10C23 10.3513 22.8157 10.6768 22.5145 10.8575L21.8152 11.277C21.554 11.4338 21.2808 11.5618 21 11.6611V22C21 22.5523 20.5523 23 20 23H14.5H9.5H4C3.44772 23 3 22.5523 3 22V11.6611C2.71923 11.5618 2.44603 11.4338 2.18476 11.277L1.48551 10.8575C1.1843 10.6768 1 10.3513 1 10V6C1 5.44772 1.44772 5 2 5H3V2ZM10.5 21H13.5V17H10.5V21ZM15.5 21V16C15.5 15.4477 15.0523 15 14.5 15H9.5C8.94772 15 8.5 15.4477 8.5 16V21H5V11.8905C5.63137 11.82 6.25114 11.6155 6.81525 11.277L7 11.1662L7.18475 11.277C8.60983 12.1321 10.3902 12.1321 11.8152 11.277L12 11.1662L12.1848 11.277C13.6098 12.1321 15.3902 12.1321 16.8152 11.277L17 11.1662L17.1848 11.277C17.7489 11.6155 18.3686 11.82 19 11.8905V21H15.5ZM19 3V5H5V3H19ZM3 9.4338V7H21V9.43381L20.7862 9.56206C19.9945 10.0371 19.0055 10.0371 18.2137 9.56206L17.5145 9.14251C17.1978 8.9525 16.8022 8.9525 16.4855 9.14251L15.7862 9.56206C14.9945 10.0371 14.0055 10.0371 13.2137 9.56206L12.5145 9.14251C12.1978 8.9525 11.8022 8.9525 11.4855 9.14251L10.7862 9.56206C9.99453 10.0371 9.00546 10.0371 8.21375 9.56206L7.5145 9.14251C7.19781 8.9525 6.80219 8.9525 6.4855 9.14251L5.78625 9.56206C4.99453 10.0371 4.00545 10.0371 3.21375 9.56205L3 9.4338Z"/>
</svg>
