<svg viewBox="0 0 24 24" xmlns="http://www.w3.org/2000/svg">
<path fill-rule="evenodd" clip-rule="evenodd" d="M12 3.5C14.1141 3.5 15.9884 5.1649 16.4111 7.5H7.58888C8.01157 5.1649 9.88592 3.5 12 3.5ZM21.5 7.5H18.4334C17.9867 4.16755 15.3415 1.5 12 1.5C8.65848 1.5 6.01326 4.16755 5.56657 7.5H2.50001C2.20693 7.5 1.9286 7.62857 1.7386 7.85172C1.54861 8.07487 1.46607 8.37014 1.5128 8.65947L3.6128 21.6595C3.69106 22.1439 4.10928 22.5 4.60001 22.5H19.4C19.8907 22.5 20.309 22.1439 20.3872 21.6595L22.4872 8.65947C22.5339 8.37014 22.4514 8.07487 22.2614 7.85172C22.0714 7.62857 21.7931 7.5 21.5 7.5ZM3.67451 9.5L5.45143 20.5H18.5486L20.3255 9.5H3.67451ZM9.5 13C9.5 13.5523 9.05228 14 8.5 14C7.94772 14 7.5 13.5523 7.5 13C7.5 12.4477 7.94772 12 8.5 12C9.05228 12 9.5 12.4477 9.5 13ZM8.16847 17.0555C8.16821 17.0551 8.16795 17.0547 9 16.5C9.83205 15.9453 9.83181 15.9449 9.83156 15.9446L9.8311 15.9438L9.83022 15.9425L9.82872 15.9403L9.82672 15.9374L9.83041 15.9425L9.84231 15.9584C9.85973 15.9813 9.89065 16.0202 9.93491 16.07C10.0241 16.1704 10.1631 16.3098 10.35 16.45C10.7208 16.7281 11.2655 17 12 17C12.7345 17 13.2792 16.7281 13.65 16.45C13.8369 16.3098 13.9759 16.1704 14.0651 16.07C14.1094 16.0202 14.1403 15.9813 14.1577 15.9584C14.1664 15.947 14.1716 15.9398 14.1733 15.9373C14.1742 15.9361 14.1742 15.9361 14.1733 15.9374L14.1713 15.9403L14.1698 15.9425L14.1689 15.9438L14.1684 15.9446C14.1682 15.9449 14.168 15.9453 15 16.5C15.8321 17.0547 15.8318 17.0551 15.8315 17.0555L15.831 17.0563L15.8299 17.058L15.8273 17.0618L15.8209 17.0712L15.8032 17.0964C15.7894 17.1159 15.7711 17.1409 15.7486 17.1705C15.7035 17.2297 15.6407 17.3079 15.5599 17.3987C15.3991 17.5796 15.1631 17.8152 14.85 18.05C14.2208 18.5219 13.2655 19 12 19C10.7345 19 9.77917 18.5219 9.15 18.05C8.83692 17.8152 8.60088 17.5796 8.44009 17.3987C8.35936 17.3079 8.29653 17.2297 8.25145 17.1705C8.22887 17.1409 8.21065 17.1159 8.19677 17.0964L8.17915 17.0712L8.17275 17.0618L8.17015 17.058L8.169 17.0563L8.16847 17.0555ZM9.82668 15.9373C9.82581 15.9361 9.82582 15.9361 9.82672 15.9374L9.82668 15.9373ZM16.5 13C16.5 13.5523 16.0523 14 15.5 14C14.9477 14 14.5 13.5523 14.5 13C14.5 12.4477 14.9477 12 15.5 12C16.0523 12 16.5 12.4477 16.5 13Z"/>
</svg>
