<svg xmlns="http://www.w3.org/2000/svg" viewBox="0 0 24 24">
  <path d="M9.01955 13.4687C8.84767 14.3281 8.28908 18.1523 8.07423 19.2266C8.07423 19.3125 8.03127 19.3555 7.94533 19.3555H4.76564C4.42189 19.3555 4.20705 19.0547 4.25002 18.7539L6.7422 2.76952C6.82814 2.33984 7.17189 2.03906 7.60158 2.03906C14.1758 2.03906 14.6914 1.86718 16.3672 2.55468C18.9453 3.54296 19.2031 5.94921 18.2578 8.57031C17.3555 11.2344 15.1641 12.3945 12.2422 12.4375C10.3945 12.4805 9.27736 12.1367 9.01955 13.4687ZM19.5899 7.28124C19.5039 7.23827 19.461 7.23827 19.461 7.36718C19.375 7.83984 19.2461 8.31249 19.0742 8.78515C17.3555 13.6836 12.586 13.2539 10.2656 13.2539C10.0078 13.2539 9.83595 13.4258 9.79298 13.6836C8.84767 19.6992 8.63283 20.9453 8.63283 20.9453C8.58986 21.2461 8.8047 21.5039 9.10548 21.5039H11.8125C12.1992 21.5039 12.5 21.2461 12.586 20.8594C12.6289 20.6445 12.543 21.1172 13.1875 16.9492C13.4024 16.0039 13.832 16.0898 14.4766 16.0898C17.5274 16.0898 19.8906 14.8867 20.5781 11.2773C20.8789 9.77343 20.793 8.22656 19.5899 7.28124Z"/>
</svg>