<svg xmlns="http://www.w3.org/2000/svg" viewBox="0 0 24 24">
  <path d="M19.0469 5.26172C19.0469 5.34766 21.3672 21.0312 21.3672 21.0312L15.9961 22.4062V3.80078C16.3398 4.14453 17.2422 5.04688 17.2422 5.04688C17.2422 5.04688 18.7461 5.08984 18.832 5.08984C18.9609 5.08984 19.0469 5.13281 19.0469 5.26172ZM14.75 3.80078C15.1367 3.67188 15.3945 3.62891 15.3945 3.62891C15.4375 3.58594 15.5234 3.58594 15.5664 3.58594V22.4062L2.58984 20.1719C2.58984 20.1719 4.17969 8.05469 4.22266 7.625C4.26562 7.06641 4.30859 7.06641 4.91016 6.85156C4.91016 6.85156 5.72656 6.59375 6.92969 6.20703C7.05859 5.30469 7.48828 4.14453 8.08984 3.19922C8.90625 1.86719 9.9375 1.13672 10.9688 1.09375C11.5273 1.09375 11.957 1.26562 12.3008 1.65234C12.3008 1.69531 12.3438 1.69531 12.3867 1.73828C12.4297 1.73828 12.4727 1.69531 12.5586 1.69531C13.332 1.69531 14.0195 2.16797 14.4492 3.02734C14.5781 3.28516 14.6641 3.54297 14.75 3.80078ZM12.3867 4.53125C12.3867 3.97266 12.3438 3.11328 12.043 2.51172C11.7422 2.64062 11.4844 2.85547 11.3125 3.07031C10.7969 3.58594 10.4102 4.40234 10.1953 5.21875C10.9258 5.00391 11.6992 4.74609 12.3867 4.53125ZM10.9688 1.82422C9.37891 1.86719 8.00391 4.35938 7.61719 5.99219C8.17578 5.82031 8.82031 5.64844 9.42188 5.43359C9.63672 4.40234 10.1094 3.28516 10.7969 2.59766C11.0547 2.33984 11.3125 2.125 11.6133 1.95312C11.3984 1.86719 11.1836 1.82422 10.9688 1.82422ZM8.99219 11.2773C8.94922 11.0625 8.99219 10.2461 10.2383 10.1602C11.1406 10.1172 11.8711 10.4609 11.8711 10.4609L12.5156 7.96875C12.5156 7.96875 11.957 7.71094 10.8398 7.75391C7.96094 7.96875 6.62891 9.98828 6.75781 11.9648C6.92969 14.3281 9.29297 14.2422 9.37891 15.7031C9.42188 16.0469 9.16406 16.5625 8.5625 16.5625C7.66016 16.6484 6.5 15.7891 6.5 15.7891L6.07031 17.6797C6.07031 17.6797 7.1875 18.8828 9.29297 18.7539C11.0547 18.668 12.2578 17.25 12.1289 15.2305C11.957 12.6094 9.03516 12.3945 8.99219 11.2773ZM13.0742 4.31641C13.4609 4.23047 13.8047 4.10156 14.1055 4.01562C13.9336 3.5 13.5469 2.59766 12.7734 2.46875C12.9883 3.07031 13.0742 3.80078 13.0742 4.31641Z"/>
</svg>