<svg xmlns="http://www.w3.org/2000/svg" viewBox="0 0 24 24">
  <path d="M12 6.80859C14.707 6.80859 16.9414 9.04297 16.9414 11.75C16.9414 14.5 14.707 16.6914 12 16.6914C9.25 16.6914 7.05859 14.5 7.05859 11.75C7.05859 9.04297 9.25 6.80859 12 6.80859ZM12 14.9727C13.7617 14.9727 15.1797 13.5547 15.1797 11.75C15.1797 9.98828 13.7617 8.57031 12 8.57031C10.1953 8.57031 8.77734 9.98828 8.77734 11.75C8.77734 13.5547 10.2383 14.9727 12 14.9727ZM18.2734 6.63672C18.2734 5.99219 17.7578 5.47656 17.1133 5.47656C16.4688 5.47656 15.9531 5.99219 15.9531 6.63672C15.9531 7.28125 16.4688 7.79688 17.1133 7.79688C17.7578 7.79688 18.2734 7.28125 18.2734 6.63672ZM21.5391 7.79688C21.625 9.38672 21.625 14.1562 21.5391 15.7461C21.4531 17.293 21.1094 18.625 19.9922 19.7852C18.875 20.9023 17.5 21.2461 15.9531 21.332C14.3633 21.418 9.59375 21.418 8.00391 21.332C6.45703 21.2461 5.125 20.9023 3.96484 19.7852C2.84766 18.625 2.50391 17.293 2.41797 15.7461C2.33203 14.1562 2.33203 9.38672 2.41797 7.79688C2.50391 6.25 2.84766 4.875 3.96484 3.75781C5.125 2.64062 6.45703 2.29688 8.00391 2.21094C9.59375 2.125 14.3633 2.125 15.9531 2.21094C17.5 2.29688 18.875 2.64062 19.9922 3.75781C21.1094 4.875 21.4531 6.25 21.5391 7.79688ZM19.4766 17.4219C19.9922 16.1758 19.8633 13.168 19.8633 11.75C19.8633 10.375 19.9922 7.36719 19.4766 6.07812C19.1328 5.26172 18.4883 4.57422 17.6719 4.27344C16.3828 3.75781 13.375 3.88672 12 3.88672C10.582 3.88672 7.57422 3.75781 6.32812 4.27344C5.46875 4.61719 4.82422 5.26172 4.48047 6.07812C3.96484 7.36719 4.09375 10.375 4.09375 11.75C4.09375 13.168 3.96484 16.1758 4.48047 17.4219C4.82422 18.2812 5.46875 18.9258 6.32812 19.2695C7.57422 19.7852 10.582 19.6562 12 19.6562C13.375 19.6562 16.3828 19.7852 17.6719 19.2695C18.4883 18.9258 19.1758 18.2812 19.4766 17.4219Z"/>
</svg>