<svg xmlns="http://www.w3.org/2000/svg" viewBox="0 0 24 24">
  <path d="M12 1.09375C17.8438 1.09375 22.6562 5.90625 22.6562 11.75C22.6562 17.6367 17.8438 22.4062 12 22.4062C6.11328 22.4062 1.34375 17.6367 1.34375 11.75C1.34375 5.90625 6.11328 1.09375 12 1.09375ZM16.2969 16.7773C16.6406 16.7773 16.9414 16.5195 16.9414 16.1328C16.9414 15.7461 16.8125 15.5742 16.5547 15.4023C13.4609 13.5977 9.89453 13.5117 6.37109 14.2852C6.02734 14.3711 5.76953 14.5859 5.76953 15.0156C5.76953 15.3594 6.02734 15.7031 6.45703 15.7031C6.58594 15.7031 6.80078 15.6172 6.97266 15.5742C10.0664 14.9727 13.1602 15.0156 15.8672 16.6484C15.9961 16.7344 16.125 16.7773 16.2969 16.7773ZM17.457 13.9844C17.9297 13.9844 18.2734 13.5977 18.3164 13.125C18.3164 12.7812 18.1445 12.4805 17.8008 12.3086C15.6953 11.0195 12.9883 10.332 10.1953 10.332C8.43359 10.332 7.1875 10.5898 5.98438 10.9336C5.55469 11.0625 5.33984 11.3633 5.33984 11.793C5.33984 12.2656 5.72656 12.6523 6.15625 12.6523C6.37109 12.6523 6.45703 12.5664 6.67188 12.5234C10.2383 11.5781 14.2344 12.2227 16.9414 13.8125C17.0703 13.8555 17.2422 13.9844 17.457 13.9844ZM18.7891 10.7188C19.3047 10.7188 19.7773 10.2891 19.7773 9.6875C19.7773 9.17188 19.5625 8.91406 19.2188 8.74219C16.8555 7.32422 13.5469 6.67969 10.4102 6.67969C8.5625 6.67969 6.88672 6.89453 5.38281 7.32422C4.99609 7.45312 4.60938 7.75391 4.60938 8.35547C4.60938 8.91406 5.03906 9.38672 5.59766 9.38672C5.8125 9.38672 6.02734 9.30078 6.15625 9.25781C9.72266 8.26953 15.1797 8.69922 18.2305 10.5469C18.4453 10.6328 18.5742 10.7188 18.7891 10.7188Z"/>
</svg>