<svg xmlns="http://www.w3.org/2000/svg" viewBox="0 0 24 24">
  <path d="M18.7031 4.96094C20.5078 6.76562 21.625 9.12891 21.625 11.707C21.625 16.9492 17.2422 21.2461 11.957 21.2461C10.3672 21.2461 8.82031 20.8164 7.40234 20.0859L2.375 21.375L3.70703 16.4336C2.89062 15.0156 2.41797 13.3828 2.41797 11.6641C2.41797 6.42188 6.71484 2.125 11.957 2.125C14.5352 2.125 16.9414 3.15625 18.7031 4.96094ZM11.957 19.6133C16.3398 19.6133 19.9922 16.0469 19.9922 11.707C19.9922 9.55859 19.0898 7.58203 17.5859 6.07812C16.082 4.57422 14.1055 3.75781 12 3.75781C7.61719 3.75781 4.05078 7.32422 4.05078 11.6641C4.05078 13.168 4.48047 14.6289 5.25391 15.918L5.46875 16.2188L4.65234 19.1406L7.66016 18.3242L7.91797 18.4961C9.16406 19.2266 10.5391 19.6133 11.957 19.6133ZM16.3398 13.6836C16.5547 13.8125 16.7266 13.8555 16.7695 13.9844C16.8555 14.0703 16.8555 14.543 16.6406 15.1016C16.4258 15.6602 15.4805 16.1758 15.0508 16.2188C14.2773 16.3477 13.6758 16.3047 12.1719 15.6172C9.76562 14.5859 8.21875 12.1797 8.08984 12.0508C7.96094 11.8789 7.14453 10.7617 7.14453 9.55859C7.14453 8.39844 7.74609 7.83984 7.96094 7.58203C8.17578 7.32422 8.43359 7.28125 8.60547 7.28125C8.73438 7.28125 8.90625 7.28125 9.03516 7.28125C9.20703 7.28125 9.37891 7.23828 9.59375 7.71094C9.76562 8.18359 10.2812 9.34375 10.3242 9.47266C10.3672 9.60156 10.4102 9.73047 10.3242 9.90234C9.89453 10.8047 9.37891 10.7617 9.63672 11.1914C10.582 12.7812 11.4844 13.3398 12.9023 14.0273C13.1172 14.1562 13.2461 14.1133 13.418 13.9844C13.5469 13.8125 14.0195 13.2539 14.1484 13.0391C14.3203 12.7812 14.4922 12.8242 14.707 12.9102C14.9219 12.9961 16.082 13.5547 16.3398 13.6836Z"/>
</svg>