<svg xmlns="http://www.w3.org/2000/svg" viewBox="0 0 24 24">
  <g clip-path="url(#clip0_2597_32)">
    <path d="M23.7148 6.12109C24.2305 7.92578 24.2305 11.793 24.2305 11.793C24.2305 11.793 24.2305 15.6172 23.7148 17.4648C23.457 18.4961 22.6406 19.2695 21.6523 19.5273C19.8047 20 12.5 20 12.5 20C12.5 20 5.15234 20 3.30469 19.5273C2.31641 19.2695 1.5 18.4961 1.24219 17.4648C0.726562 15.6172 0.726562 11.793 0.726562 11.793C0.726562 11.793 0.726562 7.92578 1.24219 6.12109C1.5 5.08984 2.31641 4.27344 3.30469 4.01562C5.15234 3.5 12.5 3.5 12.5 3.5C12.5 3.5 19.8047 3.5 21.6523 4.01562C22.6406 4.27344 23.457 5.08984 23.7148 6.12109ZM10.0938 15.2734L16.1953 11.793L10.0938 8.3125V15.2734Z"/>
  </g>
  <defs>
    <clipPath id="clip0_2597_32">
      <rect fill="white"/>
    </clipPath>
  </defs>
</svg>