<svg xmlns="http://www.w3.org/2000/svg" viewBox="0 0 24 24">
  <path d="M6.67188 20H2.67578V7.15234H6.67188V20ZM4.65234 5.43359C3.40625 5.43359 2.375 4.35937 2.375 3.07031C2.375 1.30859 4.26562 0.191399 5.8125 1.09374C6.54297 1.48046 6.97266 2.2539 6.97266 3.07031C6.97266 4.35937 5.94141 5.43359 4.65234 5.43359ZM17.6289 20V13.7695C17.6289 12.2656 17.5859 10.375 15.5234 10.375C13.4609 10.375 13.1602 11.9648 13.1602 13.6406V20H9.16406V7.15234H12.9883V8.91405H13.0312C13.5898 7.92577 14.8789 6.85155 16.8125 6.85155C20.8516 6.85155 21.625 9.51562 21.625 12.9531V20H17.6289Z"/>
</svg>