<svg xmlns="http://www.w3.org/2000/svg" viewBox="0 0 24 24">
  <path d="M16.5547 11.2344C16.4688 11.1055 16.3398 10.8906 16.2969 10.6328C16.2109 10.1602 16.2109 9.8164 16.4688 9.77343C16.7695 9.73046 16.8984 10.0312 16.9844 10.4609C17.0273 10.8047 17.0273 11.0625 16.9414 11.2344C16.8125 11.2344 16.6836 11.2344 16.5547 11.2344ZM14.2773 11.5781V11.6211C14.0625 11.5352 13.8047 11.4062 13.5039 11.4492C12.9883 11.4922 12.6016 11.75 12.5586 11.5781C12.5156 11.4922 12.6445 11.3633 12.7734 11.2773C13.1602 11.0195 13.6758 10.9336 14.1055 11.1484C14.4492 11.2773 14.707 11.6211 14.6211 11.707C14.5781 11.75 14.4492 11.6641 14.2773 11.5781ZM13.8906 11.8359C14.2773 11.75 14.5781 12.0078 14.5352 12.0937C14.4922 12.1367 14.4492 12.1367 14.3203 12.1367C14.0625 12.0937 13.7617 12.1367 13.5039 12.2227C13.332 12.3086 13.332 12.2656 13.2891 12.2656C13.2461 12.0937 13.4609 11.8789 13.8906 11.8359ZM16.2109 12.5664C16.0391 12.8672 15.4375 12.5664 15.5664 12.2656C15.7383 11.9648 16.3398 12.2656 16.2109 12.5664ZM16.8555 11.6641C17.1992 11.6641 17.1992 12.3516 16.8555 12.3516C16.5117 12.3516 16.5547 11.6641 16.8555 11.6641ZM7.48829 15.0586C7.66016 15.0156 7.61719 15.1016 7.61719 15.1016C7.61719 15.1016 7.66016 15.1445 7.61719 15.1875C7.48829 15.4883 6.75782 15.5312 6.71485 14.8008C6.67188 14.3281 7.10157 13.8984 6.58594 13.5547C6.32813 13.3828 5.98438 13.4687 5.8125 13.7266C5.6836 13.9414 5.6836 14.2422 5.51172 14.2422C5.33985 14.1992 5.33985 13.5977 5.72657 13.168C6.02735 12.8242 6.84375 12.6953 7.23047 13.4258C7.57422 14.0703 6.88672 14.6289 7.10157 14.9727C7.23047 15.1445 7.40235 15.0586 7.48829 15.0586ZM20.3359 14.3281C20.6367 14.3281 21.0664 14.6719 21.0664 15.4023C21.0664 16.1758 20.7656 17.0352 20.6797 17.25C18.3164 22.8359 9.29297 22.8359 6.80078 17.1211C5.46875 17.1211 4.05078 15.9609 3.92188 14.5C3.87891 14.0273 3.92188 13.5547 4.09375 13.082L3.44922 12.5234C0.570316 10.0742 9.63672 -0.0234418 12.5586 2.51171C12.5586 2.55468 13.5469 3.5 13.5469 3.5L14.0625 3.28515C16.5977 2.21093 18.7031 2.72656 18.7031 4.40234C18.7031 5.26171 18.1445 6.29296 17.2422 7.23828C18.3594 8.26953 18.1016 10.2891 18.1445 10.8047C18.4883 10.8906 19.4766 11.1055 19.9063 11.5781C20.7227 12.4375 20.1641 13.2969 20.0781 13.4687C20.25 13.9414 20.207 13.8125 20.3359 14.3281ZM6.75782 16.3906C8.04688 16.4336 8.4336 15.1875 8.21875 13.8984C7.83204 11.1914 4.35157 11.793 4.60938 14.457C4.73828 15.4883 5.76953 16.3906 6.75782 16.3906ZM5.98438 11.4922C6.80078 9.25781 8.17579 7.19531 10.0234 5.82031C11.3984 4.66015 12.8594 3.84375 12.8594 3.84375C12.8594 3.84375 12.043 2.9414 11.8281 2.85546C10.3672 2.46875 7.1875 4.66015 5.16797 7.53906C4.35157 8.69921 3.19141 10.8047 3.75 11.8359C3.79297 11.9648 4.17969 12.3086 4.39453 12.4805C4.73828 12.0078 5.33985 11.6211 5.98438 11.4922ZM16.2539 15.832C16.3398 15.832 16.2539 15.9609 16.2539 15.9609C16.2539 15.9609 15.0938 16.4766 13.2031 15.918C13.2461 16.3477 13.6758 16.5625 13.8906 16.6484C15.2656 17.1641 17.6289 16.7344 19.4336 15.5312C19.4336 15.4883 19.4766 15.5312 19.4336 15.5742C18.1875 17.3359 13.9336 17.8945 12.9453 16.4766C12.4297 15.7031 12.9023 14.5859 13.8047 14.7148C14.0625 14.7578 16.082 15.0586 18.1016 14.1133C19.3047 13.5547 19.7344 12.9531 19.6484 12.4805C19.6484 12.3086 19.5625 12.1797 19.4766 12.0937C19.2617 11.8789 18.918 11.707 18.3594 11.5352C18.1445 11.4922 18.0156 11.4492 17.8867 11.4062C17.6289 11.3633 17.543 11.2773 17.5 10.8047C17.5 10.6328 17.457 9.90234 17.457 9.64453C17.4141 9.1289 17.3711 8.4414 16.9414 8.14062C16.7695 8.05468 16.5547 8.01171 16.3398 8.05468C16.082 8.09765 15.9531 8.22656 15.7813 8.39843C15.2227 8.82812 14.793 8.91406 14.2773 8.87109C13.9766 8.87109 13.6758 8.82812 13.2891 8.78515H13.0742C12.2578 8.74218 11.3555 9.47265 11.1836 10.5039C10.9688 11.9219 12.043 12.6953 12.3438 13.125C12.3867 13.168 12.3867 13.2539 12.3867 13.2969C12.3867 13.3828 12.3438 13.4687 12.3008 13.5117C11.4414 14.4141 11.1836 15.7891 11.4844 16.9492C11.5273 17.1211 11.5703 17.25 11.6563 17.3789C12.3867 19.1406 14.75 20 17.0703 19.2266C17.3711 19.1406 17.6719 19.0117 17.9297 18.8398C18.4453 18.625 18.875 18.2812 19.2617 17.8516C19.8633 17.207 20.25 16.5195 20.3789 15.6602C20.5078 14.8867 20.0352 14.8867 19.9063 14.8867C19.8203 14.543 19.7344 14.1992 19.6055 13.8555C18.918 14.3711 18.0586 14.7578 17.4141 14.9297C14.4063 15.7891 13.5039 14.6719 13.2461 15.5312C14.707 16.0469 16.2539 15.832 16.2539 15.832ZM9.72266 7.53906C9.72266 7.53906 9.72266 7.53906 9.72266 7.58203C9.72266 7.58203 9.72266 7.58203 9.76563 7.58203C10.2383 7.23828 12.5586 5.73437 15.5234 6.42187C15.5664 6.42187 15.6094 6.3789 15.5664 6.3789C15.0938 6.07812 14.3203 5.90625 13.8047 5.90625C13.7617 5.90625 13.7617 5.86328 13.7617 5.86328C13.8906 5.73437 13.9766 5.60546 14.1055 5.51953C14.1484 5.47656 14.1055 5.43359 14.1055 5.47656C13.332 5.51953 12.4727 5.86328 12 6.20703H11.957C11.957 6.20703 11.9141 6.20703 11.9141 6.16406C11.957 5.99218 12.0859 5.73437 12.1719 5.60546C12.1719 5.5625 12.1289 5.5625 12.1289 5.5625C11.3125 5.99218 10.4531 6.72265 9.72266 7.53906Z"/>
</svg>