<svg xmlns="http://www.w3.org/2000/svg" viewBox="0 0 24 24">
  <path d="M12 1.09375C18.0156 1.09375 22.6562 5.51953 22.6562 11.4492C22.6562 18.9688 15.4805 23.1797 8.90625 21.375C8.51953 21.2891 8.47656 21.375 6.24219 22.3633C5.68359 22.5781 5.03906 22.1914 5.03906 21.5898C4.95312 19.6133 5.03906 19.4414 4.69531 19.0977C2.58984 17.25 1.34375 14.543 1.34375 11.4492C1.34375 5.51953 5.98438 1.09375 12 1.09375ZM18.4023 9.08594C18.7031 8.61328 18.1445 8.05469 17.6719 8.39844L14.3203 10.9336C14.0625 11.1055 13.7617 11.1055 13.5469 10.9336L11.0547 9.08594C10.2812 8.52734 9.20703 8.69922 8.73438 9.51562L5.59766 14.457C5.29688 14.9297 5.85547 15.4883 6.32812 15.1445L9.67969 12.6094C9.9375 12.4375 10.2383 12.4375 10.4531 12.6094L12.9453 14.457C13.7188 15.0156 14.793 14.8438 15.2656 14.0273L18.4023 9.08594Z"/>
</svg>