<svg xmlns="http://www.w3.org/2000/svg" viewBox="0 0 24 24">
  <g clip-path="url(#clip0_2597_42)">
    <path d="M20.7656 3.75781C23.6016 7.96874 25.0195 12.6953 24.5039 18.1523C24.5039 18.1523 24.5039 18.1953 24.461 18.1953C22.5703 19.6133 20.4219 20.6875 18.1445 21.375C18.1016 21.418 18.1016 21.375 18.0586 21.375C17.586 20.6875 17.1563 20 16.7695 19.2695C16.7695 19.2266 16.7695 19.1836 16.8125 19.1406C17.5 18.8828 18.1445 18.582 18.7891 18.1953C18.832 18.1953 18.832 18.1094 18.7891 18.0664C18.6602 17.9805 18.5313 17.8945 18.4024 17.7656C18.3594 17.7656 18.3594 17.7656 18.3164 17.7656C14.2344 19.6562 9.76564 19.6562 5.64064 17.7656C5.59767 17.7656 5.5547 17.7656 5.5547 17.7656C5.4258 17.8945 5.29689 17.9805 5.16798 18.0664C5.08205 18.1094 5.12502 18.1953 5.16798 18.1953C5.76955 18.582 6.45705 18.8828 7.14455 19.1406C7.18752 19.1836 7.18752 19.2266 7.18752 19.2695C6.8008 20 6.37111 20.6875 5.89845 21.375C5.85548 21.375 5.81252 21.418 5.81252 21.375C3.53517 20.6875 1.38673 19.6133 -0.503891 18.1953C-0.54686 18.1953 -0.54686 18.1523 -0.54686 18.1523C-0.976547 13.4258 -0.0742037 8.65624 3.19142 3.75781C3.19142 3.75781 3.19142 3.75781 3.23439 3.75781C4.8672 2.98437 6.58595 2.46874 8.34767 2.16796C8.39064 2.12499 8.43361 2.16796 8.43361 2.16796C8.69142 2.59765 8.90627 3.07031 9.07814 3.49999C11.0117 3.19921 12.9453 3.19921 14.8789 3.49999C15.0508 3.07031 15.2656 2.59765 15.5235 2.16796C15.5235 2.16796 15.5664 2.12499 15.6094 2.16796C17.3711 2.46874 19.0899 2.98437 20.7227 3.75781C20.7656 3.75781 20.7656 3.75781 20.7656 3.75781ZM7.78908 15.2734C9.03517 15.2734 10.0664 14.1133 10.0664 12.7383C10.0664 11.3203 9.07814 10.2031 7.78908 10.2031C6.54298 10.2031 5.51173 11.3203 5.51173 12.7383C5.51173 14.1133 6.54298 15.2734 7.78908 15.2734ZM16.168 15.2734C17.457 15.2734 18.4453 14.1133 18.4453 12.7383C18.4883 11.3203 17.457 10.2031 16.168 10.2031C14.9219 10.2031 13.9336 11.3203 13.9336 12.7383C13.9336 14.1133 14.9219 15.2734 16.168 15.2734Z"/>
  </g>
  <defs>
    <clipPath id="clip0_2597_42">
      <rect fill="white"/>
    </clipPath>
  </defs>
</svg>