<svg xmlns="http://www.w3.org/2000/svg" viewBox="0 0 24 24">
  <path d="M13.0156 1.05078C17.0547 1.05078 20.75 3.84375 20.75 8.09766C20.75 12.0938 18.6875 16.5625 14.1328 16.5625C13.0156 16.5625 11.6836 16.0039 11.125 15.0156C10.1797 18.8828 10.2227 19.4844 8.07422 22.4492C7.85938 22.5352 7.90234 22.5352 7.77344 22.3633C7.6875 21.5469 7.60156 20.7734 7.60156 19.957C7.60156 17.3359 8.80469 13.5117 9.40625 10.9766C9.0625 10.2891 8.97656 9.51562 8.97656 8.78516C8.97656 5.34766 13.0156 4.83203 13.0156 7.66797C13.0156 9.34375 11.8555 10.9336 11.8555 12.5664C11.8555 13.6406 12.8008 14.4141 13.875 14.4141C16.8398 14.4141 17.7422 10.1602 17.7422 7.88281C17.7422 4.83203 15.5938 3.15625 12.6289 3.15625C9.23438 3.15625 6.61328 5.60547 6.61328 9.04297C6.61328 10.7188 7.64453 11.5781 7.64453 11.9648C7.64453 12.3086 7.38672 13.4688 6.95703 13.4688C5.92578 13.4688 4.25 11.75 4.25 8.74219C4.25 3.97266 8.58984 1.05078 13.0156 1.05078Z"/>
</svg>