<svg xmlns="http://www.w3.org/2000/svg" viewBox="0 0 24 24">
  <path d="M21.625 9.77344C19.6914 9.81641 17.8867 9.21484 16.3398 8.09766V15.7891C16.3398 21.1602 10.4961 24.5117 5.85547 21.8477C1.21484 19.1406 1.21484 12.4375 5.85547 9.73047C7.1875 8.95703 8.77734 8.65625 10.3242 8.87109V12.7383C7.96094 11.9648 5.68359 14.0703 6.19922 16.4766C6.75781 18.8828 9.67969 19.8281 11.5273 18.1523C12.1719 17.5508 12.5586 16.6914 12.5586 15.7891V0.75H16.3398C16.3398 1.09375 16.3398 1.39453 16.4258 1.73828C16.6836 3.15625 17.5 4.40234 18.7461 5.17578C19.5625 5.73438 20.5938 6.03516 21.625 6.03516V9.77344Z"/>
</svg>