<svg xmlns="http://www.w3.org/2000/svg" viewBox="0 0 24 24">
  <path d="M17.4142 11.9336C17.4142 12.0195 17.2853 14.5547 20.0782 15.8867C19.5626 17.4766 17.7579 21 15.6525 21C14.4493 21 13.7618 20.2266 12.3868 20.2266C10.9689 20.2266 10.1954 21 9.12122 21C7.05872 21.0859 5.08215 17.2188 4.52356 15.6289C4.09387 14.4258 3.922 13.2656 3.922 12.1484C3.922 8.32422 6.45715 6.47656 8.8634 6.43359C10.0236 6.43359 11.4845 7.25 12.129 7.25C12.7306 7.25 14.4064 6.26172 15.9532 6.39062C17.5431 6.51953 18.7462 7.12109 19.5626 8.28125C18.1447 9.18359 17.4142 10.3438 17.4142 11.9336ZM15.0079 4.88672C14.1486 5.875 13.1173 6.43359 12.0001 6.34766C11.9142 5.1875 12.3439 4.11328 13.1173 3.25391C13.8048 2.48047 15.0079 1.83594 16.0392 1.75C16.0392 2.22266 16.1681 3.51172 15.0079 4.88672Z"/>
</svg>