<svg xmlns="http://www.w3.org/2000/svg" viewBox="0 0 24 24">
  <path d="M21.582 7.36719C21.4961 9.25782 20.207 11.793 17.6719 15.0586C15.0508 18.4531 12.8594 20.1719 11.0117 20.1719C9.89453 20.1719 8.94922 19.1406 8.17578 17.0781C6.67188 11.4922 6.02734 8.26954 4.78125 8.26954C4.60938 8.26954 4.13672 8.57032 3.27734 9.17188L2.375 8.01172C4.56641 6.03516 6.67188 3.88672 8.00391 3.75782C9.50781 3.62891 10.4531 4.66016 10.7969 6.85157C12 14.6289 12.5586 15.832 14.793 12.2656C15.6094 11.0195 16.0391 10.0313 16.125 9.38672C16.2969 7.41016 14.5781 7.53907 13.375 8.05469C14.3203 4.96094 16.125 3.45704 18.7891 3.54297C20.7656 3.58594 21.7109 4.87501 21.582 7.36719Z"/>
</svg>