<svg viewBox="0 0 24 24" xmlns="http://www.w3.org/2000/svg">
<path fill-rule="evenodd" clip-rule="evenodd" d="M12.8222 2.43079C12.6354 2.16099 12.3281 2 12 2C11.6719 2 11.3646 2.16099 11.1778 2.43079L6.67781 8.93079C6.4661 9.2366 6.4416 9.63465 6.61422 9.96411C6.78685 10.2936 7.12806 10.5 7.5 10.5H16.5C16.8719 10.5 17.2132 10.2936 17.3858 9.96411C17.5584 9.63465 17.5339 9.2366 17.3222 8.93079L12.8222 2.43079ZM14.5914 8.5H9.40857L12 4.75682L14.5914 8.5ZM7.5 13.5C7.12806 13.5 6.78685 13.7064 6.61422 14.0359C6.4416 14.3654 6.4661 14.7634 6.67781 15.0692L11.1778 21.5692C11.3646 21.839 11.6719 22 12 22C12.3281 22 12.6354 21.839 12.8222 21.5692L17.3222 15.0692C17.5339 14.7634 17.5584 14.3654 17.3858 14.0359C17.2132 13.7064 16.8719 13.5 16.5 13.5H7.5ZM12 19.2432L9.40857 15.5H14.5914L12 19.2432Z"/>
</svg>
