<svg viewBox="0 0 24 24" xmlns="http://www.w3.org/2000/svg">
<path fill-rule="evenodd" clip-rule="evenodd" d="M11.9968 1.5C12.3775 1.49903 12.7258 1.71437 12.8951 2.05544L15.7585 7.82487L22.1443 8.75601C22.5205 8.81086 22.833 9.07424 22.9508 9.43565C23.0686 9.79707 22.9713 10.194 22.6997 10.46L18.0549 15.0089L19.1578 21.3281C19.2236 21.7046 19.0689 22.0856 18.7594 22.3098C18.4499 22.534 18.0397 22.5622 17.7024 22.3825L11.9994 19.3428L6.29766 22.3824C5.96019 22.5623 5.54965 22.534 5.24008 22.3095C4.9305 22.0849 4.77611 21.7035 4.84234 21.3268L5.95324 15.0089L1.30096 10.4606C1.02893 10.1947 0.931367 9.7974 1.04925 9.43569C1.16713 9.07399 1.48003 8.81049 1.85652 8.7559L8.27701 7.82489L11.1013 2.06004C11.2688 1.71811 11.616 1.50098 11.9968 1.5ZM12.0051 4.7611L9.84085 9.17876C9.69555 9.47534 9.41318 9.68106 9.08633 9.72845L4.14581 10.4449L7.72855 13.9475C7.96458 14.1783 8.07153 14.5106 8.01437 14.8357L7.16746 19.6523L11.5289 17.3272C11.8229 17.1704 12.1757 17.1704 12.4697 17.3271L16.8354 19.654L15.9942 14.8345C15.9376 14.5101 16.0443 14.1785 16.2796 13.9481L19.8579 10.4438L14.9514 9.72834C14.6267 9.68099 14.3458 9.47732 14.1999 9.18336L12.0051 4.7611Z"/>
</svg>
