<svg viewBox="0 0 24 24" xmlns="http://www.w3.org/2000/svg">
<path fill-rule="evenodd" clip-rule="evenodd" d="M12.5892 1.1921C12.2381 0.935966 11.7617 0.935966 11.4106 1.1921L9.04812 2.9154L6.12395 2.90983C5.68932 2.909 5.30392 3.18901 5.1704 3.60262L4.27206 6.38543L1.90308 8.09972C1.55097 8.35452 1.40377 8.80758 1.53886 9.22068L2.44778 12L1.53886 14.7793C1.40377 15.1924 1.55097 15.6455 1.90308 15.9003L4.27206 17.6146L5.1704 20.3974C5.30392 20.811 5.68931 21.091 6.12393 21.0901L9.04812 21.0846L11.4106 22.8079C11.7617 23.064 12.2381 23.064 12.5892 22.8079L14.9517 21.0846L17.8758 21.0901C18.3105 21.091 18.6959 20.811 18.8294 20.3974L19.7277 17.6146L22.0967 15.9003C22.4488 15.6455 22.596 15.1924 22.4609 14.7793L21.552 12L22.4609 9.22067C22.596 8.80758 22.4488 8.35452 22.0967 8.09972L19.7277 6.38543L18.8294 3.60262C18.6959 3.18901 18.3105 2.909 17.8758 2.90983L14.9517 2.9154L12.5892 1.1921ZM9.96257 4.72392L11.9999 3.23778L14.0372 4.72392C14.2089 4.84914 14.416 4.91642 14.6284 4.91602L17.1502 4.91122L17.9249 7.31106C17.9902 7.51326 18.1182 7.68942 18.2903 7.81398L20.3332 9.29235L19.5494 11.6892C19.4834 11.8911 19.4834 12.1089 19.5494 12.3108L20.3332 14.7077L18.2903 16.186C18.1182 16.3106 17.9902 16.4867 17.9249 16.6889L17.1502 19.0888L14.6284 19.084C14.416 19.0836 14.2089 19.1509 14.0372 19.2761L11.9999 20.7622L9.96256 19.2761C9.7909 19.1509 9.58382 19.0836 9.37135 19.084L6.84959 19.0888L6.07488 16.6889C6.00961 16.4867 5.88162 16.3106 5.70949 16.186L3.66653 14.7077L4.45036 12.3108C4.5164 12.1089 4.5164 11.8911 4.45036 11.6892L3.66653 9.29235L5.70949 7.81398C5.88162 7.68942 6.00961 7.51326 6.07489 7.31106L6.84959 4.91122L9.37134 4.91602C9.58382 4.91642 9.7909 4.84914 9.96257 4.72392ZM11.7072 15.2071L16.7072 10.2071L15.293 8.79291L11.0001 13.0858L9.20718 11.2929L7.79297 12.7071L10.293 15.2071C10.6835 15.5976 11.3167 15.5976 11.7072 15.2071Z"/>
</svg>
