<svg xmlns="http://www.w3.org/2000/svg" viewBox="0 0 24 24">
  <path fill-rule="evenodd" clip-rule="evenodd" d="M12 3C12.6903 3 13.25 2.44036 13.25 1.75C13.25 1.05964 12.6903 0.5 12 0.5C11.3097 0.5 10.75 1.05964 10.75 1.75C10.75 2.44036 11.3097 3 12 3ZM4.5 12C4.5 7.85787 7.85787 4.5 12 4.5C16.1421 4.5 19.5 7.85787 19.5 12C19.5 16.1421 16.1421 19.5 12 19.5C7.85787 19.5 4.5 16.1421 4.5 12ZM12 6.5C8.96243 6.5 6.5 8.96243 6.5 12C6.5 15.0376 8.96243 17.5 12 17.5C15.0376 17.5 17.5 15.0376 17.5 12C17.5 8.96243 15.0376 6.5 12 6.5ZM20.5 4.75C20.5 5.44035 19.9403 6 19.25 6C18.5597 6 18 5.44035 18 4.75C18 4.05964 18.5597 3.5 19.25 3.5C19.9403 3.5 20.5 4.05964 20.5 4.75ZM22.25 13.25C22.9403 13.25 23.5 12.6903 23.5 12C23.5 11.3097 22.9403 10.75 22.25 10.75C21.5597 10.75 21 11.3097 21 12C21 12.6903 21.5597 13.25 22.25 13.25ZM20.5 19.25C20.5 19.9403 19.9403 20.5 19.25 20.5C18.5597 20.5 18 19.9403 18 19.25C18 18.5597 18.5597 18 19.25 18C19.9403 18 20.5 18.5597 20.5 19.25ZM12 23.5C12.6903 23.5 13.25 22.9403 13.25 22.25C13.25 21.5597 12.6903 21 12 21C11.3097 21 10.75 21.5597 10.75 22.25C10.75 22.9403 11.3097 23.5 12 23.5ZM6 19.25C6 19.9403 5.44035 20.5 4.75 20.5C4.05964 20.5 3.5 19.9403 3.5 19.25C3.5 18.5597 4.05964 18 4.75 18C5.44035 18 6 18.5597 6 19.25ZM1.75 13.25C2.44036 13.25 3 12.6903 3 12C3 11.3097 2.44036 10.75 1.75 10.75C1.05964 10.75 0.5 11.3097 0.5 12C0.5 12.6903 1.05964 13.25 1.75 13.25ZM6 4.75C6 5.44035 5.44035 6 4.75 6C4.05964 6 3.5 5.44035 3.5 4.75C3.5 4.05964 4.05964 3.5 4.75 3.5C5.44035 3.5 6 4.05964 6 4.75Z"/>
</svg>