<svg xmlns="http://www.w3.org/2000/svg" viewBox="0 0 24 24">
  <path fill-rule="evenodd" clip-rule="evenodd" d="M12 0.5C12.5523 0.5 13 0.947715 13 1.5V3.075C13 3.62728 12.5523 4.075 12 4.075C11.4477 4.075 11 3.62728 11 3.075V1.5C11 0.947715 11.4477 0.5 12 0.5ZM5.2823 3.86833C4.89178 3.47781 4.25862 3.47781 3.86809 3.86833C3.47756 4.25885 3.47756 4.89202 3.86809 5.28254L4.98179 6.39625C5.37232 6.78678 6.00548 6.78678 6.39601 6.39626C6.78653 6.00573 6.78653 5.37257 6.39601 4.98204L5.2823 3.86833ZM1.5 11C0.947715 11 0.5 11.4477 0.5 12C0.5 12.5523 0.947715 13 1.5 13H3.075C3.62728 13 4.075 12.5523 4.075 12C4.075 11.4477 3.62728 11 3.075 11H1.5ZM6.39601 17.6039C6.78653 17.9945 6.78653 18.6276 6.39601 19.0181L5.2823 20.1318C4.89177 20.5224 4.25861 20.5224 3.86809 20.1318C3.47756 19.7413 3.47757 19.1081 3.86809 18.7176L4.9818 17.6039C5.37232 17.2134 6.00549 17.2134 6.39601 17.6039ZM19.0181 17.6039C18.6276 17.2134 17.9945 17.2134 17.6039 17.6039C17.2134 17.9945 17.2134 18.6276 17.6039 19.0181L18.7176 20.1318C19.1082 20.5224 19.7413 20.5224 20.1318 20.1318C20.5224 19.7413 20.5224 19.1082 20.1318 18.7176L19.0181 17.6039ZM19.9248 12C19.9248 11.4477 20.3725 11 20.9248 11H22.4998C23.0521 11 23.4998 11.4477 23.4998 12C23.4998 12.5523 23.0521 13 22.4998 13H20.9248C20.3725 13 19.9248 12.5523 19.9248 12ZM20.1318 5.28254C20.5224 4.89202 20.5224 4.25885 20.1318 3.86833C19.7413 3.47781 19.1081 3.47781 18.7176 3.86834L17.6039 4.98205C17.2134 5.37257 17.2134 6.00574 17.6039 6.39626C17.9945 6.78678 18.6276 6.78678 19.0181 6.39625L20.1318 5.28254ZM5 12C5 8.13402 8.13402 5 12 5C15.866 5 19 8.13402 19 12C19 15.866 15.866 19 12 19C8.13402 19 5 15.866 5 12ZM13 20.925C13 20.3728 12.5523 19.925 12 19.925C11.4477 19.925 11 20.3728 11 20.925V22.5C11 23.0523 11.4477 23.5 12 23.5C12.5523 23.5 13 23.0523 13 22.5V20.925Z"/>
</svg>