<svg xmlns="http://www.w3.org/2000/svg" viewBox="0 0 24 24">
  <path d="M16 1C17.3807 1 18.5 2.1193 18.5 3.5V10H20.5C21.6046 10 22.5 10.8954 22.5 12V20.5C22.5 21.8807 21.3807 23 20 23H4C2.6193 23 1.5 21.8807 1.5 20.5V3.5C1.5 2.11929 2.61929 1 4 1H16ZM18.5 21H20C20.2762 21 20.5 20.7762 20.5 20.5V12H18.5V21ZM5.5 8.5C4.94772 8.5 4.5 8.94772 4.5 9.5C4.5 10.0523 4.94772 10.5 5.5 10.5H11.5C12.0523 10.5 12.5 10.0523 12.5 9.5C12.5 8.94772 12.0523 8.5 11.5 8.5H5.5ZM5.5 5C4.94772 5 4.5 5.44772 4.5 6C4.5 6.55228 4.94772 7 5.5 7H9.5C10.0523 7 10.5 6.55228 10.5 6C10.5 5.44772 10.0523 5 9.5 5H5.5Z"/>
</svg>