<svg viewBox="0 0 24 24" xmlns="http://www.w3.org/2000/svg">
<path fill-rule="evenodd" clip-rule="evenodd" d="M3.5 3.5C3.5 3.22386 3.72386 3 4 3H16C16.2762 3 16.5 3.22385 16.5 3.5V12V21H4C3.72385 21 3.5 20.7762 3.5 20.5V3.5ZM17.5 23H4C2.6193 23 1.5 21.8807 1.5 20.5V3.5C1.5 2.11929 2.61929 1 4 1H16C17.3807 1 18.5 2.1193 18.5 3.5V10H20.5C21.6046 10 22.5 10.8954 22.5 12V20.5C22.5 21.8807 21.3807 23 20 23H17.5ZM18.5 12V21H20C20.2762 21 20.5 20.7762 20.5 20.5V12H18.5ZM9.5 7H5.5V5H9.5V7ZM5.5 10.5H11.5V8.5H5.5V10.5Z"/>
</svg>
