<svg viewBox="0 0 24 24" xmlns="http://www.w3.org/2000/svg">
<path fill-rule="evenodd" clip-rule="evenodd" d="M4 3C3.44772 3 3 3.44772 3 4V13C3 13.2654 3.10551 13.5199 3.29329 13.7075L11.3771 21.7823C11.9023 22.308 12.6149 22.6035 13.3581 22.6035C14.101 22.6035 14.8139 22.3078 15.3391 21.7822L21.7917 15.3297L21.7938 15.3276C22.8794 14.2355 22.8794 12.4716 21.7938 11.3795L13.7071 3.29289C13.5196 3.10536 13.2652 3 13 3H4ZM5 12.5855V5H12.5858L20.3754 12.7896L20.3762 12.7905C20.6852 13.1022 20.6852 13.6049 20.3762 13.9166L20.3754 13.9175L13.924 20.3689C13.774 20.519 13.5704 20.6035 13.3581 20.6035C13.1457 20.6035 12.9421 20.5191 12.792 20.3688L5 12.5855ZM10.5 9.25C10.5 9.94035 9.94035 10.5 9.25 10.5C8.55965 10.5 8 9.94035 8 9.25C8 8.55965 8.55965 8 9.25 8C9.94035 8 10.5 8.55965 10.5 9.25Z"/>
</svg>
