<svg xmlns="http://www.w3.org/2000/svg" viewBox="0 0 24 24">
  <path d="M20 20.9998C20.5522 20.9998 20.9999 21.4476 21 21.9998C21 22.552 20.5523 22.9998 20 22.9998H4C3.44772 22.9998 3 22.552 3 21.9998C3.00013 21.4476 3.4478 20.9998 4 20.9998H20ZM18.5 2.04858C19.0523 2.04858 19.5 2.4963 19.5 3.04858V10.9998C19.5 15.1419 16.1421 18.4998 12 18.4998C7.85787 18.4998 4.5 15.1419 4.5 10.9998V3.04858C4.5 2.4963 4.94772 2.04858 5.5 2.04858C6.05228 2.04858 6.5 2.4963 6.5 3.04858V10.9998C6.5 14.0373 8.96243 16.4998 12 16.4998C15.0376 16.4998 17.5 14.0373 17.5 10.9998V3.04858C17.5 2.4963 17.9477 2.04858 18.5 2.04858Z"/>
</svg>