<svg xmlns="http://www.w3.org/2000/svg" viewBox="0 0 24 24">
  <path fill-rule="evenodd" clip-rule="evenodd" d="M5.5 1C4.94772 1 4.5 1.44772 4.5 2V12V22C4.5 22.5523 4.94772 23 5.5 23H14.0156C17.3236 23 20 20.3107 20 17C20 14.4222 18.3775 12.2212 16.0975 11.373C17.2593 10.2781 17.9844 8.72321 17.9844 7C17.9844 3.68924 15.308 1 12 1H5.5ZM12 11C14.1976 11 15.9844 9.21207 15.9844 7C15.9844 4.78791 14.1976 3 12 3H6.5V11H12ZM6.5 13V21H14.0156C16.2132 21 18 19.2121 18 17C18 14.7879 16.2132 13 14.0156 13H12H6.5Z"/>
</svg>