<svg xmlns="http://www.w3.org/2000/svg" viewBox="0 0 24 24">
<path fill-rule="evenodd" clip-rule="evenodd" d="M16 20.9998H6.03669C4.64352 21.0124 3.45238 19.9977 3.24295 18.6197L2.00096 10.5198C1.87769 9.70763 2.11729 8.88225 2.65637 8.26233C3.19402 7.64406 3.97546 7.29232 4.79467 7.29978H9.18966V4.69978C9.18966 2.65629 10.8462 0.999777 12.8897 0.999777C13.2848 0.999777 13.643 1.23251 13.8035 1.59364L16 6.53583V20.9998ZM18 8.99977H18.8848C20.5066 8.97641 21.7809 10.2882 21.9807 11.7657C21.9867 11.8102 21.9897 11.8549 21.9897 11.8998V18.1998C21.9897 18.2446 21.9867 18.2894 21.9807 18.3338C21.7718 19.8783 20.4421 21.0225 18.8848 20.9998H18V8.99977Z"/>
</svg>