<svg xmlns="http://www.w3.org/2000/svg" viewBox="0 0 24 24">
<path fill-rule="evenodd" clip-rule="evenodd" d="M16 3.00012H6.03669C4.64352 2.98744 3.45238 4.0022 3.24295 5.38018L2.00096 13.48C1.87769 14.2922 2.11729 15.1176 2.65637 15.7375C3.19402 16.3558 3.97546 16.7076 4.79467 16.7001H9.18966V19.3001C9.18966 21.3436 10.8462 23.0001 12.8897 23.0001C13.2848 23.0001 13.643 22.7674 13.8035 22.4062L16 17.464V3.00012ZM18 15.0001H18.8848C20.5066 15.0235 21.7809 13.7117 21.9807 12.2342C21.9867 12.1897 21.9897 12.1449 21.9897 12.1001V5.80009C21.9897 5.75526 21.9867 5.71047 21.9807 5.66604C21.7718 4.12162 20.4421 2.97737 18.8848 3.00009H18V15.0001Z"/>
</svg>