<svg xmlns="http://www.w3.org/2000/svg" viewBox="0 0 24 24">
<path fill-rule="evenodd" clip-rule="evenodd" d="M18.9104 4.99993C19.4387 4.99059 19.8929 5.36447 19.9898 5.87832V12.0228C19.8836 12.6022 19.3776 13.0085 18.9104 13.0003L18.8928 13.0001H17.4898V5.00009H18.8928L18.9104 4.99993ZM21.9807 5.66604C21.7718 4.12162 20.4421 2.97737 18.8848 3.00009H16.4898C16.4872 3.00009 16.4846 3.0001 16.482 3.00012H6.03669C4.64352 2.98744 3.45238 4.0022 3.24295 5.38018L2.00096 13.48C1.87769 14.2922 2.11729 15.1176 2.65637 15.7375C3.19402 16.3558 3.97546 16.7076 4.79467 16.7001H9.18966V19.3001C9.18966 21.3436 10.8462 23.0001 12.8897 23.0001C13.2848 23.0001 13.643 22.7674 13.8035 22.4062L17.0951 15.0001H18.8848C20.5066 15.0235 21.7809 13.7117 21.9807 12.2342C21.9867 12.1897 21.9898 12.1449 21.9898 12.1001V5.80009C21.9898 5.75526 21.9867 5.71047 21.9807 5.66604ZM5.22034 5.68005C5.28015 5.28564 5.62143 4.99554 6.02035 5.00005L15.4897 5.00012V13.6879L12.2884 20.8907C11.6462 20.6479 11.1897 20.0273 11.1897 19.3001V15.7001C11.1897 15.1478 10.7419 14.7001 10.1897 14.7001L4.78964 14.7L4.77828 14.7002C4.54363 14.7028 4.3196 14.6023 4.16556 14.4252C4.01171 14.2482 3.94332 14.0121 3.97832 13.7802L5.22034 5.68005Z"/>
</svg>