<svg xmlns="http://www.w3.org/2000/svg" viewBox="0 0 20 20">
  <path d="M15.7373 17.4997C17.035 17.5186 18.1433 16.5649 18.3174 15.278C18.3224 15.241 18.3242 15.2031 18.3242 15.1657V9.91574C18.3242 9.87853 18.3224 9.84129 18.3174 9.80441C18.1508 8.57319 17.0887 7.48034 15.7373 7.49973H14.2461L11.5029 1.32785C11.3692 1.02692 11.0705 0.832741 10.7412 0.832734C9.03847 0.832734 7.65845 2.21304 7.65822 3.91574V6.08273H3.99513C3.31277 6.07659 2.66185 6.36963 2.21388 6.88449C1.76465 7.40109 1.56428 8.08949 1.66701 8.76633L2.70216 15.5163C2.87676 16.6645 3.86942 17.5102 5.03029 17.4997H15.7373ZM5.01662 15.8327C4.68427 15.8364 4.39948 15.5949 4.34962 15.2663L3.31545 8.51633C3.28628 8.32308 3.34251 8.12567 3.47072 7.97824C3.59902 7.83071 3.78602 7.74758 3.98146 7.74973H8.49123C8.95146 7.74972 9.32423 7.37597 9.32423 6.91574V3.91574C9.32442 3.30991 9.70525 2.79287 10.2402 2.59055L12.9082 8.59348V15.8327H5.01662ZM14.5742 9.16574H15.7588C16.1479 9.15903 16.5696 9.49767 16.6582 9.98019V15.1013C16.5775 15.5293 16.1988 15.8404 15.7588 15.8327H14.5742V9.16574Z"/>
</svg>