<svg xmlns="http://www.w3.org/2000/svg" viewBox="0 0 24 24">
<path fill-rule="evenodd" clip-rule="evenodd" d="M12 1C5.92487 1 1 5.92487 1 12C1 18.0751 5.92487 23 12 23C18.0751 23 23 18.0751 23 12C23 5.92487 18.0751 1 12 1ZM3 12C3 7.02943 7.02943 3 12 3C16.9706 3 21 7.02943 21 12C21 16.9706 16.9706 21 12 21C7.02943 21 3 16.9706 3 12ZM13.0042 6.0001C13.0043 5.44781 12.5566 5.00006 12.0043 5C11.452 4.99994 11.0043 5.44762 11.0042 5.9999L11.0036 12.0043C11.0036 12.2696 11.1089 12.5239 11.2965 12.7115L15.5362 16.9512C15.9267 17.3417 16.5599 17.3417 16.9504 16.9512C17.3409 16.5607 17.3409 15.9275 16.9504 15.537L13.0036 11.5902L13.0042 6.0001Z"/>
</svg>