<svg viewBox="0 0 24 24" xmlns="http://www.w3.org/2000/svg">
<path fill-rule="evenodd" clip-rule="evenodd" d="M1.02001 9.80107C2.03929 4.7797 6.47712 1 11.8 1C17.1229 1 21.5607 4.7797 22.58 9.80107L20.62 10.1989C19.7861 6.0913 16.153 3 11.8 3C8.09662 3 4.91424 5.23751 3.53344 8.43477L4.6838 8.05132L5.31625 9.94868L2.31625 10.9487C1.97759 11.0616 1.60443 10.9854 1.33715 10.7487C1.06986 10.5121 0.948995 10.1509 1.02001 9.80107ZM12.0001 7C12.3974 7 12.7571 7.23519 12.9163 7.59918L16.4163 15.5992L14.584 16.4008L13.7524 14.5H10.2479L9.4163 16.4008L7.58398 15.5992L11.084 7.59918C11.2432 7.23519 11.6028 7 12.0001 7ZM11.1229 12.5H12.8774L12.0001 10.4949L11.1229 12.5ZM22.58 14.1989C22.6526 13.8411 22.5245 13.4722 22.2457 13.2364C21.9669 13.0007 21.5818 12.9356 21.241 13.0667L18.641 14.0667L19.359 15.9334L20.0157 15.6808C18.6087 18.8163 15.4586 21 11.8 21C7.44704 21 3.81385 17.9087 2.98005 13.8011L1.02002 14.1989C2.0393 19.2203 6.47713 23 11.8 23C17.1229 23 21.5607 19.2203 22.58 14.1989Z"/>
</svg>
