<svg viewBox="0 0 24 24" xmlns="http://www.w3.org/2000/svg">
<path fill-rule="evenodd" clip-rule="evenodd" d="M7.44586 4.5L7.05127 3.31623L8.94864 2.68378L9.44864 4.18378L8.49997 4.5H14V6.5H12.7734C12.6482 6.93894 12.4617 7.5332 12.2069 8.1977C11.6862 9.55554 10.8439 11.3043 9.58283 12.5912C9.56659 12.6078 9.55029 12.6243 9.53392 12.6408C10.4252 13.2263 11.4442 13.7604 12.3343 14.184C12.9111 14.4586 13.4204 14.6805 13.7846 14.8334C13.9666 14.9098 14.1118 14.9688 14.2107 15.0083C14.2601 15.028 14.2979 15.0429 14.3228 15.0526L14.3503 15.0634L14.3566 15.0658L14.3578 15.0662C14.3577 15.0662 14.3577 15.0662 13.9999 16C13.6422 16.9338 13.6421 16.9338 13.6419 16.9337L13.638 16.9322L13.6285 16.9286L13.5944 16.9153C13.565 16.9038 13.5226 16.8871 13.4683 16.8654C13.3598 16.822 13.2039 16.7587 13.0104 16.6775C12.6239 16.5152 12.0854 16.2806 11.4748 15.9899C10.4189 15.4873 9.10495 14.7976 7.98604 14.0059C7.1763 14.6419 6.34273 15.2016 5.62543 15.6497C5.01323 16.0322 4.47321 16.341 4.0852 16.5548C3.891 16.6618 3.73437 16.7453 3.62521 16.8026C3.57061 16.8312 3.52785 16.8533 3.49815 16.8686L3.46355 16.8863L3.45387 16.8912L3.451 16.8926L3.45005 16.8931C3.44991 16.8932 3.44944 16.8934 3.0002 16C2.55096 15.1066 2.55086 15.1066 2.55078 15.1067L2.55181 15.1061L2.55783 15.1031L2.58491 15.0893C2.60951 15.0766 2.64695 15.0573 2.69602 15.0315C2.7942 14.98 2.93876 14.903 3.11998 14.8032C3.4828 14.6032 3.99048 14.3129 4.56578 13.9535C5.16209 13.581 5.81812 13.1422 6.45561 12.6604C5.73602 11.8548 5.20549 10.971 4.83366 10.2322C4.56214 9.69272 4.36603 9.21198 4.237 8.86383C4.17234 8.68936 4.12414 8.54712 4.09143 8.44615C4.07506 8.39564 4.06254 8.35537 4.05375 8.32646L4.04335 8.29174L4.04021 8.28101L4.03915 8.27734L4.03858 8.27535C4.0385 8.27509 4.03843 8.27483 4.99992 8.00002C5.96142 7.7252 5.96135 7.72497 5.96129 7.72475L5.96177 7.72636L5.96728 7.74473C5.97269 7.76253 5.98158 7.79121 5.99405 7.8297C6.01901 7.90672 6.05818 8.02263 6.11236 8.16882C6.221 8.46197 6.38837 8.87254 6.62015 9.33306C6.95488 9.99813 7.40577 10.7308 7.9804 11.365C8.03939 11.3074 8.09741 11.2495 8.15437 11.1914C9.13015 10.1956 9.85361 8.74878 10.3395 7.48162C10.4754 7.12716 10.5899 6.7944 10.6841 6.5H3V4.5H7.44586ZM16.9998 11C17.3965 11 17.7556 11.2345 17.9153 11.5976L20.7695 18.0909L21.9093 20.5842L20.0903 21.4158L19.2146 19.5H14.7851L13.9093 21.4158L12.0903 20.5842L13.2301 18.0909L16.0843 11.5976C16.244 11.2345 16.6031 11 16.9998 11ZM18.3251 17.5L16.9998 14.4851L15.6746 17.5H18.3251Z"/>
</svg>
