<svg viewBox="0 0 24 24" xmlns="http://www.w3.org/2000/svg">
<path fill-rule="evenodd" clip-rule="evenodd" d="M12 1C12.3544 1 12.6823 1.18754 12.8619 1.49298L17.8619 9.99298C18.0438 10.3022 18.0461 10.6851 17.868 10.9965C17.69 11.3079 17.3587 11.5 17 11.5H7C6.64128 11.5 6.31005 11.3079 6.13195 10.9965C5.95386 10.6851 5.95619 10.3022 6.13807 9.99298L11.1381 1.49298C11.3177 1.18754 11.6456 1 12 1ZM15.2516 9.5L12 3.97231L8.74842 9.5H15.2516ZM2 14.5C2 13.9477 2.44772 13.5 3 13.5H10C10.5523 13.5 11 13.9477 11 14.5V21.5C11 22.0523 10.5523 22.5 10 22.5H3C2.44772 22.5 2 22.0523 2 21.5V14.5ZM4 15.5V20.5H9V15.5H4ZM18 13C15.2386 13 13 15.2386 13 18C13 20.7614 15.2386 23 18 23C20.7614 23 23 20.7614 23 18C23 15.2386 20.7614 13 18 13ZM15 18C15 16.3431 16.3431 15 18 15C19.6569 15 21 16.3431 21 18C21 19.6569 19.6569 21 18 21C16.3431 21 15 19.6569 15 18Z"/>
</svg>
