<svg viewBox="0 0 24 24" xmlns="http://www.w3.org/2000/svg">
<path fill-rule="evenodd" clip-rule="evenodd" d="M0 5.5C0 4.94772 0.447715 4.5 1 4.5H15.5C16.0523 4.5 16.5 4.94772 16.5 5.5V8H19.7857C20.099 8 20.3943 8.14687 20.5833 8.39679L23.7976 12.6468C23.9289 12.8205 24 13.0323 24 13.25V17.5C24 18.0523 23.5523 18.5 23 18.5H20.3293C19.9174 19.6652 18.8062 20.5 17.5 20.5C16.1938 20.5 15.0826 19.6652 14.6707 18.5H8.82929C8.41745 19.6652 7.3062 20.5 6 20.5C4.69378 20.5 3.58255 19.6652 3.17071 18.5H1C0.447715 18.5 0 18.0523 0 17.5V5.5ZM20.3293 16.5H22V13.5856L19.2882 10H16.5V14.6707C16.8128 14.5602 17.1494 14.5 17.5 14.5C18.8062 14.5 19.9174 15.3348 20.3293 16.5ZM14.5 16.5V9V6.5H2V16.5H3.17071C3.58255 15.3348 4.69378 14.5 6 14.5C7.3062 14.5 8.41745 15.3348 8.82929 16.5H14.5ZM17.5 18.5C16.9477 18.5 16.5 18.0523 16.5 17.5C16.5 16.9477 16.9477 16.5 17.5 16.5C18.0523 16.5 18.5 16.9477 18.5 17.5C18.5 18.0523 18.0523 18.5 17.5 18.5ZM5 17.5C5 16.9477 5.44772 16.5 6 16.5C6.55227 16.5 7 16.9477 7 17.5C7 18.0523 6.55227 18.5 6 18.5C5.44772 18.5 5 18.0523 5 17.5Z"/>
</svg>
