<svg viewBox="0 0 24 24" xmlns="http://www.w3.org/2000/svg">
<path fill-rule="evenodd" clip-rule="evenodd" d="M12.0001 2C9.23898 2 6.7376 3.12038 4.92909 4.92894C4.67686 5.18117 4.34354 5.53433 4 5.90564V4.5H2V8.5C2 9.05228 2.44772 9.5 3 9.5H7V7.5H5.25044C5.66019 7.05385 6.06401 6.62245 6.34331 6.34315C7.79208 4.89434 9.79071 4 12.0001 4C16.4184 4 20.0001 7.58173 20.0001 12C20.0001 16.4183 16.4184 20 12.0001 20C9.7907 20 7.79208 19.1057 6.34331 17.6569L4.92908 19.071C6.7376 20.8796 9.23898 22 12.0001 22C17.523 22 22.0001 17.5228 22.0001 12C22.0001 6.47717 17.523 2 12.0001 2Z"/>
</svg>
