<svg viewBox="0 0 24 24" xmlns="http://www.w3.org/2000/svg">
<path fill-rule="evenodd" clip-rule="evenodd" d="M1 12C1 5.92487 5.92487 1 12 1C18.0751 1 23 5.92487 23 12C23 18.0751 18.0751 23 12 23C5.92487 23 1 18.0751 1 12ZM12 3C7.02943 3 3 7.02943 3 12C3 16.9706 7.02943 21 12 21C16.9706 21 21 16.9706 21 12C21 7.02943 16.9706 3 12 3ZM12.7072 8.29289C12.3167 7.90237 11.6835 7.90237 11.293 8.29289L6.79297 12.7929L8.20718 14.2071L12.0001 10.4142L15.793 14.2071L17.2072 12.7929L12.7072 8.29289Z"/>
</svg>
