<svg viewBox="0 0 24 24" xmlns="http://www.w3.org/2000/svg">
<path fill-rule="evenodd" clip-rule="evenodd" d="M5.80663 10L6.07022 11.1084C4.30906 11.5272 3 13.1119 3 15C3 17.2091 4.79086 19 7 19C7.38062 19 7.74717 18.9471 8.09352 18.849L8.63898 20.7731C8.11683 20.9212 7.56678 21 7 21C3.68629 21 1 18.3137 1 15C1 12.3749 2.68504 10.1454 5.03159 9.33062C5.36856 5.77864 8.3598 3 12 3C15.6573 3 18.6595 5.80477 18.973 9.38065C21.2471 10.2338 22.866 12.4268 22.866 15C22.866 18.3137 20.1798 21 16.866 21C16.2992 21 15.7492 20.9212 15.2271 20.7731L15.7725 18.849C16.1189 18.9471 16.4854 19 16.866 19C19.0752 19 20.866 17.2091 20.866 15C20.866 13.1119 19.557 11.5272 17.7958 11.1084L18.0594 10H17C17 7.23858 14.7614 5 12 5C9.23858 5 7 7.23858 7 10H5.80663ZM11.2915 9.75596C11.6807 9.36542 12.3127 9.36366 12.7041 9.75204L16.27 13.2902L14.8614 14.71L13 12.8631V19.0001H11V12.8815L9.24076 14.6465L7.82422 13.2347L11.2915 9.75596ZM11.6484 12.231H12.3629L12.0037 11.8745L11.6484 12.231Z"/>
</svg>
