<svg viewBox="0 0 24 24" xmlns="http://www.w3.org/2000/svg">
<path fill-rule="evenodd" clip-rule="evenodd" d="M12 3C10.3431 3 9 4.34315 9 6C9 7.65685 10.3431 9 12 9C13.6569 9 15 7.65685 15 6C15 4.34315 13.6569 3 12 3ZM7 6C7 3.23858 9.23858 1 12 1C14.7614 1 17 3.23858 17 6C17 8.76142 14.7614 11 12 11C9.23858 11 7 8.76142 7 6ZM2 22C2 16.4772 6.47717 12 12 12C17.5228 12 22 16.4772 22 22H20C20 18.0562 17.1462 14.7789 13.3911 14.1205L14.9558 19.2059C15.0531 19.5222 14.9876 19.8663 14.7809 20.1247L12.7809 22.6247C12.5911 22.8619 12.3038 23 12 23C11.6962 23 11.4089 22.8619 11.2191 22.6247L9.21914 20.1247C9.01239 19.8663 8.9469 19.5222 9.04423 19.2059L10.609 14.1205C6.85379 14.7789 4 18.0562 4 22H2ZM12 20.3992L11.1114 19.2884L12 16.4004L12.8886 19.2884L12 20.3992Z"/>
</svg>
