<svg xmlns="http://www.w3.org/2000/svg" viewBox="0 0 24 24">
  <path fill-rule="evenodd" clip-rule="evenodd" d="M19.5 2H16.5166C16.5061 1.99984 16.4957 1.99984 16.4853 2H10.5166C10.5061 1.99984 10.4957 1.99984 10.4853 2H4.5C3.11929 2 2 3.11929 2 4.5V7.5V19.5C2 20.8807 3.1193 22 4.5 22H19.5C20.8807 22 22 20.8807 22 19.5V7.5V4.5C22 3.1193 20.8807 2 19.5 2ZM8.63147 4H4.5C4.22386 4 4 4.22386 4 4.5V6.5H6.96481L8.63147 4ZM7.48561 8.5C7.49459 8.50012 7.50358 8.50012 7.51255 8.5H13.4856C13.4946 8.50012 13.5036 8.50012 13.5126 8.5H20V19.5C20 19.7762 19.7762 20 19.5 20H4.5C4.22385 20 4 19.7762 4 19.5V8.5H7.48561ZM9.36851 6.5L11.0352 4H14.6315L12.9648 6.5H9.36851ZM17.0352 4L15.3685 6.5H20V4.5C20 4.22385 19.7762 4 19.5 4H17.0352ZM9.75 10.1028C10.0594 9.92421 10.4406 9.92421 10.75 10.1028L16 13.1339C16.3094 13.3126 16.5 13.6427 16.5 14C16.5 14.3572 16.3094 14.6874 16 14.866L10.75 17.8971C10.4406 18.0757 10.0594 18.0757 9.75 17.8971C9.4406 17.7185 9.25 17.3883 9.25 17.0311V10.9689C9.25 10.6116 9.4406 10.2815 9.75 10.1028ZM11.25 15.299L13.5 14L11.25 12.7009V15.299Z"/>
</svg>