<svg viewBox="0 0 24 24" xmlns="http://www.w3.org/2000/svg">
<path fill-rule="evenodd" clip-rule="evenodd" d="M4.5 4C4.22386 4 4 4.22386 4 4.5V19.5C4 19.7761 4.22386 20 4.5 20H19.5C19.7761 20 20 19.7761 20 19.5V4.5C20 4.22386 19.7761 4 19.5 4H4.5ZM2 4.5C2 3.11929 3.11929 2 4.5 2H19.5C20.8807 2 22 3.11929 22 4.5V19.5C22 20.8807 20.8807 22 19.5 22H4.5C3.11929 22 2 20.8807 2 19.5V4.5ZM5.5 6.5C5.5 5.94772 5.94772 5.5 6.5 5.5H10.5C11.0523 5.5 11.5 5.94772 11.5 6.5V10.5C11.5 11.0523 11.0523 11.5 10.5 11.5H6.5C5.94772 11.5 5.5 11.0523 5.5 10.5V6.5ZM7.5 7.5V9.5H9.5V7.5H7.5ZM6.5 12.5C5.94772 12.5 5.5 12.9477 5.5 13.5V17.5C5.5 18.0523 5.94772 18.5 6.5 18.5H10.5C11.0523 18.5 11.5 18.0523 11.5 17.5V13.5C11.5 12.9477 11.0523 12.5 10.5 12.5H6.5ZM7.5 16.5V14.5H9.5V16.5H7.5ZM17.5 15H13.5V13H17.5V15ZM13.5 18.5H17.5V16.5H13.5V18.5ZM17.5 7.5H13.5V5.5H17.5V7.5ZM13.5 11H17.5V9H13.5V11Z"/>
</svg>
