<svg xmlns="http://www.w3.org/2000/svg" viewBox="0 0 24 24">
  <path d="M8.57129 1.71487C8.84392 1.71493 9.10601 1.82291 9.29883 2.01565C9.4916 2.20853 9.60059 2.47048 9.60059 2.74319V6.27444L15.9531 10.0869C16.1423 10.2002 16.2905 10.3716 16.375 10.5752C16.4595 10.7789 16.4762 11.0048 16.4229 11.2188L15.6865 14.167C15.4507 15.115 14.9036 15.9572 14.1338 16.5586C13.3641 17.1599 12.4152 17.4868 11.4385 17.4864H8.99707L4.49902 21.9844C4.30327 22.1713 4.04212 22.2754 3.77148 22.2754C3.501 22.2753 3.24063 22.1711 3.04492 21.9844C2.92147 21.8608 2.83201 21.7088 2.78418 21.544C2.32187 20.8897 2.118 19.7365 2 19.5V5.50002L2.06055 5.47952C2.06095 5.4147 2.06538 5.34936 2.07812 5.28518C2.11778 5.08589 2.21578 4.90258 2.35938 4.75881L3.16113 3.95706C3.86974 3.24424 4.71312 2.67885 5.6416 2.29397C6.5701 1.90918 7.56622 1.71235 8.57129 1.71487ZM19.208 15.4541C19.4742 15.4495 19.7319 15.549 19.9268 15.7305L20.9561 16.7588C21.1485 16.9516 21.2568 17.2139 21.2568 17.4864C21.2567 17.7586 21.1484 18.0202 20.9561 18.2129C20.7633 18.4055 20.501 18.5136 20.2285 18.5137C19.9562 18.5136 19.6947 18.4053 19.502 18.2129L18.4736 17.1846C18.292 16.9897 18.1926 16.7313 18.1973 16.4649C18.202 16.1984 18.3106 15.9443 18.499 15.7559C18.6875 15.5675 18.9416 15.4588 19.208 15.4541ZM22.2861 10.6289C22.5588 10.629 22.8209 10.7369 23.0137 10.9297C23.2064 11.1226 23.3144 11.3846 23.3145 11.6573C23.3144 11.9299 23.2064 12.1919 23.0137 12.3848C22.8209 12.5776 22.5588 12.6855 22.2861 12.6856H20.5713C20.2989 12.6855 20.0375 12.5773 19.8447 12.3848C19.6519 12.1919 19.543 11.93 19.543 11.6573C19.543 11.3845 19.6518 11.1226 19.8447 10.9297C20.0375 10.7371 20.2988 10.629 20.5713 10.6289H22.2861ZM8.5 8.00002C7.67173 8.00016 7.00007 8.67173 7 9.50002C7.00009 10.3283 7.67174 10.9999 8.5 11C9.32826 10.9999 9.99991 10.3283 10 9.50002C9.99993 8.67173 9.32827 8.00016 8.5 8.00002ZM20.2217 4.8262C20.4879 4.83104 20.7423 4.93866 20.9307 5.12698C21.1189 5.31534 21.2267 5.56969 21.2314 5.83596C21.2361 6.10231 21.1376 6.36076 20.9561 6.55569L19.9268 7.58401C19.731 7.77082 19.4708 7.87496 19.2002 7.87502C18.9296 7.87499 18.6694 7.77081 18.4736 7.58401C18.2811 7.39121 18.1729 7.12993 18.1729 6.85745C18.1729 6.58493 18.2811 6.32373 18.4736 6.13088L19.502 5.10159C19.6969 4.92 19.9553 4.8215 20.2217 4.8262Z"/>
</svg>