<svg xmlns="http://www.w3.org/2000/svg" viewBox="0 0 24 24">
  <path d="M8.57115 1.71475C8.84388 1.71475 9.1058 1.82272 9.29869 2.01553C9.49158 2.20842 9.60044 2.47027 9.60044 2.74307V6.27432L15.953 10.0868C16.1422 10.2001 16.2903 10.3714 16.3749 10.5751C16.4594 10.7788 16.4761 11.0046 16.4227 11.2187L15.6864 14.1669C15.4506 15.115 14.9035 15.957 14.1336 16.5585C13.3639 17.1598 12.4151 17.4857 11.4383 17.4853H8.99693L4.49888 21.9843C4.30307 22.1712 4.04207 22.2753 3.77134 22.2753C3.50078 22.2752 3.24051 22.1711 3.04478 21.9843C2.85216 21.7914 2.744 21.5293 2.744 21.2567C2.74411 20.9843 2.85226 20.7229 3.04478 20.5302L7.84458 15.7304C8.03719 15.5375 8.29861 15.429 8.57115 15.4286H11.4413C11.9589 15.4287 12.4619 15.2559 12.87 14.9374C13.2781 14.6187 13.5687 14.1723 13.6942 13.6698L14.246 11.4618L8.0438 7.73818C7.8914 7.64702 7.76531 7.5176 7.67759 7.36318C7.58998 7.20887 7.54312 7.03477 7.54283 6.85732V3.84658L7.11119 3.96377C6.16702 4.21942 5.30619 4.71784 4.61509 5.41006L3.81236 6.21279C3.61968 6.40556 3.35836 6.51431 3.0858 6.51455C2.88253 6.51435 2.68346 6.45374 2.51451 6.34072C2.34565 6.2277 2.21431 6.06655 2.13658 5.87881C2.05891 5.69106 2.03839 5.48435 2.07798 5.28506C2.11763 5.08575 2.21563 4.90247 2.35923 4.75869L3.16099 3.95693C3.8696 3.2441 4.71296 2.67873 5.64146 2.29385C6.57 1.90901 7.56602 1.71222 8.57115 1.71475ZM19.2079 15.454C19.4742 15.4494 19.7317 15.5488 19.9266 15.7304L20.9559 16.7587C21.1484 16.9514 21.2566 17.2129 21.2567 17.4853C21.2567 17.7578 21.1485 18.0199 20.9559 18.2128C20.7631 18.4054 20.5009 18.5136 20.2284 18.5136C19.956 18.5135 19.6946 18.4053 19.5018 18.2128L18.4735 17.1845C18.2918 16.9895 18.1924 16.7312 18.1971 16.4647C18.2018 16.1983 18.3104 15.9442 18.4989 15.7558C18.6873 15.5673 18.9414 15.4587 19.2079 15.454ZM22.286 10.6288C22.5587 10.6288 22.8207 10.7367 23.0135 10.9296C23.2064 11.1225 23.3143 11.3844 23.3143 11.6571C23.3143 11.9299 23.2064 12.1918 23.0135 12.3847C22.8207 12.5775 22.5587 12.6854 22.286 12.6854H20.5711C20.2986 12.6853 20.0373 12.5773 19.8446 12.3847C19.6517 12.1918 19.5428 11.9299 19.5428 11.6571C19.5428 11.3843 19.6517 11.1225 19.8446 10.9296C20.0373 10.737 20.2986 10.6289 20.5711 10.6288H22.286ZM7.49986 8.9999C8.32824 8.9999 8.99979 9.67153 8.99986 10.4999C8.99986 11.3283 8.32829 11.9999 7.49986 11.9999C6.67154 11.9998 5.99986 11.3282 5.99986 10.4999C5.99992 9.67161 6.67158 9.00003 7.49986 8.9999ZM20.2215 4.82607C20.4879 4.83085 20.7421 4.93847 20.9305 5.12685C21.1189 5.31524 21.2265 5.56947 21.2313 5.83584C21.236 6.10227 21.1375 6.36059 20.9559 6.55557L19.9266 7.58389C19.7308 7.77074 19.4707 7.8749 19.2001 7.8749C18.9294 7.87487 18.6693 7.77079 18.4735 7.58389C18.2809 7.39107 18.1728 7.12984 18.1727 6.85732C18.1727 6.58482 18.281 6.32361 18.4735 6.13076L19.5018 5.10146C19.6968 4.91983 19.9551 4.82137 20.2215 4.82607Z"/>
</svg>