<svg xmlns="http://www.w3.org/2000/svg" viewBox="0 0 24 24">
  <path fill-rule="evenodd" clip-rule="evenodd" d="M12 12V9.5L19.5 2L22 4.5L14.5 12H12Z"/>
  <path d="M18.8691 1.22462C19.2619 0.904269 19.8409 0.926863 20.207 1.29298L22.707 3.79298C23.0976 4.1835 23.0976 4.81652 22.707 5.20704L15.207 12.707C15.0195 12.8946 14.7652 13 14.5 13H12C11.4477 13 11 12.5523 11 12V9.50001C11 9.23479 11.1054 8.98052 11.293 8.79298L18.793 1.29298L18.8691 1.22462ZM13 9.91407V11H14.0859L20.5859 4.50001L19.5 3.41407L13 9.91407Z"/>
  <path d="M21 19.5C21 18.6716 20.3284 18 19.5 18H4.5C2.567 18 1 16.433 1 14.5C1 12.567 2.567 11 4.5 11H8C8.55228 11 9 11.4477 9 12C9 12.5523 8.55228 13 8 13H4.5C3.67158 13 3 13.6716 3 14.5C3 15.3284 3.67158 16 4.5 16H19.5C21.433 16 23 17.567 23 19.5C23 21.433 21.433 23 19.5 23H9C8.44772 23 8 22.5523 8 22C8 21.4477 8.44772 21 9 21H19.5C20.3284 21 21 20.3284 21 19.5Z"/>
</svg>