<svg viewBox="0 0 24 24" xmlns="http://www.w3.org/2000/svg">
<path fill-rule="evenodd" clip-rule="evenodd" d="M18.926 1.24382C18.5355 0.853296 17.9024 0.853298 17.5118 1.24382L1.95549 16.8002C1.76795 16.9877 1.66259 17.2421 1.6626 17.5073L1.66273 21.7498C1.66274 22.3021 2.11044 22.7498 2.6627 22.7498L6.90522 22.7499C7.17044 22.7499 7.42481 22.6445 7.61235 22.457L23.1687 6.90065C23.3562 6.71312 23.4616 6.45876 23.4616 6.19355C23.4616 5.92833 23.3562 5.67397 23.1687 5.48644L18.926 1.24382ZM15.3904 6.19367L18.2189 3.36514L21.0474 6.19355L18.2188 9.02209L15.3904 6.19367ZM13.9762 7.60789L3.66261 17.9215L3.6627 20.7498L6.49104 20.7499L16.8046 10.4363L13.9762 7.60789Z"/>
</svg>
