<svg xmlns="http://www.w3.org/2000/svg" viewBox="0 0 24 24">
  <path fill-rule="evenodd" clip-rule="evenodd" d="M5.58163 6.20596C8.3475 6.0681 10.4839 6 11.999 6C13.5143 6 15.6515 6.06815 18.4187 6.20601C19.4195 6.25588 20.2288 7.03849 20.3123 8.03691C20.4374 9.53432 20.499 10.8416 20.499 11.9619C20.499 13.096 20.4359 14.4216 20.3076 15.942C20.2244 16.9281 19.4327 17.705 18.4452 17.7696C16.092 17.9235 13.9437 18 11.999 18C10.0546 18 7.90709 17.9235 5.55517 17.7697C4.56808 17.7051 3.77647 16.9286 3.69286 15.943C3.56288 14.4106 3.49902 13.0848 3.49902 11.9619C3.49902 10.8525 3.56135 9.54509 3.68821 8.03596C3.7721 7.03794 4.58131 6.25583 5.58163 6.20596ZM11.999 4C10.4344 4 8.2594 4.07 5.48207 4.20844L5.48206 4.20844C3.48143 4.30817 1.86303 5.87236 1.69524 7.86843C1.56516 9.41591 1.49902 10.7816 1.49902 11.9619C1.49902 13.1566 1.56677 14.5412 1.70002 16.112L2.69513 16.0276L1.70002 16.112C1.86723 18.0833 3.45043 19.6363 5.42463 19.7654L5.42464 19.7654C7.81152 19.9215 10.0034 20 11.999 20C13.9949 20 16.1876 19.9215 18.5757 19.7653C20.5506 19.6362 22.1342 18.0822 22.3006 16.1102C22.4322 14.5504 22.499 13.1666 22.499 11.9619C22.499 10.7718 22.4338 9.40688 22.3053 7.87029C22.1384 5.87341 20.5196 4.30822 18.5183 4.20849L18.4685 5.20712L18.5183 4.20849C15.7396 4.07005 13.5638 4 11.999 4ZM15.0245 10.8372L11.7258 8.61923C11.0709 8.17882 10.183 8.35345 9.74284 9.00782C9.58468 9.24323 9.5 9.52059 9.5 9.80465V14.203C9.5 14.9921 10.1397 15.6316 10.9285 15.6316C11.2085 15.6316 11.4827 15.5492 11.7163 15.3948L15.0151 13.2145C15.6734 12.7794 15.8541 11.8931 15.4191 11.235C15.315 11.0775 15.1806 10.9423 15.0245 10.8372ZM13.1972 12.0187L11.5 10.8775V13.1404L13.1972 12.0187Z"/>
</svg>