<svg viewBox="0 0 24 24" xmlns="http://www.w3.org/2000/svg">
<path fill-rule="evenodd" clip-rule="evenodd" d="M10.5 1C5.25332 1 1 5.25332 1 10.5C1 15.7467 5.25332 20 10.5 20C12.7632 20 14.8415 19.2086 16.4733 17.8875L20.1465 21.5606L21.5607 20.1464L17.8875 16.4733C19.2086 14.8414 20 12.7631 20 10.5C20 5.25332 15.7467 1 10.5 1ZM3 10.5C3 6.35788 6.35788 3 10.5 3C14.6421 3 18 6.35788 18 10.5C18 14.6421 14.6421 18 10.5 18C6.35788 18 3 14.6421 3 10.5ZM9.5 7.5V9.50521L7.50635 9.5078L7.50895 11.5078L9.5 11.5052V13.5H11.5V11.5026L13.5012 11.5L13.4985 9.5L11.5 9.5026V7.5H9.5Z"/>
</svg>
