<?xml version="1.0" standalone="no"?>
<!DOCTYPE svg PUBLIC "-//W3C//DTD SVG 20010904//EN"
 "http://www.w3.org/TR/2001/REC-SVG-20010904/DTD/svg10.dtd">
<svg version="1.0" xmlns="http://www.w3.org/2000/svg"
 width="700.000000pt" height="700.000000pt" viewBox="0 0 700.000000 700.000000"
 preserveAspectRatio="xMidYMid meet">
<metadata>
Created by potrace 1.11, written by Peter Selinger 2001-2013
</metadata>
<g transform="translate(0.000000,700.000000) scale(0.100000,-0.100000)"
fill="#000000" stroke="none">
<path d="M3485 6934 c-27 -14 -72 -38 -100 -54 -27 -15 -93 -50 -145 -78 -52
-27 -117 -62 -145 -77 -27 -15 -90 -48 -140 -75 -49 -26 -128 -68 -174 -94
-46 -25 -85 -46 -87 -46 -2 0 -48 -24 -101 -53 -54 -30 -136 -74 -183 -99 -47
-25 -171 -91 -275 -147 l-191 -102 1 -226 c0 -137 -4 -231 -10 -238 -5 -7 -50
-34 -100 -60 -49 -27 -134 -72 -188 -101 -53 -30 -99 -54 -101 -54 -2 0 -39
-20 -82 -43 -44 -24 -124 -68 -179 -97 -55 -29 -138 -73 -185 -98 -47 -24 -98
-53 -115 -62 -16 -10 -84 -46 -150 -81 -66 -35 -156 -83 -200 -106 -44 -24
-94 -51 -112 -60 l-31 -16 -1 -711 c0 -391 0 -729 -1 -751 0 -31 -5 -42 -23
-50 -25 -12 -272 -141 -387 -204 l-75 -40 -3 -854 -2 -853 32 -17 c18 -9 71
-37 118 -62 47 -25 132 -71 190 -102 105 -56 138 -73 280 -150 41 -23 107 -58
145 -78 39 -21 98 -53 132 -71 145 -78 194 -104 298 -160 61 -32 175 -93 254
-136 l144 -78 91 49 c50 26 157 83 238 125 l147 77 63 -34 c211 -114 458 -246
503 -268 22 -11 67 -35 100 -53 33 -17 143 -76 245 -130 102 -54 212 -113 245
-131 33 -18 108 -58 168 -89 l107 -57 108 57 c175 94 234 125 287 154 28 15
100 53 160 85 61 32 115 61 120 65 6 4 62 34 125 68 63 33 229 122 369 196
140 75 259 136 265 136 8 0 133 -64 393 -202 80 -42 83 -43 110 -27 15 9 71
39 123 67 52 27 117 62 144 76 27 14 55 31 62 37 8 6 14 9 14 5 0 -3 21 7 48
22 26 16 97 55 157 87 61 31 151 79 200 106 50 26 135 72 190 101 56 29 219
116 363 193 l262 139 -2 854 -3 854 -100 55 c-133 72 -279 151 -337 181 l-48
25 -2 751 -3 751 -165 88 c-91 48 -223 119 -295 156 -231 122 -459 242 -510
271 -27 15 -93 50 -145 77 -52 28 -132 70 -177 94 l-83 44 0 250 0 251 -52 27
c-29 15 -87 45 -128 68 -41 22 -142 77 -225 121 -82 45 -177 96 -210 113 -228
123 -442 238 -510 275 -44 23 -93 50 -110 60 -16 9 -82 44 -145 78 -63 33
-135 72 -160 86 -25 14 -47 26 -50 26 -3 0 -27 -12 -55 -26z m108 -613 c108
-59 568 -306 857 -459 47 -25 91 -49 98 -55 9 -7 12 -130 12 -552 l0 -544 -52
-29 c-29 -16 -87 -47 -128 -70 -344 -183 -671 -358 -751 -400 -84 -45 -98 -50
-115 -38 -10 7 -59 35 -109 61 -49 26 -117 62 -150 80 -33 18 -100 54 -150 80
-85 45 -133 70 -265 142 -30 17 -113 61 -185 98 -71 38 -132 72 -135 76 -3 4
-5 251 -5 549 l1 542 204 110 c113 60 261 139 330 175 69 36 130 69 135 73 6
4 63 35 129 69 65 35 141 76 170 92 28 15 52 29 54 29 2 0 26 -13 55 -29z
m-1648 -1597 c0 -168 2 -309 5 -313 7 -9 70 -45 205 -116 61 -32 145 -78 189
-102 43 -23 80 -43 82 -43 2 0 48 -24 101 -54 54 -29 136 -73 183 -98 117 -62
218 -117 549 -294 173 -93 289 -150 295 -145 9 7 763 413 1076 578 52 28 160
86 240 129 80 44 171 93 202 109 57 30 58 31 59 75 0 25 0 153 1 285 0 132 2
243 4 247 2 3 55 -21 117 -54 61 -33 150 -80 197 -105 47 -25 108 -58 135 -73
28 -15 104 -55 170 -90 66 -34 135 -71 153 -82 l32 -20 0 -440 0 -439 -52 29
c-29 16 -78 43 -108 59 -141 76 -231 125 -298 161 l-74 39 -296 -159 c-164
-88 -326 -176 -362 -195 -36 -20 -96 -52 -135 -73 -38 -20 -234 -125 -435
-233 l-365 -197 0 -852 0 -853 80 -43 c172 -93 294 -158 379 -203 48 -25 84
-49 80 -51 -10 -6 -87 -48 -184 -100 -36 -19 -114 -61 -175 -93 -60 -32 -132
-70 -160 -85 -27 -15 -99 -53 -160 -85 -60 -32 -124 -66 -142 -77 l-32 -19
-53 29 c-29 16 -98 53 -153 82 -55 29 -113 61 -130 70 -16 10 -75 41 -130 70
-376 198 -398 211 -373 224 52 27 261 139 388 208 l135 73 1 852 0 853 -170
92 c-94 50 -185 99 -203 109 -17 10 -85 46 -150 80 -65 34 -122 65 -128 69 -5
4 -48 28 -95 52 -100 53 -485 260 -550 296 -25 13 -92 49 -150 80 -58 30 -114
61 -124 68 -16 11 -26 9 -70 -15 -28 -15 -87 -47 -131 -71 -44 -24 -140 -76
-213 -116 -72 -39 -133 -69 -135 -65 -1 3 -2 201 -2 440 l1 433 90 47 c122 65
280 149 462 247 84 45 172 93 197 106 25 12 64 33 87 45 24 12 43 22 43 23 1
0 1 -138 0 -306z m-329 -1383 c5 -4 68 -39 139 -76 72 -38 245 -130 385 -205
140 -75 305 -163 367 -196 l112 -59 0 -546 -1 -547 -281 -150 c-155 -83 -311
-166 -347 -185 -214 -115 -262 -141 -327 -174 l-72 -37 -58 31 c-32 17 -153
81 -268 143 -255 137 -322 173 -445 238 -52 28 -129 68 -170 91 l-75 40 -2
546 -2 545 22 14 c20 12 288 156 572 307 55 29 123 65 150 80 28 15 95 50 150
79 55 29 104 56 110 61 12 11 28 12 41 0z m3846 -20 c62 -33 739 -395 876
-467 l92 -49 -2 -548 -3 -548 -75 -41 c-41 -22 -124 -66 -185 -98 -118 -62
-190 -100 -300 -160 -286 -155 -451 -240 -463 -240 -5 0 -41 17 -79 38 -37 22
-117 65 -178 97 -60 32 -132 70 -160 85 -60 33 -152 82 -260 140 -44 23 -111
59 -150 80 -38 21 -97 52 -130 70 l-60 32 0 546 0 546 230 124 c127 67 277
148 335 179 199 106 285 152 365 196 44 25 83 45 87 46 4 1 31 -12 60 -28z"/>
</g>
</svg>
