<svg width="80" height="80" viewBox="0 0 80 80" fill="none" xmlns="http://www.w3.org/2000/svg">
<mask id="mask0_47_16849" style="mask-type:luminance" maskUnits="userSpaceOnUse" x="15" y="0" width="60" height="80">
<path d="M75 0H15V80H75V0Z" fill="white"/>
</mask>
<g mask="url(#mask0_47_16849)">
<path opacity="0.5" d="M15 8C15 3.58172 18.5817 0 23 0H49L75 26V72C75 76.4183 71.4183 80 67 80H23C18.5817 80 15 76.4183 15 72V8Z" fill="#3873FF"/>
<path d="M55 26H75L49 0V20C49 23.3137 51.6863 26 55 26Z" fill="#3873FF"/>
</g>
<path d="M65 38H4C1.79086 38 0 39.7909 0 42V66C0 68.2091 1.79086 70 4 70H65C67.2091 70 69 68.2091 69 66V42C69 39.7909 67.2091 38 65 38Z" fill="#3873FF"/>
<path d="M11.9111 61H6.75482V46.4545H11.9537C13.4168 46.4545 14.6762 46.7457 15.7321 47.3281C16.788 47.9058 17.6 48.7367 18.1682 49.821C18.7411 50.9053 19.0276 52.2027 19.0276 53.7131C19.0276 55.2282 18.7411 56.5303 18.1682 57.6193C17.6 58.7083 16.7832 59.544 15.7179 60.1264C14.6573 60.7088 13.3884 61 11.9111 61ZM9.8301 58.3651H11.7832C12.6923 58.3651 13.457 58.2041 14.0773 57.8821C14.7023 57.5554 15.171 57.0511 15.4835 56.3693C15.8008 55.6828 15.9594 54.7973 15.9594 53.7131C15.9594 52.6383 15.8008 51.7599 15.4835 51.0781C15.171 50.3963 14.7046 49.8944 14.0844 49.5724C13.4641 49.2505 12.6994 49.0895 11.7903 49.0895H9.8301V58.3651ZM34.2721 53.7273C34.2721 55.3134 33.9714 56.6629 33.3701 57.7756C32.7735 58.8883 31.9591 59.7382 30.9269 60.3253C29.8995 60.9077 28.7442 61.1989 27.461 61.1989C26.1684 61.1989 25.0084 60.9053 23.9809 60.3182C22.9534 59.7311 22.1414 58.8812 21.5448 57.7685C20.9482 56.6558 20.6499 55.3087 20.6499 53.7273C20.6499 52.1411 20.9482 50.7917 21.5448 49.679C22.1414 48.5663 22.9534 47.7187 23.9809 47.1364C25.0084 46.5492 26.1684 46.2557 27.461 46.2557C28.7442 46.2557 29.8995 46.5492 30.9269 47.1364C31.9591 47.7187 32.7735 48.5663 33.3701 49.679C33.9714 50.7917 34.2721 52.1411 34.2721 53.7273ZM31.1542 53.7273C31.1542 52.6998 31.0003 51.8333 30.6925 51.1278C30.3895 50.4223 29.961 49.8873 29.407 49.5227C28.8531 49.1581 28.2044 48.9759 27.461 48.9759C26.7176 48.9759 26.069 49.1581 25.515 49.5227C24.961 49.8873 24.5301 50.4223 24.2224 51.1278C23.9193 51.8333 23.7678 52.6998 23.7678 53.7273C23.7678 54.7547 23.9193 55.6212 24.2224 56.3267C24.5301 57.0322 24.961 57.5672 25.515 57.9318C26.069 58.2964 26.7176 58.4787 27.461 58.4787C28.2044 58.4787 28.8531 58.2964 29.407 57.9318C29.961 57.5672 30.3895 57.0322 30.6925 56.3267C31.0003 55.6212 31.1542 54.7547 31.1542 53.7273ZM48.9839 51.5469H45.8732C45.8163 51.1444 45.7003 50.7869 45.5251 50.4744C45.35 50.1572 45.125 49.8873 44.8504 49.6648C44.5758 49.4422 44.2586 49.2718 43.8987 49.1534C43.5436 49.035 43.1577 48.9759 42.7411 48.9759C41.9882 48.9759 41.3324 49.1629 40.7737 49.5369C40.215 49.9062 39.7818 50.446 39.474 51.1562C39.1662 51.8617 39.0124 52.7187 39.0124 53.7273C39.0124 54.7642 39.1662 55.6354 39.474 56.3409C39.7865 57.0464 40.2221 57.5791 40.7808 57.9389C41.3395 58.2988 41.9858 58.4787 42.7197 58.4787C43.1317 58.4787 43.5128 58.4242 43.8632 58.3153C44.2183 58.2064 44.5332 58.0478 44.8078 57.8395C45.0824 57.6264 45.3097 57.3684 45.4896 57.0653C45.6743 56.7623 45.8021 56.4167 45.8732 56.0284L48.9839 56.0426C48.9035 56.7102 48.7022 57.3542 48.3803 57.9744C48.063 58.59 47.6345 59.1416 47.0947 59.6293C46.5597 60.1122 45.9205 60.4957 45.1771 60.7798C44.4385 61.0592 43.6028 61.1989 42.67 61.1989C41.3727 61.1989 40.2126 60.9053 39.1899 60.3182C38.1719 59.7311 37.367 58.8812 36.7751 57.7685C36.188 56.6558 35.8945 55.3087 35.8945 53.7273C35.8945 52.1411 36.1928 50.7917 36.7893 49.679C37.3859 48.5663 38.1956 47.7187 39.2183 47.1364C40.2411 46.5492 41.3916 46.2557 42.67 46.2557C43.5128 46.2557 44.2941 46.3741 45.0138 46.6108C45.7382 46.8475 46.3798 47.1932 46.9385 47.6477C47.4972 48.0975 47.9518 48.6491 48.3021 49.3026C48.6572 49.956 48.8845 50.7041 48.9839 51.5469ZM53.3602 46.4545L56.2935 51.4119H56.4071L59.3545 46.4545H62.8276L58.3886 53.7273L62.927 61H59.3901L56.4071 56.0355H56.2935L53.3105 61H49.7878L54.3403 53.7273L49.873 46.4545H53.3602Z" fill="white"/>
</svg>
