<svg width="80" height="80" viewBox="0 0 80 80" fill="none" xmlns="http://www.w3.org/2000/svg">
<mask id="mask0_47_16846" style="mask-type:luminance" maskUnits="userSpaceOnUse" x="15" y="0" width="60" height="80">
<path d="M75 0H15V80H75V0Z" fill="white"/>
</mask>
<g mask="url(#mask0_47_16846)">
<path opacity="0.5" d="M15 8C15 3.58172 18.5817 0 23 0H49L75 26V72C75 76.4183 71.4183 80 67 80H23C18.5817 80 15 76.4183 15 72V8Z" fill="#FF1607"/>
<path d="M55 26H75L49 0V20C49 23.3137 51.6863 26 55 26Z" fill="#FF1607"/>
</g>
<path d="M50 38H9C6.79086 38 5 39.7909 5 42V66C5 68.2091 6.79086 70 9 70H50C52.2091 70 54 68.2091 54 66V42C54 39.7909 52.2091 38 50 38Z" fill="#FF1607"/>
<path d="M11.5353 61V46.4545H17.2739C18.3772 46.4545 19.317 46.6652 20.0935 47.0866C20.8701 47.5033 21.4619 48.0833 21.8691 48.8267C22.281 49.5653 22.487 50.4176 22.487 51.3835C22.487 52.3494 22.2787 53.2017 21.862 53.9403C21.4453 54.679 20.8416 55.2543 20.0509 55.6662C19.2649 56.0781 18.3132 56.2841 17.1958 56.2841H13.5381V53.8196H16.6987C17.2905 53.8196 17.7782 53.7178 18.1617 53.5142C18.55 53.3059 18.8388 53.0194 19.0282 52.6548C19.2223 52.2855 19.3194 51.8617 19.3194 51.3835C19.3194 50.9006 19.2223 50.4792 19.0282 50.1193C18.8388 49.7547 18.55 49.473 18.1617 49.2741C17.7735 49.0705 17.281 48.9688 16.6844 48.9688H14.6106V61H11.5353ZM24.0845 61V46.4545H29.8232C30.9264 46.4545 31.8662 46.6652 32.6428 47.0866C33.4193 47.5033 34.0111 48.0833 34.4183 48.8267C34.8303 49.5653 35.0362 50.4176 35.0362 51.3835C35.0362 52.3494 34.8279 53.2017 34.4112 53.9403C33.9946 54.679 33.3909 55.2543 32.6001 55.6662C31.8142 56.0781 30.8625 56.2841 29.745 56.2841H26.0874V53.8196H29.2479C29.8397 53.8196 30.3274 53.7178 30.7109 53.5142C31.0992 53.3059 31.388 53.0194 31.5774 52.6548C31.7715 52.2855 31.8686 51.8617 31.8686 51.3835C31.8686 50.9006 31.7715 50.4792 31.5774 50.1193C31.388 49.7547 31.0992 49.473 30.7109 49.2741C30.3227 49.0705 29.8303 48.9688 29.2337 48.9688H27.1598V61H24.0845ZM36.0798 48.9901V46.4545H48.0258V48.9901H43.5727V61H40.5329V48.9901H36.0798Z" fill="white"/>
</svg>
