<svg viewBox="0 0 40 40" fill="none" xmlns="http://www.w3.org/2000/svg">
<mask id="mask0_772_25930" style="mask-type:luminance" maskUnits="userSpaceOnUse" x="7" y="0" width="31" height="40">
<path d="M37.5 0H7.5V40H37.5V0Z" fill="white"/>
</mask>
<g mask="url(#mask0_772_25930)">
<path opacity="0.5" d="M7.5 4C7.5 1.79086 9.29085 0 11.5 0H24.5L37.5 13V36C37.5 38.2091 35.7092 40 33.5 40H11.5C9.29085 40 7.5 38.2091 7.5 36V4Z" fill="#0DB664"/>
<path d="M27.5 13H37.5L24.5 0V10C24.5 11.6568 25.8432 13 27.5 13Z" fill="#0DB664"/>
</g>
<path d="M29.5 19H2.5C1.39543 19 0.5 19.8954 0.5 21V33C0.5 34.1046 1.39543 35 2.5 35H29.5C30.6046 35 31.5 34.1046 31.5 33V21C31.5 19.8954 30.6046 19 29.5 19Z" fill="#0DB664"/>
<path d="M5.11191 23.2273L6.57851 25.706H6.63536L8.10906 23.2273H9.84556L7.62611 26.8637L9.89531 30.5001H8.12681L6.63536 28.0178H6.57851L5.08706 30.5001H3.32568L5.60196 26.8637L3.36829 23.2273H5.11191ZM10.6186 30.5001V23.2273H12.1562V29.2323H15.2741V30.5001H10.6186ZM20.0377 25.319C20.0093 25.0325 19.8874 24.81 19.672 24.6514C19.4565 24.4927 19.1642 24.4134 18.7948 24.4134C18.5439 24.4134 18.332 24.4489 18.1592 24.52C17.9864 24.5886 17.8538 24.6845 17.7615 24.8076C17.6715 24.9307 17.6265 25.0704 17.6265 25.2266C17.6218 25.3568 17.649 25.4705 17.7082 25.5675C17.7697 25.6646 17.8538 25.7487 17.9603 25.8197C18.0669 25.8883 18.19 25.9487 18.3296 26.0008C18.4693 26.0505 18.6185 26.0931 18.7771 26.1286L19.4305 26.2849C19.7477 26.3559 20.0389 26.4506 20.3041 26.569C20.5692 26.6873 20.7989 26.8329 20.993 27.0058C21.1871 27.1786 21.3375 27.3822 21.444 27.6166C21.5529 27.8509 21.6085 28.1196 21.6109 28.4227C21.6085 28.8677 21.4949 29.2536 21.27 29.5803C21.0474 29.9047 20.7255 30.1568 20.3041 30.3367C19.885 30.5143 19.3796 30.6031 18.7877 30.6031C18.2006 30.6031 17.6893 30.5131 17.2536 30.3332C16.8204 30.1532 16.4819 29.8869 16.238 29.5342C15.9965 29.1791 15.8699 28.7399 15.858 28.2167H17.346C17.3625 28.4605 17.4324 28.6641 17.5555 28.8275C17.681 28.9885 17.8479 29.1104 18.0562 29.1933C18.2669 29.2737 18.5048 29.314 18.77 29.314C19.0304 29.314 19.2565 29.2761 19.4482 29.2004C19.6424 29.1246 19.7927 29.0193 19.8992 28.8843C20.0058 28.7494 20.059 28.5943 20.059 28.4191C20.059 28.2558 20.0105 28.1184 19.9134 28.0072C19.8188 27.8959 19.6791 27.8012 19.4944 27.7231C19.3121 27.645 19.0884 27.5739 18.8232 27.51L18.0313 27.3112C17.4182 27.162 16.934 26.9288 16.5789 26.6116C16.2238 26.2943 16.0474 25.867 16.0498 25.3296C16.0474 24.8893 16.1646 24.5046 16.4014 24.1755C16.6405 23.8464 16.9684 23.5896 17.385 23.4049C17.8017 23.2202 18.2752 23.1279 18.8055 23.1279C19.3453 23.1279 19.8164 23.2202 20.2188 23.4049C20.6237 23.5896 20.9385 23.8464 21.1634 24.1755C21.3884 24.5046 21.5044 24.8857 21.5115 25.319H20.0377ZM23.8869 23.2273L25.3535 25.706H25.4104L26.8841 23.2273H28.6206L26.4011 26.8637L28.6703 30.5001H26.9018L25.4104 28.0178H25.3535L23.8621 30.5001H22.1007L24.377 26.8637L22.1433 23.2273H23.8869Z" fill="white"/>
</svg>
