<svg width="80" height="80" viewBox="0 0 80 80" fill="none" xmlns="http://www.w3.org/2000/svg">
<mask id="mask0_47_16844" style="mask-type:luminance" maskUnits="userSpaceOnUse" x="15" y="0" width="60" height="80">
<path d="M75 0H15V80H75V0Z" fill="white"/>
</mask>
<g mask="url(#mask0_47_16844)">
<path opacity="0.5" d="M15 8C15 3.58172 18.5817 0 23 0H49L75 26V72C75 76.4183 71.4183 80 67 80H23C18.5817 80 15 76.4183 15 72V8Z" fill="#FFBA35"/>
<path d="M55 26H75L49 0V20C49 23.3137 51.6863 26 55 26Z" fill="#FFBA35"/>
</g>
<path d="M34 0H28V6H34V0Z" fill="#FFBA35"/>
<path d="M34 12H28V18H34V12Z" fill="#FFBA35"/>
<path d="M34 24H28V30H34V24Z" fill="#FFBA35"/>
<path d="M34 36H28V42H34V36Z" fill="#FFBA35"/>
<path d="M40 6H34V12H40V6Z" fill="#FFBA35"/>
<path d="M40 18H34V24H40V18Z" fill="#FFBA35"/>
<path d="M40 30H34V36H40V30Z" fill="#FFBA35"/>
<path d="M43 38H9C6.79086 38 5 39.7909 5 42V66C5 68.2091 6.79086 70 9 70H43C45.2091 70 47 68.2091 47 66V42C47 39.7909 45.2091 38 43 38Z" fill="#FFBA35"/>
<path d="M11.5607 61V59.1747L18.8192 48.9901H11.5465V46.4545H22.6828V48.2798L15.4172 58.4645H22.6971V61H11.5607ZM27.7321 46.4545V61H24.6568V46.4545H27.7321ZM29.8623 61V46.4545H35.6009C36.7041 46.4545 37.644 46.6652 38.4205 47.0866C39.197 47.5033 39.7889 48.0833 40.1961 48.8267C40.608 49.5653 40.814 50.4176 40.814 51.3835C40.814 52.3494 40.6056 53.2017 40.189 53.9403C39.7723 54.679 39.1686 55.2543 38.3779 55.6662C37.5919 56.0781 36.6402 56.2841 35.5228 56.2841H31.8651V53.8196H35.0256C35.6175 53.8196 36.1051 53.7178 36.4887 53.5142C36.8769 53.3059 37.1658 53.0194 37.3551 52.6548C37.5493 52.2855 37.6463 51.8617 37.6463 51.3835C37.6463 50.9006 37.5493 50.4792 37.3551 50.1193C37.1658 49.7547 36.8769 49.473 36.4887 49.2741C36.1004 49.0705 35.608 48.9688 35.0114 48.9688H32.9375V61H29.8623Z" fill="#344054"/>
</svg>
