<svg width="80" height="80" viewBox="0 0 80 80" fill="none" xmlns="http://www.w3.org/2000/svg">
<mask id="mask0_47_16851" style="mask-type:luminance" maskUnits="userSpaceOnUse" x="15" y="0" width="60" height="80">
<path d="M75 0H15V80H75V0Z" fill="white"/>
</mask>
<g mask="url(#mask0_47_16851)">
<path opacity="0.5" d="M15 8C15 3.58172 18.5817 0 23 0H49L75 26V72C75 76.4183 71.4183 80 67 80H23C18.5817 80 15 76.4183 15 72V8Z" fill="#0DB664"/>
<path d="M55 26H75L49 0V20C49 23.3137 51.6863 26 55 26Z" fill="#0DB664"/>
</g>
<path d="M54 38H9C6.79086 38 5 39.7909 5 42V66C5 68.2091 6.79086 70 9 70H54C56.2091 70 58 68.2091 58 66V42C58 39.7909 56.2091 38 54 38Z" fill="#0DB664"/>
<path d="M24.4453 51.5469H21.3345C21.2777 51.1444 21.1617 50.7869 20.9865 50.4744C20.8113 50.1572 20.5864 49.8873 20.3118 49.6648C20.0371 49.4422 19.7199 49.2718 19.36 49.1534C19.0049 49.035 18.619 48.9759 18.2024 48.9759C17.4495 48.9759 16.7938 49.1629 16.235 49.5369C15.6763 49.9062 15.2431 50.446 14.9353 51.1562C14.6276 51.8617 14.4737 52.7187 14.4737 53.7273C14.4737 54.7642 14.6276 55.6354 14.9353 56.3409C15.2478 57.0464 15.6834 57.5791 16.2422 57.9389C16.8009 58.2988 17.4472 58.4787 18.1811 58.4787C18.593 58.4787 18.9742 58.4242 19.3245 58.3153C19.6797 58.2064 19.9945 58.0478 20.2691 57.8395C20.5438 57.6264 20.771 57.3684 20.951 57.0653C21.1356 56.7623 21.2635 56.4167 21.3345 56.0284L24.4453 56.0426C24.3648 56.7102 24.1636 57.3542 23.8416 57.9744C23.5243 58.59 23.0958 59.1416 22.5561 59.6293C22.021 60.1122 21.3818 60.4957 20.6385 60.7798C19.8998 61.0592 19.0641 61.1989 18.1314 61.1989C16.834 61.1989 15.674 60.9053 14.6512 60.3182C13.6333 59.7311 12.8283 58.8812 12.2365 57.7685C11.6493 56.6558 11.3558 55.3087 11.3558 53.7273C11.3558 52.1411 11.6541 50.7917 12.2507 49.679C12.8473 48.5663 13.6569 47.7187 14.6797 47.1364C15.7024 46.5492 16.8529 46.2557 18.1314 46.2557C18.9742 46.2557 19.7554 46.3741 20.4751 46.6108C21.1995 46.8475 21.8411 47.1932 22.3998 47.6477C22.9585 48.0975 23.4131 48.6491 23.7635 49.3026C24.1186 49.956 24.3458 50.7041 24.4453 51.5469ZM34.1412 50.6378C34.0843 50.0649 33.8405 49.6198 33.4096 49.3026C32.9788 48.9853 32.394 48.8267 31.6554 48.8267C31.1535 48.8267 30.7297 48.8977 30.3841 49.0398C30.0384 49.1771 29.7733 49.3688 29.5886 49.6151C29.4087 49.8613 29.3187 50.1406 29.3187 50.4531C29.3092 50.7135 29.3637 50.9408 29.4821 51.1349C29.6052 51.3291 29.7733 51.4972 29.9863 51.6392C30.1994 51.7765 30.4456 51.8973 30.725 52.0014C31.0043 52.1009 31.3026 52.1861 31.6199 52.2571L32.9267 52.5696C33.5611 52.7116 34.1435 52.901 34.6738 53.1378C35.2041 53.3745 35.6634 53.6657 36.0517 54.0114C36.4399 54.357 36.7406 54.7642 36.9537 55.233C37.1715 55.7017 37.2827 56.2391 37.2875 56.8452C37.2827 57.7353 37.0555 58.5071 36.6056 59.1605C36.1606 59.8092 35.5166 60.3134 34.6738 60.6733C33.8358 61.0284 32.8249 61.206 31.6412 61.206C30.4669 61.206 29.4442 61.026 28.573 60.6662C27.7065 60.3063 27.0294 59.7737 26.5417 59.0682C26.0588 58.358 25.8055 57.4796 25.7818 56.4332H28.7576C28.7908 56.9209 28.9305 57.3281 29.1767 57.6548C29.4276 57.9768 29.7614 58.2206 30.1781 58.3864C30.5995 58.5473 31.0753 58.6278 31.6056 58.6278C32.1265 58.6278 32.5787 58.5521 32.9622 58.4006C33.3504 58.2491 33.6511 58.0384 33.8642 57.7685C34.0772 57.4986 34.1838 57.1884 34.1838 56.8381C34.1838 56.5114 34.0867 56.2367 33.8926 56.0142C33.7032 55.7917 33.4238 55.6023 33.0545 55.446C32.6899 55.2898 32.2425 55.1477 31.7122 55.0199L30.1284 54.6222C28.902 54.3239 27.9338 53.8575 27.2235 53.223C26.5133 52.5885 26.1606 51.7339 26.1653 50.6591C26.1606 49.7784 26.3949 49.009 26.8684 48.3509C27.3467 47.6927 28.0024 47.179 28.8358 46.8097C29.6691 46.4403 30.6161 46.2557 31.6767 46.2557C32.7562 46.2557 33.6984 46.4403 34.5034 46.8097C35.313 47.179 35.9428 47.6927 36.3926 48.3509C36.8424 49.009 37.0744 49.7713 37.0886 50.6378H34.1412ZM41.5838 46.4545L45.0995 57.5057H45.2344L48.7571 46.4545H52.1662L47.152 61H43.189L38.1676 46.4545H41.5838Z" fill="white"/>
</svg>
