<svg width="80" height="80" viewBox="0 0 80 80" fill="none" xmlns="http://www.w3.org/2000/svg">
<mask id="mask0_47_16845" style="mask-type:luminance" maskUnits="userSpaceOnUse" x="15" y="0" width="60" height="80">
<path d="M75 0H15V80H75V0Z" fill="white"/>
</mask>
<g mask="url(#mask0_47_16845)">
<path opacity="0.5" d="M15 8C15 3.58172 18.5817 0 23 0H49L75 26V72C75 76.4183 71.4183 80 67 80H23C18.5817 80 15 76.4183 15 72V8Z" fill="#0DB664"/>
<path d="M55 26H75L49 0V20C49 23.3137 51.6863 26 55 26Z" fill="#0DB664"/>
</g>
<path d="M49 38H9C6.79086 38 5 39.7909 5 42V66C5 68.2091 6.79086 70 9 70H49C51.2091 70 53 68.2091 53 66V42C53 39.7909 51.2091 38 49 38Z" fill="#0DB664"/>
<path d="M14.1727 46.4545L17.106 51.4119H17.2196L20.167 46.4545H23.6401L19.2011 53.7273L23.7395 61H20.2026L17.2196 56.0355H17.106L14.123 61H10.6003L15.1528 53.7273L10.6855 46.4545H14.1727ZM25.1861 61V46.4545H28.2614V58.4645H34.4972V61H25.1861ZM44.0244 50.6378C43.9675 50.0649 43.7237 49.6198 43.2928 49.3026C42.862 48.9853 42.2772 48.8267 41.5386 48.8267C41.0367 48.8267 40.6129 48.8977 40.2673 49.0398C39.9216 49.1771 39.6565 49.3688 39.4718 49.6151C39.2919 49.8613 39.2019 50.1406 39.2019 50.4531C39.1924 50.7135 39.2469 50.9408 39.3653 51.1349C39.4884 51.3291 39.6565 51.4972 39.8695 51.6392C40.0826 51.7765 40.3288 51.8973 40.6082 52.0014C40.8875 52.1009 41.1858 52.1861 41.5031 52.2571L42.8099 52.5696C43.4443 52.7116 44.0267 52.901 44.557 53.1378C45.0873 53.3745 45.5466 53.6657 45.9349 54.0114C46.3231 54.357 46.6238 54.7642 46.8369 55.233C47.0547 55.7017 47.1659 56.2391 47.1707 56.8452C47.1659 57.7353 46.9387 58.5071 46.4889 59.1605C46.0438 59.8092 45.3998 60.3134 44.557 60.6733C43.719 61.0284 42.7081 61.206 41.5244 61.206C40.3501 61.206 39.3274 61.026 38.4562 60.6662C37.5897 60.3063 36.9126 59.7737 36.4249 59.0682C35.942 58.358 35.6887 57.4796 35.665 56.4332H38.6408C38.674 56.9209 38.8137 57.3281 39.0599 57.6548C39.3108 57.9768 39.6446 58.2206 40.0613 58.3864C40.4827 58.5473 40.9585 58.6278 41.4888 58.6278C42.0097 58.6278 42.4619 58.5521 42.8454 58.4006C43.2336 58.2491 43.5343 58.0384 43.7474 57.7685C43.9604 57.4986 44.067 57.1884 44.067 56.8381C44.067 56.5114 43.9699 56.2367 43.7758 56.0142C43.5864 55.7917 43.307 55.6023 42.9377 55.446C42.5731 55.2898 42.1257 55.1477 41.5954 55.0199L40.0116 54.6222C38.7853 54.3239 37.817 53.8575 37.1067 53.223C36.3965 52.5885 36.0438 51.7339 36.0485 50.6591C36.0438 49.7784 36.2781 49.009 36.7516 48.3509C37.2299 47.6927 37.8856 47.179 38.719 46.8097C39.5523 46.4403 40.4993 46.2557 41.5599 46.2557C42.6394 46.2557 43.5817 46.4403 44.3866 46.8097C45.1962 47.179 45.826 47.6927 46.2758 48.3509C46.7256 49.009 46.9576 49.7713 46.9718 50.6378H44.0244Z" fill="white"/>
</svg>
