<svg viewBox="0 0 40 40" fill="none" xmlns="http://www.w3.org/2000/svg" width="80" height="80">
<mask id="mask0_772_21598" style="mask-type:luminance" maskUnits="userSpaceOnUse" x="7" y="0" width="31" height="40">
<path d="M37.5 0H7.5V40H37.5V0Z" fill="white"/>
</mask>
<g mask="url(#mask0_772_21598)">
<path opacity="0.5" d="M7.5 4C7.5 1.79086 9.29085 0 11.5 0H24.5L37.5 13V36C37.5 38.2091 35.7092 40 33.5 40H11.5C9.29085 40 7.5 38.2091 7.5 36V4Z" fill="#3873FF"/>
<path d="M27.5 13H37.5L24.5 0V10C24.5 11.6568 25.8432 13 27.5 13Z" fill="#3873FF"/>
</g>
<path d="M28 19H4.5C3.39543 19 2.5 19.8954 2.5 21V33C2.5 34.1046 3.39543 35 4.5 35H28C29.1046 35 30 34.1046 30 33V21C30 19.8954 29.1046 19 28 19Z" fill="#3873FF"/>
<path d="M8.35159 30.5001H5.77344V23.2273H8.37289C9.10439 23.2273 9.73414 23.3729 10.2621 23.6641C10.79 23.953 11.196 24.3684 11.4801 24.9106C11.7666 25.4527 11.9098 26.1014 11.9098 26.8566C11.9098 27.6142 11.7666 28.2652 11.4801 28.8097C11.196 29.3542 10.7876 29.7721 10.255 30.0633C9.72469 30.3545 9.09019 30.5001 8.35159 30.5001ZM7.31109 29.1826H8.28764C8.74219 29.1826 9.12454 29.1021 9.43469 28.9411C9.74719 28.7778 9.98154 28.5256 10.1378 28.1847C10.2964 27.8415 10.3757 27.3987 10.3757 26.8566C10.3757 26.3192 10.2964 25.88 10.1378 25.5391C9.98154 25.1982 9.74834 24.9473 9.43824 24.7863C9.12809 24.6253 8.74574 24.5448 8.29119 24.5448H7.31109V29.1826ZM19.5321 26.8637C19.5321 27.6568 19.3817 28.3315 19.0811 28.8879C18.7828 29.4442 18.3756 29.8692 17.8595 30.1627C17.3457 30.4539 16.7681 30.5995 16.1265 30.5995C15.4802 30.5995 14.9002 30.4527 14.3865 30.1592C13.8727 29.8656 13.4667 29.4407 13.1684 28.8843C12.8701 28.328 12.721 27.6544 12.721 26.8637C12.721 26.0706 12.8701 25.3959 13.1684 24.8396C13.4667 24.2832 13.8727 23.8594 14.3865 23.5683C14.9002 23.2747 15.4802 23.1279 16.1265 23.1279C16.7681 23.1279 17.3457 23.2747 17.8595 23.5683C18.3756 23.8594 18.7828 24.2832 19.0811 24.8396C19.3817 25.3959 19.5321 26.0706 19.5321 26.8637ZM17.9731 26.8637C17.9731 26.35 17.8962 25.9167 17.7423 25.564C17.5908 25.2112 17.3765 24.9437 17.0995 24.7614C16.8225 24.5791 16.4982 24.488 16.1265 24.488C15.7548 24.488 15.4305 24.5791 15.1535 24.7614C14.8765 24.9437 14.6611 25.2112 14.5072 25.564C14.3557 25.9167 14.2799 26.35 14.2799 26.8637C14.2799 27.3774 14.3557 27.8107 14.5072 28.1634C14.6611 28.5162 14.8765 28.7837 15.1535 28.966C15.4305 29.1483 15.7548 29.2394 16.1265 29.2394C16.4982 29.2394 16.8225 29.1483 17.0995 28.966C17.3765 28.7837 17.5908 28.5162 17.7423 28.1634C17.8962 27.8107 17.9731 27.3774 17.9731 26.8637ZM26.888 25.7735H25.3326C25.3042 25.5723 25.2462 25.3935 25.1586 25.2373C25.071 25.0787 24.9585 24.9437 24.8212 24.8325C24.6839 24.7212 24.5253 24.636 24.3454 24.5768C24.1678 24.5176 23.9749 24.488 23.7665 24.488C23.3901 24.488 23.0622 24.5815 22.7829 24.7685C22.5035 24.9532 22.2869 25.2231 22.133 25.5782C21.9791 25.9309 21.9022 26.3594 21.9022 26.8637C21.9022 27.3822 21.9791 27.8178 22.133 28.1705C22.2893 28.5233 22.5071 28.7896 22.7864 28.9695C23.0658 29.1495 23.3889 29.2394 23.7559 29.2394C23.9619 29.2394 24.1524 29.2122 24.3276 29.1577C24.5052 29.1033 24.6626 29.024 24.7999 28.9198C24.9372 28.8133 25.0509 28.6843 25.1408 28.5327C25.2332 28.3812 25.2971 28.2084 25.3326 28.0143L26.888 28.0214C26.8477 28.3552 26.7471 28.6772 26.5861 28.9873C26.4275 29.2951 26.2133 29.5709 25.9434 29.8147C25.6759 30.0562 25.3563 30.2479 24.9846 30.39C24.6153 30.5297 24.1974 30.5995 23.731 30.5995C23.0824 30.5995 22.5023 30.4527 21.991 30.1592C21.482 29.8656 21.0795 29.4407 20.7836 28.8843C20.49 28.328 20.3432 27.6544 20.3432 26.8637C20.3432 26.0706 20.4924 25.3959 20.7907 24.8396C21.089 24.2832 21.4938 23.8594 22.0052 23.5683C22.5165 23.2747 23.0918 23.1279 23.731 23.1279C24.1524 23.1279 24.5431 23.1871 24.9029 23.3055C25.2651 23.4238 25.5859 23.5967 25.8653 23.8239C26.1446 24.0488 26.3719 24.3246 26.5471 24.6514C26.7246 24.9781 26.8383 25.3521 26.888 25.7735Z" fill="white"/>
</svg>
