<svg width="80" height="80" viewBox="0 0 80 80" fill="none" xmlns="http://www.w3.org/2000/svg">
<mask id="mask0_888_52798" style="mask-type:luminance" maskUnits="userSpaceOnUse" x="15" y="0" width="60" height="80">
<path d="M75 0H15V80H75V0Z" fill="white"/>
</mask>
<g mask="url(#mask0_888_52798)">
<path opacity="0.5" d="M15 8C15 3.58172 18.5817 0 23 0H49L75 26V72C75 76.4183 71.4183 80 67 80H23C18.5817 80 15 76.4183 15 72V8Z" fill="#E7E7E9"/>
<path d="M55 26H75L49 0V20C49 23.3137 51.6863 26 55 26Z" fill="#CECECE"/>
</g>
<rect x="5" y="65" width="55" height="6" rx="3" fill="#CECECE"/>
<rect x="5" y="56" width="55" height="6" rx="3" fill="#CECECE"/>
<rect x="5" y="38" width="55" height="6" rx="3" fill="#CECECE"/>
<rect x="5" y="47" width="55" height="6" rx="3" fill="#CECECE"/>
</svg>
